<svg width="400" height="355" viewBox="0 0 400 355" fill="none" xmlns="http://www.w3.org/2000/svg">
    <rect x="0.5" y="0.5" width="399" height="354" rx="19.5" fill="#313131"/>
    <rect x="0.5" y="0.5" width="399" height="354" rx="19.5" stroke="url(#paint0_linear_11_518)"/>
    <path d="M26.9425 25.1811H25.6143C25.5765 24.9633 25.5066 24.7704 25.4048 24.6023C25.303 24.4318 25.1764 24.2874 25.0249 24.169C24.8733 24.0507 24.7005 23.9619 24.5064 23.9027C24.3146 23.8411 24.1075 23.8104 23.8849 23.8104C23.4896 23.8104 23.1392 23.9098 22.8338 24.1087C22.5284 24.3052 22.2893 24.594 22.1165 24.9751C21.9437 25.3539 21.8572 25.8168 21.8572 26.3636C21.8572 26.92 21.9437 27.3887 22.1165 27.7699C22.2917 28.1487 22.5308 28.4351 22.8338 28.6293C23.1392 28.821 23.4884 28.9169 23.8814 28.9169C24.0992 28.9169 24.3028 28.8885 24.4922 28.8317C24.6839 28.7725 24.8556 28.6861 25.0071 28.5724C25.161 28.4588 25.29 28.3191 25.3942 28.1534C25.5007 27.9877 25.5741 27.7983 25.6143 27.5852L26.9425 27.5923C26.8928 27.938 26.785 28.2623 26.6193 28.5653C26.456 28.8684 26.2417 29.1359 25.9766 29.3679C25.7114 29.5975 25.4013 29.7775 25.0462 29.9077C24.6911 30.0355 24.2969 30.0994 23.8636 30.0994C23.2244 30.0994 22.6539 29.9515 22.152 29.6555C21.6501 29.3596 21.2547 28.9323 20.9659 28.3736C20.6771 27.8149 20.5327 27.1449 20.5327 26.3636C20.5327 25.58 20.6783 24.91 20.9695 24.3537C21.2607 23.795 21.6572 23.3677 22.1591 23.0717C22.661 22.7758 23.2292 22.6278 23.8636 22.6278C24.2685 22.6278 24.6449 22.6847 24.9929 22.7983C25.3409 22.9119 25.651 23.0788 25.9233 23.299C26.1955 23.5168 26.4193 23.7843 26.5945 24.1016C26.772 24.4164 26.888 24.7763 26.9425 25.1811ZM36.4476 26.3636C36.4476 27.1473 36.3008 27.8184 36.0072 28.3771C35.716 28.9335 35.3183 29.3596 34.814 29.6555C34.3121 29.9515 33.7428 30.0994 33.1059 30.0994C32.4691 30.0994 31.8985 29.9515 31.3943 29.6555C30.8924 29.3572 30.4947 28.9299 30.2011 28.3736C29.9099 27.8149 29.7643 27.1449 29.7643 26.3636C29.7643 25.58 29.9099 24.91 30.2011 24.3537C30.4947 23.795 30.8924 23.3677 31.3943 23.0717C31.8985 22.7758 32.4691 22.6278 33.1059 22.6278C33.7428 22.6278 34.3121 22.7758 34.814 23.0717C35.3183 23.3677 35.716 23.795 36.0072 24.3537C36.3008 24.91 36.4476 25.58 36.4476 26.3636ZM35.123 26.3636C35.123 25.812 35.0366 25.3468 34.8637 24.968C34.6933 24.5869 34.4565 24.2992 34.1535 24.1051C33.8505 23.9086 33.5013 23.8104 33.1059 23.8104C32.7106 23.8104 32.3614 23.9086 32.0583 24.1051C31.7553 24.2992 31.5174 24.5869 31.3446 24.968C31.1741 25.3468 31.0889 25.812 31.0889 26.3636C31.0889 26.9152 31.1741 27.3816 31.3446 27.7628C31.5174 28.1416 31.7553 28.4292 32.0583 28.6257C32.3614 28.8198 32.7106 28.9169 33.1059 28.9169C33.5013 28.9169 33.8505 28.8198 34.1535 28.6257C34.4565 28.4292 34.6933 28.1416 34.8637 27.7628C35.0366 27.3816 35.123 26.9152 35.123 26.3636ZM45.4697 22.7273V30H44.2978L40.871 25.0462H40.8106V30H39.4931V22.7273H40.6721L44.0954 27.6847H44.1593V22.7273H45.4697ZM54.6818 22.7273V30H53.5099L50.0831 25.0462H50.0227V30H48.7052V22.7273H49.8842L53.3075 27.6847H53.3714V22.7273H54.6818ZM57.9173 30V22.7273H62.6474V23.8317H59.2348V25.8061H62.4024V26.9105H59.2348V28.8956H62.6759V30H57.9173ZM72.0167 25.1811H70.6886C70.6507 24.9633 70.5808 24.7704 70.479 24.6023C70.3772 24.4318 70.2506 24.2874 70.0991 24.169C69.9476 24.0507 69.7747 23.9619 69.5806 23.9027C69.3888 23.8411 69.1817 23.8104 68.9592 23.8104C68.5638 23.8104 68.2134 23.9098 67.908 24.1087C67.6026 24.3052 67.3635 24.594 67.1907 24.9751C67.0179 25.3539 66.9315 25.8168 66.9315 26.3636C66.9315 26.92 67.0179 27.3887 67.1907 27.7699C67.3659 28.1487 67.605 28.4351 67.908 28.6293C68.2134 28.821 68.5626 28.9169 68.9556 28.9169C69.1734 28.9169 69.377 28.8885 69.5664 28.8317C69.7582 28.7725 69.9298 28.6861 70.0813 28.5724C70.2352 28.4588 70.3642 28.3191 70.4684 28.1534C70.5749 27.9877 70.6483 27.7983 70.6886 27.5852L72.0167 27.5923C71.967 27.938 71.8593 28.2623 71.6935 28.5653C71.5302 28.8684 71.3159 29.1359 71.0508 29.3679C70.7856 29.5975 70.4755 29.7775 70.1204 29.9077C69.7653 30.0355 69.3711 30.0994 68.9379 30.0994C68.2987 30.0994 67.7281 29.9515 67.2262 29.6555C66.7243 29.3596 66.329 28.9323 66.0401 28.3736C65.7513 27.8149 65.6069 27.1449 65.6069 26.3636C65.6069 25.58 65.7525 24.91 66.0437 24.3537C66.3349 23.795 66.7314 23.3677 67.2333 23.0717C67.7352 22.7758 68.3034 22.6278 68.9379 22.6278C69.3427 22.6278 69.7191 22.6847 70.0671 22.7983C70.4151 22.9119 70.7253 23.0788 70.9975 23.299C71.2698 23.5168 71.4935 23.7843 71.6687 24.1016C71.8462 24.4164 71.9622 24.7763 72.0167 25.1811ZM74.7036 23.8317V22.7273H80.5061V23.8317H78.2583V30H76.9515V23.8317H74.7036Z" fill="#888888"/>
    <rect x="20.5" y="50.5" width="359" height="47" rx="23.5" stroke="url(#paint1_linear_11_518)"/>
    <g clip-path="url(#clip0_11_518)">
        <path d="M43.7135 56.7201H43.8474C47.0759 56.7201 50.097 57.6028 52.6847 59.1393L52.6055 59.0946C55.2997 60.67 57.4813 62.8516 59.012 65.4623L59.0567 65.5458C60.5543 68.0932 61.4384 71.1561 61.4384 74.4249C61.4384 82.2095 56.4229 88.8249 49.4475 91.2124L49.3223 91.2498C49.2315 91.2786 49.1279 91.2945 49.0213 91.2945C48.788 91.2945 48.572 91.2167 48.3978 91.0871L48.4007 91.0886C48.2163 90.923 48.1011 90.6839 48.1011 90.4175C48.1011 90.4103 48.1011 90.4031 48.1011 90.3973V90.3988C48.1011 90.3527 48.105 89.7642 48.1127 88.6333C48.1203 87.5025 48.1242 86.4685 48.1242 85.5316C48.1343 85.4236 48.14 85.2997 48.14 85.173C48.14 84.0325 47.6749 83.0015 46.9247 82.257C47.8146 82.1692 48.6181 82.0223 49.3986 81.8178L49.2891 81.8423C50.1143 81.6119 50.8343 81.3052 51.5024 80.9178L51.4578 80.9423C52.1893 80.5391 52.8085 80.0265 53.3183 79.4188L53.3269 79.4087C53.8626 78.7233 54.2816 77.9169 54.5365 77.0399L54.5495 76.9895C54.8504 76.006 55.0232 74.8756 55.0232 73.7049C55.0232 73.6401 55.0232 73.5738 55.0218 73.509V73.5191C55.0218 73.4874 55.0232 73.4514 55.0232 73.4154C55.0232 71.6183 54.3291 69.9839 53.1959 68.7642L53.2002 68.7685C53.4421 68.1349 53.5818 67.4034 53.5818 66.6388C53.5818 65.7042 53.373 64.8201 53 64.0266L53.0159 64.0641C52.8503 64.0324 52.6616 64.0137 52.4672 64.0137C51.9863 64.0137 51.5327 64.126 51.1295 64.3247L51.1467 64.3175C50.3288 64.6199 49.629 64.9626 48.9695 65.3629L49.0242 65.3313L48.1472 65.8842C46.8195 65.5041 45.2946 65.2852 43.7192 65.2852C42.1439 65.2852 40.6189 65.5041 39.1731 65.913L39.2898 65.8842C39.044 65.7153 38.7171 65.5074 38.3091 65.2607C37.772 64.9525 37.137 64.6545 36.4775 64.4039L36.3824 64.3722C35.9605 64.1505 35.4608 64.0209 34.9295 64.0209C34.7509 64.0209 34.5752 64.0353 34.4053 64.0641L34.424 64.0612C34.0669 64.8157 33.8581 65.7013 33.8581 66.6359C33.8581 67.4005 33.9978 68.1335 34.2541 68.8089L34.2397 68.7671C33.1093 69.9825 32.4167 71.6169 32.4167 73.414C32.4167 73.45 32.4167 73.4874 32.4181 73.5234V73.5177C32.4167 73.5738 32.4167 73.6386 32.4167 73.7049C32.4167 74.8698 32.5895 75.9959 32.912 77.0557L32.8904 76.9737C33.1626 77.8996 33.5759 78.7045 34.1144 79.4116L34.1015 79.3929C34.6112 80.0193 35.2275 80.5348 35.9259 80.9221L35.9576 80.938C36.5797 81.3009 37.3011 81.6076 38.06 81.8221L38.1263 81.838C38.7973 82.018 39.6008 82.1649 40.4231 82.2469L40.4893 82.2527C39.8687 82.869 39.4554 83.6927 39.3603 84.6114L39.3589 84.6287C39.0608 84.7741 38.7138 84.8922 38.3523 84.9685L38.3221 84.9743C37.9535 85.0477 37.5315 85.0895 37.0981 85.0895C37.0664 85.0895 37.0347 85.0895 37.0031 85.0895H37.0074C36.44 85.078 35.9187 84.8937 35.4882 84.5884L35.4968 84.5941C34.9626 84.2212 34.5306 83.7373 34.2282 83.1743L34.2181 83.1527C33.933 82.6689 33.5571 82.2685 33.1122 81.9618L33.0992 81.9532C32.7752 81.7098 32.3936 81.5197 31.9818 81.406L31.9587 81.4002L31.4979 81.3311C31.4648 81.3282 31.4259 81.3268 31.3871 81.3268C31.1855 81.3268 30.9939 81.3671 30.8197 81.4377L30.8298 81.4333C30.7069 81.5025 30.6685 81.5908 30.7146 81.6983C30.7707 81.8221 30.8399 81.9287 30.9234 82.0223L30.9219 82.0209C31.0098 82.1245 31.1091 82.2153 31.2171 82.2945L31.2215 82.2973L31.3827 82.4125C31.7903 82.6257 32.1258 82.9223 32.3807 83.2809L32.3864 83.2895C32.6615 83.6308 32.9034 84.0167 33.0978 84.43L33.1122 84.4645L33.3426 84.9945C33.537 85.5733 33.8898 86.0572 34.3506 86.4071L34.3578 86.4129C34.7898 86.7498 35.3111 86.9917 35.8799 87.1012L35.9029 87.1041C36.3781 87.1962 36.9311 87.2538 37.4955 87.2653H37.5056C37.5704 87.2682 37.6453 87.2682 37.7216 87.2682C38.0975 87.2682 38.4661 87.238 38.8261 87.1789L38.7872 87.1847L39.3171 87.0925C39.3171 87.6772 39.321 88.3578 39.3287 89.1345C39.3363 89.9111 39.3402 90.3301 39.3402 90.3916V90.4117C39.3402 90.6781 39.225 90.9172 39.0407 91.0828C38.8693 91.2109 38.6533 91.2887 38.4186 91.2887C38.3106 91.2887 38.2069 91.2729 38.1104 91.2426L38.1176 91.2441C31.0199 88.8119 26.0087 82.1965 26.0087 74.4105C26.0087 71.1445 26.8899 68.0845 28.4293 65.4551L28.3832 65.5386C29.9586 62.8444 32.1402 60.6628 34.7509 59.1321L34.8344 59.0874C37.3386 57.5985 40.3568 56.7186 43.5795 56.7186H43.7207H43.7135V56.7201ZM32.7119 82.1591C32.7579 82.0516 32.7042 81.9594 32.5506 81.8826C32.397 81.8365 32.2971 81.8519 32.2511 81.9287C32.205 82.0362 32.2587 82.1284 32.4123 82.2052C32.5506 82.2973 32.6504 82.282 32.7119 82.1591ZM33.4275 82.9439C33.5351 82.8671 33.5197 82.7442 33.3815 82.5753C33.2279 82.437 33.105 82.414 33.0128 82.5061C32.9053 82.5829 32.9207 82.7058 33.0589 82.8748C33.2115 83.0255 33.3344 83.0481 33.4275 82.9425V82.9439ZM34.1187 83.9807C34.257 83.8732 34.257 83.7273 34.1187 83.5429C33.9959 83.3433 33.8653 83.2972 33.7271 83.4047C33.5888 83.4815 33.5888 83.6197 33.7271 83.8194C33.8653 84.0191 33.9959 84.0729 34.1187 83.9807ZM35.0864 84.9498C35.2093 84.8269 35.1786 84.681 34.9943 84.5121C34.8099 84.3277 34.6563 84.3047 34.5335 84.4429C34.3952 84.5658 34.4259 84.7117 34.6256 84.8807C34.8099 85.065 34.9635 85.0861 35.0864 84.9441V84.9498ZM36.4011 85.5258C36.4472 85.3569 36.3474 85.234 36.1016 85.1572C35.8712 85.0957 35.7253 85.1495 35.6639 85.3185C35.6024 85.4874 35.7023 85.6026 35.9634 85.6641C36.1938 85.7572 36.3397 85.7111 36.4011 85.5258ZM37.8541 85.641C37.8541 85.4413 37.7235 85.3569 37.4624 85.3876C37.2167 85.3876 37.0938 85.4721 37.0938 85.641C37.0938 85.8407 37.2243 85.9252 37.4855 85.8945C37.7312 85.8954 37.8541 85.81 37.8541 85.641ZM39.1919 85.4106C39.1611 85.2417 39.0229 85.1726 38.7771 85.2033C38.5314 85.2493 38.4239 85.3645 38.4546 85.5489C38.4853 85.7332 38.6235 85.7946 38.8693 85.7332C39.1151 85.6717 39.2216 85.5642 39.1919 85.4106Z" fill="white"/>
    </g>
    <path d="M81.1534 71.5398C81.0436 71.1951 80.8958 70.8864 80.7102 70.6136C80.5284 70.3371 80.3106 70.1023 80.0568 69.9091C79.803 69.7121 79.5133 69.5625 79.1875 69.4602C78.8655 69.358 78.5114 69.3068 78.125 69.3068C77.4697 69.3068 76.8788 69.4754 76.3523 69.8125C75.8258 70.1496 75.4091 70.6439 75.1023 71.2955C74.7992 71.9432 74.6477 72.7367 74.6477 73.6761C74.6477 74.6193 74.8011 75.4167 75.108 76.0682C75.4148 76.7197 75.8352 77.214 76.3693 77.5511C76.9034 77.8883 77.5114 78.0568 78.1932 78.0568C78.8258 78.0568 79.3769 77.928 79.8466 77.6705C80.3201 77.4129 80.6856 77.0492 80.9432 76.5795C81.2045 76.1061 81.3352 75.5492 81.3352 74.9091L81.7898 74.9943H78.4602V73.5455H83.0341V74.8693C83.0341 75.8466 82.8258 76.6951 82.4091 77.4148C81.9962 78.1307 81.4242 78.6837 80.6932 79.0739C79.9659 79.464 79.1326 79.6591 78.1932 79.6591C77.1402 79.6591 76.2159 79.4167 75.4205 78.9318C74.6288 78.447 74.0114 77.7595 73.5682 76.8693C73.125 75.9754 72.9034 74.9148 72.9034 73.6875C72.9034 72.7595 73.0322 71.9261 73.2898 71.1875C73.5473 70.4489 73.9091 69.822 74.375 69.3068C74.8447 68.7879 75.3958 68.392 76.0284 68.1193C76.6648 67.8428 77.3598 67.7045 78.1136 67.7045C78.7424 67.7045 79.3277 67.7973 79.8693 67.983C80.4148 68.1686 80.8996 68.4318 81.3239 68.7727C81.7519 69.1136 82.1061 69.5189 82.3864 69.9886C82.6667 70.4545 82.8561 70.9716 82.9545 71.5398H81.1534ZM85.6733 79.5V70.7727H87.3722V79.5H85.6733ZM86.5312 69.4261C86.2358 69.4261 85.982 69.3277 85.7699 69.1307C85.5616 68.9299 85.4574 68.6913 85.4574 68.4148C85.4574 68.1345 85.5616 67.8958 85.7699 67.6989C85.982 67.4981 86.2358 67.3977 86.5312 67.3977C86.8267 67.3977 87.0786 67.4981 87.2869 67.6989C87.4991 67.8958 87.6051 68.1345 87.6051 68.4148C87.6051 68.6913 87.4991 68.9299 87.2869 69.1307C87.0786 69.3277 86.8267 69.4261 86.5312 69.4261ZM93.7315 70.7727V72.1364H88.9645V70.7727H93.7315ZM90.2429 68.6818H91.9418V76.9375C91.9418 77.267 91.991 77.5152 92.0895 77.6818C92.188 77.8447 92.3149 77.9564 92.4702 78.017C92.6293 78.0739 92.8016 78.1023 92.9872 78.1023C93.1236 78.1023 93.2429 78.0928 93.3452 78.0739C93.4474 78.0549 93.527 78.0398 93.5838 78.0284L93.8906 79.4318C93.7921 79.4697 93.652 79.5076 93.4702 79.5455C93.2884 79.5871 93.0611 79.6098 92.7884 79.6136C92.3414 79.6212 91.9247 79.5417 91.5384 79.375C91.152 79.2083 90.8395 78.9508 90.6009 78.6023C90.3622 78.2538 90.2429 77.8163 90.2429 77.2898V68.6818ZM95.9347 79.5V67.8636H97.6903V72.9205H103.491V67.8636H105.253V79.5H103.491V74.4261H97.6903V79.5H95.9347ZM113.202 75.8807V70.7727H114.906V79.5H113.236V77.9886H113.145C112.944 78.4545 112.622 78.8428 112.179 79.1534C111.74 79.4602 111.192 79.6136 110.537 79.6136C109.976 79.6136 109.48 79.4905 109.048 79.2443C108.62 78.9943 108.283 78.625 108.037 78.1364C107.795 77.6477 107.673 77.0436 107.673 76.3239V70.7727H109.372V76.1193C109.372 76.714 109.537 77.1875 109.866 77.5398C110.196 77.892 110.624 78.0682 111.151 78.0682C111.469 78.0682 111.785 77.9886 112.099 77.8295C112.418 77.6705 112.681 77.4299 112.889 77.108C113.101 76.786 113.205 76.3769 113.202 75.8807ZM117.325 79.5V67.8636H119.024V72.1875H119.126C119.225 72.0057 119.367 71.7955 119.553 71.5568C119.738 71.3182 119.996 71.1098 120.325 70.9318C120.655 70.75 121.09 70.6591 121.632 70.6591C122.337 70.6591 122.965 70.8371 123.518 71.1932C124.071 71.5492 124.505 72.0625 124.82 72.733C125.138 73.4034 125.297 74.2102 125.297 75.1534C125.297 76.0966 125.14 76.9053 124.825 77.5795C124.511 78.25 124.079 78.767 123.53 79.1307C122.981 79.4905 122.354 79.6705 121.649 79.6705C121.119 79.6705 120.685 79.5814 120.348 79.4034C120.015 79.2254 119.753 79.017 119.564 78.7784C119.375 78.5398 119.229 78.3277 119.126 78.142H118.984V79.5H117.325ZM118.99 75.1364C118.99 75.75 119.079 76.2879 119.257 76.75C119.435 77.2121 119.693 77.5739 120.03 77.8352C120.367 78.0928 120.78 78.2216 121.268 78.2216C121.776 78.2216 122.2 78.0871 122.541 77.8182C122.882 77.5455 123.14 77.1761 123.314 76.7102C123.492 76.2443 123.581 75.7197 123.581 75.1364C123.581 74.5606 123.494 74.0436 123.32 73.5852C123.149 73.1269 122.892 72.7652 122.547 72.5C122.206 72.2348 121.78 72.1023 121.268 72.1023C120.776 72.1023 120.359 72.2292 120.018 72.483C119.681 72.7367 119.426 73.0909 119.251 73.5455C119.077 74 118.99 74.5303 118.99 75.1364Z" fill="#FAFAFA"/>
    <path d="M301.006 69.3636L298.193 79.8125H297.273L300.085 69.3636H301.006ZM306.834 73.4205L305.931 73.6761C305.874 73.5256 305.79 73.3793 305.679 73.2372C305.571 73.0923 305.424 72.973 305.236 72.8793C305.049 72.7855 304.809 72.7386 304.516 72.7386C304.115 72.7386 303.782 72.831 303.515 73.0156C303.25 73.1974 303.118 73.429 303.118 73.7102C303.118 73.9602 303.209 74.1577 303.391 74.3026C303.573 74.4474 303.857 74.5682 304.243 74.6648L305.215 74.9034C305.8 75.0455 306.236 75.2628 306.523 75.5554C306.81 75.8452 306.953 76.2187 306.953 76.6761C306.953 77.0511 306.846 77.3864 306.63 77.6818C306.417 77.9773 306.118 78.2102 305.735 78.3807C305.351 78.5511 304.905 78.6364 304.397 78.6364C303.729 78.6364 303.176 78.4915 302.739 78.2017C302.301 77.9119 302.025 77.4886 301.908 76.9318L302.863 76.6932C302.953 77.0455 303.125 77.3097 303.378 77.4858C303.634 77.6619 303.968 77.75 304.38 77.75C304.848 77.75 305.221 77.6506 305.496 77.4517C305.775 77.25 305.914 77.0085 305.914 76.7273C305.914 76.5 305.834 76.3097 305.675 76.1562C305.516 76 305.272 75.8835 304.942 75.8068L303.851 75.5511C303.252 75.4091 302.811 75.1889 302.53 74.8906C302.252 74.5895 302.113 74.2131 302.113 73.7614C302.113 73.392 302.216 73.0653 302.424 72.7812C302.634 72.4972 302.919 72.2741 303.28 72.1122C303.644 71.9503 304.056 71.8693 304.516 71.8693C305.164 71.8693 305.672 72.0114 306.042 72.2955C306.414 72.5795 306.678 72.9545 306.834 73.4205ZM310.393 78.6534C309.979 78.6534 309.602 78.5753 309.264 78.419C308.926 78.2599 308.658 78.0312 308.459 77.733C308.26 77.4318 308.161 77.0682 308.161 76.642C308.161 76.267 308.234 75.9631 308.382 75.7301C308.53 75.4943 308.727 75.3097 308.974 75.1761C309.222 75.0426 309.494 74.9432 309.793 74.8778C310.094 74.8097 310.396 74.7557 310.7 74.7159C311.098 74.6648 311.42 74.6264 311.668 74.6009C311.918 74.5724 312.099 74.5256 312.213 74.4602C312.33 74.3949 312.388 74.2812 312.388 74.1193V74.0852C312.388 73.6648 312.273 73.3381 312.043 73.1051C311.815 72.8722 311.47 72.7557 311.007 72.7557C310.527 72.7557 310.151 72.8608 309.878 73.071C309.605 73.2812 309.413 73.5057 309.303 73.7443L308.348 73.4034C308.518 73.0057 308.746 72.696 309.03 72.4744C309.317 72.25 309.629 72.0937 309.967 72.0057C310.308 71.9148 310.643 71.8693 310.973 71.8693C311.183 71.8693 311.425 71.8949 311.697 71.946C311.973 71.9943 312.239 72.0952 312.494 72.2486C312.753 72.402 312.967 72.6335 313.138 72.9432C313.308 73.2528 313.393 73.6676 313.393 74.1875V78.5H312.388V77.6136H312.337C312.268 77.7557 312.155 77.9077 311.996 78.0696C311.837 78.2315 311.625 78.3693 311.361 78.483C311.097 78.5966 310.774 78.6534 310.393 78.6534ZM310.547 77.75C310.945 77.75 311.28 77.6719 311.553 77.5156C311.828 77.3594 312.036 77.1577 312.175 76.9105C312.317 76.6634 312.388 76.4034 312.388 76.1307V75.2102C312.345 75.2614 312.251 75.3082 312.107 75.3509C311.964 75.3906 311.8 75.4261 311.612 75.4574C311.428 75.4858 311.247 75.5114 311.071 75.5341C310.898 75.554 310.757 75.571 310.649 75.5852C310.388 75.6193 310.143 75.6747 309.916 75.7514C309.692 75.8253 309.51 75.9375 309.371 76.0881C309.234 76.2358 309.166 76.4375 309.166 76.6932C309.166 77.0426 309.295 77.3068 309.554 77.4858C309.815 77.6619 310.146 77.75 310.547 77.75ZM315.365 78.5V69.7727H316.371V72.9943H316.456C316.53 72.8807 316.632 72.7358 316.763 72.5597C316.897 72.3807 317.087 72.2216 317.334 72.0824C317.584 71.9403 317.922 71.8693 318.348 71.8693C318.9 71.8693 319.385 72.0071 319.806 72.2827C320.226 72.5582 320.554 72.9489 320.79 73.4545C321.026 73.9602 321.144 74.5568 321.144 75.2443C321.144 75.9375 321.026 76.5384 320.79 77.0469C320.554 77.5526 320.228 77.9446 319.81 78.223C319.392 78.4986 318.911 78.6364 318.365 78.6364C317.945 78.6364 317.608 78.5668 317.355 78.4276C317.103 78.2855 316.908 78.125 316.772 77.946C316.635 77.7642 316.53 77.6136 316.456 77.4943H316.337V78.5H315.365ZM316.354 75.2273C316.354 75.7216 316.426 76.1577 316.571 76.5355C316.716 76.9105 316.928 77.2045 317.206 77.4176C317.485 77.6278 317.826 77.733 318.229 77.733C318.65 77.733 319 77.6222 319.282 77.4006C319.566 77.1761 319.779 76.875 319.921 76.4972C320.066 76.1165 320.138 75.6932 320.138 75.2273C320.138 74.767 320.067 74.3523 319.925 73.983C319.786 73.6108 319.574 73.3168 319.29 73.1009C319.009 72.8821 318.655 72.7727 318.229 72.7727C317.82 72.7727 317.476 72.8764 317.198 73.0838C316.919 73.2884 316.709 73.5753 316.567 73.9446C316.425 74.3111 316.354 74.7386 316.354 75.2273ZM323.096 80.9545C322.925 80.9545 322.773 80.9403 322.64 80.9119C322.506 80.8864 322.414 80.8608 322.363 80.8352L322.618 79.9489C322.863 80.0114 323.078 80.0341 323.266 80.017C323.453 80 323.62 79.9162 323.765 79.7656C323.912 79.6179 324.047 79.3778 324.169 79.0455L324.357 78.5341L321.936 71.9545H323.027L324.834 77.1705H324.902L326.709 71.9545H327.8L325.022 79.4545C324.897 79.7926 324.742 80.0724 324.557 80.294C324.373 80.5185 324.158 80.6847 323.914 80.7926C323.672 80.9006 323.4 80.9545 323.096 80.9545ZM329.127 78.5V71.9545H330.099V72.9432H330.167C330.287 72.6193 330.502 72.3565 330.815 72.1548C331.127 71.9531 331.48 71.8523 331.872 71.8523C331.946 71.8523 332.038 71.8537 332.149 71.8565C332.26 71.8594 332.343 71.8636 332.4 71.8693V72.892C332.366 72.8835 332.288 72.8707 332.166 72.8537C332.047 72.8338 331.92 72.8239 331.787 72.8239C331.468 72.8239 331.184 72.8906 330.934 73.0241C330.687 73.1548 330.491 73.3366 330.346 73.5696C330.204 73.7997 330.133 74.0625 330.133 74.358V78.5H329.127ZM334.53 76.1136L334.513 74.8693H334.717L337.581 71.9545H338.825L335.774 75.0398H335.689L334.53 76.1136ZM333.592 78.5V69.7727H334.598V78.5H333.592ZM337.751 78.5L335.195 75.2614L335.911 74.5625L339.03 78.5H337.751ZM342.046 78.6534C341.631 78.6534 341.255 78.5753 340.917 78.419C340.578 78.2599 340.31 78.0312 340.111 77.733C339.912 77.4318 339.813 77.0682 339.813 76.642C339.813 76.267 339.887 75.9631 340.034 75.7301C340.182 75.4943 340.38 75.3097 340.627 75.1761C340.874 75.0426 341.147 74.9432 341.445 74.8778C341.746 74.8097 342.049 74.7557 342.353 74.7159C342.75 74.6648 343.073 74.6264 343.32 74.6009C343.57 74.5724 343.752 74.5256 343.865 74.4602C343.982 74.3949 344.04 74.2812 344.04 74.1193V74.0852C344.04 73.6648 343.925 73.3381 343.695 73.1051C343.468 72.8722 343.123 72.7557 342.659 72.7557C342.179 72.7557 341.803 72.8608 341.53 73.071C341.257 73.2812 341.066 73.5057 340.955 73.7443L340 73.4034C340.171 73.0057 340.398 72.696 340.682 72.4744C340.969 72.25 341.282 72.0937 341.62 72.0057C341.961 71.9148 342.296 71.8693 342.625 71.8693C342.836 71.8693 343.077 71.8949 343.35 71.946C343.625 71.9943 343.891 72.0952 344.147 72.2486C344.405 72.402 344.62 72.6335 344.79 72.9432C344.961 73.2528 345.046 73.6676 345.046 74.1875V78.5H344.04V77.6136H343.989C343.921 77.7557 343.807 77.9077 343.648 78.0696C343.489 78.2315 343.277 78.3693 343.013 78.483C342.749 78.5966 342.426 78.6534 342.046 78.6534ZM342.199 77.75C342.597 77.75 342.932 77.6719 343.205 77.5156C343.48 77.3594 343.688 77.1577 343.827 76.9105C343.969 76.6634 344.04 76.4034 344.04 76.1307V75.2102C343.998 75.2614 343.904 75.3082 343.759 75.3509C343.617 75.3906 343.452 75.4261 343.265 75.4574C343.08 75.4858 342.9 75.5114 342.723 75.5341C342.55 75.554 342.409 75.571 342.301 75.5852C342.04 75.6193 341.796 75.6747 341.569 75.7514C341.344 75.8253 341.162 75.9375 341.023 76.0881C340.887 76.2358 340.819 76.4375 340.819 76.6932C340.819 77.0426 340.948 77.3068 341.206 77.4858C341.468 77.6619 341.799 77.75 342.199 77.75ZM346.694 78.5V77.733L350.41 72.9602V72.892H346.813V71.9545H351.705V72.7557L348.092 77.4943V77.5625H351.825V78.5H346.694ZM355.93 78.6364C355.3 78.6364 354.756 78.4972 354.298 78.2188C353.844 77.9375 353.493 77.5455 353.246 77.0426C353.001 76.5369 352.879 75.9489 352.879 75.2784C352.879 74.608 353.001 74.017 353.246 73.5057C353.493 72.9915 353.837 72.5909 354.277 72.304C354.72 72.0142 355.237 71.8693 355.828 71.8693C356.169 71.8693 356.506 71.9261 356.838 72.0398C357.17 72.1534 357.473 72.3381 357.746 72.5938C358.018 72.8466 358.236 73.1818 358.398 73.5994C358.56 74.017 358.641 74.5312 358.641 75.142V75.5682H353.595V74.6989H357.618C357.618 74.3295 357.544 74 357.396 73.7102C357.251 73.4205 357.044 73.1918 356.774 73.0241C356.507 72.8565 356.192 72.7727 355.828 72.7727C355.428 72.7727 355.081 72.8722 354.788 73.071C354.499 73.267 354.276 73.5227 354.119 73.8381C353.963 74.1534 353.885 74.4915 353.885 74.8523V75.4318C353.885 75.9261 353.97 76.3452 354.141 76.6889C354.314 77.0298 354.554 77.2898 354.861 77.4688C355.168 77.6449 355.524 77.733 355.93 77.733C356.195 77.733 356.433 77.696 356.646 77.6222C356.862 77.5455 357.048 77.4318 357.205 77.2812C357.361 77.1278 357.482 76.9375 357.567 76.7102L358.538 76.983C358.436 77.3125 358.264 77.6023 358.023 77.8523C357.781 78.0994 357.483 78.2926 357.128 78.4318C356.773 78.5682 356.374 78.6364 355.93 78.6364ZM361.176 74.5625V78.5H360.17V71.9545H361.142V72.9773H361.227C361.381 72.6449 361.614 72.3778 361.926 72.1761C362.239 71.9716 362.642 71.8693 363.136 71.8693C363.58 71.8693 363.967 71.9602 364.3 72.142C364.632 72.321 364.891 72.5938 365.075 72.9602C365.26 73.3239 365.352 73.7841 365.352 74.3409V78.5H364.347V74.4091C364.347 73.8949 364.213 73.4943 363.946 73.2074C363.679 72.9176 363.313 72.7727 362.847 72.7727C362.526 72.7727 362.239 72.8423 361.986 72.9815C361.736 73.1207 361.538 73.3239 361.393 73.5909C361.249 73.858 361.176 74.1818 361.176 74.5625Z" fill="#888888"/>
    <rect x="20.5" y="116.5" width="359" height="47" rx="23.5" stroke="url(#paint2_linear_11_518)"/>
    <path d="M44 155.75C52.6985 155.75 59.75 148.698 59.75 140C59.75 131.302 52.6985 124.25 44 124.25C35.3015 124.25 28.25 131.302 28.25 140C28.25 148.698 35.3015 155.75 44 155.75Z" fill="url(#paint3_linear_11_518)"/>
    <path d="M51.8599 133.485C52.0001 132.579 51.1386 131.863 50.3328 132.217L34.2854 139.263C33.7076 139.517 33.7499 140.392 34.3492 140.583L37.6585 141.637C38.2902 141.838 38.9741 141.734 39.5256 141.353L46.9869 136.198C47.2119 136.042 47.4571 136.362 47.2649 136.56L41.8941 142.098C41.3731 142.635 41.4765 143.545 42.1032 143.938L48.1164 147.709C48.7908 148.132 49.6584 147.707 49.7845 146.892L51.8599 133.485Z" fill="white"/>
    <path d="M72.7045 135.375V133.864H81.7102V135.375H78.0795V145.5H76.3295V135.375H72.7045ZM86.0597 145.676C85.1998 145.676 84.4593 145.492 83.8381 145.125C83.2206 144.754 82.7434 144.233 82.4062 143.562C82.0729 142.888 81.9062 142.098 81.9062 141.193C81.9062 140.299 82.0729 139.511 82.4062 138.83C82.7434 138.148 83.2131 137.616 83.8153 137.233C84.4214 136.85 85.1297 136.659 85.9403 136.659C86.4328 136.659 86.91 136.741 87.3722 136.903C87.8343 137.066 88.2491 137.322 88.6165 137.67C88.9839 138.019 89.2737 138.472 89.4858 139.028C89.6979 139.581 89.804 140.254 89.804 141.045V141.648H82.8665V140.375H88.1392C88.1392 139.928 88.0483 139.532 87.8665 139.188C87.6847 138.839 87.429 138.564 87.0994 138.364C86.7737 138.163 86.3911 138.062 85.9517 138.062C85.4744 138.062 85.0578 138.18 84.7017 138.415C84.3494 138.646 84.0767 138.949 83.8835 139.324C83.6941 139.695 83.5994 140.098 83.5994 140.534V141.528C83.5994 142.112 83.7017 142.608 83.9062 143.017C84.1146 143.426 84.4044 143.739 84.7756 143.955C85.1468 144.167 85.5805 144.273 86.0767 144.273C86.3987 144.273 86.6922 144.227 86.9574 144.136C87.2225 144.042 87.4517 143.902 87.6449 143.716C87.8381 143.53 87.9858 143.301 88.0881 143.028L89.696 143.318C89.5672 143.792 89.3362 144.206 89.0028 144.562C88.6733 144.915 88.2585 145.189 87.7585 145.386C87.2623 145.58 86.696 145.676 86.0597 145.676ZM93.3878 133.864V145.5H91.6889V133.864H93.3878ZM99.4347 145.676C98.5748 145.676 97.8343 145.492 97.2131 145.125C96.5956 144.754 96.1184 144.233 95.7812 143.562C95.4479 142.888 95.2812 142.098 95.2812 141.193C95.2812 140.299 95.4479 139.511 95.7812 138.83C96.1184 138.148 96.5881 137.616 97.1903 137.233C97.7964 136.85 98.5047 136.659 99.3153 136.659C99.8078 136.659 100.285 136.741 100.747 136.903C101.209 137.066 101.624 137.322 101.991 137.67C102.359 138.019 102.649 138.472 102.861 139.028C103.073 139.581 103.179 140.254 103.179 141.045V141.648H96.2415V140.375H101.514C101.514 139.928 101.423 139.532 101.241 139.188C101.06 138.839 100.804 138.564 100.474 138.364C100.149 138.163 99.7661 138.062 99.3267 138.062C98.8494 138.062 98.4328 138.18 98.0767 138.415C97.7244 138.646 97.4517 138.949 97.2585 139.324C97.0691 139.695 96.9744 140.098 96.9744 140.534V141.528C96.9744 142.112 97.0767 142.608 97.2812 143.017C97.4896 143.426 97.7794 143.739 98.1506 143.955C98.5218 144.167 98.9555 144.273 99.4517 144.273C99.7737 144.273 100.067 144.227 100.332 144.136C100.598 144.042 100.827 143.902 101.02 143.716C101.213 143.53 101.361 143.301 101.463 143.028L103.071 143.318C102.942 143.792 102.711 144.206 102.378 144.562C102.048 144.915 101.634 145.189 101.134 145.386C100.637 145.58 100.071 145.676 99.4347 145.676ZM108.723 148.955C108.03 148.955 107.433 148.864 106.933 148.682C106.437 148.5 106.032 148.259 105.717 147.96C105.403 147.661 105.168 147.333 105.013 146.977L106.473 146.375C106.575 146.542 106.712 146.718 106.882 146.903C107.056 147.093 107.291 147.254 107.587 147.386C107.886 147.519 108.27 147.585 108.74 147.585C109.384 147.585 109.916 147.428 110.337 147.114C110.757 146.803 110.967 146.307 110.967 145.625V143.909H110.859C110.757 144.095 110.609 144.301 110.416 144.528C110.227 144.756 109.965 144.953 109.632 145.119C109.299 145.286 108.865 145.369 108.331 145.369C107.642 145.369 107.02 145.208 106.467 144.886C105.918 144.561 105.482 144.081 105.161 143.449C104.842 142.812 104.683 142.03 104.683 141.102C104.683 140.174 104.84 139.379 105.155 138.716C105.473 138.053 105.909 137.545 106.462 137.193C107.015 136.837 107.642 136.659 108.342 136.659C108.884 136.659 109.321 136.75 109.655 136.932C109.988 137.11 110.248 137.318 110.433 137.557C110.623 137.795 110.768 138.006 110.871 138.188H110.996V136.773H112.661V145.693C112.661 146.443 112.486 147.059 112.138 147.54C111.789 148.021 111.318 148.377 110.723 148.608C110.132 148.839 109.465 148.955 108.723 148.955ZM108.706 143.96C109.195 143.96 109.607 143.847 109.945 143.619C110.286 143.388 110.543 143.059 110.717 142.631C110.895 142.199 110.984 141.682 110.984 141.08C110.984 140.492 110.897 139.975 110.723 139.528C110.549 139.081 110.293 138.733 109.956 138.483C109.619 138.229 109.202 138.102 108.706 138.102C108.195 138.102 107.768 138.235 107.428 138.5C107.087 138.761 106.829 139.117 106.655 139.568C106.484 140.019 106.399 140.523 106.399 141.08C106.399 141.652 106.486 142.153 106.661 142.585C106.835 143.017 107.092 143.354 107.433 143.597C107.778 143.839 108.202 143.96 108.706 143.96ZM114.939 145.5V136.773H116.581V138.159H116.672C116.831 137.689 117.111 137.32 117.513 137.051C117.918 136.778 118.376 136.642 118.888 136.642C118.994 136.642 119.119 136.646 119.263 136.653C119.411 136.661 119.526 136.67 119.609 136.682V138.307C119.541 138.288 119.42 138.267 119.246 138.244C119.071 138.218 118.897 138.205 118.723 138.205C118.321 138.205 117.964 138.29 117.649 138.46C117.339 138.627 117.092 138.86 116.911 139.159C116.729 139.455 116.638 139.792 116.638 140.17V145.5H114.939ZM123.541 145.693C122.988 145.693 122.488 145.591 122.041 145.386C121.594 145.178 121.24 144.877 120.979 144.483C120.721 144.089 120.592 143.606 120.592 143.034C120.592 142.542 120.687 142.136 120.876 141.818C121.066 141.5 121.321 141.248 121.643 141.062C121.965 140.877 122.325 140.737 122.723 140.642C123.121 140.547 123.526 140.475 123.939 140.426C124.462 140.366 124.886 140.316 125.212 140.278C125.537 140.237 125.774 140.17 125.922 140.08C126.07 139.989 126.143 139.841 126.143 139.636V139.597C126.143 139.1 126.003 138.716 125.723 138.443C125.446 138.17 125.034 138.034 124.484 138.034C123.912 138.034 123.462 138.161 123.132 138.415C122.806 138.665 122.581 138.943 122.456 139.25L120.859 138.886C121.049 138.356 121.325 137.928 121.689 137.602C122.056 137.273 122.479 137.034 122.956 136.886C123.433 136.735 123.935 136.659 124.462 136.659C124.81 136.659 125.179 136.701 125.57 136.784C125.964 136.864 126.331 137.011 126.672 137.227C127.017 137.443 127.299 137.752 127.518 138.153C127.738 138.551 127.848 139.068 127.848 139.705V145.5H126.189V144.307H126.121C126.011 144.527 125.846 144.742 125.626 144.955C125.407 145.167 125.125 145.343 124.78 145.483C124.435 145.623 124.022 145.693 123.541 145.693ZM123.911 144.33C124.38 144.33 124.782 144.237 125.115 144.051C125.452 143.866 125.708 143.623 125.882 143.324C126.06 143.021 126.149 142.697 126.149 142.352V141.227C126.089 141.288 125.971 141.345 125.797 141.398C125.626 141.447 125.431 141.491 125.212 141.528C124.992 141.562 124.778 141.595 124.57 141.625C124.361 141.652 124.187 141.674 124.047 141.693C123.717 141.735 123.416 141.805 123.143 141.903C122.875 142.002 122.659 142.144 122.496 142.33C122.337 142.511 122.257 142.754 122.257 143.057C122.257 143.477 122.412 143.795 122.723 144.011C123.034 144.223 123.429 144.33 123.911 144.33ZM130.111 145.5V136.773H131.741V138.193H131.849C132.031 137.712 132.329 137.337 132.741 137.068C133.154 136.795 133.649 136.659 134.224 136.659C134.808 136.659 135.296 136.795 135.69 137.068C136.088 137.341 136.382 137.716 136.571 138.193H136.662C136.87 137.727 137.202 137.356 137.656 137.08C138.111 136.799 138.652 136.659 139.281 136.659C140.073 136.659 140.719 136.907 141.219 137.403C141.723 137.9 141.974 138.648 141.974 139.648V145.5H140.276V139.807C140.276 139.216 140.115 138.788 139.793 138.523C139.471 138.258 139.086 138.125 138.639 138.125C138.086 138.125 137.656 138.295 137.349 138.636C137.043 138.973 136.889 139.407 136.889 139.938V145.5H135.196V139.699C135.196 139.225 135.048 138.845 134.753 138.557C134.457 138.269 134.073 138.125 133.599 138.125C133.277 138.125 132.98 138.21 132.707 138.381C132.438 138.547 132.221 138.78 132.054 139.08C131.891 139.379 131.81 139.725 131.81 140.119V145.5H130.111Z" fill="#FAFAFA"/>
    <path d="M295.949 146.801C295.08 146.801 294.311 146.682 293.643 146.443C292.976 146.207 292.415 145.859 291.96 145.399C291.506 144.939 291.162 144.375 290.929 143.707C290.696 143.04 290.58 142.276 290.58 141.415C290.58 140.582 290.697 139.838 290.933 139.182C291.172 138.526 291.517 137.969 291.969 137.511C292.423 137.051 292.974 136.7 293.622 136.459C294.273 136.217 295.009 136.097 295.83 136.097C296.628 136.097 297.327 136.227 297.926 136.489C298.528 136.747 299.031 137.098 299.435 137.541C299.841 137.982 300.145 138.477 300.347 139.028C300.551 139.58 300.653 140.148 300.653 140.733C300.653 141.145 300.634 141.562 300.594 141.986C300.554 142.409 300.47 142.798 300.342 143.153C300.214 143.506 300.017 143.79 299.75 144.006C299.486 144.222 299.128 144.33 298.676 144.33C298.477 144.33 298.259 144.298 298.02 144.236C297.781 144.173 297.57 144.07 297.385 143.925C297.2 143.78 297.091 143.585 297.057 143.341H297.006C296.938 143.506 296.832 143.662 296.69 143.81C296.551 143.957 296.368 144.075 296.141 144.163C295.916 144.251 295.642 144.29 295.318 144.278C294.949 144.264 294.624 144.182 294.342 144.031C294.061 143.878 293.825 143.67 293.635 143.409C293.447 143.145 293.305 142.839 293.209 142.493C293.115 142.143 293.068 141.767 293.068 141.364C293.068 140.98 293.125 140.629 293.239 140.311C293.352 139.993 293.51 139.714 293.712 139.476C293.916 139.237 294.155 139.047 294.428 138.905C294.703 138.76 295 138.67 295.318 138.636C295.602 138.608 295.861 138.621 296.094 138.675C296.327 138.726 296.518 138.804 296.669 138.909C296.82 139.011 296.915 139.125 296.955 139.25H297.006V138.773H297.909V142.625C297.909 142.864 297.976 143.074 298.109 143.256C298.243 143.437 298.438 143.528 298.693 143.528C298.983 143.528 299.205 143.429 299.358 143.23C299.514 143.031 299.621 142.724 299.678 142.31C299.737 141.895 299.767 141.364 299.767 140.716C299.767 140.335 299.714 139.96 299.609 139.591C299.507 139.219 299.351 138.871 299.141 138.547C298.933 138.223 298.67 137.937 298.352 137.69C298.034 137.443 297.661 137.25 297.232 137.111C296.805 136.969 296.321 136.898 295.778 136.898C295.111 136.898 294.513 137.001 293.984 137.209C293.459 137.413 293.011 137.713 292.642 138.108C292.276 138.5 291.996 138.977 291.803 139.54C291.612 140.099 291.517 140.736 291.517 141.449C291.517 142.173 291.612 142.817 291.803 143.379C291.996 143.942 292.28 144.416 292.655 144.803C293.033 145.189 293.5 145.482 294.057 145.68C294.614 145.882 295.256 145.983 295.983 145.983C296.295 145.983 296.604 145.953 296.908 145.893C297.212 145.834 297.48 145.768 297.713 145.697C297.946 145.626 298.114 145.574 298.216 145.54L298.455 146.324C298.278 146.398 298.048 146.472 297.764 146.545C297.483 146.619 297.182 146.68 296.861 146.729C296.543 146.777 296.239 146.801 295.949 146.801ZM295.455 143.409C295.835 143.409 296.143 143.332 296.379 143.179C296.615 143.026 296.787 142.794 296.895 142.484C297.003 142.175 297.057 141.784 297.057 141.312C297.057 140.835 296.997 140.463 296.878 140.196C296.759 139.929 296.582 139.741 296.349 139.634C296.116 139.526 295.83 139.472 295.489 139.472C295.165 139.472 294.888 139.557 294.658 139.727C294.43 139.895 294.256 140.119 294.134 140.401C294.014 140.679 293.955 140.983 293.955 141.312C293.955 141.676 294.003 142.018 294.099 142.339C294.196 142.658 294.354 142.916 294.572 143.115C294.791 143.311 295.085 143.409 295.455 143.409ZM306.795 139.42L305.892 139.676C305.835 139.526 305.751 139.379 305.64 139.237C305.532 139.092 305.385 138.973 305.197 138.879C305.01 138.786 304.77 138.739 304.477 138.739C304.076 138.739 303.743 138.831 303.475 139.016C303.211 139.197 303.079 139.429 303.079 139.71C303.079 139.96 303.17 140.158 303.352 140.303C303.534 140.447 303.818 140.568 304.204 140.665L305.176 140.903C305.761 141.045 306.197 141.263 306.484 141.555C306.771 141.845 306.914 142.219 306.914 142.676C306.914 143.051 306.806 143.386 306.591 143.682C306.377 143.977 306.079 144.21 305.696 144.381C305.312 144.551 304.866 144.636 304.358 144.636C303.69 144.636 303.137 144.491 302.7 144.202C302.262 143.912 301.985 143.489 301.869 142.932L302.824 142.693C302.914 143.045 303.086 143.31 303.339 143.486C303.595 143.662 303.929 143.75 304.341 143.75C304.809 143.75 305.181 143.651 305.457 143.452C305.735 143.25 305.875 143.009 305.875 142.727C305.875 142.5 305.795 142.31 305.636 142.156C305.477 142 305.233 141.884 304.903 141.807L303.812 141.551C303.213 141.409 302.772 141.189 302.491 140.891C302.213 140.589 302.074 140.213 302.074 139.761C302.074 139.392 302.177 139.065 302.385 138.781C302.595 138.497 302.88 138.274 303.241 138.112C303.605 137.95 304.017 137.869 304.477 137.869C305.125 137.869 305.633 138.011 306.002 138.295C306.375 138.58 306.639 138.955 306.795 139.42ZM310.354 144.653C309.94 144.653 309.563 144.575 309.225 144.419C308.887 144.26 308.619 144.031 308.42 143.733C308.221 143.432 308.121 143.068 308.121 142.642C308.121 142.267 308.195 141.963 308.343 141.73C308.491 141.494 308.688 141.31 308.935 141.176C309.183 141.043 309.455 140.943 309.754 140.878C310.055 140.81 310.357 140.756 310.661 140.716C311.059 140.665 311.381 140.626 311.629 140.601C311.879 140.572 312.06 140.526 312.174 140.46C312.29 140.395 312.349 140.281 312.349 140.119V140.085C312.349 139.665 312.234 139.338 312.004 139.105C311.776 138.872 311.431 138.756 310.968 138.756C310.488 138.756 310.112 138.861 309.839 139.071C309.566 139.281 309.374 139.506 309.263 139.744L308.309 139.403C308.479 139.006 308.707 138.696 308.991 138.474C309.278 138.25 309.59 138.094 309.928 138.006C310.269 137.915 310.604 137.869 310.934 137.869C311.144 137.869 311.386 137.895 311.658 137.946C311.934 137.994 312.2 138.095 312.455 138.249C312.714 138.402 312.928 138.634 313.099 138.943C313.269 139.253 313.354 139.668 313.354 140.188V144.5H312.349V143.614H312.298C312.229 143.756 312.116 143.908 311.957 144.07C311.798 144.232 311.586 144.369 311.322 144.483C311.058 144.597 310.735 144.653 310.354 144.653ZM310.508 143.75C310.906 143.75 311.241 143.672 311.513 143.516C311.789 143.359 311.996 143.158 312.136 142.911C312.278 142.663 312.349 142.403 312.349 142.131V141.21C312.306 141.261 312.212 141.308 312.067 141.351C311.925 141.391 311.761 141.426 311.573 141.457C311.388 141.486 311.208 141.511 311.032 141.534C310.859 141.554 310.718 141.571 310.61 141.585C310.349 141.619 310.104 141.675 309.877 141.751C309.653 141.825 309.471 141.937 309.332 142.088C309.195 142.236 309.127 142.437 309.127 142.693C309.127 143.043 309.256 143.307 309.515 143.486C309.776 143.662 310.107 143.75 310.508 143.75ZM315.326 144.5V135.773H316.332V138.994H316.417C316.491 138.881 316.593 138.736 316.724 138.56C316.858 138.381 317.048 138.222 317.295 138.082C317.545 137.94 317.883 137.869 318.309 137.869C318.86 137.869 319.346 138.007 319.767 138.283C320.187 138.558 320.515 138.949 320.751 139.455C320.987 139.96 321.105 140.557 321.105 141.244C321.105 141.938 320.987 142.538 320.751 143.047C320.515 143.553 320.189 143.945 319.771 144.223C319.353 144.499 318.872 144.636 318.326 144.636C317.906 144.636 317.569 144.567 317.316 144.428C317.064 144.286 316.869 144.125 316.733 143.946C316.596 143.764 316.491 143.614 316.417 143.494H316.298V144.5H315.326ZM316.315 141.227C316.315 141.722 316.387 142.158 316.532 142.536C316.677 142.911 316.889 143.205 317.167 143.418C317.446 143.628 317.787 143.733 318.19 143.733C318.61 143.733 318.961 143.622 319.243 143.401C319.527 143.176 319.74 142.875 319.882 142.497C320.027 142.116 320.099 141.693 320.099 141.227C320.099 140.767 320.028 140.352 319.886 139.983C319.747 139.611 319.535 139.317 319.251 139.101C318.97 138.882 318.616 138.773 318.19 138.773C317.781 138.773 317.437 138.876 317.159 139.084C316.88 139.288 316.67 139.575 316.528 139.945C316.386 140.311 316.315 140.739 316.315 141.227ZM323.056 146.955C322.886 146.955 322.734 146.94 322.6 146.912C322.467 146.886 322.375 146.861 322.324 146.835L322.579 145.949C322.824 146.011 323.039 146.034 323.227 146.017C323.414 146 323.581 145.916 323.725 145.766C323.873 145.618 324.008 145.378 324.13 145.045L324.318 144.534L321.897 137.955H322.988L324.795 143.17H324.863L326.67 137.955H327.761L324.983 145.455C324.858 145.793 324.703 146.072 324.518 146.294C324.333 146.518 324.119 146.685 323.875 146.793C323.633 146.901 323.36 146.955 323.056 146.955ZM329.088 144.5V137.955H330.06V138.943H330.128C330.248 138.619 330.463 138.357 330.776 138.155C331.088 137.953 331.441 137.852 331.833 137.852C331.907 137.852 331.999 137.854 332.11 137.857C332.221 137.859 332.304 137.864 332.361 137.869V138.892C332.327 138.884 332.249 138.871 332.127 138.854C332.007 138.834 331.881 138.824 331.748 138.824C331.429 138.824 331.145 138.891 330.895 139.024C330.648 139.155 330.452 139.337 330.307 139.57C330.165 139.8 330.094 140.062 330.094 140.358V144.5H329.088ZM334.491 142.114L334.474 140.869H334.678L337.542 137.955H338.786L335.735 141.04H335.65L334.491 142.114ZM333.553 144.5V135.773H334.559V144.5H333.553ZM337.712 144.5L335.156 141.261L335.871 140.562L338.991 144.5H337.712ZM342.007 144.653C341.592 144.653 341.216 144.575 340.877 144.419C340.539 144.26 340.271 144.031 340.072 143.733C339.873 143.432 339.774 143.068 339.774 142.642C339.774 142.267 339.848 141.963 339.995 141.73C340.143 141.494 340.341 141.31 340.588 141.176C340.835 141.043 341.108 140.943 341.406 140.878C341.707 140.81 342.01 140.756 342.314 140.716C342.711 140.665 343.034 140.626 343.281 140.601C343.531 140.572 343.713 140.526 343.826 140.46C343.943 140.395 344.001 140.281 344.001 140.119V140.085C344.001 139.665 343.886 139.338 343.656 139.105C343.429 138.872 343.083 138.756 342.62 138.756C342.14 138.756 341.764 138.861 341.491 139.071C341.218 139.281 341.027 139.506 340.916 139.744L339.961 139.403C340.132 139.006 340.359 138.696 340.643 138.474C340.93 138.25 341.243 138.094 341.581 138.006C341.922 137.915 342.257 137.869 342.586 137.869C342.797 137.869 343.038 137.895 343.311 137.946C343.586 137.994 343.852 138.095 344.108 138.249C344.366 138.402 344.581 138.634 344.751 138.943C344.922 139.253 345.007 139.668 345.007 140.188V144.5H344.001V143.614H343.95C343.882 143.756 343.768 143.908 343.609 144.07C343.45 144.232 343.238 144.369 342.974 144.483C342.71 144.597 342.387 144.653 342.007 144.653ZM342.16 143.75C342.558 143.75 342.893 143.672 343.166 143.516C343.441 143.359 343.649 143.158 343.788 142.911C343.93 142.663 344.001 142.403 344.001 142.131V141.21C343.958 141.261 343.865 141.308 343.72 141.351C343.578 141.391 343.413 141.426 343.225 141.457C343.041 141.486 342.86 141.511 342.684 141.534C342.511 141.554 342.37 141.571 342.262 141.585C342.001 141.619 341.757 141.675 341.529 141.751C341.305 141.825 341.123 141.937 340.984 142.088C340.848 142.236 340.779 142.437 340.779 142.693C340.779 143.043 340.909 143.307 341.167 143.486C341.429 143.662 341.76 143.75 342.16 143.75ZM346.655 144.5V143.733L350.371 138.96V138.892H346.774V137.955H351.666V138.756L348.053 143.494V143.562H351.786V144.5H346.655ZM355.891 144.636C355.261 144.636 354.717 144.497 354.259 144.219C353.805 143.938 353.454 143.545 353.207 143.043C352.962 142.537 352.84 141.949 352.84 141.278C352.84 140.608 352.962 140.017 353.207 139.506C353.454 138.991 353.798 138.591 354.238 138.304C354.681 138.014 355.198 137.869 355.789 137.869C356.13 137.869 356.467 137.926 356.799 138.04C357.131 138.153 357.434 138.338 357.707 138.594C357.979 138.847 358.197 139.182 358.359 139.599C358.521 140.017 358.602 140.531 358.602 141.142V141.568H353.556V140.699H357.579C357.579 140.33 357.505 140 357.357 139.71C357.212 139.42 357.005 139.192 356.735 139.024C356.468 138.857 356.153 138.773 355.789 138.773C355.388 138.773 355.042 138.872 354.749 139.071C354.46 139.267 354.237 139.523 354.08 139.838C353.924 140.153 353.846 140.491 353.846 140.852V141.432C353.846 141.926 353.931 142.345 354.102 142.689C354.275 143.03 354.515 143.29 354.822 143.469C355.129 143.645 355.485 143.733 355.891 143.733C356.156 143.733 356.394 143.696 356.607 143.622C356.823 143.545 357.009 143.432 357.165 143.281C357.322 143.128 357.442 142.937 357.528 142.71L358.499 142.983C358.397 143.312 358.225 143.602 357.984 143.852C357.742 144.099 357.444 144.293 357.089 144.432C356.734 144.568 356.335 144.636 355.891 144.636ZM361.137 140.562V144.5H360.131V137.955H361.103V138.977H361.188C361.342 138.645 361.575 138.378 361.887 138.176C362.2 137.972 362.603 137.869 363.097 137.869C363.54 137.869 363.928 137.96 364.261 138.142C364.593 138.321 364.852 138.594 365.036 138.96C365.221 139.324 365.313 139.784 365.313 140.341V144.5H364.308V140.409C364.308 139.895 364.174 139.494 363.907 139.207C363.64 138.918 363.273 138.773 362.808 138.773C362.487 138.773 362.2 138.842 361.947 138.982C361.697 139.121 361.499 139.324 361.354 139.591C361.21 139.858 361.137 140.182 361.137 140.562Z" fill="#888888"/>
    <rect x="20.5" y="182.5" width="359" height="47" rx="23.5" stroke="url(#paint4_linear_11_518)"/>
    <g clip-path="url(#clip1_11_518)">
        <path d="M37.1094 215.492V205.508L31.3438 201.078V213.383C31.3438 214.789 32.0469 215.492 33.4531 215.492" fill="#4285F4"/>
        <path d="M36.8281 205.438L44 210.852L51.1719 205.438V198.547L44 203.961L36.8281 198.547" fill="#EA4335"/>
        <path d="M50.8906 215.492V205.508L56.6562 201.078V213.383C56.6562 214.789 55.9531 215.492 54.5469 215.492" fill="#34A853"/>
        <path d="M31.3438 201.219L37.1094 205.649V198.758L35 197.141C33.1016 195.664 31.3438 197.141 31.3438 198.969" fill="#C5221F"/>
        <path d="M56.6562 201.219L50.8906 205.649V198.758L53 197.141C54.8984 195.664 56.6562 197.141 56.6562 198.969" fill="#FBBC04"/>
    </g>
    <path d="M81.1534 203.54C81.0436 203.195 80.8958 202.886 80.7102 202.614C80.5284 202.337 80.3106 202.102 80.0568 201.909C79.803 201.712 79.5133 201.562 79.1875 201.46C78.8655 201.358 78.5114 201.307 78.125 201.307C77.4697 201.307 76.8788 201.475 76.3523 201.812C75.8258 202.15 75.4091 202.644 75.1023 203.295C74.7992 203.943 74.6477 204.737 74.6477 205.676C74.6477 206.619 74.8011 207.417 75.108 208.068C75.4148 208.72 75.8352 209.214 76.3693 209.551C76.9034 209.888 77.5114 210.057 78.1932 210.057C78.8258 210.057 79.3769 209.928 79.8466 209.67C80.3201 209.413 80.6856 209.049 80.9432 208.58C81.2045 208.106 81.3352 207.549 81.3352 206.909L81.7898 206.994H78.4602V205.545H83.0341V206.869C83.0341 207.847 82.8258 208.695 82.4091 209.415C81.9962 210.131 81.4242 210.684 80.6932 211.074C79.9659 211.464 79.1326 211.659 78.1932 211.659C77.1402 211.659 76.2159 211.417 75.4205 210.932C74.6288 210.447 74.0114 209.759 73.5682 208.869C73.125 207.975 72.9034 206.915 72.9034 205.688C72.9034 204.759 73.0322 203.926 73.2898 203.188C73.5473 202.449 73.9091 201.822 74.375 201.307C74.8447 200.788 75.3958 200.392 76.0284 200.119C76.6648 199.843 77.3598 199.705 78.1136 199.705C78.7424 199.705 79.3277 199.797 79.8693 199.983C80.4148 200.169 80.8996 200.432 81.3239 200.773C81.7519 201.114 82.1061 201.519 82.3864 201.989C82.6667 202.455 82.8561 202.972 82.9545 203.54H81.1534ZM85.1264 211.5V202.773H86.7571V204.193H86.8651C87.0469 203.712 87.3442 203.337 87.7571 203.068C88.17 202.795 88.6643 202.659 89.2401 202.659C89.8234 202.659 90.312 202.795 90.706 203.068C91.1037 203.341 91.3973 203.716 91.5866 204.193H91.6776C91.8859 203.727 92.2173 203.356 92.6719 203.08C93.1264 202.799 93.6681 202.659 94.2969 202.659C95.0885 202.659 95.7344 202.907 96.2344 203.403C96.7382 203.9 96.9901 204.648 96.9901 205.648V211.5H95.2912V205.807C95.2912 205.216 95.1302 204.788 94.8082 204.523C94.4863 204.258 94.1018 204.125 93.6548 204.125C93.1018 204.125 92.6719 204.295 92.3651 204.636C92.0582 204.973 91.9048 205.407 91.9048 205.938V211.5H90.2116V205.699C90.2116 205.225 90.0639 204.845 89.7685 204.557C89.473 204.269 89.0885 204.125 88.6151 204.125C88.2931 204.125 87.9957 204.21 87.723 204.381C87.4541 204.547 87.2363 204.78 87.0696 205.08C86.9067 205.379 86.8253 205.725 86.8253 206.119V211.5H85.1264ZM101.807 211.693C101.254 211.693 100.754 211.591 100.307 211.386C99.8598 211.178 99.5057 210.877 99.2443 210.483C98.9867 210.089 98.858 209.606 98.858 209.034C98.858 208.542 98.9527 208.136 99.142 207.818C99.3314 207.5 99.5871 207.248 99.9091 207.062C100.231 206.877 100.591 206.737 100.989 206.642C101.386 206.547 101.792 206.475 102.205 206.426C102.727 206.366 103.152 206.316 103.477 206.278C103.803 206.237 104.04 206.17 104.188 206.08C104.335 205.989 104.409 205.841 104.409 205.636V205.597C104.409 205.1 104.269 204.716 103.989 204.443C103.712 204.17 103.299 204.034 102.75 204.034C102.178 204.034 101.727 204.161 101.398 204.415C101.072 204.665 100.847 204.943 100.722 205.25L99.125 204.886C99.3144 204.356 99.5909 203.928 99.9545 203.602C100.322 203.273 100.744 203.034 101.222 202.886C101.699 202.735 102.201 202.659 102.727 202.659C103.076 202.659 103.445 202.701 103.835 202.784C104.229 202.864 104.597 203.011 104.938 203.227C105.282 203.443 105.564 203.752 105.784 204.153C106.004 204.551 106.114 205.068 106.114 205.705V211.5H104.455V210.307H104.386C104.277 210.527 104.112 210.742 103.892 210.955C103.672 211.167 103.39 211.343 103.045 211.483C102.701 211.623 102.288 211.693 101.807 211.693ZM102.176 210.33C102.646 210.33 103.047 210.237 103.381 210.051C103.718 209.866 103.973 209.623 104.148 209.324C104.326 209.021 104.415 208.697 104.415 208.352V207.227C104.354 207.288 104.237 207.345 104.062 207.398C103.892 207.447 103.697 207.491 103.477 207.528C103.258 207.562 103.044 207.595 102.835 207.625C102.627 207.652 102.453 207.674 102.312 207.693C101.983 207.735 101.682 207.805 101.409 207.903C101.14 208.002 100.924 208.144 100.761 208.33C100.602 208.511 100.523 208.754 100.523 209.057C100.523 209.477 100.678 209.795 100.989 210.011C101.299 210.223 101.695 210.33 102.176 210.33ZM108.376 211.5V202.773H110.075V211.5H108.376ZM109.234 201.426C108.939 201.426 108.685 201.328 108.473 201.131C108.265 200.93 108.161 200.691 108.161 200.415C108.161 200.134 108.265 199.896 108.473 199.699C108.685 199.498 108.939 199.398 109.234 199.398C109.53 199.398 109.782 199.498 109.99 199.699C110.202 199.896 110.308 200.134 110.308 200.415C110.308 200.691 110.202 200.93 109.99 201.131C109.782 201.328 109.53 201.426 109.234 201.426ZM114.06 199.864V211.5H112.361V199.864H114.06Z" fill="#FAFAFA"/>
    <path d="M237.557 205.42L236.653 205.676C236.597 205.526 236.513 205.379 236.402 205.237C236.294 205.092 236.146 204.973 235.959 204.879C235.771 204.786 235.531 204.739 235.239 204.739C234.838 204.739 234.504 204.831 234.237 205.016C233.973 205.197 233.841 205.429 233.841 205.71C233.841 205.96 233.932 206.158 234.114 206.303C234.295 206.447 234.58 206.568 234.966 206.665L235.938 206.903C236.523 207.045 236.959 207.263 237.246 207.555C237.533 207.845 237.676 208.219 237.676 208.676C237.676 209.051 237.568 209.386 237.352 209.682C237.139 209.977 236.841 210.21 236.457 210.381C236.074 210.551 235.628 210.636 235.119 210.636C234.452 210.636 233.899 210.491 233.462 210.202C233.024 209.912 232.747 209.489 232.631 208.932L233.585 208.693C233.676 209.045 233.848 209.31 234.101 209.486C234.357 209.662 234.69 209.75 235.102 209.75C235.571 209.75 235.943 209.651 236.219 209.452C236.497 209.25 236.636 209.009 236.636 208.727C236.636 208.5 236.557 208.31 236.398 208.156C236.239 208 235.994 207.884 235.665 207.807L234.574 207.551C233.974 207.409 233.534 207.189 233.253 206.891C232.974 206.589 232.835 206.213 232.835 205.761C232.835 205.392 232.939 205.065 233.146 204.781C233.357 204.497 233.642 204.274 234.003 204.112C234.366 203.95 234.778 203.869 235.239 203.869C235.886 203.869 236.395 204.011 236.764 204.295C237.136 204.58 237.401 204.955 237.557 205.42ZM241.116 210.653C240.701 210.653 240.325 210.575 239.987 210.419C239.649 210.26 239.38 210.031 239.181 209.733C238.983 209.432 238.883 209.068 238.883 208.642C238.883 208.267 238.957 207.963 239.105 207.73C239.252 207.494 239.45 207.31 239.697 207.176C239.944 207.043 240.217 206.943 240.515 206.878C240.816 206.81 241.119 206.756 241.423 206.716C241.821 206.665 242.143 206.626 242.39 206.601C242.64 206.572 242.822 206.526 242.936 206.46C243.052 206.395 243.11 206.281 243.11 206.119V206.085C243.11 205.665 242.995 205.338 242.765 205.105C242.538 204.872 242.193 204.756 241.73 204.756C241.25 204.756 240.873 204.861 240.6 205.071C240.328 205.281 240.136 205.506 240.025 205.744L239.071 205.403C239.241 205.006 239.468 204.696 239.752 204.474C240.039 204.25 240.352 204.094 240.69 204.006C241.031 203.915 241.366 203.869 241.696 203.869C241.906 203.869 242.147 203.895 242.42 203.946C242.696 203.994 242.961 204.095 243.217 204.249C243.475 204.402 243.69 204.634 243.86 204.943C244.031 205.253 244.116 205.668 244.116 206.188V210.5H243.11V209.614H243.059C242.991 209.756 242.877 209.908 242.718 210.07C242.559 210.232 242.348 210.369 242.083 210.483C241.819 210.597 241.497 210.653 241.116 210.653ZM241.27 209.75C241.667 209.75 242.002 209.672 242.275 209.516C242.551 209.359 242.758 209.158 242.897 208.911C243.039 208.663 243.11 208.403 243.11 208.131V207.21C243.068 207.261 242.974 207.308 242.829 207.351C242.687 207.391 242.522 207.426 242.335 207.457C242.15 207.486 241.97 207.511 241.794 207.534C241.62 207.554 241.48 207.571 241.372 207.585C241.11 207.619 240.866 207.675 240.639 207.751C240.414 207.825 240.233 207.937 240.093 208.088C239.957 208.236 239.889 208.437 239.889 208.693C239.889 209.043 240.018 209.307 240.277 209.486C240.538 209.662 240.869 209.75 241.27 209.75ZM246.088 210.5V201.773H247.094V204.994H247.179C247.253 204.881 247.355 204.736 247.486 204.56C247.619 204.381 247.81 204.222 248.057 204.082C248.307 203.94 248.645 203.869 249.071 203.869C249.622 203.869 250.108 204.007 250.528 204.283C250.949 204.558 251.277 204.949 251.513 205.455C251.749 205.96 251.866 206.557 251.866 207.244C251.866 207.938 251.749 208.538 251.513 209.047C251.277 209.553 250.95 209.945 250.533 210.223C250.115 210.499 249.634 210.636 249.088 210.636C248.668 210.636 248.331 210.567 248.078 210.428C247.825 210.286 247.631 210.125 247.494 209.946C247.358 209.764 247.253 209.614 247.179 209.494H247.06V210.5H246.088ZM247.077 207.227C247.077 207.722 247.149 208.158 247.294 208.536C247.439 208.911 247.651 209.205 247.929 209.418C248.207 209.628 248.548 209.733 248.952 209.733C249.372 209.733 249.723 209.622 250.004 209.401C250.288 209.176 250.501 208.875 250.643 208.497C250.788 208.116 250.861 207.693 250.861 207.227C250.861 206.767 250.79 206.352 250.648 205.983C250.509 205.611 250.297 205.317 250.013 205.101C249.732 204.882 249.378 204.773 248.952 204.773C248.543 204.773 248.199 204.876 247.92 205.084C247.642 205.288 247.432 205.575 247.29 205.945C247.148 206.311 247.077 206.739 247.077 207.227ZM253.818 212.955C253.648 212.955 253.496 212.94 253.362 212.912C253.229 212.886 253.136 212.861 253.085 212.835L253.341 211.949C253.585 212.011 253.801 212.034 253.989 212.017C254.176 212 254.342 211.916 254.487 211.766C254.635 211.618 254.77 211.378 254.892 211.045L255.08 210.534L252.659 203.955H253.75L255.557 209.17H255.625L257.432 203.955H258.523L255.744 211.455C255.619 211.793 255.464 212.072 255.28 212.294C255.095 212.518 254.881 212.685 254.636 212.793C254.395 212.901 254.122 212.955 253.818 212.955ZM259.85 210.5V203.955H260.822V204.943H260.89C261.009 204.619 261.225 204.357 261.538 204.155C261.85 203.953 262.202 203.852 262.594 203.852C262.668 203.852 262.761 203.854 262.871 203.857C262.982 203.859 263.066 203.864 263.123 203.869V204.892C263.089 204.884 263.011 204.871 262.888 204.854C262.769 204.834 262.643 204.824 262.509 204.824C262.191 204.824 261.907 204.891 261.657 205.024C261.41 205.155 261.214 205.337 261.069 205.57C260.927 205.8 260.856 206.062 260.856 206.358V210.5H259.85ZM265.252 208.114L265.235 206.869H265.44L268.304 203.955H269.548L266.497 207.04H266.412L265.252 208.114ZM264.315 210.5V201.773H265.321V210.5H264.315ZM268.474 210.5L265.917 207.261L266.633 206.562L269.752 210.5H268.474ZM272.768 210.653C272.354 210.653 271.977 210.575 271.639 210.419C271.301 210.26 271.033 210.031 270.834 209.733C270.635 209.432 270.536 209.068 270.536 208.642C270.536 208.267 270.609 207.963 270.757 207.73C270.905 207.494 271.102 207.31 271.349 207.176C271.597 207.043 271.869 206.943 272.168 206.878C272.469 206.81 272.771 206.756 273.075 206.716C273.473 206.665 273.795 206.626 274.043 206.601C274.293 206.572 274.474 206.526 274.588 206.46C274.705 206.395 274.763 206.281 274.763 206.119V206.085C274.763 205.665 274.648 205.338 274.418 205.105C274.19 204.872 273.845 204.756 273.382 204.756C272.902 204.756 272.526 204.861 272.253 205.071C271.98 205.281 271.788 205.506 271.678 205.744L270.723 205.403C270.893 205.006 271.121 204.696 271.405 204.474C271.692 204.25 272.004 204.094 272.342 204.006C272.683 203.915 273.018 203.869 273.348 203.869C273.558 203.869 273.8 203.895 274.072 203.946C274.348 203.994 274.614 204.095 274.869 204.249C275.128 204.402 275.342 204.634 275.513 204.943C275.683 205.253 275.768 205.668 275.768 206.188V210.5H274.763V209.614H274.712C274.643 209.756 274.53 209.908 274.371 210.07C274.212 210.232 274 210.369 273.736 210.483C273.472 210.597 273.149 210.653 272.768 210.653ZM272.922 209.75C273.32 209.75 273.655 209.672 273.928 209.516C274.203 209.359 274.411 209.158 274.55 208.911C274.692 208.663 274.763 208.403 274.763 208.131V207.21C274.72 207.261 274.626 207.308 274.482 207.351C274.339 207.391 274.175 207.426 273.987 207.457C273.803 207.486 273.622 207.511 273.446 207.534C273.273 207.554 273.132 207.571 273.024 207.585C272.763 207.619 272.518 207.675 272.291 207.751C272.067 207.825 271.885 207.937 271.746 208.088C271.609 208.236 271.541 208.437 271.541 208.693C271.541 209.043 271.67 209.307 271.929 209.486C272.19 209.662 272.521 209.75 272.922 209.75ZM277.417 210.5V209.733L281.132 204.96V204.892H277.536V203.955H282.428V204.756L278.814 209.494V209.562H282.547V210.5H277.417ZM286.653 210.636C286.022 210.636 285.478 210.497 285.021 210.219C284.566 209.938 284.216 209.545 283.968 209.043C283.724 208.537 283.602 207.949 283.602 207.278C283.602 206.608 283.724 206.017 283.968 205.506C284.216 204.991 284.559 204.591 285 204.304C285.443 204.014 285.96 203.869 286.551 203.869C286.892 203.869 287.228 203.926 287.561 204.04C287.893 204.153 288.196 204.338 288.468 204.594C288.741 204.847 288.958 205.182 289.12 205.599C289.282 206.017 289.363 206.531 289.363 207.142V207.568H284.318V206.699H288.341C288.341 206.33 288.267 206 288.119 205.71C287.974 205.42 287.767 205.192 287.497 205.024C287.23 204.857 286.914 204.773 286.551 204.773C286.15 204.773 285.804 204.872 285.511 205.071C285.221 205.267 284.998 205.523 284.842 205.838C284.686 206.153 284.608 206.491 284.608 206.852V207.432C284.608 207.926 284.693 208.345 284.863 208.689C285.037 209.03 285.277 209.29 285.583 209.469C285.89 209.645 286.247 209.733 286.653 209.733C286.917 209.733 287.156 209.696 287.369 209.622C287.585 209.545 287.771 209.432 287.927 209.281C288.083 209.128 288.204 208.937 288.289 208.71L289.261 208.983C289.159 209.312 288.987 209.602 288.745 209.852C288.504 210.099 288.206 210.293 287.85 210.432C287.495 210.568 287.096 210.636 286.653 210.636ZM291.899 206.562V210.5H290.893V203.955H291.865V204.977H291.95C292.103 204.645 292.336 204.378 292.649 204.176C292.961 203.972 293.365 203.869 293.859 203.869C294.302 203.869 294.69 203.96 295.022 204.142C295.355 204.321 295.613 204.594 295.798 204.96C295.983 205.324 296.075 205.784 296.075 206.341V210.5H295.069V206.409C295.069 205.895 294.936 205.494 294.669 205.207C294.402 204.918 294.035 204.773 293.569 204.773C293.248 204.773 292.961 204.842 292.708 204.982C292.458 205.121 292.261 205.324 292.116 205.591C291.971 205.858 291.899 206.182 291.899 206.562ZM302.941 212.801C302.072 212.801 301.303 212.682 300.636 212.443C299.968 212.207 299.407 211.859 298.952 211.399C298.498 210.939 298.154 210.375 297.921 209.707C297.688 209.04 297.572 208.276 297.572 207.415C297.572 206.582 297.69 205.838 297.925 205.182C298.164 204.526 298.509 203.969 298.961 203.511C299.415 203.051 299.967 202.7 300.614 202.459C301.265 202.217 302.001 202.097 302.822 202.097C303.62 202.097 304.319 202.227 304.918 202.489C305.521 202.747 306.023 203.098 306.427 203.541C306.833 203.982 307.137 204.477 307.339 205.028C307.543 205.58 307.646 206.148 307.646 206.733C307.646 207.145 307.626 207.562 307.586 207.986C307.546 208.409 307.462 208.798 307.335 209.153C307.207 209.506 307.009 209.79 306.742 210.006C306.478 210.222 306.12 210.33 305.668 210.33C305.469 210.33 305.251 210.298 305.012 210.236C304.773 210.173 304.562 210.07 304.377 209.925C304.192 209.78 304.083 209.585 304.049 209.341H303.998C303.93 209.506 303.825 209.662 303.683 209.81C303.543 209.957 303.36 210.075 303.133 210.163C302.908 210.251 302.634 210.29 302.31 210.278C301.941 210.264 301.616 210.182 301.335 210.031C301.053 209.878 300.817 209.67 300.627 209.409C300.44 209.145 300.298 208.839 300.201 208.493C300.107 208.143 300.06 207.767 300.06 207.364C300.06 206.98 300.117 206.629 300.231 206.311C300.344 205.993 300.502 205.714 300.704 205.476C300.908 205.237 301.147 205.047 301.42 204.905C301.695 204.76 301.992 204.67 302.31 204.636C302.594 204.608 302.853 204.621 303.086 204.675C303.319 204.726 303.511 204.804 303.661 204.909C303.812 205.011 303.907 205.125 303.947 205.25H303.998V204.773H304.901V208.625C304.901 208.864 304.968 209.074 305.102 209.256C305.235 209.437 305.43 209.528 305.685 209.528C305.975 209.528 306.197 209.429 306.35 209.23C306.506 209.031 306.613 208.724 306.67 208.31C306.729 207.895 306.759 207.364 306.759 206.716C306.759 206.335 306.707 205.96 306.602 205.591C306.499 205.219 306.343 204.871 306.133 204.547C305.925 204.223 305.663 203.937 305.344 203.69C305.026 203.443 304.653 203.25 304.224 203.111C303.798 202.969 303.313 202.898 302.771 202.898C302.103 202.898 301.505 203.001 300.977 203.209C300.451 203.413 300.004 203.713 299.634 204.108C299.268 204.5 298.988 204.977 298.795 205.54C298.604 206.099 298.509 206.736 298.509 207.449C298.509 208.173 298.604 208.817 298.795 209.379C298.988 209.942 299.272 210.416 299.647 210.803C300.025 211.189 300.492 211.482 301.049 211.68C301.606 211.882 302.248 211.983 302.975 211.983C303.288 211.983 303.596 211.953 303.9 211.893C304.204 211.834 304.472 211.768 304.705 211.697C304.938 211.626 305.106 211.574 305.208 211.54L305.447 212.324C305.271 212.398 305.04 212.472 304.756 212.545C304.475 212.619 304.174 212.68 303.853 212.729C303.535 212.777 303.231 212.801 302.941 212.801ZM302.447 209.409C302.827 209.409 303.136 209.332 303.371 209.179C303.607 209.026 303.779 208.794 303.887 208.484C303.995 208.175 304.049 207.784 304.049 207.312C304.049 206.835 303.989 206.463 303.87 206.196C303.751 205.929 303.575 205.741 303.342 205.634C303.109 205.526 302.822 205.472 302.481 205.472C302.157 205.472 301.88 205.557 301.65 205.727C301.423 205.895 301.248 206.119 301.126 206.401C301.006 206.679 300.947 206.983 300.947 207.312C300.947 207.676 300.995 208.018 301.092 208.339C301.188 208.658 301.346 208.916 301.565 209.115C301.783 209.311 302.077 209.409 302.447 209.409ZM311.793 213.091C311.307 213.091 310.89 213.028 310.54 212.903C310.191 212.781 309.9 212.619 309.667 212.418C309.436 212.219 309.253 212.006 309.117 211.778L309.918 211.216C310.009 211.335 310.124 211.472 310.263 211.625C310.402 211.781 310.593 211.916 310.834 212.03C311.078 212.146 311.398 212.205 311.793 212.205C312.321 212.205 312.757 212.077 313.101 211.821C313.445 211.565 313.617 211.165 313.617 210.619V209.29H313.532C313.458 209.409 313.353 209.557 313.216 209.733C313.083 209.906 312.89 210.061 312.637 210.197C312.387 210.331 312.049 210.398 311.623 210.398C311.094 210.398 310.62 210.273 310.199 210.023C309.782 209.773 309.451 209.409 309.206 208.932C308.965 208.455 308.844 207.875 308.844 207.193C308.844 206.523 308.962 205.939 309.198 205.442C309.434 204.942 309.762 204.555 310.182 204.283C310.603 204.007 311.088 203.869 311.64 203.869C312.066 203.869 312.404 203.94 312.654 204.082C312.907 204.222 313.1 204.381 313.233 204.56C313.37 204.736 313.475 204.881 313.549 204.994H313.651V203.955H314.623V210.688C314.623 211.25 314.495 211.707 314.239 212.06C313.986 212.415 313.645 212.675 313.216 212.839C312.79 213.007 312.316 213.091 311.793 213.091ZM311.759 209.494C312.162 209.494 312.503 209.402 312.782 209.217C313.06 209.033 313.272 208.767 313.417 208.42C313.561 208.074 313.634 207.659 313.634 207.176C313.634 206.705 313.563 206.288 313.421 205.928C313.279 205.567 313.069 205.284 312.79 205.08C312.512 204.875 312.168 204.773 311.759 204.773C311.333 204.773 310.978 204.881 310.694 205.097C310.412 205.312 310.201 205.602 310.059 205.966C309.919 206.33 309.85 206.733 309.85 207.176C309.85 207.631 309.921 208.033 310.063 208.382C310.208 208.729 310.421 209.001 310.702 209.2C310.986 209.396 311.338 209.494 311.759 209.494ZM316.463 210.5V203.955H317.435V204.977H317.52C317.657 204.628 317.877 204.357 318.181 204.163C318.485 203.967 318.85 203.869 319.276 203.869C319.708 203.869 320.067 203.967 320.354 204.163C320.644 204.357 320.87 204.628 321.032 204.977H321.1C321.267 204.639 321.519 204.371 321.854 204.172C322.189 203.97 322.591 203.869 323.06 203.869C323.645 203.869 324.124 204.053 324.496 204.419C324.868 204.783 325.054 205.349 325.054 206.119V210.5H324.049V206.119C324.049 205.636 323.917 205.291 323.652 205.084C323.388 204.876 323.077 204.773 322.719 204.773C322.259 204.773 321.902 204.912 321.65 205.19C321.397 205.466 321.27 205.815 321.27 206.239V210.5H320.248V206.017C320.248 205.645 320.127 205.345 319.885 205.118C319.644 204.888 319.333 204.773 318.952 204.773C318.691 204.773 318.446 204.842 318.219 204.982C317.995 205.121 317.813 205.314 317.674 205.561C317.537 205.805 317.469 206.088 317.469 206.409V210.5H316.463ZM328.819 210.653C328.404 210.653 328.028 210.575 327.69 210.419C327.352 210.26 327.083 210.031 326.885 209.733C326.686 209.432 326.586 209.068 326.586 208.642C326.586 208.267 326.66 207.963 326.808 207.73C326.956 207.494 327.153 207.31 327.4 207.176C327.647 207.043 327.92 206.943 328.218 206.878C328.52 206.81 328.822 206.756 329.126 206.716C329.524 206.665 329.846 206.626 330.093 206.601C330.343 206.572 330.525 206.526 330.639 206.46C330.755 206.395 330.814 206.281 330.814 206.119V206.085C330.814 205.665 330.699 205.338 330.468 205.105C330.241 204.872 329.896 204.756 329.433 204.756C328.953 204.756 328.576 204.861 328.304 205.071C328.031 205.281 327.839 205.506 327.728 205.744L326.774 205.403C326.944 205.006 327.172 204.696 327.456 204.474C327.743 204.25 328.055 204.094 328.393 204.006C328.734 203.915 329.069 203.869 329.399 203.869C329.609 203.869 329.85 203.895 330.123 203.946C330.399 203.994 330.664 204.095 330.92 204.249C331.179 204.402 331.393 204.634 331.564 204.943C331.734 205.253 331.819 205.668 331.819 206.188V210.5H330.814V209.614H330.762C330.694 209.756 330.581 209.908 330.422 210.07C330.262 210.232 330.051 210.369 329.787 210.483C329.522 210.597 329.2 210.653 328.819 210.653ZM328.973 209.75C329.37 209.75 329.706 209.672 329.978 209.516C330.254 209.359 330.461 209.158 330.6 208.911C330.743 208.663 330.814 208.403 330.814 208.131V207.21C330.771 207.261 330.677 207.308 330.532 207.351C330.39 207.391 330.225 207.426 330.038 207.457C329.853 207.486 329.673 207.511 329.497 207.534C329.324 207.554 329.183 207.571 329.075 207.585C328.814 207.619 328.569 207.675 328.342 207.751C328.118 207.825 327.936 207.937 327.797 208.088C327.66 208.236 327.592 208.437 327.592 208.693C327.592 209.043 327.721 209.307 327.98 209.486C328.241 209.662 328.572 209.75 328.973 209.75ZM333.655 210.5V203.955H334.661V210.5H333.655ZM334.166 202.864C333.97 202.864 333.801 202.797 333.659 202.663C333.52 202.53 333.45 202.369 333.45 202.182C333.45 201.994 333.52 201.834 333.659 201.7C333.801 201.567 333.97 201.5 334.166 201.5C334.362 201.5 334.53 201.567 334.669 201.7C334.811 201.834 334.882 201.994 334.882 202.182C334.882 202.369 334.811 202.53 334.669 202.663C334.53 202.797 334.362 202.864 334.166 202.864ZM337.508 201.773V210.5H336.502V201.773H337.508ZM340.083 210.568C339.873 210.568 339.692 210.493 339.542 210.342C339.391 210.192 339.316 210.011 339.316 209.801C339.316 209.591 339.391 209.411 339.542 209.26C339.692 209.109 339.873 209.034 340.083 209.034C340.293 209.034 340.474 209.109 340.624 209.26C340.775 209.411 340.85 209.591 340.85 209.801C340.85 209.94 340.815 210.068 340.744 210.185C340.675 210.301 340.583 210.395 340.467 210.466C340.353 210.534 340.225 210.568 340.083 210.568ZM345.314 210.636C344.7 210.636 344.172 210.491 343.729 210.202C343.286 209.912 342.945 209.513 342.706 209.004C342.467 208.496 342.348 207.915 342.348 207.261C342.348 206.597 342.47 206.01 342.714 205.501C342.962 204.99 343.305 204.591 343.746 204.304C344.189 204.014 344.706 203.869 345.297 203.869C345.757 203.869 346.172 203.955 346.541 204.125C346.911 204.295 347.213 204.534 347.449 204.841C347.685 205.148 347.831 205.506 347.888 205.915H346.882C346.805 205.616 346.635 205.352 346.371 205.122C346.109 204.889 345.757 204.773 345.314 204.773C344.922 204.773 344.578 204.875 344.283 205.08C343.99 205.281 343.761 205.567 343.597 205.936C343.435 206.303 343.354 206.733 343.354 207.227C343.354 207.733 343.433 208.173 343.592 208.548C343.754 208.923 343.982 209.214 344.274 209.422C344.57 209.629 344.916 209.733 345.314 209.733C345.575 209.733 345.812 209.688 346.026 209.597C346.239 209.506 346.419 209.375 346.567 209.205C346.714 209.034 346.82 208.83 346.882 208.591H347.888C347.831 208.977 347.69 209.325 347.466 209.635C347.244 209.942 346.95 210.186 346.584 210.368C346.22 210.547 345.797 210.636 345.314 210.636ZM352.017 210.636C351.426 210.636 350.908 210.496 350.462 210.214C350.018 209.933 349.672 209.54 349.422 209.034C349.175 208.528 349.051 207.937 349.051 207.261C349.051 206.58 349.175 205.984 349.422 205.476C349.672 204.967 350.018 204.572 350.462 204.291C350.908 204.01 351.426 203.869 352.017 203.869C352.608 203.869 353.125 204.01 353.568 204.291C354.014 204.572 354.361 204.967 354.608 205.476C354.858 205.984 354.983 206.58 354.983 207.261C354.983 207.937 354.858 208.528 354.608 209.034C354.361 209.54 354.014 209.933 353.568 210.214C353.125 210.496 352.608 210.636 352.017 210.636ZM352.017 209.733C352.466 209.733 352.835 209.618 353.125 209.388C353.415 209.158 353.629 208.855 353.768 208.48C353.908 208.105 353.977 207.699 353.977 207.261C353.977 206.824 353.908 206.416 353.768 206.038C353.629 205.661 353.415 205.355 353.125 205.122C352.835 204.889 352.466 204.773 352.017 204.773C351.568 204.773 351.199 204.889 350.909 205.122C350.619 205.355 350.405 205.661 350.266 206.038C350.126 206.416 350.057 206.824 350.057 207.261C350.057 207.699 350.126 208.105 350.266 208.48C350.405 208.855 350.619 209.158 350.909 209.388C351.199 209.618 351.568 209.733 352.017 209.733ZM356.518 210.5V203.955H357.49V204.977H357.575C357.711 204.628 357.931 204.357 358.235 204.163C358.539 203.967 358.904 203.869 359.331 203.869C359.762 203.869 360.122 203.967 360.409 204.163C360.699 204.357 360.924 204.628 361.086 204.977H361.154C361.322 204.639 361.574 204.371 361.909 204.172C362.244 203.97 362.646 203.869 363.115 203.869C363.7 203.869 364.179 204.053 364.551 204.419C364.923 204.783 365.109 205.349 365.109 206.119V210.5H364.103V206.119C364.103 205.636 363.971 205.291 363.707 205.084C363.443 204.876 363.132 204.773 362.774 204.773C362.314 204.773 361.957 204.912 361.704 205.19C361.451 205.466 361.325 205.815 361.325 206.239V210.5H360.302V206.017C360.302 205.645 360.181 205.345 359.94 205.118C359.699 204.888 359.387 204.773 359.007 204.773C358.745 204.773 358.501 204.842 358.274 204.982C358.049 205.121 357.868 205.314 357.728 205.561C357.592 205.805 357.524 206.088 357.524 206.409V210.5H356.518Z" fill="#888888"/>
    <a href="mailto:sabyrkazen@gmail.com">
        <rect fill="black" fill-opacity="0" y="0.238636" width="134.029" height="14.5227"/>
    </a>
    <defs>
        <linearGradient id="paint0_linear_11_518" x1="161.5" y1="147.5" x2="-57.9375" y2="54.7823" gradientUnits="userSpaceOnUse">
            <stop offset="0.745826" stop-color="#666666"/>
            <stop offset="0.926569" stop-color="#333333" stop-opacity="0"/>
        </linearGradient>
        <linearGradient id="paint1_linear_11_518" x1="601.143" y1="15.7143" x2="529.329" y2="424.152" gradientUnits="userSpaceOnUse">
            <stop offset="0.11827" stop-color="#333333" stop-opacity="0"/>
            <stop offset="0.223096" stop-color="#666666"/>
        </linearGradient>
        <linearGradient id="paint2_linear_11_518" x1="601.143" y1="81.7143" x2="529.329" y2="490.152" gradientUnits="userSpaceOnUse">
            <stop offset="0.11827" stop-color="#333333" stop-opacity="0"/>
            <stop offset="0.223096" stop-color="#666666"/>
        </linearGradient>
        <linearGradient id="paint3_linear_11_518" x1="44" y1="124.25" x2="44" y2="155.75" gradientUnits="userSpaceOnUse">
            <stop stop-color="#37BBFE"/>
            <stop offset="1" stop-color="#007DBB"/>
        </linearGradient>
        <linearGradient id="paint4_linear_11_518" x1="601.143" y1="147.714" x2="529.329" y2="556.152" gradientUnits="userSpaceOnUse">
            <stop offset="0.11827" stop-color="#333333" stop-opacity="0"/>
            <stop offset="0.223096" stop-color="#666666"/>
        </linearGradient>
        <clipPath id="clip0_11_518">
            <rect width="36" height="36" fill="white" transform="translate(26 56)"/>
        </clipPath>
        <clipPath id="clip1_11_518">
            <rect width="36" height="36" fill="white" transform="translate(26 188)"/>
        </clipPath>
    </defs>
</svg>
