<svg width="515" height="48" viewBox="0 0 515 48" fill="none" xmlns="http://www.w3.org/2000/svg">
<rect x="0.5" y="0.5" width="514" height="47" rx="23.5" stroke="url(#paint0_linear_11_534)"/>
<g clip-path="url(#clip0_11_534)">
<path d="M17.1094 33.4922V23.5078L11.3438 19.0781V31.3828C11.3438 32.7891 12.0469 33.4922 13.4531 33.4922" fill="#4285F4"/>
<path d="M16.8281 23.4375L24 28.8516L31.1719 23.4375V16.5469L24 21.9609L16.8281 16.5469" fill="#EA4335"/>
<path d="M30.8906 33.4922V23.5078L36.6562 19.0781V31.3828C36.6562 32.7891 35.9531 33.4922 34.5469 33.4922" fill="#34A853"/>
<path d="M11.3438 19.2189L17.1094 23.6486V16.758L15 15.1408C13.1016 13.6642 11.3438 15.1408 11.3438 16.9689" fill="#C5221F"/>
<path d="M36.6562 19.2189L30.8906 23.6486V16.758L33 15.1408C34.8984 13.6642 36.6562 15.1408 36.6562 16.9689" fill="#FBBC04"/>
</g>
<path d="M61.1534 21.5398C61.0436 21.1951 60.8958 20.8864 60.7102 20.6136C60.5284 20.3371 60.3106 20.1023 60.0568 19.9091C59.803 19.7121 59.5133 19.5625 59.1875 19.4602C58.8655 19.358 58.5114 19.3068 58.125 19.3068C57.4697 19.3068 56.8788 19.4754 56.3523 19.8125C55.8258 20.1496 55.4091 20.6439 55.1023 21.2955C54.7992 21.9432 54.6477 22.7367 54.6477 23.6761C54.6477 24.6193 54.8011 25.4167 55.108 26.0682C55.4148 26.7197 55.8352 27.214 56.3693 27.5511C56.9034 27.8883 57.5114 28.0568 58.1932 28.0568C58.8258 28.0568 59.3769 27.928 59.8466 27.6705C60.3201 27.4129 60.6856 27.0492 60.9432 26.5795C61.2045 26.1061 61.3352 25.5492 61.3352 24.9091L61.7898 24.9943H58.4602V23.5455H63.0341V24.8693C63.0341 25.8466 62.8258 26.6951 62.4091 27.4148C61.9962 28.1307 61.4242 28.6837 60.6932 29.0739C59.9659 29.464 59.1326 29.6591 58.1932 29.6591C57.1402 29.6591 56.2159 29.4167 55.4205 28.9318C54.6288 28.447 54.0114 27.7595 53.5682 26.8693C53.125 25.9754 52.9034 24.9148 52.9034 23.6875C52.9034 22.7595 53.0322 21.9261 53.2898 21.1875C53.5473 20.4489 53.9091 19.822 54.375 19.3068C54.8447 18.7879 55.3958 18.392 56.0284 18.1193C56.6648 17.8428 57.3598 17.7045 58.1136 17.7045C58.7424 17.7045 59.3277 17.7973 59.8693 17.983C60.4148 18.1686 60.8996 18.4318 61.3239 18.7727C61.7519 19.1136 62.1061 19.5189 62.3864 19.9886C62.6667 20.4545 62.8561 20.9716 62.9545 21.5398H61.1534ZM65.1264 29.5V20.7727H66.7571V22.1932H66.8651C67.0469 21.7121 67.3442 21.3371 67.7571 21.0682C68.17 20.7955 68.6643 20.6591 69.2401 20.6591C69.8234 20.6591 70.312 20.7955 70.706 21.0682C71.1037 21.3409 71.3973 21.7159 71.5866 22.1932H71.6776C71.8859 21.7273 72.2173 21.3561 72.6719 21.0795C73.1264 20.7992 73.6681 20.6591 74.2969 20.6591C75.0885 20.6591 75.7344 20.9072 76.2344 21.4034C76.7382 21.8996 76.9901 22.6477 76.9901 23.6477V29.5H75.2912V23.8068C75.2912 23.2159 75.1302 22.7879 74.8082 22.5227C74.4863 22.2576 74.1018 22.125 73.6548 22.125C73.1018 22.125 72.6719 22.2955 72.3651 22.6364C72.0582 22.9735 71.9048 23.4072 71.9048 23.9375V29.5H70.2116V23.6989C70.2116 23.2254 70.0639 22.8447 69.7685 22.5568C69.473 22.2689 69.0885 22.125 68.6151 22.125C68.2931 22.125 67.9957 22.2102 67.723 22.3807C67.4541 22.5473 67.2363 22.7803 67.0696 23.0795C66.9067 23.3788 66.8253 23.7254 66.8253 24.1193V29.5H65.1264ZM81.8068 29.6932C81.2538 29.6932 80.7538 29.5909 80.3068 29.3864C79.8598 29.178 79.5057 28.8769 79.2443 28.483C78.9867 28.089 78.858 27.6061 78.858 27.0341C78.858 26.5417 78.9527 26.1364 79.142 25.8182C79.3314 25.5 79.5871 25.2481 79.9091 25.0625C80.2311 24.8769 80.5909 24.7367 80.9886 24.642C81.3864 24.5473 81.7917 24.4754 82.2045 24.4261C82.7273 24.3655 83.1515 24.3163 83.4773 24.2784C83.803 24.2367 84.0398 24.1705 84.1875 24.0795C84.3352 23.9886 84.4091 23.8409 84.4091 23.6364V23.5966C84.4091 23.1004 84.2689 22.7159 83.9886 22.4432C83.7121 22.1705 83.2992 22.0341 82.75 22.0341C82.178 22.0341 81.7273 22.161 81.3977 22.4148C81.072 22.6648 80.8466 22.9432 80.7216 23.25L79.125 22.8864C79.3144 22.3561 79.5909 21.928 79.9545 21.6023C80.322 21.2727 80.7443 21.0341 81.2216 20.8864C81.6989 20.7348 82.2008 20.6591 82.7273 20.6591C83.0758 20.6591 83.4451 20.7008 83.8352 20.7841C84.2292 20.8636 84.5966 21.0114 84.9375 21.2273C85.2822 21.4432 85.5644 21.7519 85.7841 22.1534C86.0038 22.5511 86.1136 23.0682 86.1136 23.7045V29.5H84.4545V28.3068H84.3864C84.2765 28.5265 84.1117 28.7424 83.892 28.9545C83.6723 29.1667 83.3902 29.3428 83.0455 29.483C82.7008 29.6231 82.2879 29.6932 81.8068 29.6932ZM82.1761 28.3295C82.6458 28.3295 83.0473 28.2367 83.3807 28.0511C83.7178 27.8655 83.9735 27.6231 84.1477 27.3239C84.3258 27.0208 84.4148 26.697 84.4148 26.3523V25.2273C84.3542 25.2879 84.2367 25.3447 84.0625 25.3977C83.892 25.447 83.697 25.4905 83.4773 25.5284C83.2576 25.5625 83.0436 25.5947 82.8352 25.625C82.6269 25.6515 82.4527 25.6742 82.3125 25.6932C81.983 25.7348 81.6818 25.8049 81.4091 25.9034C81.1402 26.0019 80.9242 26.1439 80.7614 26.3295C80.6023 26.5114 80.5227 26.7538 80.5227 27.0568C80.5227 27.4773 80.678 27.7955 80.9886 28.0114C81.2992 28.2235 81.6951 28.3295 82.1761 28.3295ZM88.3764 29.5V20.7727H90.0753V29.5H88.3764ZM89.2344 19.4261C88.9389 19.4261 88.6851 19.3277 88.473 19.1307C88.2647 18.9299 88.1605 18.6913 88.1605 18.4148C88.1605 18.1345 88.2647 17.8958 88.473 17.6989C88.6851 17.4981 88.9389 17.3977 89.2344 17.3977C89.5298 17.3977 89.7817 17.4981 89.9901 17.6989C90.2022 17.8958 90.3082 18.1345 90.3082 18.4148C90.3082 18.6913 90.2022 18.9299 89.9901 19.1307C89.7817 19.3277 89.5298 19.4261 89.2344 19.4261ZM94.0597 17.8636V29.5H92.3608V17.8636H94.0597Z" fill="#FAFAFA"/>
<path d="M372.557 23.4205L371.653 23.6761C371.597 23.5256 371.513 23.3793 371.402 23.2372C371.294 23.0923 371.146 22.973 370.959 22.8793C370.771 22.7855 370.531 22.7386 370.239 22.7386C369.838 22.7386 369.504 22.831 369.237 23.0156C368.973 23.1974 368.841 23.429 368.841 23.7102C368.841 23.9602 368.932 24.1577 369.114 24.3026C369.295 24.4474 369.58 24.5682 369.966 24.6648L370.938 24.9034C371.523 25.0455 371.959 25.2628 372.246 25.5554C372.533 25.8452 372.676 26.2187 372.676 26.6761C372.676 27.0511 372.568 27.3864 372.352 27.6818C372.139 27.9773 371.841 28.2102 371.457 28.3807C371.074 28.5511 370.628 28.6364 370.119 28.6364C369.452 28.6364 368.899 28.4915 368.462 28.2017C368.024 27.9119 367.747 27.4886 367.631 26.9318L368.585 26.6932C368.676 27.0455 368.848 27.3097 369.101 27.4858C369.357 27.6619 369.69 27.75 370.102 27.75C370.571 27.75 370.943 27.6506 371.219 27.4517C371.497 27.25 371.636 27.0085 371.636 26.7273C371.636 26.5 371.557 26.3097 371.398 26.1562C371.239 26 370.994 25.8835 370.665 25.8068L369.574 25.5511C368.974 25.4091 368.534 25.1889 368.253 24.8906C367.974 24.5895 367.835 24.2131 367.835 23.7614C367.835 23.392 367.939 23.0653 368.146 22.7812C368.357 22.4972 368.642 22.2741 369.003 22.1122C369.366 21.9503 369.778 21.8693 370.239 21.8693C370.886 21.8693 371.395 22.0114 371.764 22.2955C372.136 22.5795 372.401 22.9545 372.557 23.4205ZM376.116 28.6534C375.701 28.6534 375.325 28.5753 374.987 28.419C374.649 28.2599 374.38 28.0312 374.181 27.733C373.983 27.4318 373.883 27.0682 373.883 26.642C373.883 26.267 373.957 25.9631 374.105 25.7301C374.252 25.4943 374.45 25.3097 374.697 25.1761C374.944 25.0426 375.217 24.9432 375.515 24.8778C375.816 24.8097 376.119 24.7557 376.423 24.7159C376.821 24.6648 377.143 24.6264 377.39 24.6009C377.64 24.5724 377.822 24.5256 377.936 24.4602C378.052 24.3949 378.11 24.2812 378.11 24.1193V24.0852C378.11 23.6648 377.995 23.3381 377.765 23.1051C377.538 22.8722 377.193 22.7557 376.73 22.7557C376.25 22.7557 375.873 22.8608 375.6 23.071C375.328 23.2812 375.136 23.5057 375.025 23.7443L374.071 23.4034C374.241 23.0057 374.468 22.696 374.752 22.4744C375.039 22.25 375.352 22.0937 375.69 22.0057C376.031 21.9148 376.366 21.8693 376.696 21.8693C376.906 21.8693 377.147 21.8949 377.42 21.946C377.696 21.9943 377.961 22.0952 378.217 22.2486C378.475 22.402 378.69 22.6335 378.86 22.9432C379.031 23.2528 379.116 23.6676 379.116 24.1875V28.5H378.11V27.6136H378.059C377.991 27.7557 377.877 27.9077 377.718 28.0696C377.559 28.2315 377.348 28.3693 377.083 28.483C376.819 28.5966 376.497 28.6534 376.116 28.6534ZM376.27 27.75C376.667 27.75 377.002 27.6719 377.275 27.5156C377.551 27.3594 377.758 27.1577 377.897 26.9105C378.039 26.6634 378.11 26.4034 378.11 26.1307V25.2102C378.068 25.2614 377.974 25.3082 377.829 25.3509C377.687 25.3906 377.522 25.4261 377.335 25.4574C377.15 25.4858 376.97 25.5114 376.794 25.5341C376.62 25.554 376.48 25.571 376.372 25.5852C376.11 25.6193 375.866 25.6747 375.639 25.7514C375.414 25.8253 375.233 25.9375 375.093 26.0881C374.957 26.2358 374.889 26.4375 374.889 26.6932C374.889 27.0426 375.018 27.3068 375.277 27.4858C375.538 27.6619 375.869 27.75 376.27 27.75ZM381.088 28.5V19.7727H382.094V22.9943H382.179C382.253 22.8807 382.355 22.7358 382.486 22.5597C382.619 22.3807 382.81 22.2216 383.057 22.0824C383.307 21.9403 383.645 21.8693 384.071 21.8693C384.622 21.8693 385.108 22.0071 385.528 22.2827C385.949 22.5582 386.277 22.9489 386.513 23.4545C386.749 23.9602 386.866 24.5568 386.866 25.2443C386.866 25.9375 386.749 26.5384 386.513 27.0469C386.277 27.5526 385.95 27.9446 385.533 28.223C385.115 28.4986 384.634 28.6364 384.088 28.6364C383.668 28.6364 383.331 28.5668 383.078 28.4276C382.825 28.2855 382.631 28.125 382.494 27.946C382.358 27.7642 382.253 27.6136 382.179 27.4943H382.06V28.5H381.088ZM382.077 25.2273C382.077 25.7216 382.149 26.1577 382.294 26.5355C382.439 26.9105 382.651 27.2045 382.929 27.4176C383.207 27.6278 383.548 27.733 383.952 27.733C384.372 27.733 384.723 27.6222 385.004 27.4006C385.288 27.1761 385.501 26.875 385.643 26.4972C385.788 26.1165 385.861 25.6932 385.861 25.2273C385.861 24.767 385.79 24.3523 385.648 23.983C385.509 23.6108 385.297 23.3168 385.013 23.1009C384.732 22.8821 384.378 22.7727 383.952 22.7727C383.543 22.7727 383.199 22.8764 382.92 23.0838C382.642 23.2884 382.432 23.5753 382.29 23.9446C382.148 24.3111 382.077 24.7386 382.077 25.2273ZM388.818 30.9545C388.648 30.9545 388.496 30.9403 388.362 30.9119C388.229 30.8864 388.136 30.8608 388.085 30.8352L388.341 29.9489C388.585 30.0114 388.801 30.0341 388.989 30.017C389.176 30 389.342 29.9162 389.487 29.7656C389.635 29.6179 389.77 29.3778 389.892 29.0455L390.08 28.5341L387.659 21.9545H388.75L390.557 27.1705H390.625L392.432 21.9545H393.523L390.744 29.4545C390.619 29.7926 390.464 30.0724 390.28 30.294C390.095 30.5185 389.881 30.6847 389.636 30.7926C389.395 30.9006 389.122 30.9545 388.818 30.9545ZM394.85 28.5V21.9545H395.822V22.9432H395.89C396.009 22.6193 396.225 22.3565 396.538 22.1548C396.85 21.9531 397.202 21.8523 397.594 21.8523C397.668 21.8523 397.761 21.8537 397.871 21.8565C397.982 21.8594 398.066 21.8636 398.123 21.8693V22.892C398.089 22.8835 398.011 22.8707 397.888 22.8537C397.769 22.8338 397.643 22.8239 397.509 22.8239C397.191 22.8239 396.907 22.8906 396.657 23.0241C396.41 23.1548 396.214 23.3366 396.069 23.5696C395.927 23.7997 395.856 24.0625 395.856 24.358V28.5H394.85ZM400.252 26.1136L400.235 24.8693H400.44L403.304 21.9545H404.548L401.497 25.0398H401.412L400.252 26.1136ZM399.315 28.5V19.7727H400.321V28.5H399.315ZM403.474 28.5L400.917 25.2614L401.633 24.5625L404.752 28.5H403.474ZM407.768 28.6534C407.354 28.6534 406.977 28.5753 406.639 28.419C406.301 28.2599 406.033 28.0312 405.834 27.733C405.635 27.4318 405.536 27.0682 405.536 26.642C405.536 26.267 405.609 25.9631 405.757 25.7301C405.905 25.4943 406.102 25.3097 406.349 25.1761C406.597 25.0426 406.869 24.9432 407.168 24.8778C407.469 24.8097 407.771 24.7557 408.075 24.7159C408.473 24.6648 408.795 24.6264 409.043 24.6009C409.293 24.5724 409.474 24.5256 409.588 24.4602C409.705 24.3949 409.763 24.2812 409.763 24.1193V24.0852C409.763 23.6648 409.648 23.3381 409.418 23.1051C409.19 22.8722 408.845 22.7557 408.382 22.7557C407.902 22.7557 407.526 22.8608 407.253 23.071C406.98 23.2812 406.788 23.5057 406.678 23.7443L405.723 23.4034C405.893 23.0057 406.121 22.696 406.405 22.4744C406.692 22.25 407.004 22.0937 407.342 22.0057C407.683 21.9148 408.018 21.8693 408.348 21.8693C408.558 21.8693 408.8 21.8949 409.072 21.946C409.348 21.9943 409.614 22.0952 409.869 22.2486C410.128 22.402 410.342 22.6335 410.513 22.9432C410.683 23.2528 410.768 23.6676 410.768 24.1875V28.5H409.763V27.6136H409.712C409.643 27.7557 409.53 27.9077 409.371 28.0696C409.212 28.2315 409 28.3693 408.736 28.483C408.472 28.5966 408.149 28.6534 407.768 28.6534ZM407.922 27.75C408.32 27.75 408.655 27.6719 408.928 27.5156C409.203 27.3594 409.411 27.1577 409.55 26.9105C409.692 26.6634 409.763 26.4034 409.763 26.1307V25.2102C409.72 25.2614 409.626 25.3082 409.482 25.3509C409.339 25.3906 409.175 25.4261 408.987 25.4574C408.803 25.4858 408.622 25.5114 408.446 25.5341C408.273 25.554 408.132 25.571 408.024 25.5852C407.763 25.6193 407.518 25.6747 407.291 25.7514C407.067 25.8253 406.885 25.9375 406.746 26.0881C406.609 26.2358 406.541 26.4375 406.541 26.6932C406.541 27.0426 406.67 27.3068 406.929 27.4858C407.19 27.6619 407.521 27.75 407.922 27.75ZM412.417 28.5V27.733L416.132 22.9602V22.892H412.536V21.9545H417.428V22.7557L413.814 27.4943V27.5625H417.547V28.5H412.417ZM421.653 28.6364C421.022 28.6364 420.478 28.4972 420.021 28.2188C419.566 27.9375 419.216 27.5455 418.968 27.0426C418.724 26.5369 418.602 25.9489 418.602 25.2784C418.602 24.608 418.724 24.017 418.968 23.5057C419.216 22.9915 419.559 22.5909 420 22.304C420.443 22.0142 420.96 21.8693 421.551 21.8693C421.892 21.8693 422.228 21.9261 422.561 22.0398C422.893 22.1534 423.196 22.3381 423.468 22.5938C423.741 22.8466 423.958 23.1818 424.12 23.5994C424.282 24.017 424.363 24.5312 424.363 25.142V25.5682H419.318V24.6989H423.341C423.341 24.3295 423.267 24 423.119 23.7102C422.974 23.4205 422.767 23.1918 422.497 23.0241C422.23 22.8565 421.914 22.7727 421.551 22.7727C421.15 22.7727 420.804 22.8722 420.511 23.071C420.221 23.267 419.998 23.5227 419.842 23.8381C419.686 24.1534 419.608 24.4915 419.608 24.8523V25.4318C419.608 25.9261 419.693 26.3452 419.863 26.6889C420.037 27.0298 420.277 27.2898 420.583 27.4688C420.89 27.6449 421.247 27.733 421.653 27.733C421.917 27.733 422.156 27.696 422.369 27.6222C422.585 27.5455 422.771 27.4318 422.927 27.2812C423.083 27.1278 423.204 26.9375 423.289 26.7102L424.261 26.983C424.159 27.3125 423.987 27.6023 423.745 27.8523C423.504 28.0994 423.206 28.2926 422.85 28.4318C422.495 28.5682 422.096 28.6364 421.653 28.6364ZM426.899 24.5625V28.5H425.893V21.9545H426.865V22.9773H426.95C427.103 22.6449 427.336 22.3778 427.649 22.1761C427.961 21.9716 428.365 21.8693 428.859 21.8693C429.302 21.8693 429.69 21.9602 430.022 22.142C430.355 22.321 430.613 22.5938 430.798 22.9602C430.983 23.3239 431.075 23.7841 431.075 24.3409V28.5H430.069V24.4091C430.069 23.8949 429.936 23.4943 429.669 23.2074C429.402 22.9176 429.035 22.7727 428.569 22.7727C428.248 22.7727 427.961 22.8423 427.708 22.9815C427.458 23.1207 427.261 23.3239 427.116 23.5909C426.971 23.858 426.899 24.1818 426.899 24.5625ZM437.941 30.8011C437.072 30.8011 436.303 30.6818 435.636 30.4432C434.968 30.2074 434.407 29.8594 433.952 29.3991C433.498 28.9389 433.154 28.375 432.921 27.7074C432.688 27.0398 432.572 26.2756 432.572 25.4148C432.572 24.5824 432.69 23.8381 432.925 23.1818C433.164 22.5256 433.509 21.9688 433.961 21.5114C434.415 21.0511 434.967 20.7003 435.614 20.4588C436.265 20.2173 437.001 20.0966 437.822 20.0966C438.62 20.0966 439.319 20.2273 439.918 20.4886C440.521 20.7472 441.023 21.098 441.427 21.5412C441.833 21.9815 442.137 22.4773 442.339 23.0284C442.543 23.5795 442.646 24.1477 442.646 24.733C442.646 25.1449 442.626 25.5625 442.586 25.9858C442.546 26.4091 442.462 26.7983 442.335 27.1534C442.207 27.5057 442.009 27.7898 441.742 28.0057C441.478 28.2216 441.12 28.3295 440.668 28.3295C440.469 28.3295 440.251 28.2983 440.012 28.2358C439.773 28.1733 439.562 28.0696 439.377 27.9247C439.192 27.7798 439.083 27.5852 439.049 27.3409H438.998C438.93 27.5057 438.825 27.6619 438.683 27.8097C438.543 27.9574 438.36 28.0753 438.133 28.1634C437.908 28.2514 437.634 28.2898 437.31 28.2784C436.941 28.2642 436.616 28.1818 436.335 28.0312C436.053 27.8778 435.817 27.6705 435.627 27.4091C435.44 27.1449 435.298 26.8395 435.201 26.4929C435.107 26.1435 435.06 25.767 435.06 25.3636C435.06 24.9801 435.117 24.6293 435.231 24.3111C435.344 23.9929 435.502 23.7145 435.704 23.4759C435.908 23.2372 436.147 23.0469 436.42 22.9048C436.695 22.7599 436.992 22.6705 437.31 22.6364C437.594 22.608 437.853 22.6207 438.086 22.6747C438.319 22.7259 438.511 22.804 438.661 22.9091C438.812 23.0114 438.907 23.125 438.947 23.25H438.998V22.7727H439.901V26.625C439.901 26.8636 439.968 27.0739 440.102 27.2557C440.235 27.4375 440.43 27.5284 440.685 27.5284C440.975 27.5284 441.197 27.429 441.35 27.2301C441.506 27.0312 441.613 26.7244 441.67 26.3097C441.729 25.8949 441.759 25.3636 441.759 24.7159C441.759 24.3352 441.707 23.9602 441.602 23.5909C441.499 23.2187 441.343 22.8707 441.133 22.5469C440.925 22.223 440.663 21.9375 440.344 21.6903C440.026 21.4432 439.653 21.25 439.224 21.1108C438.798 20.9687 438.313 20.8977 437.771 20.8977C437.103 20.8977 436.505 21.0014 435.977 21.2088C435.451 21.4134 435.004 21.7131 434.634 22.108C434.268 22.5 433.988 22.9773 433.795 23.5398C433.604 24.0994 433.509 24.7358 433.509 25.4489C433.509 26.1733 433.604 26.8168 433.795 27.3793C433.988 27.9418 434.272 28.4162 434.647 28.8026C435.025 29.1889 435.492 29.4815 436.049 29.6804C436.606 29.8821 437.248 29.983 437.975 29.983C438.288 29.983 438.596 29.9531 438.9 29.8935C439.204 29.8338 439.472 29.7685 439.705 29.6974C439.938 29.6264 440.106 29.5739 440.208 29.5398L440.447 30.3239C440.271 30.3977 440.04 30.4716 439.756 30.5455C439.475 30.6193 439.174 30.6804 438.853 30.7287C438.535 30.777 438.231 30.8011 437.941 30.8011ZM437.447 27.4091C437.827 27.4091 438.136 27.3324 438.371 27.179C438.607 27.0256 438.779 26.794 438.887 26.4844C438.995 26.1747 439.049 25.7841 439.049 25.3125C439.049 24.8352 438.989 24.4631 438.87 24.196C438.751 23.929 438.575 23.7415 438.342 23.6335C438.109 23.5256 437.822 23.4716 437.481 23.4716C437.157 23.4716 436.88 23.5568 436.65 23.7273C436.423 23.8949 436.248 24.1193 436.126 24.4006C436.006 24.679 435.947 24.983 435.947 25.3125C435.947 25.6761 435.995 26.0185 436.092 26.3395C436.188 26.6577 436.346 26.9162 436.565 27.1151C436.783 27.3111 437.077 27.4091 437.447 27.4091ZM446.793 31.0909C446.307 31.0909 445.89 31.0284 445.54 30.9034C445.191 30.7812 444.9 30.6193 444.667 30.4176C444.436 30.2188 444.253 30.0057 444.117 29.7784L444.918 29.2159C445.009 29.3352 445.124 29.4716 445.263 29.625C445.402 29.7812 445.593 29.9162 445.834 30.0298C446.078 30.1463 446.398 30.2045 446.793 30.2045C447.321 30.2045 447.757 30.0767 448.101 29.821C448.445 29.5653 448.617 29.1648 448.617 28.6193V27.2898H448.532C448.458 27.4091 448.353 27.5568 448.216 27.733C448.083 27.9062 447.89 28.0611 447.637 28.1974C447.387 28.331 447.049 28.3977 446.623 28.3977C446.094 28.3977 445.62 28.2727 445.199 28.0227C444.782 27.7727 444.451 27.4091 444.206 26.9318C443.965 26.4545 443.844 25.875 443.844 25.1932C443.844 24.5227 443.962 23.9389 444.198 23.4418C444.434 22.9418 444.762 22.5554 445.182 22.2827C445.603 22.0071 446.088 21.8693 446.64 21.8693C447.066 21.8693 447.404 21.9403 447.654 22.0824C447.907 22.2216 448.1 22.3807 448.233 22.5597C448.37 22.7358 448.475 22.8807 448.549 22.9943H448.651V21.9545H449.623V28.6875C449.623 29.25 449.495 29.7074 449.239 30.0597C448.986 30.4148 448.645 30.6747 448.216 30.8395C447.79 31.0071 447.316 31.0909 446.793 31.0909ZM446.759 27.4943C447.162 27.4943 447.503 27.402 447.782 27.2173C448.06 27.0327 448.272 26.767 448.417 26.4205C448.561 26.0739 448.634 25.6591 448.634 25.1761C448.634 24.7045 448.563 24.2884 448.421 23.9276C448.279 23.5668 448.069 23.2841 447.79 23.0795C447.512 22.875 447.168 22.7727 446.759 22.7727C446.333 22.7727 445.978 22.8807 445.694 23.0966C445.412 23.3125 445.201 23.6023 445.059 23.9659C444.919 24.3295 444.85 24.733 444.85 25.1761C444.85 25.6307 444.921 26.0327 445.063 26.3821C445.208 26.7287 445.421 27.0014 445.702 27.2003C445.986 27.3963 446.338 27.4943 446.759 27.4943ZM451.463 28.5V21.9545H452.435V22.9773H452.52C452.657 22.6278 452.877 22.3565 453.181 22.1634C453.485 21.9673 453.85 21.8693 454.276 21.8693C454.708 21.8693 455.067 21.9673 455.354 22.1634C455.644 22.3565 455.87 22.6278 456.032 22.9773H456.1C456.267 22.6392 456.519 22.3707 456.854 22.1719C457.189 21.9702 457.591 21.8693 458.06 21.8693C458.645 21.8693 459.124 22.0526 459.496 22.419C459.868 22.7827 460.054 23.3494 460.054 24.1193V28.5H459.049V24.1193C459.049 23.6364 458.917 23.2912 458.652 23.0838C458.388 22.8764 458.077 22.7727 457.719 22.7727C457.259 22.7727 456.902 22.9119 456.65 23.1903C456.397 23.4659 456.27 23.8153 456.27 24.2386V28.5H455.248V24.017C455.248 23.6449 455.127 23.3452 454.885 23.1179C454.644 22.8878 454.333 22.7727 453.952 22.7727C453.691 22.7727 453.446 22.8423 453.219 22.9815C452.995 23.1207 452.813 23.3139 452.674 23.5611C452.537 23.8054 452.469 24.0881 452.469 24.4091V28.5H451.463ZM463.819 28.6534C463.404 28.6534 463.028 28.5753 462.69 28.419C462.352 28.2599 462.083 28.0312 461.885 27.733C461.686 27.4318 461.586 27.0682 461.586 26.642C461.586 26.267 461.66 25.9631 461.808 25.7301C461.956 25.4943 462.153 25.3097 462.4 25.1761C462.647 25.0426 462.92 24.9432 463.218 24.8778C463.52 24.8097 463.822 24.7557 464.126 24.7159C464.524 24.6648 464.846 24.6264 465.093 24.6009C465.343 24.5724 465.525 24.5256 465.639 24.4602C465.755 24.3949 465.814 24.2812 465.814 24.1193V24.0852C465.814 23.6648 465.699 23.3381 465.468 23.1051C465.241 22.8722 464.896 22.7557 464.433 22.7557C463.953 22.7557 463.576 22.8608 463.304 23.071C463.031 23.2812 462.839 23.5057 462.728 23.7443L461.774 23.4034C461.944 23.0057 462.172 22.696 462.456 22.4744C462.743 22.25 463.055 22.0937 463.393 22.0057C463.734 21.9148 464.069 21.8693 464.399 21.8693C464.609 21.8693 464.85 21.8949 465.123 21.946C465.399 21.9943 465.664 22.0952 465.92 22.2486C466.179 22.402 466.393 22.6335 466.564 22.9432C466.734 23.2528 466.819 23.6676 466.819 24.1875V28.5H465.814V27.6136H465.762C465.694 27.7557 465.581 27.9077 465.422 28.0696C465.262 28.2315 465.051 28.3693 464.787 28.483C464.522 28.5966 464.2 28.6534 463.819 28.6534ZM463.973 27.75C464.37 27.75 464.706 27.6719 464.978 27.5156C465.254 27.3594 465.461 27.1577 465.6 26.9105C465.743 26.6634 465.814 26.4034 465.814 26.1307V25.2102C465.771 25.2614 465.677 25.3082 465.532 25.3509C465.39 25.3906 465.225 25.4261 465.038 25.4574C464.853 25.4858 464.673 25.5114 464.497 25.5341C464.324 25.554 464.183 25.571 464.075 25.5852C463.814 25.6193 463.569 25.6747 463.342 25.7514C463.118 25.8253 462.936 25.9375 462.797 26.0881C462.66 26.2358 462.592 26.4375 462.592 26.6932C462.592 27.0426 462.721 27.3068 462.98 27.4858C463.241 27.6619 463.572 27.75 463.973 27.75ZM468.655 28.5V21.9545H469.661V28.5H468.655ZM469.166 20.8636C468.97 20.8636 468.801 20.7969 468.659 20.6634C468.52 20.5298 468.45 20.3693 468.45 20.1818C468.45 19.9943 468.52 19.8338 468.659 19.7003C468.801 19.5668 468.97 19.5 469.166 19.5C469.362 19.5 469.53 19.5668 469.669 19.7003C469.811 19.8338 469.882 19.9943 469.882 20.1818C469.882 20.3693 469.811 20.5298 469.669 20.6634C469.53 20.7969 469.362 20.8636 469.166 20.8636ZM472.508 19.7727V28.5H471.502V19.7727H472.508ZM475.083 28.5682C474.873 28.5682 474.692 28.4929 474.542 28.3423C474.391 28.1918 474.316 28.0114 474.316 27.8011C474.316 27.5909 474.391 27.4105 474.542 27.2599C474.692 27.1094 474.873 27.0341 475.083 27.0341C475.293 27.0341 475.474 27.1094 475.624 27.2599C475.775 27.4105 475.85 27.5909 475.85 27.8011C475.85 27.9403 475.815 28.0682 475.744 28.1847C475.675 28.3011 475.583 28.3949 475.467 28.4659C475.353 28.5341 475.225 28.5682 475.083 28.5682ZM480.314 28.6364C479.7 28.6364 479.172 28.4915 478.729 28.2017C478.286 27.9119 477.945 27.5128 477.706 27.0043C477.467 26.4957 477.348 25.9148 477.348 25.2614C477.348 24.5966 477.47 24.0099 477.714 23.5014C477.962 22.9901 478.305 22.5909 478.746 22.304C479.189 22.0142 479.706 21.8693 480.297 21.8693C480.757 21.8693 481.172 21.9545 481.541 22.125C481.911 22.2955 482.213 22.5341 482.449 22.8409C482.685 23.1477 482.831 23.5057 482.888 23.9148H481.882C481.805 23.6165 481.635 23.3523 481.371 23.1222C481.109 22.8892 480.757 22.7727 480.314 22.7727C479.922 22.7727 479.578 22.875 479.283 23.0795C478.99 23.2812 478.761 23.5668 478.597 23.9361C478.435 24.3026 478.354 24.733 478.354 25.2273C478.354 25.733 478.433 26.1733 478.592 26.5483C478.754 26.9233 478.982 27.2145 479.274 27.4219C479.57 27.6293 479.916 27.733 480.314 27.733C480.575 27.733 480.812 27.6875 481.026 27.5966C481.239 27.5057 481.419 27.375 481.567 27.2045C481.714 27.0341 481.82 26.8295 481.882 26.5909H482.888C482.831 26.9773 482.69 27.3253 482.466 27.6349C482.244 27.9418 481.95 28.1861 481.584 28.3679C481.22 28.5469 480.797 28.6364 480.314 28.6364ZM487.017 28.6364C486.426 28.6364 485.908 28.4957 485.462 28.2145C485.018 27.9332 484.672 27.5398 484.422 27.0341C484.175 26.5284 484.051 25.9375 484.051 25.2614C484.051 24.5795 484.175 23.9844 484.422 23.4759C484.672 22.9673 485.018 22.5724 485.462 22.2912C485.908 22.0099 486.426 21.8693 487.017 21.8693C487.608 21.8693 488.125 22.0099 488.568 22.2912C489.014 22.5724 489.361 22.9673 489.608 23.4759C489.858 23.9844 489.983 24.5795 489.983 25.2614C489.983 25.9375 489.858 26.5284 489.608 27.0341C489.361 27.5398 489.014 27.9332 488.568 28.2145C488.125 28.4957 487.608 28.6364 487.017 28.6364ZM487.017 27.733C487.466 27.733 487.835 27.6179 488.125 27.3878C488.415 27.1577 488.629 26.8551 488.768 26.4801C488.908 26.1051 488.977 25.6989 488.977 25.2614C488.977 24.8239 488.908 24.4162 488.768 24.0384C488.629 23.6605 488.415 23.3551 488.125 23.1222C487.835 22.8892 487.466 22.7727 487.017 22.7727C486.568 22.7727 486.199 22.8892 485.909 23.1222C485.619 23.3551 485.405 23.6605 485.266 24.0384C485.126 24.4162 485.057 24.8239 485.057 25.2614C485.057 25.6989 485.126 26.1051 485.266 26.4801C485.405 26.8551 485.619 27.1577 485.909 27.3878C486.199 27.6179 486.568 27.733 487.017 27.733ZM491.518 28.5V21.9545H492.49V22.9773H492.575C492.711 22.6278 492.931 22.3565 493.235 22.1634C493.539 21.9673 493.904 21.8693 494.331 21.8693C494.762 21.8693 495.122 21.9673 495.409 22.1634C495.699 22.3565 495.924 22.6278 496.086 22.9773H496.154C496.322 22.6392 496.574 22.3707 496.909 22.1719C497.244 21.9702 497.646 21.8693 498.115 21.8693C498.7 21.8693 499.179 22.0526 499.551 22.419C499.923 22.7827 500.109 23.3494 500.109 24.1193V28.5H499.103V24.1193C499.103 23.6364 498.971 23.2912 498.707 23.0838C498.443 22.8764 498.132 22.7727 497.774 22.7727C497.314 22.7727 496.957 22.9119 496.704 23.1903C496.451 23.4659 496.325 23.8153 496.325 24.2386V28.5H495.302V24.017C495.302 23.6449 495.181 23.3452 494.94 23.1179C494.699 22.8878 494.387 22.7727 494.007 22.7727C493.745 22.7727 493.501 22.8423 493.274 22.9815C493.049 23.1207 492.868 23.3139 492.728 23.5611C492.592 23.8054 492.524 24.0881 492.524 24.4091V28.5H491.518Z" fill="#888888"/>
<a href="mailto:sabyrkazen@gmail.com">
<rect fill="black" fill-opacity="0" y="0.238636" width="134.029" height="14.5227"/>
</a>
<defs>
<linearGradient id="paint0_linear_11_534" x1="831.357" y1="-34.2857" x2="780.375" y2="380.512" gradientUnits="userSpaceOnUse">
<stop offset="0.11827" stop-color="#333333" stop-opacity="0"/>
<stop offset="0.223096" stop-color="#666666"/>
</linearGradient>
<clipPath id="clip0_11_534">
<rect width="36" height="36" fill="white" transform="translate(6 6)"/>
</clipPath>
</defs>
</svg>
