<svg width="472" height="48" viewBox="0 0 472 48" fill="none" xmlns="http://www.w3.org/2000/svg">
<rect x="0.5" y="0.5" width="471" height="47" rx="23.5" stroke="url(#paint0_linear_18_1029)"/>
<g clip-path="url(#clip0_18_1029)">
<path d="M17.1094 33.4922V23.5078L11.3438 19.0781V31.3828C11.3438 32.7891 12.0469 33.4922 13.4531 33.4922" fill="#4285F4"/>
<path d="M16.8281 23.4375L24 28.8516L31.1719 23.4375V16.5469L24 21.9609L16.8281 16.5469" fill="#EA4335"/>
<path d="M30.8906 33.4922V23.5078L36.6562 19.0781V31.3828C36.6562 32.7891 35.9531 33.4922 34.5469 33.4922" fill="#34A853"/>
<path d="M11.3438 19.2189L17.1094 23.6486V16.758L15 15.1408C13.1016 13.6642 11.3438 15.1408 11.3438 16.9689" fill="#C5221F"/>
<path d="M36.6562 19.2189L30.8906 23.6486V16.758L33 15.1408C34.8984 13.6642 36.6562 15.1408 36.6562 16.9689" fill="#FBBC04"/>
</g>
<path d="M61.1534 21.5398C61.0436 21.1951 60.8958 20.8864 60.7102 20.6136C60.5284 20.3371 60.3106 20.1023 60.0568 19.9091C59.803 19.7121 59.5133 19.5625 59.1875 19.4602C58.8655 19.358 58.5114 19.3068 58.125 19.3068C57.4697 19.3068 56.8788 19.4754 56.3523 19.8125C55.8258 20.1496 55.4091 20.6439 55.1023 21.2955C54.7992 21.9432 54.6477 22.7367 54.6477 23.6761C54.6477 24.6193 54.8011 25.4167 55.108 26.0682C55.4148 26.7197 55.8352 27.214 56.3693 27.5511C56.9034 27.8883 57.5114 28.0568 58.1932 28.0568C58.8258 28.0568 59.3769 27.928 59.8466 27.6705C60.3201 27.4129 60.6856 27.0492 60.9432 26.5795C61.2045 26.1061 61.3352 25.5492 61.3352 24.9091L61.7898 24.9943H58.4602V23.5455H63.0341V24.8693C63.0341 25.8466 62.8258 26.6951 62.4091 27.4148C61.9962 28.1307 61.4242 28.6837 60.6932 29.0739C59.9659 29.464 59.1326 29.6591 58.1932 29.6591C57.1402 29.6591 56.2159 29.4167 55.4205 28.9318C54.6288 28.447 54.0114 27.7595 53.5682 26.8693C53.125 25.9754 52.9034 24.9148 52.9034 23.6875C52.9034 22.7595 53.0322 21.9261 53.2898 21.1875C53.5473 20.4489 53.9091 19.822 54.375 19.3068C54.8447 18.7879 55.3958 18.392 56.0284 18.1193C56.6648 17.8428 57.3598 17.7045 58.1136 17.7045C58.7424 17.7045 59.3277 17.7973 59.8693 17.983C60.4148 18.1686 60.8996 18.4318 61.3239 18.7727C61.7519 19.1136 62.1061 19.5189 62.3864 19.9886C62.6667 20.4545 62.8561 20.9716 62.9545 21.5398H61.1534ZM65.1264 29.5V20.7727H66.7571V22.1932H66.8651C67.0469 21.7121 67.3442 21.3371 67.7571 21.0682C68.17 20.7955 68.6643 20.6591 69.2401 20.6591C69.8234 20.6591 70.312 20.7955 70.706 21.0682C71.1037 21.3409 71.3973 21.7159 71.5866 22.1932H71.6776C71.8859 21.7273 72.2173 21.3561 72.6719 21.0795C73.1264 20.7992 73.6681 20.6591 74.2969 20.6591C75.0885 20.6591 75.7344 20.9072 76.2344 21.4034C76.7382 21.8996 76.9901 22.6477 76.9901 23.6477V29.5H75.2912V23.8068C75.2912 23.2159 75.1302 22.7879 74.8082 22.5227C74.4863 22.2576 74.1018 22.125 73.6548 22.125C73.1018 22.125 72.6719 22.2955 72.3651 22.6364C72.0582 22.9735 71.9048 23.4072 71.9048 23.9375V29.5H70.2116V23.6989C70.2116 23.2254 70.0639 22.8447 69.7685 22.5568C69.473 22.2689 69.0885 22.125 68.6151 22.125C68.2931 22.125 67.9957 22.2102 67.723 22.3807C67.4541 22.5473 67.2363 22.7803 67.0696 23.0795C66.9067 23.3788 66.8253 23.7254 66.8253 24.1193V29.5H65.1264ZM81.8068 29.6932C81.2538 29.6932 80.7538 29.5909 80.3068 29.3864C79.8598 29.178 79.5057 28.8769 79.2443 28.483C78.9867 28.089 78.858 27.6061 78.858 27.0341C78.858 26.5417 78.9527 26.1364 79.142 25.8182C79.3314 25.5 79.5871 25.2481 79.9091 25.0625C80.2311 24.8769 80.5909 24.7367 80.9886 24.642C81.3864 24.5473 81.7917 24.4754 82.2045 24.4261C82.7273 24.3655 83.1515 24.3163 83.4773 24.2784C83.803 24.2367 84.0398 24.1705 84.1875 24.0795C84.3352 23.9886 84.4091 23.8409 84.4091 23.6364V23.5966C84.4091 23.1004 84.2689 22.7159 83.9886 22.4432C83.7121 22.1705 83.2992 22.0341 82.75 22.0341C82.178 22.0341 81.7273 22.161 81.3977 22.4148C81.072 22.6648 80.8466 22.9432 80.7216 23.25L79.125 22.8864C79.3144 22.3561 79.5909 21.928 79.9545 21.6023C80.322 21.2727 80.7443 21.0341 81.2216 20.8864C81.6989 20.7348 82.2008 20.6591 82.7273 20.6591C83.0758 20.6591 83.4451 20.7008 83.8352 20.7841C84.2292 20.8636 84.5966 21.0114 84.9375 21.2273C85.2822 21.4432 85.5644 21.7519 85.7841 22.1534C86.0038 22.5511 86.1136 23.0682 86.1136 23.7045V29.5H84.4545V28.3068H84.3864C84.2765 28.5265 84.1117 28.7424 83.892 28.9545C83.6723 29.1667 83.3902 29.3428 83.0455 29.483C82.7008 29.6231 82.2879 29.6932 81.8068 29.6932ZM82.1761 28.3295C82.6458 28.3295 83.0473 28.2367 83.3807 28.0511C83.7178 27.8655 83.9735 27.6231 84.1477 27.3239C84.3258 27.0208 84.4148 26.697 84.4148 26.3523V25.2273C84.3542 25.2879 84.2367 25.3447 84.0625 25.3977C83.892 25.447 83.697 25.4905 83.4773 25.5284C83.2576 25.5625 83.0436 25.5947 82.8352 25.625C82.6269 25.6515 82.4527 25.6742 82.3125 25.6932C81.983 25.7348 81.6818 25.8049 81.4091 25.9034C81.1402 26.0019 80.9242 26.1439 80.7614 26.3295C80.6023 26.5114 80.5227 26.7538 80.5227 27.0568C80.5227 27.4773 80.678 27.7955 80.9886 28.0114C81.2992 28.2235 81.6951 28.3295 82.1761 28.3295ZM88.3764 29.5V20.7727H90.0753V29.5H88.3764ZM89.2344 19.4261C88.9389 19.4261 88.6851 19.3277 88.473 19.1307C88.2647 18.9299 88.1605 18.6913 88.1605 18.4148C88.1605 18.1345 88.2647 17.8958 88.473 17.6989C88.6851 17.4981 88.9389 17.3977 89.2344 17.3977C89.5298 17.3977 89.7817 17.4981 89.9901 17.6989C90.2022 17.8958 90.3082 18.1345 90.3082 18.4148C90.3082 18.6913 90.2022 18.9299 89.9901 19.1307C89.7817 19.3277 89.5298 19.4261 89.2344 19.4261ZM94.0597 17.8636V29.5H92.3608V17.8636H94.0597Z" fill="#FAFAFA"/>
<path d="M329.557 23.4205L328.653 23.6761C328.597 23.5256 328.513 23.3793 328.402 23.2372C328.294 23.0923 328.146 22.973 327.959 22.8793C327.771 22.7855 327.531 22.7386 327.239 22.7386C326.838 22.7386 326.504 22.831 326.237 23.0156C325.973 23.1974 325.841 23.429 325.841 23.7102C325.841 23.9602 325.932 24.1577 326.114 24.3026C326.295 24.4474 326.58 24.5682 326.966 24.6648L327.938 24.9034C328.523 25.0455 328.959 25.2628 329.246 25.5554C329.533 25.8452 329.676 26.2187 329.676 26.6761C329.676 27.0511 329.568 27.3864 329.352 27.6818C329.139 27.9773 328.841 28.2102 328.457 28.3807C328.074 28.5511 327.628 28.6364 327.119 28.6364C326.452 28.6364 325.899 28.4915 325.462 28.2017C325.024 27.9119 324.747 27.4886 324.631 26.9318L325.585 26.6932C325.676 27.0455 325.848 27.3097 326.101 27.4858C326.357 27.6619 326.69 27.75 327.102 27.75C327.571 27.75 327.943 27.6506 328.219 27.4517C328.497 27.25 328.636 27.0085 328.636 26.7273C328.636 26.5 328.557 26.3097 328.398 26.1562C328.239 26 327.994 25.8835 327.665 25.8068L326.574 25.5511C325.974 25.4091 325.534 25.1889 325.253 24.8906C324.974 24.5895 324.835 24.2131 324.835 23.7614C324.835 23.392 324.939 23.0653 325.146 22.7812C325.357 22.4972 325.642 22.2741 326.003 22.1122C326.366 21.9503 326.778 21.8693 327.239 21.8693C327.886 21.8693 328.395 22.0114 328.764 22.2955C329.136 22.5795 329.401 22.9545 329.557 23.4205ZM333.116 28.6534C332.701 28.6534 332.325 28.5753 331.987 28.419C331.649 28.2599 331.38 28.0312 331.181 27.733C330.983 27.4318 330.883 27.0682 330.883 26.642C330.883 26.267 330.957 25.9631 331.105 25.7301C331.252 25.4943 331.45 25.3097 331.697 25.1761C331.944 25.0426 332.217 24.9432 332.515 24.8778C332.816 24.8097 333.119 24.7557 333.423 24.7159C333.821 24.6648 334.143 24.6264 334.39 24.6009C334.64 24.5724 334.822 24.5256 334.936 24.4602C335.052 24.3949 335.11 24.2812 335.11 24.1193V24.0852C335.11 23.6648 334.995 23.3381 334.765 23.1051C334.538 22.8722 334.193 22.7557 333.73 22.7557C333.25 22.7557 332.873 22.8608 332.6 23.071C332.328 23.2812 332.136 23.5057 332.025 23.7443L331.071 23.4034C331.241 23.0057 331.468 22.696 331.752 22.4744C332.039 22.25 332.352 22.0937 332.69 22.0057C333.031 21.9148 333.366 21.8693 333.696 21.8693C333.906 21.8693 334.147 21.8949 334.42 21.946C334.696 21.9943 334.961 22.0952 335.217 22.2486C335.475 22.402 335.69 22.6335 335.86 22.9432C336.031 23.2528 336.116 23.6676 336.116 24.1875V28.5H335.11V27.6136H335.059C334.991 27.7557 334.877 27.9077 334.718 28.0696C334.559 28.2315 334.348 28.3693 334.083 28.483C333.819 28.5966 333.497 28.6534 333.116 28.6534ZM333.27 27.75C333.667 27.75 334.002 27.6719 334.275 27.5156C334.551 27.3594 334.758 27.1577 334.897 26.9105C335.039 26.6634 335.11 26.4034 335.11 26.1307V25.2102C335.068 25.2614 334.974 25.3082 334.829 25.3509C334.687 25.3906 334.522 25.4261 334.335 25.4574C334.15 25.4858 333.97 25.5114 333.794 25.5341C333.62 25.554 333.48 25.571 333.372 25.5852C333.11 25.6193 332.866 25.6747 332.639 25.7514C332.414 25.8253 332.233 25.9375 332.093 26.0881C331.957 26.2358 331.889 26.4375 331.889 26.6932C331.889 27.0426 332.018 27.3068 332.277 27.4858C332.538 27.6619 332.869 27.75 333.27 27.75ZM338.088 28.5V19.7727H339.094V22.9943H339.179C339.253 22.8807 339.355 22.7358 339.486 22.5597C339.619 22.3807 339.81 22.2216 340.057 22.0824C340.307 21.9403 340.645 21.8693 341.071 21.8693C341.622 21.8693 342.108 22.0071 342.528 22.2827C342.949 22.5582 343.277 22.9489 343.513 23.4545C343.749 23.9602 343.866 24.5568 343.866 25.2443C343.866 25.9375 343.749 26.5384 343.513 27.0469C343.277 27.5526 342.95 27.9446 342.533 28.223C342.115 28.4986 341.634 28.6364 341.088 28.6364C340.668 28.6364 340.331 28.5668 340.078 28.4276C339.825 28.2855 339.631 28.125 339.494 27.946C339.358 27.7642 339.253 27.6136 339.179 27.4943H339.06V28.5H338.088ZM339.077 25.2273C339.077 25.7216 339.149 26.1577 339.294 26.5355C339.439 26.9105 339.651 27.2045 339.929 27.4176C340.207 27.6278 340.548 27.733 340.952 27.733C341.372 27.733 341.723 27.6222 342.004 27.4006C342.288 27.1761 342.501 26.875 342.643 26.4972C342.788 26.1165 342.861 25.6932 342.861 25.2273C342.861 24.767 342.79 24.3523 342.648 23.983C342.509 23.6108 342.297 23.3168 342.013 23.1009C341.732 22.8821 341.378 22.7727 340.952 22.7727C340.543 22.7727 340.199 22.8764 339.92 23.0838C339.642 23.2884 339.432 23.5753 339.29 23.9446C339.148 24.3111 339.077 24.7386 339.077 25.2273ZM345.818 30.9545C345.648 30.9545 345.496 30.9403 345.362 30.9119C345.229 30.8864 345.136 30.8608 345.085 30.8352L345.341 29.9489C345.585 30.0114 345.801 30.0341 345.989 30.017C346.176 30 346.342 29.9162 346.487 29.7656C346.635 29.6179 346.77 29.3778 346.892 29.0455L347.08 28.5341L344.659 21.9545H345.75L347.557 27.1705H347.625L349.432 21.9545H350.523L347.744 29.4545C347.619 29.7926 347.464 30.0724 347.28 30.294C347.095 30.5185 346.881 30.6847 346.636 30.7926C346.395 30.9006 346.122 30.9545 345.818 30.9545ZM351.85 28.5V21.9545H352.822V22.9432H352.89C353.009 22.6193 353.225 22.3565 353.538 22.1548C353.85 21.9531 354.202 21.8523 354.594 21.8523C354.668 21.8523 354.761 21.8537 354.871 21.8565C354.982 21.8594 355.066 21.8636 355.123 21.8693V22.892C355.089 22.8835 355.011 22.8707 354.888 22.8537C354.769 22.8338 354.643 22.8239 354.509 22.8239C354.191 22.8239 353.907 22.8906 353.657 23.0241C353.41 23.1548 353.214 23.3366 353.069 23.5696C352.927 23.7997 352.856 24.0625 352.856 24.358V28.5H351.85ZM357.252 26.1136L357.235 24.8693H357.44L360.304 21.9545H361.548L358.497 25.0398H358.412L357.252 26.1136ZM356.315 28.5V19.7727H357.321V28.5H356.315ZM360.474 28.5L357.917 25.2614L358.633 24.5625L361.752 28.5H360.474ZM364.768 28.6534C364.354 28.6534 363.977 28.5753 363.639 28.419C363.301 28.2599 363.033 28.0312 362.834 27.733C362.635 27.4318 362.536 27.0682 362.536 26.642C362.536 26.267 362.609 25.9631 362.757 25.7301C362.905 25.4943 363.102 25.3097 363.349 25.1761C363.597 25.0426 363.869 24.9432 364.168 24.8778C364.469 24.8097 364.771 24.7557 365.075 24.7159C365.473 24.6648 365.795 24.6264 366.043 24.6009C366.293 24.5724 366.474 24.5256 366.588 24.4602C366.705 24.3949 366.763 24.2812 366.763 24.1193V24.0852C366.763 23.6648 366.648 23.3381 366.418 23.1051C366.19 22.8722 365.845 22.7557 365.382 22.7557C364.902 22.7557 364.526 22.8608 364.253 23.071C363.98 23.2812 363.788 23.5057 363.678 23.7443L362.723 23.4034C362.893 23.0057 363.121 22.696 363.405 22.4744C363.692 22.25 364.004 22.0937 364.342 22.0057C364.683 21.9148 365.018 21.8693 365.348 21.8693C365.558 21.8693 365.8 21.8949 366.072 21.946C366.348 21.9943 366.614 22.0952 366.869 22.2486C367.128 22.402 367.342 22.6335 367.513 22.9432C367.683 23.2528 367.768 23.6676 367.768 24.1875V28.5H366.763V27.6136H366.712C366.643 27.7557 366.53 27.9077 366.371 28.0696C366.212 28.2315 366 28.3693 365.736 28.483C365.472 28.5966 365.149 28.6534 364.768 28.6534ZM364.922 27.75C365.32 27.75 365.655 27.6719 365.928 27.5156C366.203 27.3594 366.411 27.1577 366.55 26.9105C366.692 26.6634 366.763 26.4034 366.763 26.1307V25.2102C366.72 25.2614 366.626 25.3082 366.482 25.3509C366.339 25.3906 366.175 25.4261 365.987 25.4574C365.803 25.4858 365.622 25.5114 365.446 25.5341C365.273 25.554 365.132 25.571 365.024 25.5852C364.763 25.6193 364.518 25.6747 364.291 25.7514C364.067 25.8253 363.885 25.9375 363.746 26.0881C363.609 26.2358 363.541 26.4375 363.541 26.6932C363.541 27.0426 363.67 27.3068 363.929 27.4858C364.19 27.6619 364.521 27.75 364.922 27.75ZM369.417 28.5V27.733L373.132 22.9602V22.892H369.536V21.9545H374.428V22.7557L370.814 27.4943V27.5625H374.547V28.5H369.417ZM378.653 28.6364C378.022 28.6364 377.478 28.4972 377.021 28.2188C376.566 27.9375 376.216 27.5455 375.968 27.0426C375.724 26.5369 375.602 25.9489 375.602 25.2784C375.602 24.608 375.724 24.017 375.968 23.5057C376.216 22.9915 376.559 22.5909 377 22.304C377.443 22.0142 377.96 21.8693 378.551 21.8693C378.892 21.8693 379.228 21.9261 379.561 22.0398C379.893 22.1534 380.196 22.3381 380.468 22.5938C380.741 22.8466 380.958 23.1818 381.12 23.5994C381.282 24.017 381.363 24.5312 381.363 25.142V25.5682H376.318V24.6989H380.341C380.341 24.3295 380.267 24 380.119 23.7102C379.974 23.4205 379.767 23.1918 379.497 23.0241C379.23 22.8565 378.914 22.7727 378.551 22.7727C378.15 22.7727 377.804 22.8722 377.511 23.071C377.221 23.267 376.998 23.5227 376.842 23.8381C376.686 24.1534 376.608 24.4915 376.608 24.8523V25.4318C376.608 25.9261 376.693 26.3452 376.863 26.6889C377.037 27.0298 377.277 27.2898 377.583 27.4688C377.89 27.6449 378.247 27.733 378.653 27.733C378.917 27.733 379.156 27.696 379.369 27.6222C379.585 27.5455 379.771 27.4318 379.927 27.2812C380.083 27.1278 380.204 26.9375 380.289 26.7102L381.261 26.983C381.159 27.3125 380.987 27.6023 380.745 27.8523C380.504 28.0994 380.206 28.2926 379.85 28.4318C379.495 28.5682 379.096 28.6364 378.653 28.6364ZM383.899 24.5625V28.5H382.893V21.9545H383.865V22.9773H383.95C384.103 22.6449 384.336 22.3778 384.649 22.1761C384.961 21.9716 385.365 21.8693 385.859 21.8693C386.302 21.8693 386.69 21.9602 387.022 22.142C387.355 22.321 387.613 22.5938 387.798 22.9602C387.983 23.3239 388.075 23.7841 388.075 24.3409V28.5H387.069V24.4091C387.069 23.8949 386.936 23.4943 386.669 23.2074C386.402 22.9176 386.035 22.7727 385.569 22.7727C385.248 22.7727 384.961 22.8423 384.708 22.9815C384.458 23.1207 384.261 23.3239 384.116 23.5909C383.971 23.858 383.899 24.1818 383.899 24.5625ZM394.941 30.8011C394.072 30.8011 393.303 30.6818 392.636 30.4432C391.968 30.2074 391.407 29.8594 390.952 29.3991C390.498 28.9389 390.154 28.375 389.921 27.7074C389.688 27.0398 389.572 26.2756 389.572 25.4148C389.572 24.5824 389.69 23.8381 389.925 23.1818C390.164 22.5256 390.509 21.9688 390.961 21.5114C391.415 21.0511 391.967 20.7003 392.614 20.4588C393.265 20.2173 394.001 20.0966 394.822 20.0966C395.62 20.0966 396.319 20.2273 396.918 20.4886C397.521 20.7472 398.023 21.098 398.427 21.5412C398.833 21.9815 399.137 22.4773 399.339 23.0284C399.543 23.5795 399.646 24.1477 399.646 24.733C399.646 25.1449 399.626 25.5625 399.586 25.9858C399.546 26.4091 399.462 26.7983 399.335 27.1534C399.207 27.5057 399.009 27.7898 398.742 28.0057C398.478 28.2216 398.12 28.3295 397.668 28.3295C397.469 28.3295 397.251 28.2983 397.012 28.2358C396.773 28.1733 396.562 28.0696 396.377 27.9247C396.192 27.7798 396.083 27.5852 396.049 27.3409H395.998C395.93 27.5057 395.825 27.6619 395.683 27.8097C395.543 27.9574 395.36 28.0753 395.133 28.1634C394.908 28.2514 394.634 28.2898 394.31 28.2784C393.941 28.2642 393.616 28.1818 393.335 28.0312C393.053 27.8778 392.817 27.6705 392.627 27.4091C392.44 27.1449 392.298 26.8395 392.201 26.4929C392.107 26.1435 392.06 25.767 392.06 25.3636C392.06 24.9801 392.117 24.6293 392.231 24.3111C392.344 23.9929 392.502 23.7145 392.704 23.4759C392.908 23.2372 393.147 23.0469 393.42 22.9048C393.695 22.7599 393.992 22.6705 394.31 22.6364C394.594 22.608 394.853 22.6207 395.086 22.6747C395.319 22.7259 395.511 22.804 395.661 22.9091C395.812 23.0114 395.907 23.125 395.947 23.25H395.998V22.7727H396.901V26.625C396.901 26.8636 396.968 27.0739 397.102 27.2557C397.235 27.4375 397.43 27.5284 397.685 27.5284C397.975 27.5284 398.197 27.429 398.35 27.2301C398.506 27.0312 398.613 26.7244 398.67 26.3097C398.729 25.8949 398.759 25.3636 398.759 24.7159C398.759 24.3352 398.707 23.9602 398.602 23.5909C398.499 23.2187 398.343 22.8707 398.133 22.5469C397.925 22.223 397.663 21.9375 397.344 21.6903C397.026 21.4432 396.653 21.25 396.224 21.1108C395.798 20.9687 395.313 20.8977 394.771 20.8977C394.103 20.8977 393.505 21.0014 392.977 21.2088C392.451 21.4134 392.004 21.7131 391.634 22.108C391.268 22.5 390.988 22.9773 390.795 23.5398C390.604 24.0994 390.509 24.7358 390.509 25.4489C390.509 26.1733 390.604 26.8168 390.795 27.3793C390.988 27.9418 391.272 28.4162 391.647 28.8026C392.025 29.1889 392.492 29.4815 393.049 29.6804C393.606 29.8821 394.248 29.983 394.975 29.983C395.288 29.983 395.596 29.9531 395.9 29.8935C396.204 29.8338 396.472 29.7685 396.705 29.6974C396.938 29.6264 397.106 29.5739 397.208 29.5398L397.447 30.3239C397.271 30.3977 397.04 30.4716 396.756 30.5455C396.475 30.6193 396.174 30.6804 395.853 30.7287C395.535 30.777 395.231 30.8011 394.941 30.8011ZM394.447 27.4091C394.827 27.4091 395.136 27.3324 395.371 27.179C395.607 27.0256 395.779 26.794 395.887 26.4844C395.995 26.1747 396.049 25.7841 396.049 25.3125C396.049 24.8352 395.989 24.4631 395.87 24.196C395.751 23.929 395.575 23.7415 395.342 23.6335C395.109 23.5256 394.822 23.4716 394.481 23.4716C394.157 23.4716 393.88 23.5568 393.65 23.7273C393.423 23.8949 393.248 24.1193 393.126 24.4006C393.006 24.679 392.947 24.983 392.947 25.3125C392.947 25.6761 392.995 26.0185 393.092 26.3395C393.188 26.6577 393.346 26.9162 393.565 27.1151C393.783 27.3111 394.077 27.4091 394.447 27.4091ZM403.793 31.0909C403.307 31.0909 402.89 31.0284 402.54 30.9034C402.191 30.7812 401.9 30.6193 401.667 30.4176C401.436 30.2188 401.253 30.0057 401.117 29.7784L401.918 29.2159C402.009 29.3352 402.124 29.4716 402.263 29.625C402.402 29.7812 402.593 29.9162 402.834 30.0298C403.078 30.1463 403.398 30.2045 403.793 30.2045C404.321 30.2045 404.757 30.0767 405.101 29.821C405.445 29.5653 405.617 29.1648 405.617 28.6193V27.2898H405.532C405.458 27.4091 405.353 27.5568 405.216 27.733C405.083 27.9062 404.89 28.0611 404.637 28.1974C404.387 28.331 404.049 28.3977 403.623 28.3977C403.094 28.3977 402.62 28.2727 402.199 28.0227C401.782 27.7727 401.451 27.4091 401.206 26.9318C400.965 26.4545 400.844 25.875 400.844 25.1932C400.844 24.5227 400.962 23.9389 401.198 23.4418C401.434 22.9418 401.762 22.5554 402.182 22.2827C402.603 22.0071 403.088 21.8693 403.64 21.8693C404.066 21.8693 404.404 21.9403 404.654 22.0824C404.907 22.2216 405.1 22.3807 405.233 22.5597C405.37 22.7358 405.475 22.8807 405.549 22.9943H405.651V21.9545H406.623V28.6875C406.623 29.25 406.495 29.7074 406.239 30.0597C405.986 30.4148 405.645 30.6747 405.216 30.8395C404.79 31.0071 404.316 31.0909 403.793 31.0909ZM403.759 27.4943C404.162 27.4943 404.503 27.402 404.782 27.2173C405.06 27.0327 405.272 26.767 405.417 26.4205C405.561 26.0739 405.634 25.6591 405.634 25.1761C405.634 24.7045 405.563 24.2884 405.421 23.9276C405.279 23.5668 405.069 23.2841 404.79 23.0795C404.512 22.875 404.168 22.7727 403.759 22.7727C403.333 22.7727 402.978 22.8807 402.694 23.0966C402.412 23.3125 402.201 23.6023 402.059 23.9659C401.919 24.3295 401.85 24.733 401.85 25.1761C401.85 25.6307 401.921 26.0327 402.063 26.3821C402.208 26.7287 402.421 27.0014 402.702 27.2003C402.986 27.3963 403.338 27.4943 403.759 27.4943ZM408.463 28.5V21.9545H409.435V22.9773H409.52C409.657 22.6278 409.877 22.3565 410.181 22.1634C410.485 21.9673 410.85 21.8693 411.276 21.8693C411.708 21.8693 412.067 21.9673 412.354 22.1634C412.644 22.3565 412.87 22.6278 413.032 22.9773H413.1C413.267 22.6392 413.519 22.3707 413.854 22.1719C414.189 21.9702 414.591 21.8693 415.06 21.8693C415.645 21.8693 416.124 22.0526 416.496 22.419C416.868 22.7827 417.054 23.3494 417.054 24.1193V28.5H416.049V24.1193C416.049 23.6364 415.917 23.2912 415.652 23.0838C415.388 22.8764 415.077 22.7727 414.719 22.7727C414.259 22.7727 413.902 22.9119 413.65 23.1903C413.397 23.4659 413.27 23.8153 413.27 24.2386V28.5H412.248V24.017C412.248 23.6449 412.127 23.3452 411.885 23.1179C411.644 22.8878 411.333 22.7727 410.952 22.7727C410.691 22.7727 410.446 22.8423 410.219 22.9815C409.995 23.1207 409.813 23.3139 409.674 23.5611C409.537 23.8054 409.469 24.0881 409.469 24.4091V28.5H408.463ZM420.819 28.6534C420.404 28.6534 420.028 28.5753 419.69 28.419C419.352 28.2599 419.083 28.0312 418.885 27.733C418.686 27.4318 418.586 27.0682 418.586 26.642C418.586 26.267 418.66 25.9631 418.808 25.7301C418.956 25.4943 419.153 25.3097 419.4 25.1761C419.647 25.0426 419.92 24.9432 420.218 24.8778C420.52 24.8097 420.822 24.7557 421.126 24.7159C421.524 24.6648 421.846 24.6264 422.093 24.6009C422.343 24.5724 422.525 24.5256 422.639 24.4602C422.755 24.3949 422.814 24.2812 422.814 24.1193V24.0852C422.814 23.6648 422.699 23.3381 422.468 23.1051C422.241 22.8722 421.896 22.7557 421.433 22.7557C420.953 22.7557 420.576 22.8608 420.304 23.071C420.031 23.2812 419.839 23.5057 419.728 23.7443L418.774 23.4034C418.944 23.0057 419.172 22.696 419.456 22.4744C419.743 22.25 420.055 22.0937 420.393 22.0057C420.734 21.9148 421.069 21.8693 421.399 21.8693C421.609 21.8693 421.85 21.8949 422.123 21.946C422.399 21.9943 422.664 22.0952 422.92 22.2486C423.179 22.402 423.393 22.6335 423.564 22.9432C423.734 23.2528 423.819 23.6676 423.819 24.1875V28.5H422.814V27.6136H422.762C422.694 27.7557 422.581 27.9077 422.422 28.0696C422.262 28.2315 422.051 28.3693 421.787 28.483C421.522 28.5966 421.2 28.6534 420.819 28.6534ZM420.973 27.75C421.37 27.75 421.706 27.6719 421.978 27.5156C422.254 27.3594 422.461 27.1577 422.6 26.9105C422.743 26.6634 422.814 26.4034 422.814 26.1307V25.2102C422.771 25.2614 422.677 25.3082 422.532 25.3509C422.39 25.3906 422.225 25.4261 422.038 25.4574C421.853 25.4858 421.673 25.5114 421.497 25.5341C421.324 25.554 421.183 25.571 421.075 25.5852C420.814 25.6193 420.569 25.6747 420.342 25.7514C420.118 25.8253 419.936 25.9375 419.797 26.0881C419.66 26.2358 419.592 26.4375 419.592 26.6932C419.592 27.0426 419.721 27.3068 419.98 27.4858C420.241 27.6619 420.572 27.75 420.973 27.75ZM425.655 28.5V21.9545H426.661V28.5H425.655ZM426.166 20.8636C425.97 20.8636 425.801 20.7969 425.659 20.6634C425.52 20.5298 425.45 20.3693 425.45 20.1818C425.45 19.9943 425.52 19.8338 425.659 19.7003C425.801 19.5668 425.97 19.5 426.166 19.5C426.362 19.5 426.53 19.5668 426.669 19.7003C426.811 19.8338 426.882 19.9943 426.882 20.1818C426.882 20.3693 426.811 20.5298 426.669 20.6634C426.53 20.7969 426.362 20.8636 426.166 20.8636ZM429.508 19.7727V28.5H428.502V19.7727H429.508ZM432.083 28.5682C431.873 28.5682 431.692 28.4929 431.542 28.3423C431.391 28.1918 431.316 28.0114 431.316 27.8011C431.316 27.5909 431.391 27.4105 431.542 27.2599C431.692 27.1094 431.873 27.0341 432.083 27.0341C432.293 27.0341 432.474 27.1094 432.624 27.2599C432.775 27.4105 432.85 27.5909 432.85 27.8011C432.85 27.9403 432.815 28.0682 432.744 28.1847C432.675 28.3011 432.583 28.3949 432.467 28.4659C432.353 28.5341 432.225 28.5682 432.083 28.5682ZM437.314 28.6364C436.7 28.6364 436.172 28.4915 435.729 28.2017C435.286 27.9119 434.945 27.5128 434.706 27.0043C434.467 26.4957 434.348 25.9148 434.348 25.2614C434.348 24.5966 434.47 24.0099 434.714 23.5014C434.962 22.9901 435.305 22.5909 435.746 22.304C436.189 22.0142 436.706 21.8693 437.297 21.8693C437.757 21.8693 438.172 21.9545 438.541 22.125C438.911 22.2955 439.213 22.5341 439.449 22.8409C439.685 23.1477 439.831 23.5057 439.888 23.9148H438.882C438.805 23.6165 438.635 23.3523 438.371 23.1222C438.109 22.8892 437.757 22.7727 437.314 22.7727C436.922 22.7727 436.578 22.875 436.283 23.0795C435.99 23.2812 435.761 23.5668 435.597 23.9361C435.435 24.3026 435.354 24.733 435.354 25.2273C435.354 25.733 435.433 26.1733 435.592 26.5483C435.754 26.9233 435.982 27.2145 436.274 27.4219C436.57 27.6293 436.916 27.733 437.314 27.733C437.575 27.733 437.812 27.6875 438.026 27.5966C438.239 27.5057 438.419 27.375 438.567 27.2045C438.714 27.0341 438.82 26.8295 438.882 26.5909H439.888C439.831 26.9773 439.69 27.3253 439.466 27.6349C439.244 27.9418 438.95 28.1861 438.584 28.3679C438.22 28.5469 437.797 28.6364 437.314 28.6364ZM444.017 28.6364C443.426 28.6364 442.908 28.4957 442.462 28.2145C442.018 27.9332 441.672 27.5398 441.422 27.0341C441.175 26.5284 441.051 25.9375 441.051 25.2614C441.051 24.5795 441.175 23.9844 441.422 23.4759C441.672 22.9673 442.018 22.5724 442.462 22.2912C442.908 22.0099 443.426 21.8693 444.017 21.8693C444.608 21.8693 445.125 22.0099 445.568 22.2912C446.014 22.5724 446.361 22.9673 446.608 23.4759C446.858 23.9844 446.983 24.5795 446.983 25.2614C446.983 25.9375 446.858 26.5284 446.608 27.0341C446.361 27.5398 446.014 27.9332 445.568 28.2145C445.125 28.4957 444.608 28.6364 444.017 28.6364ZM444.017 27.733C444.466 27.733 444.835 27.6179 445.125 27.3878C445.415 27.1577 445.629 26.8551 445.768 26.4801C445.908 26.1051 445.977 25.6989 445.977 25.2614C445.977 24.8239 445.908 24.4162 445.768 24.0384C445.629 23.6605 445.415 23.3551 445.125 23.1222C444.835 22.8892 444.466 22.7727 444.017 22.7727C443.568 22.7727 443.199 22.8892 442.909 23.1222C442.619 23.3551 442.405 23.6605 442.266 24.0384C442.126 24.4162 442.057 24.8239 442.057 25.2614C442.057 25.6989 442.126 26.1051 442.266 26.4801C442.405 26.8551 442.619 27.1577 442.909 27.3878C443.199 27.6179 443.568 27.733 444.017 27.733ZM448.518 28.5V21.9545H449.49V22.9773H449.575C449.711 22.6278 449.931 22.3565 450.235 22.1634C450.539 21.9673 450.904 21.8693 451.331 21.8693C451.762 21.8693 452.122 21.9673 452.409 22.1634C452.699 22.3565 452.924 22.6278 453.086 22.9773H453.154C453.322 22.6392 453.574 22.3707 453.909 22.1719C454.244 21.9702 454.646 21.8693 455.115 21.8693C455.7 21.8693 456.179 22.0526 456.551 22.419C456.923 22.7827 457.109 23.3494 457.109 24.1193V28.5H456.103V24.1193C456.103 23.6364 455.971 23.2912 455.707 23.0838C455.443 22.8764 455.132 22.7727 454.774 22.7727C454.314 22.7727 453.957 22.9119 453.704 23.1903C453.451 23.4659 453.325 23.8153 453.325 24.2386V28.5H452.302V24.017C452.302 23.6449 452.181 23.3452 451.94 23.1179C451.699 22.8878 451.387 22.7727 451.007 22.7727C450.745 22.7727 450.501 22.8423 450.274 22.9815C450.049 23.1207 449.868 23.3139 449.728 23.5611C449.592 23.8054 449.524 24.0881 449.524 24.4091V28.5H448.518Z" fill="#888888"/>
<a href="mailto:sabyrkazen@gmail.com">
<rect fill="black" fill-opacity="0" y="0.238636" width="134.029" height="14.5227"/>
</a>
<defs>
<linearGradient id="paint0_linear_18_1029" x1="761.943" y1="-34.2857" x2="706.474" y2="379.34" gradientUnits="userSpaceOnUse">
<stop offset="0.11827" stop-color="#333333" stop-opacity="0"/>
<stop offset="0.223096" stop-color="#666666"/>
</linearGradient>
<clipPath id="clip0_18_1029">
<rect width="36" height="36" fill="white" transform="translate(6 6)"/>
</clipPath>
</defs>
</svg>
