<svg width="260" height="48" viewBox="0 0 260 48" fill="none" xmlns="http://www.w3.org/2000/svg">
<rect x="0.5" y="0.5" width="259" height="47" rx="23.5" stroke="url(#paint0_linear_18_1000)"/>
<g clip-path="url(#clip0_18_1000)">
<path d="M17.1094 33.4922V23.5078L11.3438 19.0781V31.3828C11.3438 32.7891 12.0469 33.4922 13.4531 33.4922" fill="#4285F4"/>
<path d="M16.8281 23.4375L24 28.8516L31.1719 23.4375V16.5469L24 21.9609L16.8281 16.5469" fill="#EA4335"/>
<path d="M30.8906 33.4922V23.5078L36.6562 19.0781V31.3828C36.6562 32.7891 35.9531 33.4922 34.5469 33.4922" fill="#34A853"/>
<path d="M11.3438 19.2189L17.1094 23.6486V16.758L15 15.1408C13.1016 13.6642 11.3438 15.1408 11.3438 16.9689" fill="#C5221F"/>
<path d="M36.6562 19.2189L30.8906 23.6486V16.758L33 15.1408C34.8984 13.6642 36.6562 15.1408 36.6562 16.9689" fill="#FBBC04"/>
</g>
<path d="M61.1534 21.5398C61.0436 21.1951 60.8958 20.8864 60.7102 20.6136C60.5284 20.3371 60.3106 20.1023 60.0568 19.9091C59.803 19.7121 59.5133 19.5625 59.1875 19.4602C58.8655 19.358 58.5114 19.3068 58.125 19.3068C57.4697 19.3068 56.8788 19.4754 56.3523 19.8125C55.8258 20.1496 55.4091 20.6439 55.1023 21.2955C54.7992 21.9432 54.6477 22.7367 54.6477 23.6761C54.6477 24.6193 54.8011 25.4167 55.108 26.0682C55.4148 26.7197 55.8352 27.214 56.3693 27.5511C56.9034 27.8883 57.5114 28.0568 58.1932 28.0568C58.8258 28.0568 59.3769 27.928 59.8466 27.6705C60.3201 27.4129 60.6856 27.0492 60.9432 26.5795C61.2045 26.1061 61.3352 25.5492 61.3352 24.9091L61.7898 24.9943H58.4602V23.5455H63.0341V24.8693C63.0341 25.8466 62.8258 26.6951 62.4091 27.4148C61.9962 28.1307 61.4242 28.6837 60.6932 29.0739C59.9659 29.464 59.1326 29.6591 58.1932 29.6591C57.1402 29.6591 56.2159 29.4167 55.4205 28.9318C54.6288 28.447 54.0114 27.7595 53.5682 26.8693C53.125 25.9754 52.9034 24.9148 52.9034 23.6875C52.9034 22.7595 53.0322 21.9261 53.2898 21.1875C53.5473 20.4489 53.9091 19.822 54.375 19.3068C54.8447 18.7879 55.3958 18.392 56.0284 18.1193C56.6648 17.8428 57.3598 17.7045 58.1136 17.7045C58.7424 17.7045 59.3277 17.7973 59.8693 17.983C60.4148 18.1686 60.8996 18.4318 61.3239 18.7727C61.7519 19.1136 62.1061 19.5189 62.3864 19.9886C62.6667 20.4545 62.8561 20.9716 62.9545 21.5398H61.1534ZM65.1264 29.5V20.7727H66.7571V22.1932H66.8651C67.0469 21.7121 67.3442 21.3371 67.7571 21.0682C68.17 20.7955 68.6643 20.6591 69.2401 20.6591C69.8234 20.6591 70.312 20.7955 70.706 21.0682C71.1037 21.3409 71.3973 21.7159 71.5866 22.1932H71.6776C71.8859 21.7273 72.2173 21.3561 72.6719 21.0795C73.1264 20.7992 73.6681 20.6591 74.2969 20.6591C75.0885 20.6591 75.7344 20.9072 76.2344 21.4034C76.7382 21.8996 76.9901 22.6477 76.9901 23.6477V29.5H75.2912V23.8068C75.2912 23.2159 75.1302 22.7879 74.8082 22.5227C74.4863 22.2576 74.1018 22.125 73.6548 22.125C73.1018 22.125 72.6719 22.2955 72.3651 22.6364C72.0582 22.9735 71.9048 23.4072 71.9048 23.9375V29.5H70.2116V23.6989C70.2116 23.2254 70.0639 22.8447 69.7685 22.5568C69.473 22.2689 69.0885 22.125 68.6151 22.125C68.2931 22.125 67.9957 22.2102 67.723 22.3807C67.4541 22.5473 67.2363 22.7803 67.0696 23.0795C66.9067 23.3788 66.8253 23.7254 66.8253 24.1193V29.5H65.1264ZM81.8068 29.6932C81.2538 29.6932 80.7538 29.5909 80.3068 29.3864C79.8598 29.178 79.5057 28.8769 79.2443 28.483C78.9867 28.089 78.858 27.6061 78.858 27.0341C78.858 26.5417 78.9527 26.1364 79.142 25.8182C79.3314 25.5 79.5871 25.2481 79.9091 25.0625C80.2311 24.8769 80.5909 24.7367 80.9886 24.642C81.3864 24.5473 81.7917 24.4754 82.2045 24.4261C82.7273 24.3655 83.1515 24.3163 83.4773 24.2784C83.803 24.2367 84.0398 24.1705 84.1875 24.0795C84.3352 23.9886 84.4091 23.8409 84.4091 23.6364V23.5966C84.4091 23.1004 84.2689 22.7159 83.9886 22.4432C83.7121 22.1705 83.2992 22.0341 82.75 22.0341C82.178 22.0341 81.7273 22.161 81.3977 22.4148C81.072 22.6648 80.8466 22.9432 80.7216 23.25L79.125 22.8864C79.3144 22.3561 79.5909 21.928 79.9545 21.6023C80.322 21.2727 80.7443 21.0341 81.2216 20.8864C81.6989 20.7348 82.2008 20.6591 82.7273 20.6591C83.0758 20.6591 83.4451 20.7008 83.8352 20.7841C84.2292 20.8636 84.5966 21.0114 84.9375 21.2273C85.2822 21.4432 85.5644 21.7519 85.7841 22.1534C86.0038 22.5511 86.1136 23.0682 86.1136 23.7045V29.5H84.4545V28.3068H84.3864C84.2765 28.5265 84.1117 28.7424 83.892 28.9545C83.6723 29.1667 83.3902 29.3428 83.0455 29.483C82.7008 29.6231 82.2879 29.6932 81.8068 29.6932ZM82.1761 28.3295C82.6458 28.3295 83.0473 28.2367 83.3807 28.0511C83.7178 27.8655 83.9735 27.6231 84.1477 27.3239C84.3258 27.0208 84.4148 26.697 84.4148 26.3523V25.2273C84.3542 25.2879 84.2367 25.3447 84.0625 25.3977C83.892 25.447 83.697 25.4905 83.4773 25.5284C83.2576 25.5625 83.0436 25.5947 82.8352 25.625C82.6269 25.6515 82.4527 25.6742 82.3125 25.6932C81.983 25.7348 81.6818 25.8049 81.4091 25.9034C81.1402 26.0019 80.9242 26.1439 80.7614 26.3295C80.6023 26.5114 80.5227 26.7538 80.5227 27.0568C80.5227 27.4773 80.678 27.7955 80.9886 28.0114C81.2992 28.2235 81.6951 28.3295 82.1761 28.3295ZM88.3764 29.5V20.7727H90.0753V29.5H88.3764ZM89.2344 19.4261C88.9389 19.4261 88.6851 19.3277 88.473 19.1307C88.2647 18.9299 88.1605 18.6913 88.1605 18.4148C88.1605 18.1345 88.2647 17.8958 88.473 17.6989C88.6851 17.4981 88.9389 17.3977 89.2344 17.3977C89.5298 17.3977 89.7817 17.4981 89.9901 17.6989C90.2022 17.8958 90.3082 18.1345 90.3082 18.4148C90.3082 18.6913 90.2022 18.9299 89.9901 19.1307C89.7817 19.3277 89.5298 19.4261 89.2344 19.4261ZM94.0597 17.8636V29.5H92.3608V17.8636H94.0597Z" fill="#313131"/>
<path d="M117.557 23.4205L116.653 23.6761C116.597 23.5256 116.513 23.3793 116.402 23.2372C116.294 23.0923 116.146 22.973 115.959 22.8793C115.771 22.7855 115.531 22.7386 115.239 22.7386C114.838 22.7386 114.504 22.831 114.237 23.0156C113.973 23.1974 113.841 23.429 113.841 23.7102C113.841 23.9602 113.932 24.1577 114.114 24.3026C114.295 24.4474 114.58 24.5682 114.966 24.6648L115.938 24.9034C116.523 25.0455 116.959 25.2628 117.246 25.5554C117.533 25.8452 117.676 26.2187 117.676 26.6761C117.676 27.0511 117.568 27.3864 117.352 27.6818C117.139 27.9773 116.841 28.2102 116.457 28.3807C116.074 28.5511 115.628 28.6364 115.119 28.6364C114.452 28.6364 113.899 28.4915 113.462 28.2017C113.024 27.9119 112.747 27.4886 112.631 26.9318L113.585 26.6932C113.676 27.0455 113.848 27.3097 114.101 27.4858C114.357 27.6619 114.69 27.75 115.102 27.75C115.571 27.75 115.943 27.6506 116.219 27.4517C116.497 27.25 116.636 27.0085 116.636 26.7273C116.636 26.5 116.557 26.3097 116.398 26.1562C116.239 26 115.994 25.8835 115.665 25.8068L114.574 25.5511C113.974 25.4091 113.534 25.1889 113.253 24.8906C112.974 24.5895 112.835 24.2131 112.835 23.7614C112.835 23.392 112.939 23.0653 113.146 22.7812C113.357 22.4972 113.642 22.2741 114.003 22.1122C114.366 21.9503 114.778 21.8693 115.239 21.8693C115.886 21.8693 116.395 22.0114 116.764 22.2955C117.136 22.5795 117.401 22.9545 117.557 23.4205ZM121.116 28.6534C120.701 28.6534 120.325 28.5753 119.987 28.419C119.649 28.2599 119.38 28.0312 119.181 27.733C118.983 27.4318 118.883 27.0682 118.883 26.642C118.883 26.267 118.957 25.9631 119.105 25.7301C119.252 25.4943 119.45 25.3097 119.697 25.1761C119.944 25.0426 120.217 24.9432 120.515 24.8778C120.816 24.8097 121.119 24.7557 121.423 24.7159C121.821 24.6648 122.143 24.6264 122.39 24.6009C122.64 24.5724 122.822 24.5256 122.936 24.4602C123.052 24.3949 123.11 24.2812 123.11 24.1193V24.0852C123.11 23.6648 122.995 23.3381 122.765 23.1051C122.538 22.8722 122.193 22.7557 121.73 22.7557C121.25 22.7557 120.873 22.8608 120.6 23.071C120.328 23.2812 120.136 23.5057 120.025 23.7443L119.071 23.4034C119.241 23.0057 119.468 22.696 119.752 22.4744C120.039 22.25 120.352 22.0937 120.69 22.0057C121.031 21.9148 121.366 21.8693 121.696 21.8693C121.906 21.8693 122.147 21.8949 122.42 21.946C122.696 21.9943 122.961 22.0952 123.217 22.2486C123.475 22.402 123.69 22.6335 123.86 22.9432C124.031 23.2528 124.116 23.6676 124.116 24.1875V28.5H123.11V27.6136H123.059C122.991 27.7557 122.877 27.9077 122.718 28.0696C122.559 28.2315 122.348 28.3693 122.083 28.483C121.819 28.5966 121.497 28.6534 121.116 28.6534ZM121.27 27.75C121.667 27.75 122.002 27.6719 122.275 27.5156C122.551 27.3594 122.758 27.1577 122.897 26.9105C123.039 26.6634 123.11 26.4034 123.11 26.1307V25.2102C123.068 25.2614 122.974 25.3082 122.829 25.3509C122.687 25.3906 122.522 25.4261 122.335 25.4574C122.15 25.4858 121.97 25.5114 121.794 25.5341C121.62 25.554 121.48 25.571 121.372 25.5852C121.11 25.6193 120.866 25.6747 120.639 25.7514C120.414 25.8253 120.233 25.9375 120.093 26.0881C119.957 26.2358 119.889 26.4375 119.889 26.6932C119.889 27.0426 120.018 27.3068 120.277 27.4858C120.538 27.6619 120.869 27.75 121.27 27.75ZM126.088 28.5V19.7727H127.094V22.9943H127.179C127.253 22.8807 127.355 22.7358 127.486 22.5597C127.619 22.3807 127.81 22.2216 128.057 22.0824C128.307 21.9403 128.645 21.8693 129.071 21.8693C129.622 21.8693 130.108 22.0071 130.528 22.2827C130.949 22.5582 131.277 22.9489 131.513 23.4545C131.749 23.9602 131.866 24.5568 131.866 25.2443C131.866 25.9375 131.749 26.5384 131.513 27.0469C131.277 27.5526 130.95 27.9446 130.533 28.223C130.115 28.4986 129.634 28.6364 129.088 28.6364C128.668 28.6364 128.331 28.5668 128.078 28.4276C127.825 28.2855 127.631 28.125 127.494 27.946C127.358 27.7642 127.253 27.6136 127.179 27.4943H127.06V28.5H126.088ZM127.077 25.2273C127.077 25.7216 127.149 26.1577 127.294 26.5355C127.439 26.9105 127.651 27.2045 127.929 27.4176C128.207 27.6278 128.548 27.733 128.952 27.733C129.372 27.733 129.723 27.6222 130.004 27.4006C130.288 27.1761 130.501 26.875 130.643 26.4972C130.788 26.1165 130.861 25.6932 130.861 25.2273C130.861 24.767 130.79 24.3523 130.648 23.983C130.509 23.6108 130.297 23.3168 130.013 23.1009C129.732 22.8821 129.378 22.7727 128.952 22.7727C128.543 22.7727 128.199 22.8764 127.92 23.0838C127.642 23.2884 127.432 23.5753 127.29 23.9446C127.148 24.3111 127.077 24.7386 127.077 25.2273ZM133.818 30.9545C133.648 30.9545 133.496 30.9403 133.362 30.9119C133.229 30.8864 133.136 30.8608 133.085 30.8352L133.341 29.9489C133.585 30.0114 133.801 30.0341 133.989 30.017C134.176 30 134.342 29.9162 134.487 29.7656C134.635 29.6179 134.77 29.3778 134.892 29.0455L135.08 28.5341L132.659 21.9545H133.75L135.557 27.1705H135.625L137.432 21.9545H138.523L135.744 29.4545C135.619 29.7926 135.464 30.0724 135.28 30.294C135.095 30.5185 134.881 30.6847 134.636 30.7926C134.395 30.9006 134.122 30.9545 133.818 30.9545ZM139.85 28.5V21.9545H140.822V22.9432H140.89C141.009 22.6193 141.225 22.3565 141.538 22.1548C141.85 21.9531 142.202 21.8523 142.594 21.8523C142.668 21.8523 142.761 21.8537 142.871 21.8565C142.982 21.8594 143.066 21.8636 143.123 21.8693V22.892C143.089 22.8835 143.011 22.8707 142.888 22.8537C142.769 22.8338 142.643 22.8239 142.509 22.8239C142.191 22.8239 141.907 22.8906 141.657 23.0241C141.41 23.1548 141.214 23.3366 141.069 23.5696C140.927 23.7997 140.856 24.0625 140.856 24.358V28.5H139.85ZM145.252 26.1136L145.235 24.8693H145.44L148.304 21.9545H149.548L146.497 25.0398H146.412L145.252 26.1136ZM144.315 28.5V19.7727H145.321V28.5H144.315ZM148.474 28.5L145.917 25.2614L146.633 24.5625L149.752 28.5H148.474ZM152.768 28.6534C152.354 28.6534 151.977 28.5753 151.639 28.419C151.301 28.2599 151.033 28.0312 150.834 27.733C150.635 27.4318 150.536 27.0682 150.536 26.642C150.536 26.267 150.609 25.9631 150.757 25.7301C150.905 25.4943 151.102 25.3097 151.349 25.1761C151.597 25.0426 151.869 24.9432 152.168 24.8778C152.469 24.8097 152.771 24.7557 153.075 24.7159C153.473 24.6648 153.795 24.6264 154.043 24.6009C154.293 24.5724 154.474 24.5256 154.588 24.4602C154.705 24.3949 154.763 24.2812 154.763 24.1193V24.0852C154.763 23.6648 154.648 23.3381 154.418 23.1051C154.19 22.8722 153.845 22.7557 153.382 22.7557C152.902 22.7557 152.526 22.8608 152.253 23.071C151.98 23.2812 151.788 23.5057 151.678 23.7443L150.723 23.4034C150.893 23.0057 151.121 22.696 151.405 22.4744C151.692 22.25 152.004 22.0937 152.342 22.0057C152.683 21.9148 153.018 21.8693 153.348 21.8693C153.558 21.8693 153.8 21.8949 154.072 21.946C154.348 21.9943 154.614 22.0952 154.869 22.2486C155.128 22.402 155.342 22.6335 155.513 22.9432C155.683 23.2528 155.768 23.6676 155.768 24.1875V28.5H154.763V27.6136H154.712C154.643 27.7557 154.53 27.9077 154.371 28.0696C154.212 28.2315 154 28.3693 153.736 28.483C153.472 28.5966 153.149 28.6534 152.768 28.6534ZM152.922 27.75C153.32 27.75 153.655 27.6719 153.928 27.5156C154.203 27.3594 154.411 27.1577 154.55 26.9105C154.692 26.6634 154.763 26.4034 154.763 26.1307V25.2102C154.72 25.2614 154.626 25.3082 154.482 25.3509C154.339 25.3906 154.175 25.4261 153.987 25.4574C153.803 25.4858 153.622 25.5114 153.446 25.5341C153.273 25.554 153.132 25.571 153.024 25.5852C152.763 25.6193 152.518 25.6747 152.291 25.7514C152.067 25.8253 151.885 25.9375 151.746 26.0881C151.609 26.2358 151.541 26.4375 151.541 26.6932C151.541 27.0426 151.67 27.3068 151.929 27.4858C152.19 27.6619 152.521 27.75 152.922 27.75ZM157.417 28.5V27.733L161.132 22.9602V22.892H157.536V21.9545H162.428V22.7557L158.814 27.4943V27.5625H162.547V28.5H157.417ZM166.653 28.6364C166.022 28.6364 165.478 28.4972 165.021 28.2188C164.566 27.9375 164.216 27.5455 163.968 27.0426C163.724 26.5369 163.602 25.9489 163.602 25.2784C163.602 24.608 163.724 24.017 163.968 23.5057C164.216 22.9915 164.559 22.5909 165 22.304C165.443 22.0142 165.96 21.8693 166.551 21.8693C166.892 21.8693 167.228 21.9261 167.561 22.0398C167.893 22.1534 168.196 22.3381 168.468 22.5938C168.741 22.8466 168.958 23.1818 169.12 23.5994C169.282 24.017 169.363 24.5312 169.363 25.142V25.5682H164.318V24.6989H168.341C168.341 24.3295 168.267 24 168.119 23.7102C167.974 23.4205 167.767 23.1918 167.497 23.0241C167.23 22.8565 166.914 22.7727 166.551 22.7727C166.15 22.7727 165.804 22.8722 165.511 23.071C165.221 23.267 164.998 23.5227 164.842 23.8381C164.686 24.1534 164.608 24.4915 164.608 24.8523V25.4318C164.608 25.9261 164.693 26.3452 164.863 26.6889C165.037 27.0298 165.277 27.2898 165.583 27.4688C165.89 27.6449 166.247 27.733 166.653 27.733C166.917 27.733 167.156 27.696 167.369 27.6222C167.585 27.5455 167.771 27.4318 167.927 27.2812C168.083 27.1278 168.204 26.9375 168.289 26.7102L169.261 26.983C169.159 27.3125 168.987 27.6023 168.745 27.8523C168.504 28.0994 168.206 28.2926 167.85 28.4318C167.495 28.5682 167.096 28.6364 166.653 28.6364ZM171.899 24.5625V28.5H170.893V21.9545H171.865V22.9773H171.95C172.103 22.6449 172.336 22.3778 172.649 22.1761C172.961 21.9716 173.365 21.8693 173.859 21.8693C174.302 21.8693 174.69 21.9602 175.022 22.142C175.355 22.321 175.613 22.5938 175.798 22.9602C175.983 23.3239 176.075 23.7841 176.075 24.3409V28.5H175.069V24.4091C175.069 23.8949 174.936 23.4943 174.669 23.2074C174.402 22.9176 174.035 22.7727 173.569 22.7727C173.248 22.7727 172.961 22.8423 172.708 22.9815C172.458 23.1207 172.261 23.3239 172.116 23.5909C171.971 23.858 171.899 24.1818 171.899 24.5625ZM182.941 30.8011C182.072 30.8011 181.303 30.6818 180.636 30.4432C179.968 30.2074 179.407 29.8594 178.952 29.3991C178.498 28.9389 178.154 28.375 177.921 27.7074C177.688 27.0398 177.572 26.2756 177.572 25.4148C177.572 24.5824 177.69 23.8381 177.925 23.1818C178.164 22.5256 178.509 21.9688 178.961 21.5114C179.415 21.0511 179.967 20.7003 180.614 20.4588C181.265 20.2173 182.001 20.0966 182.822 20.0966C183.62 20.0966 184.319 20.2273 184.918 20.4886C185.521 20.7472 186.023 21.098 186.427 21.5412C186.833 21.9815 187.137 22.4773 187.339 23.0284C187.543 23.5795 187.646 24.1477 187.646 24.733C187.646 25.1449 187.626 25.5625 187.586 25.9858C187.546 26.4091 187.462 26.7983 187.335 27.1534C187.207 27.5057 187.009 27.7898 186.742 28.0057C186.478 28.2216 186.12 28.3295 185.668 28.3295C185.469 28.3295 185.251 28.2983 185.012 28.2358C184.773 28.1733 184.562 28.0696 184.377 27.9247C184.192 27.7798 184.083 27.5852 184.049 27.3409H183.998C183.93 27.5057 183.825 27.6619 183.683 27.8097C183.543 27.9574 183.36 28.0753 183.133 28.1634C182.908 28.2514 182.634 28.2898 182.31 28.2784C181.941 28.2642 181.616 28.1818 181.335 28.0312C181.053 27.8778 180.817 27.6705 180.627 27.4091C180.44 27.1449 180.298 26.8395 180.201 26.4929C180.107 26.1435 180.06 25.767 180.06 25.3636C180.06 24.9801 180.117 24.6293 180.231 24.3111C180.344 23.9929 180.502 23.7145 180.704 23.4759C180.908 23.2372 181.147 23.0469 181.42 22.9048C181.695 22.7599 181.992 22.6705 182.31 22.6364C182.594 22.608 182.853 22.6207 183.086 22.6747C183.319 22.7259 183.511 22.804 183.661 22.9091C183.812 23.0114 183.907 23.125 183.947 23.25H183.998V22.7727H184.901V26.625C184.901 26.8636 184.968 27.0739 185.102 27.2557C185.235 27.4375 185.43 27.5284 185.685 27.5284C185.975 27.5284 186.197 27.429 186.35 27.2301C186.506 27.0312 186.613 26.7244 186.67 26.3097C186.729 25.8949 186.759 25.3636 186.759 24.7159C186.759 24.3352 186.707 23.9602 186.602 23.5909C186.499 23.2187 186.343 22.8707 186.133 22.5469C185.925 22.223 185.663 21.9375 185.344 21.6903C185.026 21.4432 184.653 21.25 184.224 21.1108C183.798 20.9687 183.313 20.8977 182.771 20.8977C182.103 20.8977 181.505 21.0014 180.977 21.2088C180.451 21.4134 180.004 21.7131 179.634 22.108C179.268 22.5 178.988 22.9773 178.795 23.5398C178.604 24.0994 178.509 24.7358 178.509 25.4489C178.509 26.1733 178.604 26.8168 178.795 27.3793C178.988 27.9418 179.272 28.4162 179.647 28.8026C180.025 29.1889 180.492 29.4815 181.049 29.6804C181.606 29.8821 182.248 29.983 182.975 29.983C183.288 29.983 183.596 29.9531 183.9 29.8935C184.204 29.8338 184.472 29.7685 184.705 29.6974C184.938 29.6264 185.106 29.5739 185.208 29.5398L185.447 30.3239C185.271 30.3977 185.04 30.4716 184.756 30.5455C184.475 30.6193 184.174 30.6804 183.853 30.7287C183.535 30.777 183.231 30.8011 182.941 30.8011ZM182.447 27.4091C182.827 27.4091 183.136 27.3324 183.371 27.179C183.607 27.0256 183.779 26.794 183.887 26.4844C183.995 26.1747 184.049 25.7841 184.049 25.3125C184.049 24.8352 183.989 24.4631 183.87 24.196C183.751 23.929 183.575 23.7415 183.342 23.6335C183.109 23.5256 182.822 23.4716 182.481 23.4716C182.157 23.4716 181.88 23.5568 181.65 23.7273C181.423 23.8949 181.248 24.1193 181.126 24.4006C181.006 24.679 180.947 24.983 180.947 25.3125C180.947 25.6761 180.995 26.0185 181.092 26.3395C181.188 26.6577 181.346 26.9162 181.565 27.1151C181.783 27.3111 182.077 27.4091 182.447 27.4091ZM191.793 31.0909C191.307 31.0909 190.89 31.0284 190.54 30.9034C190.191 30.7812 189.9 30.6193 189.667 30.4176C189.436 30.2188 189.253 30.0057 189.117 29.7784L189.918 29.2159C190.009 29.3352 190.124 29.4716 190.263 29.625C190.402 29.7812 190.593 29.9162 190.834 30.0298C191.078 30.1463 191.398 30.2045 191.793 30.2045C192.321 30.2045 192.757 30.0767 193.101 29.821C193.445 29.5653 193.617 29.1648 193.617 28.6193V27.2898H193.532C193.458 27.4091 193.353 27.5568 193.216 27.733C193.083 27.9062 192.89 28.0611 192.637 28.1974C192.387 28.331 192.049 28.3977 191.623 28.3977C191.094 28.3977 190.62 28.2727 190.199 28.0227C189.782 27.7727 189.451 27.4091 189.206 26.9318C188.965 26.4545 188.844 25.875 188.844 25.1932C188.844 24.5227 188.962 23.9389 189.198 23.4418C189.434 22.9418 189.762 22.5554 190.182 22.2827C190.603 22.0071 191.088 21.8693 191.64 21.8693C192.066 21.8693 192.404 21.9403 192.654 22.0824C192.907 22.2216 193.1 22.3807 193.233 22.5597C193.37 22.7358 193.475 22.8807 193.549 22.9943H193.651V21.9545H194.623V28.6875C194.623 29.25 194.495 29.7074 194.239 30.0597C193.986 30.4148 193.645 30.6747 193.216 30.8395C192.79 31.0071 192.316 31.0909 191.793 31.0909ZM191.759 27.4943C192.162 27.4943 192.503 27.402 192.782 27.2173C193.06 27.0327 193.272 26.767 193.417 26.4205C193.561 26.0739 193.634 25.6591 193.634 25.1761C193.634 24.7045 193.563 24.2884 193.421 23.9276C193.279 23.5668 193.069 23.2841 192.79 23.0795C192.512 22.875 192.168 22.7727 191.759 22.7727C191.333 22.7727 190.978 22.8807 190.694 23.0966C190.412 23.3125 190.201 23.6023 190.059 23.9659C189.919 24.3295 189.85 24.733 189.85 25.1761C189.85 25.6307 189.921 26.0327 190.063 26.3821C190.208 26.7287 190.421 27.0014 190.702 27.2003C190.986 27.3963 191.338 27.4943 191.759 27.4943ZM196.463 28.5V21.9545H197.435V22.9773H197.52C197.657 22.6278 197.877 22.3565 198.181 22.1634C198.485 21.9673 198.85 21.8693 199.276 21.8693C199.708 21.8693 200.067 21.9673 200.354 22.1634C200.644 22.3565 200.87 22.6278 201.032 22.9773H201.1C201.267 22.6392 201.519 22.3707 201.854 22.1719C202.189 21.9702 202.591 21.8693 203.06 21.8693C203.645 21.8693 204.124 22.0526 204.496 22.419C204.868 22.7827 205.054 23.3494 205.054 24.1193V28.5H204.049V24.1193C204.049 23.6364 203.917 23.2912 203.652 23.0838C203.388 22.8764 203.077 22.7727 202.719 22.7727C202.259 22.7727 201.902 22.9119 201.65 23.1903C201.397 23.4659 201.27 23.8153 201.27 24.2386V28.5H200.248V24.017C200.248 23.6449 200.127 23.3452 199.885 23.1179C199.644 22.8878 199.333 22.7727 198.952 22.7727C198.691 22.7727 198.446 22.8423 198.219 22.9815C197.995 23.1207 197.813 23.3139 197.674 23.5611C197.537 23.8054 197.469 24.0881 197.469 24.4091V28.5H196.463ZM208.819 28.6534C208.404 28.6534 208.028 28.5753 207.69 28.419C207.352 28.2599 207.083 28.0312 206.885 27.733C206.686 27.4318 206.586 27.0682 206.586 26.642C206.586 26.267 206.66 25.9631 206.808 25.7301C206.956 25.4943 207.153 25.3097 207.4 25.1761C207.647 25.0426 207.92 24.9432 208.218 24.8778C208.52 24.8097 208.822 24.7557 209.126 24.7159C209.524 24.6648 209.846 24.6264 210.093 24.6009C210.343 24.5724 210.525 24.5256 210.639 24.4602C210.755 24.3949 210.814 24.2812 210.814 24.1193V24.0852C210.814 23.6648 210.699 23.3381 210.468 23.1051C210.241 22.8722 209.896 22.7557 209.433 22.7557C208.953 22.7557 208.576 22.8608 208.304 23.071C208.031 23.2812 207.839 23.5057 207.728 23.7443L206.774 23.4034C206.944 23.0057 207.172 22.696 207.456 22.4744C207.743 22.25 208.055 22.0937 208.393 22.0057C208.734 21.9148 209.069 21.8693 209.399 21.8693C209.609 21.8693 209.85 21.8949 210.123 21.946C210.399 21.9943 210.664 22.0952 210.92 22.2486C211.179 22.402 211.393 22.6335 211.564 22.9432C211.734 23.2528 211.819 23.6676 211.819 24.1875V28.5H210.814V27.6136H210.762C210.694 27.7557 210.581 27.9077 210.422 28.0696C210.262 28.2315 210.051 28.3693 209.787 28.483C209.522 28.5966 209.2 28.6534 208.819 28.6534ZM208.973 27.75C209.37 27.75 209.706 27.6719 209.978 27.5156C210.254 27.3594 210.461 27.1577 210.6 26.9105C210.743 26.6634 210.814 26.4034 210.814 26.1307V25.2102C210.771 25.2614 210.677 25.3082 210.532 25.3509C210.39 25.3906 210.225 25.4261 210.038 25.4574C209.853 25.4858 209.673 25.5114 209.497 25.5341C209.324 25.554 209.183 25.571 209.075 25.5852C208.814 25.6193 208.569 25.6747 208.342 25.7514C208.118 25.8253 207.936 25.9375 207.797 26.0881C207.66 26.2358 207.592 26.4375 207.592 26.6932C207.592 27.0426 207.721 27.3068 207.98 27.4858C208.241 27.6619 208.572 27.75 208.973 27.75ZM213.655 28.5V21.9545H214.661V28.5H213.655ZM214.166 20.8636C213.97 20.8636 213.801 20.7969 213.659 20.6634C213.52 20.5298 213.45 20.3693 213.45 20.1818C213.45 19.9943 213.52 19.8338 213.659 19.7003C213.801 19.5668 213.97 19.5 214.166 19.5C214.362 19.5 214.53 19.5668 214.669 19.7003C214.811 19.8338 214.882 19.9943 214.882 20.1818C214.882 20.3693 214.811 20.5298 214.669 20.6634C214.53 20.7969 214.362 20.8636 214.166 20.8636ZM217.508 19.7727V28.5H216.502V19.7727H217.508ZM220.083 28.5682C219.873 28.5682 219.692 28.4929 219.542 28.3423C219.391 28.1918 219.316 28.0114 219.316 27.8011C219.316 27.5909 219.391 27.4105 219.542 27.2599C219.692 27.1094 219.873 27.0341 220.083 27.0341C220.293 27.0341 220.474 27.1094 220.624 27.2599C220.775 27.4105 220.85 27.5909 220.85 27.8011C220.85 27.9403 220.815 28.0682 220.744 28.1847C220.675 28.3011 220.583 28.3949 220.467 28.4659C220.353 28.5341 220.225 28.5682 220.083 28.5682ZM225.314 28.6364C224.7 28.6364 224.172 28.4915 223.729 28.2017C223.286 27.9119 222.945 27.5128 222.706 27.0043C222.467 26.4957 222.348 25.9148 222.348 25.2614C222.348 24.5966 222.47 24.0099 222.714 23.5014C222.962 22.9901 223.305 22.5909 223.746 22.304C224.189 22.0142 224.706 21.8693 225.297 21.8693C225.757 21.8693 226.172 21.9545 226.541 22.125C226.911 22.2955 227.213 22.5341 227.449 22.8409C227.685 23.1477 227.831 23.5057 227.888 23.9148H226.882C226.805 23.6165 226.635 23.3523 226.371 23.1222C226.109 22.8892 225.757 22.7727 225.314 22.7727C224.922 22.7727 224.578 22.875 224.283 23.0795C223.99 23.2812 223.761 23.5668 223.597 23.9361C223.435 24.3026 223.354 24.733 223.354 25.2273C223.354 25.733 223.433 26.1733 223.592 26.5483C223.754 26.9233 223.982 27.2145 224.274 27.4219C224.57 27.6293 224.916 27.733 225.314 27.733C225.575 27.733 225.812 27.6875 226.026 27.5966C226.239 27.5057 226.419 27.375 226.567 27.2045C226.714 27.0341 226.82 26.8295 226.882 26.5909H227.888C227.831 26.9773 227.69 27.3253 227.466 27.6349C227.244 27.9418 226.95 28.1861 226.584 28.3679C226.22 28.5469 225.797 28.6364 225.314 28.6364ZM232.017 28.6364C231.426 28.6364 230.908 28.4957 230.462 28.2145C230.018 27.9332 229.672 27.5398 229.422 27.0341C229.175 26.5284 229.051 25.9375 229.051 25.2614C229.051 24.5795 229.175 23.9844 229.422 23.4759C229.672 22.9673 230.018 22.5724 230.462 22.2912C230.908 22.0099 231.426 21.8693 232.017 21.8693C232.608 21.8693 233.125 22.0099 233.568 22.2912C234.014 22.5724 234.361 22.9673 234.608 23.4759C234.858 23.9844 234.983 24.5795 234.983 25.2614C234.983 25.9375 234.858 26.5284 234.608 27.0341C234.361 27.5398 234.014 27.9332 233.568 28.2145C233.125 28.4957 232.608 28.6364 232.017 28.6364ZM232.017 27.733C232.466 27.733 232.835 27.6179 233.125 27.3878C233.415 27.1577 233.629 26.8551 233.768 26.4801C233.908 26.1051 233.977 25.6989 233.977 25.2614C233.977 24.8239 233.908 24.4162 233.768 24.0384C233.629 23.6605 233.415 23.3551 233.125 23.1222C232.835 22.8892 232.466 22.7727 232.017 22.7727C231.568 22.7727 231.199 22.8892 230.909 23.1222C230.619 23.3551 230.405 23.6605 230.266 24.0384C230.126 24.4162 230.057 24.8239 230.057 25.2614C230.057 25.6989 230.126 26.1051 230.266 26.4801C230.405 26.8551 230.619 27.1577 230.909 27.3878C231.199 27.6179 231.568 27.733 232.017 27.733ZM236.518 28.5V21.9545H237.49V22.9773H237.575C237.711 22.6278 237.931 22.3565 238.235 22.1634C238.539 21.9673 238.904 21.8693 239.331 21.8693C239.762 21.8693 240.122 21.9673 240.409 22.1634C240.699 22.3565 240.924 22.6278 241.086 22.9773H241.154C241.322 22.6392 241.574 22.3707 241.909 22.1719C242.244 21.9702 242.646 21.8693 243.115 21.8693C243.7 21.8693 244.179 22.0526 244.551 22.419C244.923 22.7827 245.109 23.3494 245.109 24.1193V28.5H244.103V24.1193C244.103 23.6364 243.971 23.2912 243.707 23.0838C243.443 22.8764 243.132 22.7727 242.774 22.7727C242.314 22.7727 241.957 22.9119 241.704 23.1903C241.451 23.4659 241.325 23.8153 241.325 24.2386V28.5H240.302V24.017C240.302 23.6449 240.181 23.3452 239.94 23.1179C239.699 22.8878 239.387 22.7727 239.007 22.7727C238.745 22.7727 238.501 22.8423 238.274 22.9815C238.049 23.1207 237.868 23.3139 237.728 23.5611C237.592 23.8054 237.524 24.0881 237.524 24.4091V28.5H236.518Z" fill="#888888"/>
<a href="mailto:sabyrkazen@gmail.com">
<rect fill="black" fill-opacity="0" y="0.238636" width="134.029" height="14.5227"/>
</a>
<defs>
<linearGradient id="paint0_linear_18_1000" x1="419.714" y1="-34.2857" x2="322.941" y2="363.219" gradientUnits="userSpaceOnUse">
<stop offset="0.11827" stop-color="#333333" stop-opacity="0"/>
<stop offset="0.767584" stop-color="#666666" stop-opacity="0.76"/>
</linearGradient>
<clipPath id="clip0_18_1000">
<rect width="36" height="36" fill="white" transform="translate(6 6)"/>
</clipPath>
</defs>
</svg>
