<svg width="515" height="48" viewBox="0 0 515 48" fill="none" xmlns="http://www.w3.org/2000/svg">
<rect x="0.5" y="0.5" width="514" height="47" rx="23.5" stroke="url(#paint0_linear_11_527)"/>
<path d="M24 39.75C32.6985 39.75 39.75 32.6985 39.75 24C39.75 15.3015 32.6985 8.25 24 8.25C15.3015 8.25 8.25 15.3015 8.25 24C8.25 32.6985 15.3015 39.75 24 39.75Z" fill="url(#paint1_linear_11_527)"/>
<path d="M31.8599 17.4849C32.0001 16.5787 31.1386 15.8635 30.3328 16.2172L14.2854 23.2629C13.7076 23.5166 13.7499 24.3918 14.3492 24.5826L17.6585 25.6365C18.2902 25.8377 18.9741 25.7336 19.5256 25.3526L26.9869 20.1978C27.2119 20.0424 27.4571 20.3623 27.2649 20.5604L21.8941 26.0977C21.3731 26.6349 21.4765 27.5451 22.1032 27.9381L28.1164 31.7088C28.7908 32.1317 29.6584 31.7069 29.7845 30.8919L31.8599 17.4849Z" fill="white"/>
<path d="M52.7045 19.375V17.8636H61.7102V19.375H58.0795V29.5H56.3295V19.375H52.7045ZM66.0597 29.6761C65.1998 29.6761 64.4593 29.4924 63.8381 29.125C63.2206 28.7538 62.7434 28.233 62.4062 27.5625C62.0729 26.8883 61.9062 26.0985 61.9062 25.1932C61.9062 24.2992 62.0729 23.5114 62.4062 22.8295C62.7434 22.1477 63.2131 21.6155 63.8153 21.233C64.4214 20.8504 65.1297 20.6591 65.9403 20.6591C66.4328 20.6591 66.91 20.7405 67.3722 20.9034C67.8343 21.0663 68.2491 21.322 68.6165 21.6705C68.9839 22.0189 69.2737 22.4716 69.4858 23.0284C69.6979 23.5814 69.804 24.2538 69.804 25.0455V25.6477H62.8665V24.375H68.1392C68.1392 23.928 68.0483 23.5322 67.8665 23.1875C67.6847 22.839 67.429 22.5644 67.0994 22.3636C66.7737 22.1629 66.3911 22.0625 65.9517 22.0625C65.4744 22.0625 65.0578 22.1799 64.7017 22.4148C64.3494 22.6458 64.0767 22.9489 63.8835 23.3239C63.6941 23.6951 63.5994 24.0985 63.5994 24.5341V25.5284C63.5994 26.1117 63.7017 26.608 63.9062 27.017C64.1146 27.4261 64.4044 27.7386 64.7756 27.9545C65.1468 28.1667 65.5805 28.2727 66.0767 28.2727C66.3987 28.2727 66.6922 28.2273 66.9574 28.1364C67.2225 28.0417 67.4517 27.9015 67.6449 27.7159C67.8381 27.5303 67.9858 27.3011 68.0881 27.0284L69.696 27.3182C69.5672 27.7917 69.3362 28.2064 69.0028 28.5625C68.6733 28.9148 68.2585 29.1894 67.7585 29.3864C67.2623 29.5795 66.696 29.6761 66.0597 29.6761ZM73.3878 17.8636V29.5H71.6889V17.8636H73.3878ZM79.4347 29.6761C78.5748 29.6761 77.8343 29.4924 77.2131 29.125C76.5956 28.7538 76.1184 28.233 75.7812 27.5625C75.4479 26.8883 75.2812 26.0985 75.2812 25.1932C75.2812 24.2992 75.4479 23.5114 75.7812 22.8295C76.1184 22.1477 76.5881 21.6155 77.1903 21.233C77.7964 20.8504 78.5047 20.6591 79.3153 20.6591C79.8078 20.6591 80.285 20.7405 80.7472 20.9034C81.2093 21.0663 81.6241 21.322 81.9915 21.6705C82.3589 22.0189 82.6487 22.4716 82.8608 23.0284C83.0729 23.5814 83.179 24.2538 83.179 25.0455V25.6477H76.2415V24.375H81.5142C81.5142 23.928 81.4233 23.5322 81.2415 23.1875C81.0597 22.839 80.804 22.5644 80.4744 22.3636C80.1487 22.1629 79.7661 22.0625 79.3267 22.0625C78.8494 22.0625 78.4328 22.1799 78.0767 22.4148C77.7244 22.6458 77.4517 22.9489 77.2585 23.3239C77.0691 23.6951 76.9744 24.0985 76.9744 24.5341V25.5284C76.9744 26.1117 77.0767 26.608 77.2812 27.017C77.4896 27.4261 77.7794 27.7386 78.1506 27.9545C78.5218 28.1667 78.9555 28.2727 79.4517 28.2727C79.7737 28.2727 80.0672 28.2273 80.3324 28.1364C80.5975 28.0417 80.8267 27.9015 81.0199 27.7159C81.2131 27.5303 81.3608 27.3011 81.4631 27.0284L83.071 27.3182C82.9422 27.7917 82.7112 28.2064 82.3778 28.5625C82.0483 28.9148 81.6335 29.1894 81.1335 29.3864C80.6373 29.5795 80.071 29.6761 79.4347 29.6761ZM88.723 32.9545C88.0298 32.9545 87.4332 32.8636 86.9332 32.6818C86.437 32.5 86.0317 32.2595 85.7173 31.9602C85.4029 31.661 85.1681 31.3333 85.0128 30.9773L86.473 30.375C86.5753 30.5417 86.7116 30.7178 86.8821 30.9034C87.0563 31.0928 87.2912 31.2538 87.5866 31.3864C87.8859 31.5189 88.2704 31.5852 88.7401 31.5852C89.384 31.5852 89.9162 31.428 90.3366 31.1136C90.7571 30.803 90.9673 30.3068 90.9673 29.625V27.9091H90.8594C90.7571 28.0947 90.6094 28.3011 90.4162 28.5284C90.2268 28.7557 89.9654 28.9527 89.6321 29.1193C89.2988 29.286 88.8651 29.3693 88.331 29.3693C87.6416 29.3693 87.0204 29.2083 86.4673 28.8864C85.9181 28.5606 85.4825 28.0814 85.1605 27.4489C84.8423 26.8125 84.6832 26.0303 84.6832 25.1023C84.6832 24.1742 84.8404 23.3788 85.1548 22.7159C85.473 22.053 85.9086 21.5455 86.4616 21.1932C87.0147 20.8371 87.6416 20.6591 88.3423 20.6591C88.884 20.6591 89.3215 20.75 89.6548 20.9318C89.9882 21.1098 90.2476 21.3182 90.4332 21.5568C90.6226 21.7955 90.7685 22.0057 90.8707 22.1875H90.9957V20.7727H92.6605V29.6932C92.6605 30.4432 92.4863 31.0587 92.1378 31.5398C91.7893 32.0208 91.3177 32.3769 90.723 32.608C90.1321 32.839 89.4654 32.9545 88.723 32.9545ZM88.706 27.9602C89.1946 27.9602 89.6075 27.8466 89.9446 27.6193C90.2855 27.3883 90.5431 27.0587 90.7173 26.6307C90.8954 26.1989 90.9844 25.6818 90.9844 25.0795C90.9844 24.4924 90.8973 23.9754 90.723 23.5284C90.5488 23.0814 90.2931 22.733 89.956 22.483C89.6188 22.2292 89.2022 22.1023 88.706 22.1023C88.1946 22.1023 87.7685 22.2348 87.4276 22.5C87.0866 22.7614 86.8291 23.1174 86.6548 23.5682C86.4844 24.0189 86.3991 24.5227 86.3991 25.0795C86.3991 25.6515 86.4863 26.1534 86.6605 26.5852C86.8348 27.017 87.0923 27.3542 87.4332 27.5966C87.7779 27.839 88.2022 27.9602 88.706 27.9602ZM94.9389 29.5V20.7727H96.581V22.1591H96.6719C96.831 21.6894 97.1113 21.3201 97.5128 21.0511C97.9181 20.7784 98.3764 20.642 98.8878 20.642C98.9938 20.642 99.1188 20.6458 99.2628 20.6534C99.4105 20.661 99.526 20.6705 99.6094 20.6818V22.3068C99.5412 22.2879 99.42 22.267 99.2457 22.2443C99.0715 22.2178 98.8973 22.2045 98.723 22.2045C98.3215 22.2045 97.9635 22.2898 97.6491 22.4602C97.3385 22.6269 97.0923 22.8598 96.9105 23.1591C96.7287 23.4545 96.6378 23.7917 96.6378 24.1705V29.5H94.9389ZM103.541 29.6932C102.988 29.6932 102.488 29.5909 102.041 29.3864C101.594 29.178 101.24 28.8769 100.979 28.483C100.721 28.089 100.592 27.6061 100.592 27.0341C100.592 26.5417 100.687 26.1364 100.876 25.8182C101.066 25.5 101.321 25.2481 101.643 25.0625C101.965 24.8769 102.325 24.7367 102.723 24.642C103.121 24.5473 103.526 24.4754 103.939 24.4261C104.462 24.3655 104.886 24.3163 105.212 24.2784C105.537 24.2367 105.774 24.1705 105.922 24.0795C106.07 23.9886 106.143 23.8409 106.143 23.6364V23.5966C106.143 23.1004 106.003 22.7159 105.723 22.4432C105.446 22.1705 105.034 22.0341 104.484 22.0341C103.912 22.0341 103.462 22.161 103.132 22.4148C102.806 22.6648 102.581 22.9432 102.456 23.25L100.859 22.8864C101.049 22.3561 101.325 21.928 101.689 21.6023C102.056 21.2727 102.479 21.0341 102.956 20.8864C103.433 20.7348 103.935 20.6591 104.462 20.6591C104.81 20.6591 105.179 20.7008 105.57 20.7841C105.964 20.8636 106.331 21.0114 106.672 21.2273C107.017 21.4432 107.299 21.7519 107.518 22.1534C107.738 22.5511 107.848 23.0682 107.848 23.7045V29.5H106.189V28.3068H106.121C106.011 28.5265 105.846 28.7424 105.626 28.9545C105.407 29.1667 105.125 29.3428 104.78 29.483C104.435 29.6231 104.022 29.6932 103.541 29.6932ZM103.911 28.3295C104.38 28.3295 104.782 28.2367 105.115 28.0511C105.452 27.8655 105.708 27.6231 105.882 27.3239C106.06 27.0208 106.149 26.697 106.149 26.3523V25.2273C106.089 25.2879 105.971 25.3447 105.797 25.3977C105.626 25.447 105.431 25.4905 105.212 25.5284C104.992 25.5625 104.778 25.5947 104.57 25.625C104.361 25.6515 104.187 25.6742 104.047 25.6932C103.717 25.7348 103.416 25.8049 103.143 25.9034C102.875 26.0019 102.659 26.1439 102.496 26.3295C102.337 26.5114 102.257 26.7538 102.257 27.0568C102.257 27.4773 102.412 27.7955 102.723 28.0114C103.034 28.2235 103.429 28.3295 103.911 28.3295ZM110.111 29.5V20.7727H111.741V22.1932H111.849C112.031 21.7121 112.329 21.3371 112.741 21.0682C113.154 20.7955 113.649 20.6591 114.224 20.6591C114.808 20.6591 115.296 20.7955 115.69 21.0682C116.088 21.3409 116.382 21.7159 116.571 22.1932H116.662C116.87 21.7273 117.202 21.3561 117.656 21.0795C118.111 20.7992 118.652 20.6591 119.281 20.6591C120.073 20.6591 120.719 20.9072 121.219 21.4034C121.723 21.8996 121.974 22.6477 121.974 23.6477V29.5H120.276V23.8068C120.276 23.2159 120.115 22.7879 119.793 22.5227C119.471 22.2576 119.086 22.125 118.639 22.125C118.086 22.125 117.656 22.2955 117.349 22.6364C117.043 22.9735 116.889 23.4072 116.889 23.9375V29.5H115.196V23.6989C115.196 23.2254 115.048 22.8447 114.753 22.5568C114.457 22.2689 114.073 22.125 113.599 22.125C113.277 22.125 112.98 22.2102 112.707 22.3807C112.438 22.5473 112.221 22.7803 112.054 23.0795C111.891 23.3788 111.81 23.7254 111.81 24.1193V29.5H110.111Z" fill="#FAFAFA"/>
<path d="M430.949 30.8011C430.08 30.8011 429.311 30.6818 428.643 30.4432C427.976 30.2074 427.415 29.8594 426.96 29.3991C426.506 28.9389 426.162 28.375 425.929 27.7074C425.696 27.0398 425.58 26.2756 425.58 25.4148C425.58 24.5824 425.697 23.8381 425.933 23.1818C426.172 22.5256 426.517 21.9688 426.969 21.5114C427.423 21.0511 427.974 20.7003 428.622 20.4588C429.273 20.2173 430.009 20.0966 430.83 20.0966C431.628 20.0966 432.327 20.2273 432.926 20.4886C433.528 20.7472 434.031 21.098 434.435 21.5412C434.841 21.9815 435.145 22.4773 435.347 23.0284C435.551 23.5795 435.653 24.1477 435.653 24.733C435.653 25.1449 435.634 25.5625 435.594 25.9858C435.554 26.4091 435.47 26.7983 435.342 27.1534C435.214 27.5057 435.017 27.7898 434.75 28.0057C434.486 28.2216 434.128 28.3295 433.676 28.3295C433.477 28.3295 433.259 28.2983 433.02 28.2358C432.781 28.1733 432.57 28.0696 432.385 27.9247C432.2 27.7798 432.091 27.5852 432.057 27.3409H432.006C431.938 27.5057 431.832 27.6619 431.69 27.8097C431.551 27.9574 431.368 28.0753 431.141 28.1634C430.916 28.2514 430.642 28.2898 430.318 28.2784C429.949 28.2642 429.624 28.1818 429.342 28.0312C429.061 27.8778 428.825 27.6705 428.635 27.4091C428.447 27.1449 428.305 26.8395 428.209 26.4929C428.115 26.1435 428.068 25.767 428.068 25.3636C428.068 24.9801 428.125 24.6293 428.239 24.3111C428.352 23.9929 428.51 23.7145 428.712 23.4759C428.916 23.2372 429.155 23.0469 429.428 22.9048C429.703 22.7599 430 22.6705 430.318 22.6364C430.602 22.608 430.861 22.6207 431.094 22.6747C431.327 22.7259 431.518 22.804 431.669 22.9091C431.82 23.0114 431.915 23.125 431.955 23.25H432.006V22.7727H432.909V26.625C432.909 26.8636 432.976 27.0739 433.109 27.2557C433.243 27.4375 433.438 27.5284 433.693 27.5284C433.983 27.5284 434.205 27.429 434.358 27.2301C434.514 27.0312 434.621 26.7244 434.678 26.3097C434.737 25.8949 434.767 25.3636 434.767 24.7159C434.767 24.3352 434.714 23.9602 434.609 23.5909C434.507 23.2187 434.351 22.8707 434.141 22.5469C433.933 22.223 433.67 21.9375 433.352 21.6903C433.034 21.4432 432.661 21.25 432.232 21.1108C431.805 20.9687 431.321 20.8977 430.778 20.8977C430.111 20.8977 429.513 21.0014 428.984 21.2088C428.459 21.4134 428.011 21.7131 427.642 22.108C427.276 22.5 426.996 22.9773 426.803 23.5398C426.612 24.0994 426.517 24.7358 426.517 25.4489C426.517 26.1733 426.612 26.8168 426.803 27.3793C426.996 27.9418 427.28 28.4162 427.655 28.8026C428.033 29.1889 428.5 29.4815 429.057 29.6804C429.614 29.8821 430.256 29.983 430.983 29.983C431.295 29.983 431.604 29.9531 431.908 29.8935C432.212 29.8338 432.48 29.7685 432.713 29.6974C432.946 29.6264 433.114 29.5739 433.216 29.5398L433.455 30.3239C433.278 30.3977 433.048 30.4716 432.764 30.5455C432.483 30.6193 432.182 30.6804 431.861 30.7287C431.543 30.777 431.239 30.8011 430.949 30.8011ZM430.455 27.4091C430.835 27.4091 431.143 27.3324 431.379 27.179C431.615 27.0256 431.787 26.794 431.895 26.4844C432.003 26.1747 432.057 25.7841 432.057 25.3125C432.057 24.8352 431.997 24.4631 431.878 24.196C431.759 23.929 431.582 23.7415 431.349 23.6335C431.116 23.5256 430.83 23.4716 430.489 23.4716C430.165 23.4716 429.888 23.5568 429.658 23.7273C429.43 23.8949 429.256 24.1193 429.134 24.4006C429.014 24.679 428.955 24.983 428.955 25.3125C428.955 25.6761 429.003 26.0185 429.099 26.3395C429.196 26.6577 429.354 26.9162 429.572 27.1151C429.791 27.3111 430.085 27.4091 430.455 27.4091ZM441.795 23.4205L440.892 23.6761C440.835 23.5256 440.751 23.3793 440.64 23.2372C440.532 23.0923 440.385 22.973 440.197 22.8793C440.01 22.7855 439.77 22.7386 439.477 22.7386C439.076 22.7386 438.743 22.831 438.475 23.0156C438.211 23.1974 438.079 23.429 438.079 23.7102C438.079 23.9602 438.17 24.1577 438.352 24.3026C438.534 24.4474 438.818 24.5682 439.204 24.6648L440.176 24.9034C440.761 25.0455 441.197 25.2628 441.484 25.5554C441.771 25.8452 441.914 26.2187 441.914 26.6761C441.914 27.0511 441.806 27.3864 441.591 27.6818C441.377 27.9773 441.079 28.2102 440.696 28.3807C440.312 28.5511 439.866 28.6364 439.358 28.6364C438.69 28.6364 438.137 28.4915 437.7 28.2017C437.262 27.9119 436.985 27.4886 436.869 26.9318L437.824 26.6932C437.914 27.0455 438.086 27.3097 438.339 27.4858C438.595 27.6619 438.929 27.75 439.341 27.75C439.809 27.75 440.181 27.6506 440.457 27.4517C440.735 27.25 440.875 27.0085 440.875 26.7273C440.875 26.5 440.795 26.3097 440.636 26.1562C440.477 26 440.233 25.8835 439.903 25.8068L438.812 25.5511C438.213 25.4091 437.772 25.1889 437.491 24.8906C437.213 24.5895 437.074 24.2131 437.074 23.7614C437.074 23.392 437.177 23.0653 437.385 22.7812C437.595 22.4972 437.88 22.2741 438.241 22.1122C438.605 21.9503 439.017 21.8693 439.477 21.8693C440.125 21.8693 440.633 22.0114 441.002 22.2955C441.375 22.5795 441.639 22.9545 441.795 23.4205ZM445.354 28.6534C444.94 28.6534 444.563 28.5753 444.225 28.419C443.887 28.2599 443.619 28.0312 443.42 27.733C443.221 27.4318 443.121 27.0682 443.121 26.642C443.121 26.267 443.195 25.9631 443.343 25.7301C443.491 25.4943 443.688 25.3097 443.935 25.1761C444.183 25.0426 444.455 24.9432 444.754 24.8778C445.055 24.8097 445.357 24.7557 445.661 24.7159C446.059 24.6648 446.381 24.6264 446.629 24.6009C446.879 24.5724 447.06 24.5256 447.174 24.4602C447.29 24.3949 447.349 24.2812 447.349 24.1193V24.0852C447.349 23.6648 447.234 23.3381 447.004 23.1051C446.776 22.8722 446.431 22.7557 445.968 22.7557C445.488 22.7557 445.112 22.8608 444.839 23.071C444.566 23.2812 444.374 23.5057 444.263 23.7443L443.309 23.4034C443.479 23.0057 443.707 22.696 443.991 22.4744C444.278 22.25 444.59 22.0937 444.928 22.0057C445.269 21.9148 445.604 21.8693 445.934 21.8693C446.144 21.8693 446.386 21.8949 446.658 21.946C446.934 21.9943 447.2 22.0952 447.455 22.2486C447.714 22.402 447.928 22.6335 448.099 22.9432C448.269 23.2528 448.354 23.6676 448.354 24.1875V28.5H447.349V27.6136H447.298C447.229 27.7557 447.116 27.9077 446.957 28.0696C446.798 28.2315 446.586 28.3693 446.322 28.483C446.058 28.5966 445.735 28.6534 445.354 28.6534ZM445.508 27.75C445.906 27.75 446.241 27.6719 446.513 27.5156C446.789 27.3594 446.996 27.1577 447.136 26.9105C447.278 26.6634 447.349 26.4034 447.349 26.1307V25.2102C447.306 25.2614 447.212 25.3082 447.067 25.3509C446.925 25.3906 446.761 25.4261 446.573 25.4574C446.388 25.4858 446.208 25.5114 446.032 25.5341C445.859 25.554 445.718 25.571 445.61 25.5852C445.349 25.6193 445.104 25.6747 444.877 25.7514C444.653 25.8253 444.471 25.9375 444.332 26.0881C444.195 26.2358 444.127 26.4375 444.127 26.6932C444.127 27.0426 444.256 27.3068 444.515 27.4858C444.776 27.6619 445.107 27.75 445.508 27.75ZM450.326 28.5V19.7727H451.332V22.9943H451.417C451.491 22.8807 451.593 22.7358 451.724 22.5597C451.858 22.3807 452.048 22.2216 452.295 22.0824C452.545 21.9403 452.883 21.8693 453.309 21.8693C453.86 21.8693 454.346 22.0071 454.767 22.2827C455.187 22.5582 455.515 22.9489 455.751 23.4545C455.987 23.9602 456.105 24.5568 456.105 25.2443C456.105 25.9375 455.987 26.5384 455.751 27.0469C455.515 27.5526 455.189 27.9446 454.771 28.223C454.353 28.4986 453.872 28.6364 453.326 28.6364C452.906 28.6364 452.569 28.5668 452.316 28.4276C452.064 28.2855 451.869 28.125 451.733 27.946C451.596 27.7642 451.491 27.6136 451.417 27.4943H451.298V28.5H450.326ZM451.315 25.2273C451.315 25.7216 451.387 26.1577 451.532 26.5355C451.677 26.9105 451.889 27.2045 452.167 27.4176C452.446 27.6278 452.787 27.733 453.19 27.733C453.61 27.733 453.961 27.6222 454.243 27.4006C454.527 27.1761 454.74 26.875 454.882 26.4972C455.027 26.1165 455.099 25.6932 455.099 25.2273C455.099 24.767 455.028 24.3523 454.886 23.983C454.747 23.6108 454.535 23.3168 454.251 23.1009C453.97 22.8821 453.616 22.7727 453.19 22.7727C452.781 22.7727 452.437 22.8764 452.159 23.0838C451.88 23.2884 451.67 23.5753 451.528 23.9446C451.386 24.3111 451.315 24.7386 451.315 25.2273ZM458.056 30.9545C457.886 30.9545 457.734 30.9403 457.6 30.9119C457.467 30.8864 457.375 30.8608 457.324 30.8352L457.579 29.9489C457.824 30.0114 458.039 30.0341 458.227 30.017C458.414 30 458.581 29.9162 458.725 29.7656C458.873 29.6179 459.008 29.3778 459.13 29.0455L459.318 28.5341L456.897 21.9545H457.988L459.795 27.1705H459.863L461.67 21.9545H462.761L459.983 29.4545C459.858 29.7926 459.703 30.0724 459.518 30.294C459.333 30.5185 459.119 30.6847 458.875 30.7926C458.633 30.9006 458.36 30.9545 458.056 30.9545ZM464.088 28.5V21.9545H465.06V22.9432H465.128C465.248 22.6193 465.463 22.3565 465.776 22.1548C466.088 21.9531 466.441 21.8523 466.833 21.8523C466.907 21.8523 466.999 21.8537 467.11 21.8565C467.221 21.8594 467.304 21.8636 467.361 21.8693V22.892C467.327 22.8835 467.249 22.8707 467.127 22.8537C467.007 22.8338 466.881 22.8239 466.748 22.8239C466.429 22.8239 466.145 22.8906 465.895 23.0241C465.648 23.1548 465.452 23.3366 465.307 23.5696C465.165 23.7997 465.094 24.0625 465.094 24.358V28.5H464.088ZM469.491 26.1136L469.474 24.8693H469.678L472.542 21.9545H473.786L470.735 25.0398H470.65L469.491 26.1136ZM468.553 28.5V19.7727H469.559V28.5H468.553ZM472.712 28.5L470.156 25.2614L470.871 24.5625L473.991 28.5H472.712ZM477.007 28.6534C476.592 28.6534 476.216 28.5753 475.877 28.419C475.539 28.2599 475.271 28.0312 475.072 27.733C474.873 27.4318 474.774 27.0682 474.774 26.642C474.774 26.267 474.848 25.9631 474.995 25.7301C475.143 25.4943 475.341 25.3097 475.588 25.1761C475.835 25.0426 476.108 24.9432 476.406 24.8778C476.707 24.8097 477.01 24.7557 477.314 24.7159C477.711 24.6648 478.034 24.6264 478.281 24.6009C478.531 24.5724 478.713 24.5256 478.826 24.4602C478.943 24.3949 479.001 24.2812 479.001 24.1193V24.0852C479.001 23.6648 478.886 23.3381 478.656 23.1051C478.429 22.8722 478.083 22.7557 477.62 22.7557C477.14 22.7557 476.764 22.8608 476.491 23.071C476.218 23.2812 476.027 23.5057 475.916 23.7443L474.961 23.4034C475.132 23.0057 475.359 22.696 475.643 22.4744C475.93 22.25 476.243 22.0937 476.581 22.0057C476.922 21.9148 477.257 21.8693 477.586 21.8693C477.797 21.8693 478.038 21.8949 478.311 21.946C478.586 21.9943 478.852 22.0952 479.108 22.2486C479.366 22.402 479.581 22.6335 479.751 22.9432C479.922 23.2528 480.007 23.6676 480.007 24.1875V28.5H479.001V27.6136H478.95C478.882 27.7557 478.768 27.9077 478.609 28.0696C478.45 28.2315 478.238 28.3693 477.974 28.483C477.71 28.5966 477.387 28.6534 477.007 28.6534ZM477.16 27.75C477.558 27.75 477.893 27.6719 478.166 27.5156C478.441 27.3594 478.649 27.1577 478.788 26.9105C478.93 26.6634 479.001 26.4034 479.001 26.1307V25.2102C478.958 25.2614 478.865 25.3082 478.72 25.3509C478.578 25.3906 478.413 25.4261 478.225 25.4574C478.041 25.4858 477.86 25.5114 477.684 25.5341C477.511 25.554 477.37 25.571 477.262 25.5852C477.001 25.6193 476.757 25.6747 476.529 25.7514C476.305 25.8253 476.123 25.9375 475.984 26.0881C475.848 26.2358 475.779 26.4375 475.779 26.6932C475.779 27.0426 475.909 27.3068 476.167 27.4858C476.429 27.6619 476.76 27.75 477.16 27.75ZM481.655 28.5V27.733L485.371 22.9602V22.892H481.774V21.9545H486.666V22.7557L483.053 27.4943V27.5625H486.786V28.5H481.655ZM490.891 28.6364C490.261 28.6364 489.717 28.4972 489.259 28.2188C488.805 27.9375 488.454 27.5455 488.207 27.0426C487.962 26.5369 487.84 25.9489 487.84 25.2784C487.84 24.608 487.962 24.017 488.207 23.5057C488.454 22.9915 488.798 22.5909 489.238 22.304C489.681 22.0142 490.198 21.8693 490.789 21.8693C491.13 21.8693 491.467 21.9261 491.799 22.0398C492.131 22.1534 492.434 22.3381 492.707 22.5938C492.979 22.8466 493.197 23.1818 493.359 23.5994C493.521 24.017 493.602 24.5312 493.602 25.142V25.5682H488.556V24.6989H492.579C492.579 24.3295 492.505 24 492.357 23.7102C492.212 23.4205 492.005 23.1918 491.735 23.0241C491.468 22.8565 491.153 22.7727 490.789 22.7727C490.388 22.7727 490.042 22.8722 489.749 23.071C489.46 23.267 489.237 23.5227 489.08 23.8381C488.924 24.1534 488.846 24.4915 488.846 24.8523V25.4318C488.846 25.9261 488.931 26.3452 489.102 26.6889C489.275 27.0298 489.515 27.2898 489.822 27.4688C490.129 27.6449 490.485 27.733 490.891 27.733C491.156 27.733 491.394 27.696 491.607 27.6222C491.823 27.5455 492.009 27.4318 492.165 27.2812C492.322 27.1278 492.442 26.9375 492.528 26.7102L493.499 26.983C493.397 27.3125 493.225 27.6023 492.984 27.8523C492.742 28.0994 492.444 28.2926 492.089 28.4318C491.734 28.5682 491.335 28.6364 490.891 28.6364ZM496.137 24.5625V28.5H495.131V21.9545H496.103V22.9773H496.188C496.342 22.6449 496.575 22.3778 496.887 22.1761C497.2 21.9716 497.603 21.8693 498.097 21.8693C498.54 21.8693 498.928 21.9602 499.261 22.142C499.593 22.321 499.852 22.5938 500.036 22.9602C500.221 23.3239 500.313 23.7841 500.313 24.3409V28.5H499.308V24.4091C499.308 23.8949 499.174 23.4943 498.907 23.2074C498.64 22.9176 498.273 22.7727 497.808 22.7727C497.487 22.7727 497.2 22.8423 496.947 22.9815C496.697 23.1207 496.499 23.3239 496.354 23.5909C496.21 23.858 496.137 24.1818 496.137 24.5625Z" fill="#888888"/>
<defs>
<linearGradient id="paint0_linear_11_527" x1="831.357" y1="-34.2857" x2="780.375" y2="380.512" gradientUnits="userSpaceOnUse">
<stop offset="0.11827" stop-color="#333333" stop-opacity="0"/>
<stop offset="0.223096" stop-color="#666666"/>
</linearGradient>
<linearGradient id="paint1_linear_11_527" x1="24" y1="8.25" x2="24" y2="39.75" gradientUnits="userSpaceOnUse">
<stop stop-color="#37BBFE"/>
<stop offset="1" stop-color="#007DBB"/>
</linearGradient>
</defs>
</svg>
