<svg width="472" height="48" viewBox="0 0 472 48" fill="none" xmlns="http://www.w3.org/2000/svg">
<rect x="0.5" y="0.5" width="471" height="47" rx="23.5" stroke="url(#paint0_linear_17_519)"/>
<path d="M24 39.75C32.6985 39.75 39.75 32.6985 39.75 24C39.75 15.3015 32.6985 8.25 24 8.25C15.3015 8.25 8.25 15.3015 8.25 24C8.25 32.6985 15.3015 39.75 24 39.75Z" fill="url(#paint1_linear_17_519)"/>
<path d="M31.8599 17.4849C32.0001 16.5787 31.1386 15.8635 30.3328 16.2172L14.2854 23.2629C13.7076 23.5166 13.7499 24.3918 14.3492 24.5826L17.6585 25.6365C18.2902 25.8377 18.9741 25.7336 19.5256 25.3526L26.9869 20.1978C27.2119 20.0424 27.4571 20.3623 27.2649 20.5604L21.8941 26.0977C21.3731 26.6349 21.4765 27.5451 22.1032 27.9381L28.1164 31.7088C28.7908 32.1317 29.6584 31.7069 29.7845 30.8919L31.8599 17.4849Z" fill="white"/>
<path d="M52.7045 19.375V17.8636H61.7102V19.375H58.0795V29.5H56.3295V19.375H52.7045ZM66.0597 29.6761C65.1998 29.6761 64.4593 29.4924 63.8381 29.125C63.2206 28.7538 62.7434 28.233 62.4062 27.5625C62.0729 26.8883 61.9062 26.0985 61.9062 25.1932C61.9062 24.2992 62.0729 23.5114 62.4062 22.8295C62.7434 22.1477 63.2131 21.6155 63.8153 21.233C64.4214 20.8504 65.1297 20.6591 65.9403 20.6591C66.4328 20.6591 66.91 20.7405 67.3722 20.9034C67.8343 21.0663 68.2491 21.322 68.6165 21.6705C68.9839 22.0189 69.2737 22.4716 69.4858 23.0284C69.6979 23.5814 69.804 24.2538 69.804 25.0455V25.6477H62.8665V24.375H68.1392C68.1392 23.928 68.0483 23.5322 67.8665 23.1875C67.6847 22.839 67.429 22.5644 67.0994 22.3636C66.7737 22.1629 66.3911 22.0625 65.9517 22.0625C65.4744 22.0625 65.0578 22.1799 64.7017 22.4148C64.3494 22.6458 64.0767 22.9489 63.8835 23.3239C63.6941 23.6951 63.5994 24.0985 63.5994 24.5341V25.5284C63.5994 26.1117 63.7017 26.608 63.9062 27.017C64.1146 27.4261 64.4044 27.7386 64.7756 27.9545C65.1468 28.1667 65.5805 28.2727 66.0767 28.2727C66.3987 28.2727 66.6922 28.2273 66.9574 28.1364C67.2225 28.0417 67.4517 27.9015 67.6449 27.7159C67.8381 27.5303 67.9858 27.3011 68.0881 27.0284L69.696 27.3182C69.5672 27.7917 69.3362 28.2064 69.0028 28.5625C68.6733 28.9148 68.2585 29.1894 67.7585 29.3864C67.2623 29.5795 66.696 29.6761 66.0597 29.6761ZM73.3878 17.8636V29.5H71.6889V17.8636H73.3878ZM79.4347 29.6761C78.5748 29.6761 77.8343 29.4924 77.2131 29.125C76.5956 28.7538 76.1184 28.233 75.7812 27.5625C75.4479 26.8883 75.2812 26.0985 75.2812 25.1932C75.2812 24.2992 75.4479 23.5114 75.7812 22.8295C76.1184 22.1477 76.5881 21.6155 77.1903 21.233C77.7964 20.8504 78.5047 20.6591 79.3153 20.6591C79.8078 20.6591 80.285 20.7405 80.7472 20.9034C81.2093 21.0663 81.6241 21.322 81.9915 21.6705C82.3589 22.0189 82.6487 22.4716 82.8608 23.0284C83.0729 23.5814 83.179 24.2538 83.179 25.0455V25.6477H76.2415V24.375H81.5142C81.5142 23.928 81.4233 23.5322 81.2415 23.1875C81.0597 22.839 80.804 22.5644 80.4744 22.3636C80.1487 22.1629 79.7661 22.0625 79.3267 22.0625C78.8494 22.0625 78.4328 22.1799 78.0767 22.4148C77.7244 22.6458 77.4517 22.9489 77.2585 23.3239C77.0691 23.6951 76.9744 24.0985 76.9744 24.5341V25.5284C76.9744 26.1117 77.0767 26.608 77.2812 27.017C77.4896 27.4261 77.7794 27.7386 78.1506 27.9545C78.5218 28.1667 78.9555 28.2727 79.4517 28.2727C79.7737 28.2727 80.0672 28.2273 80.3324 28.1364C80.5975 28.0417 80.8267 27.9015 81.0199 27.7159C81.2131 27.5303 81.3608 27.3011 81.4631 27.0284L83.071 27.3182C82.9422 27.7917 82.7112 28.2064 82.3778 28.5625C82.0483 28.9148 81.6335 29.1894 81.1335 29.3864C80.6373 29.5795 80.071 29.6761 79.4347 29.6761ZM88.723 32.9545C88.0298 32.9545 87.4332 32.8636 86.9332 32.6818C86.437 32.5 86.0317 32.2595 85.7173 31.9602C85.4029 31.661 85.1681 31.3333 85.0128 30.9773L86.473 30.375C86.5753 30.5417 86.7116 30.7178 86.8821 30.9034C87.0563 31.0928 87.2912 31.2538 87.5866 31.3864C87.8859 31.5189 88.2704 31.5852 88.7401 31.5852C89.384 31.5852 89.9162 31.428 90.3366 31.1136C90.7571 30.803 90.9673 30.3068 90.9673 29.625V27.9091H90.8594C90.7571 28.0947 90.6094 28.3011 90.4162 28.5284C90.2268 28.7557 89.9654 28.9527 89.6321 29.1193C89.2988 29.286 88.8651 29.3693 88.331 29.3693C87.6416 29.3693 87.0204 29.2083 86.4673 28.8864C85.9181 28.5606 85.4825 28.0814 85.1605 27.4489C84.8423 26.8125 84.6832 26.0303 84.6832 25.1023C84.6832 24.1742 84.8404 23.3788 85.1548 22.7159C85.473 22.053 85.9086 21.5455 86.4616 21.1932C87.0147 20.8371 87.6416 20.6591 88.3423 20.6591C88.884 20.6591 89.3215 20.75 89.6548 20.9318C89.9882 21.1098 90.2476 21.3182 90.4332 21.5568C90.6226 21.7955 90.7685 22.0057 90.8707 22.1875H90.9957V20.7727H92.6605V29.6932C92.6605 30.4432 92.4863 31.0587 92.1378 31.5398C91.7893 32.0208 91.3177 32.3769 90.723 32.608C90.1321 32.839 89.4654 32.9545 88.723 32.9545ZM88.706 27.9602C89.1946 27.9602 89.6075 27.8466 89.9446 27.6193C90.2855 27.3883 90.5431 27.0587 90.7173 26.6307C90.8954 26.1989 90.9844 25.6818 90.9844 25.0795C90.9844 24.4924 90.8973 23.9754 90.723 23.5284C90.5488 23.0814 90.2931 22.733 89.956 22.483C89.6188 22.2292 89.2022 22.1023 88.706 22.1023C88.1946 22.1023 87.7685 22.2348 87.4276 22.5C87.0866 22.7614 86.8291 23.1174 86.6548 23.5682C86.4844 24.0189 86.3991 24.5227 86.3991 25.0795C86.3991 25.6515 86.4863 26.1534 86.6605 26.5852C86.8348 27.017 87.0923 27.3542 87.4332 27.5966C87.7779 27.839 88.2022 27.9602 88.706 27.9602ZM94.9389 29.5V20.7727H96.581V22.1591H96.6719C96.831 21.6894 97.1113 21.3201 97.5128 21.0511C97.9181 20.7784 98.3764 20.642 98.8878 20.642C98.9938 20.642 99.1188 20.6458 99.2628 20.6534C99.4105 20.661 99.526 20.6705 99.6094 20.6818V22.3068C99.5412 22.2879 99.42 22.267 99.2457 22.2443C99.0715 22.2178 98.8973 22.2045 98.723 22.2045C98.3215 22.2045 97.9635 22.2898 97.6491 22.4602C97.3385 22.6269 97.0923 22.8598 96.9105 23.1591C96.7287 23.4545 96.6378 23.7917 96.6378 24.1705V29.5H94.9389ZM103.541 29.6932C102.988 29.6932 102.488 29.5909 102.041 29.3864C101.594 29.178 101.24 28.8769 100.979 28.483C100.721 28.089 100.592 27.6061 100.592 27.0341C100.592 26.5417 100.687 26.1364 100.876 25.8182C101.066 25.5 101.321 25.2481 101.643 25.0625C101.965 24.8769 102.325 24.7367 102.723 24.642C103.121 24.5473 103.526 24.4754 103.939 24.4261C104.462 24.3655 104.886 24.3163 105.212 24.2784C105.537 24.2367 105.774 24.1705 105.922 24.0795C106.07 23.9886 106.143 23.8409 106.143 23.6364V23.5966C106.143 23.1004 106.003 22.7159 105.723 22.4432C105.446 22.1705 105.034 22.0341 104.484 22.0341C103.912 22.0341 103.462 22.161 103.132 22.4148C102.806 22.6648 102.581 22.9432 102.456 23.25L100.859 22.8864C101.049 22.3561 101.325 21.928 101.689 21.6023C102.056 21.2727 102.479 21.0341 102.956 20.8864C103.433 20.7348 103.935 20.6591 104.462 20.6591C104.81 20.6591 105.179 20.7008 105.57 20.7841C105.964 20.8636 106.331 21.0114 106.672 21.2273C107.017 21.4432 107.299 21.7519 107.518 22.1534C107.738 22.5511 107.848 23.0682 107.848 23.7045V29.5H106.189V28.3068H106.121C106.011 28.5265 105.846 28.7424 105.626 28.9545C105.407 29.1667 105.125 29.3428 104.78 29.483C104.435 29.6231 104.022 29.6932 103.541 29.6932ZM103.911 28.3295C104.38 28.3295 104.782 28.2367 105.115 28.0511C105.452 27.8655 105.708 27.6231 105.882 27.3239C106.06 27.0208 106.149 26.697 106.149 26.3523V25.2273C106.089 25.2879 105.971 25.3447 105.797 25.3977C105.626 25.447 105.431 25.4905 105.212 25.5284C104.992 25.5625 104.778 25.5947 104.57 25.625C104.361 25.6515 104.187 25.6742 104.047 25.6932C103.717 25.7348 103.416 25.8049 103.143 25.9034C102.875 26.0019 102.659 26.1439 102.496 26.3295C102.337 26.5114 102.257 26.7538 102.257 27.0568C102.257 27.4773 102.412 27.7955 102.723 28.0114C103.034 28.2235 103.429 28.3295 103.911 28.3295ZM110.111 29.5V20.7727H111.741V22.1932H111.849C112.031 21.7121 112.329 21.3371 112.741 21.0682C113.154 20.7955 113.649 20.6591 114.224 20.6591C114.808 20.6591 115.296 20.7955 115.69 21.0682C116.088 21.3409 116.382 21.7159 116.571 22.1932H116.662C116.87 21.7273 117.202 21.3561 117.656 21.0795C118.111 20.7992 118.652 20.6591 119.281 20.6591C120.073 20.6591 120.719 20.9072 121.219 21.4034C121.723 21.8996 121.974 22.6477 121.974 23.6477V29.5H120.276V23.8068C120.276 23.2159 120.115 22.7879 119.793 22.5227C119.471 22.2576 119.086 22.125 118.639 22.125C118.086 22.125 117.656 22.2955 117.349 22.6364C117.043 22.9735 116.889 23.4072 116.889 23.9375V29.5H115.196V23.6989C115.196 23.2254 115.048 22.8447 114.753 22.5568C114.457 22.2689 114.073 22.125 113.599 22.125C113.277 22.125 112.98 22.2102 112.707 22.3807C112.438 22.5473 112.221 22.7803 112.054 23.0795C111.891 23.3788 111.81 23.7254 111.81 24.1193V29.5H110.111Z" fill="#313131"/>
<path d="M387.949 30.8011C387.08 30.8011 386.311 30.6818 385.643 30.4432C384.976 30.2074 384.415 29.8594 383.96 29.3991C383.506 28.9389 383.162 28.375 382.929 27.7074C382.696 27.0398 382.58 26.2756 382.58 25.4148C382.58 24.5824 382.697 23.8381 382.933 23.1818C383.172 22.5256 383.517 21.9688 383.969 21.5114C384.423 21.0511 384.974 20.7003 385.622 20.4588C386.273 20.2173 387.009 20.0966 387.83 20.0966C388.628 20.0966 389.327 20.2273 389.926 20.4886C390.528 20.7472 391.031 21.098 391.435 21.5412C391.841 21.9815 392.145 22.4773 392.347 23.0284C392.551 23.5795 392.653 24.1477 392.653 24.733C392.653 25.1449 392.634 25.5625 392.594 25.9858C392.554 26.4091 392.47 26.7983 392.342 27.1534C392.214 27.5057 392.017 27.7898 391.75 28.0057C391.486 28.2216 391.128 28.3295 390.676 28.3295C390.477 28.3295 390.259 28.2983 390.02 28.2358C389.781 28.1733 389.57 28.0696 389.385 27.9247C389.2 27.7798 389.091 27.5852 389.057 27.3409H389.006C388.938 27.5057 388.832 27.6619 388.69 27.8097C388.551 27.9574 388.368 28.0753 388.141 28.1634C387.916 28.2514 387.642 28.2898 387.318 28.2784C386.949 28.2642 386.624 28.1818 386.342 28.0312C386.061 27.8778 385.825 27.6705 385.635 27.4091C385.447 27.1449 385.305 26.8395 385.209 26.4929C385.115 26.1435 385.068 25.767 385.068 25.3636C385.068 24.9801 385.125 24.6293 385.239 24.3111C385.352 23.9929 385.51 23.7145 385.712 23.4759C385.916 23.2372 386.155 23.0469 386.428 22.9048C386.703 22.7599 387 22.6705 387.318 22.6364C387.602 22.608 387.861 22.6207 388.094 22.6747C388.327 22.7259 388.518 22.804 388.669 22.9091C388.82 23.0114 388.915 23.125 388.955 23.25H389.006V22.7727H389.909V26.625C389.909 26.8636 389.976 27.0739 390.109 27.2557C390.243 27.4375 390.438 27.5284 390.693 27.5284C390.983 27.5284 391.205 27.429 391.358 27.2301C391.514 27.0312 391.621 26.7244 391.678 26.3097C391.737 25.8949 391.767 25.3636 391.767 24.7159C391.767 24.3352 391.714 23.9602 391.609 23.5909C391.507 23.2187 391.351 22.8707 391.141 22.5469C390.933 22.223 390.67 21.9375 390.352 21.6903C390.034 21.4432 389.661 21.25 389.232 21.1108C388.805 20.9687 388.321 20.8977 387.778 20.8977C387.111 20.8977 386.513 21.0014 385.984 21.2088C385.459 21.4134 385.011 21.7131 384.642 22.108C384.276 22.5 383.996 22.9773 383.803 23.5398C383.612 24.0994 383.517 24.7358 383.517 25.4489C383.517 26.1733 383.612 26.8168 383.803 27.3793C383.996 27.9418 384.28 28.4162 384.655 28.8026C385.033 29.1889 385.5 29.4815 386.057 29.6804C386.614 29.8821 387.256 29.983 387.983 29.983C388.295 29.983 388.604 29.9531 388.908 29.8935C389.212 29.8338 389.48 29.7685 389.713 29.6974C389.946 29.6264 390.114 29.5739 390.216 29.5398L390.455 30.3239C390.278 30.3977 390.048 30.4716 389.764 30.5455C389.483 30.6193 389.182 30.6804 388.861 30.7287C388.543 30.777 388.239 30.8011 387.949 30.8011ZM387.455 27.4091C387.835 27.4091 388.143 27.3324 388.379 27.179C388.615 27.0256 388.787 26.794 388.895 26.4844C389.003 26.1747 389.057 25.7841 389.057 25.3125C389.057 24.8352 388.997 24.4631 388.878 24.196C388.759 23.929 388.582 23.7415 388.349 23.6335C388.116 23.5256 387.83 23.4716 387.489 23.4716C387.165 23.4716 386.888 23.5568 386.658 23.7273C386.43 23.8949 386.256 24.1193 386.134 24.4006C386.014 24.679 385.955 24.983 385.955 25.3125C385.955 25.6761 386.003 26.0185 386.099 26.3395C386.196 26.6577 386.354 26.9162 386.572 27.1151C386.791 27.3111 387.085 27.4091 387.455 27.4091ZM398.795 23.4205L397.892 23.6761C397.835 23.5256 397.751 23.3793 397.64 23.2372C397.532 23.0923 397.385 22.973 397.197 22.8793C397.01 22.7855 396.77 22.7386 396.477 22.7386C396.076 22.7386 395.743 22.831 395.475 23.0156C395.211 23.1974 395.079 23.429 395.079 23.7102C395.079 23.9602 395.17 24.1577 395.352 24.3026C395.534 24.4474 395.818 24.5682 396.204 24.6648L397.176 24.9034C397.761 25.0455 398.197 25.2628 398.484 25.5554C398.771 25.8452 398.914 26.2187 398.914 26.6761C398.914 27.0511 398.806 27.3864 398.591 27.6818C398.377 27.9773 398.079 28.2102 397.696 28.3807C397.312 28.5511 396.866 28.6364 396.358 28.6364C395.69 28.6364 395.137 28.4915 394.7 28.2017C394.262 27.9119 393.985 27.4886 393.869 26.9318L394.824 26.6932C394.914 27.0455 395.086 27.3097 395.339 27.4858C395.595 27.6619 395.929 27.75 396.341 27.75C396.809 27.75 397.181 27.6506 397.457 27.4517C397.735 27.25 397.875 27.0085 397.875 26.7273C397.875 26.5 397.795 26.3097 397.636 26.1562C397.477 26 397.233 25.8835 396.903 25.8068L395.812 25.5511C395.213 25.4091 394.772 25.1889 394.491 24.8906C394.213 24.5895 394.074 24.2131 394.074 23.7614C394.074 23.392 394.177 23.0653 394.385 22.7812C394.595 22.4972 394.88 22.2741 395.241 22.1122C395.605 21.9503 396.017 21.8693 396.477 21.8693C397.125 21.8693 397.633 22.0114 398.002 22.2955C398.375 22.5795 398.639 22.9545 398.795 23.4205ZM402.354 28.6534C401.94 28.6534 401.563 28.5753 401.225 28.419C400.887 28.2599 400.619 28.0312 400.42 27.733C400.221 27.4318 400.121 27.0682 400.121 26.642C400.121 26.267 400.195 25.9631 400.343 25.7301C400.491 25.4943 400.688 25.3097 400.935 25.1761C401.183 25.0426 401.455 24.9432 401.754 24.8778C402.055 24.8097 402.357 24.7557 402.661 24.7159C403.059 24.6648 403.381 24.6264 403.629 24.6009C403.879 24.5724 404.06 24.5256 404.174 24.4602C404.29 24.3949 404.349 24.2812 404.349 24.1193V24.0852C404.349 23.6648 404.234 23.3381 404.004 23.1051C403.776 22.8722 403.431 22.7557 402.968 22.7557C402.488 22.7557 402.112 22.8608 401.839 23.071C401.566 23.2812 401.374 23.5057 401.263 23.7443L400.309 23.4034C400.479 23.0057 400.707 22.696 400.991 22.4744C401.278 22.25 401.59 22.0937 401.928 22.0057C402.269 21.9148 402.604 21.8693 402.934 21.8693C403.144 21.8693 403.386 21.8949 403.658 21.946C403.934 21.9943 404.2 22.0952 404.455 22.2486C404.714 22.402 404.928 22.6335 405.099 22.9432C405.269 23.2528 405.354 23.6676 405.354 24.1875V28.5H404.349V27.6136H404.298C404.229 27.7557 404.116 27.9077 403.957 28.0696C403.798 28.2315 403.586 28.3693 403.322 28.483C403.058 28.5966 402.735 28.6534 402.354 28.6534ZM402.508 27.75C402.906 27.75 403.241 27.6719 403.513 27.5156C403.789 27.3594 403.996 27.1577 404.136 26.9105C404.278 26.6634 404.349 26.4034 404.349 26.1307V25.2102C404.306 25.2614 404.212 25.3082 404.067 25.3509C403.925 25.3906 403.761 25.4261 403.573 25.4574C403.388 25.4858 403.208 25.5114 403.032 25.5341C402.859 25.554 402.718 25.571 402.61 25.5852C402.349 25.6193 402.104 25.6747 401.877 25.7514C401.653 25.8253 401.471 25.9375 401.332 26.0881C401.195 26.2358 401.127 26.4375 401.127 26.6932C401.127 27.0426 401.256 27.3068 401.515 27.4858C401.776 27.6619 402.107 27.75 402.508 27.75ZM407.326 28.5V19.7727H408.332V22.9943H408.417C408.491 22.8807 408.593 22.7358 408.724 22.5597C408.858 22.3807 409.048 22.2216 409.295 22.0824C409.545 21.9403 409.883 21.8693 410.309 21.8693C410.86 21.8693 411.346 22.0071 411.767 22.2827C412.187 22.5582 412.515 22.9489 412.751 23.4545C412.987 23.9602 413.105 24.5568 413.105 25.2443C413.105 25.9375 412.987 26.5384 412.751 27.0469C412.515 27.5526 412.189 27.9446 411.771 28.223C411.353 28.4986 410.872 28.6364 410.326 28.6364C409.906 28.6364 409.569 28.5668 409.316 28.4276C409.064 28.2855 408.869 28.125 408.733 27.946C408.596 27.7642 408.491 27.6136 408.417 27.4943H408.298V28.5H407.326ZM408.315 25.2273C408.315 25.7216 408.387 26.1577 408.532 26.5355C408.677 26.9105 408.889 27.2045 409.167 27.4176C409.446 27.6278 409.787 27.733 410.19 27.733C410.61 27.733 410.961 27.6222 411.243 27.4006C411.527 27.1761 411.74 26.875 411.882 26.4972C412.027 26.1165 412.099 25.6932 412.099 25.2273C412.099 24.767 412.028 24.3523 411.886 23.983C411.747 23.6108 411.535 23.3168 411.251 23.1009C410.97 22.8821 410.616 22.7727 410.19 22.7727C409.781 22.7727 409.437 22.8764 409.159 23.0838C408.88 23.2884 408.67 23.5753 408.528 23.9446C408.386 24.3111 408.315 24.7386 408.315 25.2273ZM415.056 30.9545C414.886 30.9545 414.734 30.9403 414.6 30.9119C414.467 30.8864 414.375 30.8608 414.324 30.8352L414.579 29.9489C414.824 30.0114 415.039 30.0341 415.227 30.017C415.414 30 415.581 29.9162 415.725 29.7656C415.873 29.6179 416.008 29.3778 416.13 29.0455L416.318 28.5341L413.897 21.9545H414.988L416.795 27.1705H416.863L418.67 21.9545H419.761L416.983 29.4545C416.858 29.7926 416.703 30.0724 416.518 30.294C416.333 30.5185 416.119 30.6847 415.875 30.7926C415.633 30.9006 415.36 30.9545 415.056 30.9545ZM421.088 28.5V21.9545H422.06V22.9432H422.128C422.248 22.6193 422.463 22.3565 422.776 22.1548C423.088 21.9531 423.441 21.8523 423.833 21.8523C423.907 21.8523 423.999 21.8537 424.11 21.8565C424.221 21.8594 424.304 21.8636 424.361 21.8693V22.892C424.327 22.8835 424.249 22.8707 424.127 22.8537C424.007 22.8338 423.881 22.8239 423.748 22.8239C423.429 22.8239 423.145 22.8906 422.895 23.0241C422.648 23.1548 422.452 23.3366 422.307 23.5696C422.165 23.7997 422.094 24.0625 422.094 24.358V28.5H421.088ZM426.491 26.1136L426.474 24.8693H426.678L429.542 21.9545H430.786L427.735 25.0398H427.65L426.491 26.1136ZM425.553 28.5V19.7727H426.559V28.5H425.553ZM429.712 28.5L427.156 25.2614L427.871 24.5625L430.991 28.5H429.712ZM434.007 28.6534C433.592 28.6534 433.216 28.5753 432.877 28.419C432.539 28.2599 432.271 28.0312 432.072 27.733C431.873 27.4318 431.774 27.0682 431.774 26.642C431.774 26.267 431.848 25.9631 431.995 25.7301C432.143 25.4943 432.341 25.3097 432.588 25.1761C432.835 25.0426 433.108 24.9432 433.406 24.8778C433.707 24.8097 434.01 24.7557 434.314 24.7159C434.711 24.6648 435.034 24.6264 435.281 24.6009C435.531 24.5724 435.713 24.5256 435.826 24.4602C435.943 24.3949 436.001 24.2812 436.001 24.1193V24.0852C436.001 23.6648 435.886 23.3381 435.656 23.1051C435.429 22.8722 435.083 22.7557 434.62 22.7557C434.14 22.7557 433.764 22.8608 433.491 23.071C433.218 23.2812 433.027 23.5057 432.916 23.7443L431.961 23.4034C432.132 23.0057 432.359 22.696 432.643 22.4744C432.93 22.25 433.243 22.0937 433.581 22.0057C433.922 21.9148 434.257 21.8693 434.586 21.8693C434.797 21.8693 435.038 21.8949 435.311 21.946C435.586 21.9943 435.852 22.0952 436.108 22.2486C436.366 22.402 436.581 22.6335 436.751 22.9432C436.922 23.2528 437.007 23.6676 437.007 24.1875V28.5H436.001V27.6136H435.95C435.882 27.7557 435.768 27.9077 435.609 28.0696C435.45 28.2315 435.238 28.3693 434.974 28.483C434.71 28.5966 434.387 28.6534 434.007 28.6534ZM434.16 27.75C434.558 27.75 434.893 27.6719 435.166 27.5156C435.441 27.3594 435.649 27.1577 435.788 26.9105C435.93 26.6634 436.001 26.4034 436.001 26.1307V25.2102C435.958 25.2614 435.865 25.3082 435.72 25.3509C435.578 25.3906 435.413 25.4261 435.225 25.4574C435.041 25.4858 434.86 25.5114 434.684 25.5341C434.511 25.554 434.37 25.571 434.262 25.5852C434.001 25.6193 433.757 25.6747 433.529 25.7514C433.305 25.8253 433.123 25.9375 432.984 26.0881C432.848 26.2358 432.779 26.4375 432.779 26.6932C432.779 27.0426 432.909 27.3068 433.167 27.4858C433.429 27.6619 433.76 27.75 434.16 27.75ZM438.655 28.5V27.733L442.371 22.9602V22.892H438.774V21.9545H443.666V22.7557L440.053 27.4943V27.5625H443.786V28.5H438.655ZM447.891 28.6364C447.261 28.6364 446.717 28.4972 446.259 28.2188C445.805 27.9375 445.454 27.5455 445.207 27.0426C444.962 26.5369 444.84 25.9489 444.84 25.2784C444.84 24.608 444.962 24.017 445.207 23.5057C445.454 22.9915 445.798 22.5909 446.238 22.304C446.681 22.0142 447.198 21.8693 447.789 21.8693C448.13 21.8693 448.467 21.9261 448.799 22.0398C449.131 22.1534 449.434 22.3381 449.707 22.5938C449.979 22.8466 450.197 23.1818 450.359 23.5994C450.521 24.017 450.602 24.5312 450.602 25.142V25.5682H445.556V24.6989H449.579C449.579 24.3295 449.505 24 449.357 23.7102C449.212 23.4205 449.005 23.1918 448.735 23.0241C448.468 22.8565 448.153 22.7727 447.789 22.7727C447.388 22.7727 447.042 22.8722 446.749 23.071C446.46 23.267 446.237 23.5227 446.08 23.8381C445.924 24.1534 445.846 24.4915 445.846 24.8523V25.4318C445.846 25.9261 445.931 26.3452 446.102 26.6889C446.275 27.0298 446.515 27.2898 446.822 27.4688C447.129 27.6449 447.485 27.733 447.891 27.733C448.156 27.733 448.394 27.696 448.607 27.6222C448.823 27.5455 449.009 27.4318 449.165 27.2812C449.322 27.1278 449.442 26.9375 449.528 26.7102L450.499 26.983C450.397 27.3125 450.225 27.6023 449.984 27.8523C449.742 28.0994 449.444 28.2926 449.089 28.4318C448.734 28.5682 448.335 28.6364 447.891 28.6364ZM453.137 24.5625V28.5H452.131V21.9545H453.103V22.9773H453.188C453.342 22.6449 453.575 22.3778 453.887 22.1761C454.2 21.9716 454.603 21.8693 455.097 21.8693C455.54 21.8693 455.928 21.9602 456.261 22.142C456.593 22.321 456.852 22.5938 457.036 22.9602C457.221 23.3239 457.313 23.7841 457.313 24.3409V28.5H456.308V24.4091C456.308 23.8949 456.174 23.4943 455.907 23.2074C455.64 22.9176 455.273 22.7727 454.808 22.7727C454.487 22.7727 454.2 22.8423 453.947 22.9815C453.697 23.1207 453.499 23.3239 453.354 23.5909C453.21 23.858 453.137 24.1818 453.137 24.5625Z" fill="#888888"/>
<defs>
<linearGradient id="paint0_linear_17_519" x1="761.943" y1="-34.2857" x2="706.474" y2="379.34" gradientUnits="userSpaceOnUse">
<stop offset="0.11827" stop-color="#333333" stop-opacity="0"/>
<stop offset="0.767584" stop-color="#666666" stop-opacity="0.76"/>
</linearGradient>
<linearGradient id="paint1_linear_17_519" x1="24" y1="8.25" x2="24" y2="39.75" gradientUnits="userSpaceOnUse">
<stop stop-color="#37BBFE"/>
<stop offset="1" stop-color="#007DBB"/>
</linearGradient>
</defs>
</svg>
