<svg width="260" height="48" viewBox="0 0 260 48" fill="none" xmlns="http://www.w3.org/2000/svg">
<rect x="0.5" y="0.5" width="259" height="47" rx="23.5" stroke="url(#paint0_linear_18_1022)"/>
<path d="M24 39.75C32.6985 39.75 39.75 32.6985 39.75 24C39.75 15.3015 32.6985 8.25 24 8.25C15.3015 8.25 8.25 15.3015 8.25 24C8.25 32.6985 15.3015 39.75 24 39.75Z" fill="url(#paint1_linear_18_1022)"/>
<path d="M31.8599 17.4849C32.0001 16.5787 31.1386 15.8635 30.3328 16.2172L14.2854 23.2629C13.7076 23.5166 13.7499 24.3918 14.3492 24.5826L17.6585 25.6365C18.2902 25.8377 18.9741 25.7336 19.5256 25.3526L26.9869 20.1978C27.2119 20.0424 27.4571 20.3623 27.2649 20.5604L21.8941 26.0977C21.3731 26.6349 21.4765 27.5451 22.1032 27.9381L28.1164 31.7088C28.7908 32.1317 29.6584 31.7069 29.7845 30.8919L31.8599 17.4849Z" fill="white"/>
<path d="M52.7045 19.375V17.8636H61.7102V19.375H58.0795V29.5H56.3295V19.375H52.7045ZM66.0597 29.6761C65.1998 29.6761 64.4593 29.4924 63.8381 29.125C63.2206 28.7538 62.7434 28.233 62.4062 27.5625C62.0729 26.8883 61.9062 26.0985 61.9062 25.1932C61.9062 24.2992 62.0729 23.5114 62.4062 22.8295C62.7434 22.1477 63.2131 21.6155 63.8153 21.233C64.4214 20.8504 65.1297 20.6591 65.9403 20.6591C66.4328 20.6591 66.91 20.7405 67.3722 20.9034C67.8343 21.0663 68.2491 21.322 68.6165 21.6705C68.9839 22.0189 69.2737 22.4716 69.4858 23.0284C69.6979 23.5814 69.804 24.2538 69.804 25.0455V25.6477H62.8665V24.375H68.1392C68.1392 23.928 68.0483 23.5322 67.8665 23.1875C67.6847 22.839 67.429 22.5644 67.0994 22.3636C66.7737 22.1629 66.3911 22.0625 65.9517 22.0625C65.4744 22.0625 65.0578 22.1799 64.7017 22.4148C64.3494 22.6458 64.0767 22.9489 63.8835 23.3239C63.6941 23.6951 63.5994 24.0985 63.5994 24.5341V25.5284C63.5994 26.1117 63.7017 26.608 63.9062 27.017C64.1146 27.4261 64.4044 27.7386 64.7756 27.9545C65.1468 28.1667 65.5805 28.2727 66.0767 28.2727C66.3987 28.2727 66.6922 28.2273 66.9574 28.1364C67.2225 28.0417 67.4517 27.9015 67.6449 27.7159C67.8381 27.5303 67.9858 27.3011 68.0881 27.0284L69.696 27.3182C69.5672 27.7917 69.3362 28.2064 69.0028 28.5625C68.6733 28.9148 68.2585 29.1894 67.7585 29.3864C67.2623 29.5795 66.696 29.6761 66.0597 29.6761ZM73.3878 17.8636V29.5H71.6889V17.8636H73.3878ZM79.4347 29.6761C78.5748 29.6761 77.8343 29.4924 77.2131 29.125C76.5956 28.7538 76.1184 28.233 75.7812 27.5625C75.4479 26.8883 75.2812 26.0985 75.2812 25.1932C75.2812 24.2992 75.4479 23.5114 75.7812 22.8295C76.1184 22.1477 76.5881 21.6155 77.1903 21.233C77.7964 20.8504 78.5047 20.6591 79.3153 20.6591C79.8078 20.6591 80.285 20.7405 80.7472 20.9034C81.2093 21.0663 81.6241 21.322 81.9915 21.6705C82.3589 22.0189 82.6487 22.4716 82.8608 23.0284C83.0729 23.5814 83.179 24.2538 83.179 25.0455V25.6477H76.2415V24.375H81.5142C81.5142 23.928 81.4233 23.5322 81.2415 23.1875C81.0597 22.839 80.804 22.5644 80.4744 22.3636C80.1487 22.1629 79.7661 22.0625 79.3267 22.0625C78.8494 22.0625 78.4328 22.1799 78.0767 22.4148C77.7244 22.6458 77.4517 22.9489 77.2585 23.3239C77.0691 23.6951 76.9744 24.0985 76.9744 24.5341V25.5284C76.9744 26.1117 77.0767 26.608 77.2812 27.017C77.4896 27.4261 77.7794 27.7386 78.1506 27.9545C78.5218 28.1667 78.9555 28.2727 79.4517 28.2727C79.7737 28.2727 80.0672 28.2273 80.3324 28.1364C80.5975 28.0417 80.8267 27.9015 81.0199 27.7159C81.2131 27.5303 81.3608 27.3011 81.4631 27.0284L83.071 27.3182C82.9422 27.7917 82.7112 28.2064 82.3778 28.5625C82.0483 28.9148 81.6335 29.1894 81.1335 29.3864C80.6373 29.5795 80.071 29.6761 79.4347 29.6761ZM88.723 32.9545C88.0298 32.9545 87.4332 32.8636 86.9332 32.6818C86.437 32.5 86.0317 32.2595 85.7173 31.9602C85.4029 31.661 85.1681 31.3333 85.0128 30.9773L86.473 30.375C86.5753 30.5417 86.7116 30.7178 86.8821 30.9034C87.0563 31.0928 87.2912 31.2538 87.5866 31.3864C87.8859 31.5189 88.2704 31.5852 88.7401 31.5852C89.384 31.5852 89.9162 31.428 90.3366 31.1136C90.7571 30.803 90.9673 30.3068 90.9673 29.625V27.9091H90.8594C90.7571 28.0947 90.6094 28.3011 90.4162 28.5284C90.2268 28.7557 89.9654 28.9527 89.6321 29.1193C89.2988 29.286 88.8651 29.3693 88.331 29.3693C87.6416 29.3693 87.0204 29.2083 86.4673 28.8864C85.9181 28.5606 85.4825 28.0814 85.1605 27.4489C84.8423 26.8125 84.6832 26.0303 84.6832 25.1023C84.6832 24.1742 84.8404 23.3788 85.1548 22.7159C85.473 22.053 85.9086 21.5455 86.4616 21.1932C87.0147 20.8371 87.6416 20.6591 88.3423 20.6591C88.884 20.6591 89.3215 20.75 89.6548 20.9318C89.9882 21.1098 90.2476 21.3182 90.4332 21.5568C90.6226 21.7955 90.7685 22.0057 90.8707 22.1875H90.9957V20.7727H92.6605V29.6932C92.6605 30.4432 92.4863 31.0587 92.1378 31.5398C91.7893 32.0208 91.3177 32.3769 90.723 32.608C90.1321 32.839 89.4654 32.9545 88.723 32.9545ZM88.706 27.9602C89.1946 27.9602 89.6075 27.8466 89.9446 27.6193C90.2855 27.3883 90.5431 27.0587 90.7173 26.6307C90.8954 26.1989 90.9844 25.6818 90.9844 25.0795C90.9844 24.4924 90.8973 23.9754 90.723 23.5284C90.5488 23.0814 90.2931 22.733 89.956 22.483C89.6188 22.2292 89.2022 22.1023 88.706 22.1023C88.1946 22.1023 87.7685 22.2348 87.4276 22.5C87.0866 22.7614 86.8291 23.1174 86.6548 23.5682C86.4844 24.0189 86.3991 24.5227 86.3991 25.0795C86.3991 25.6515 86.4863 26.1534 86.6605 26.5852C86.8348 27.017 87.0923 27.3542 87.4332 27.5966C87.7779 27.839 88.2022 27.9602 88.706 27.9602ZM94.9389 29.5V20.7727H96.581V22.1591H96.6719C96.831 21.6894 97.1113 21.3201 97.5128 21.0511C97.9181 20.7784 98.3764 20.642 98.8878 20.642C98.9938 20.642 99.1188 20.6458 99.2628 20.6534C99.4105 20.661 99.526 20.6705 99.6094 20.6818V22.3068C99.5412 22.2879 99.42 22.267 99.2457 22.2443C99.0715 22.2178 98.8973 22.2045 98.723 22.2045C98.3215 22.2045 97.9635 22.2898 97.6491 22.4602C97.3385 22.6269 97.0923 22.8598 96.9105 23.1591C96.7287 23.4545 96.6378 23.7917 96.6378 24.1705V29.5H94.9389ZM103.541 29.6932C102.988 29.6932 102.488 29.5909 102.041 29.3864C101.594 29.178 101.24 28.8769 100.979 28.483C100.721 28.089 100.592 27.6061 100.592 27.0341C100.592 26.5417 100.687 26.1364 100.876 25.8182C101.066 25.5 101.321 25.2481 101.643 25.0625C101.965 24.8769 102.325 24.7367 102.723 24.642C103.121 24.5473 103.526 24.4754 103.939 24.4261C104.462 24.3655 104.886 24.3163 105.212 24.2784C105.537 24.2367 105.774 24.1705 105.922 24.0795C106.07 23.9886 106.143 23.8409 106.143 23.6364V23.5966C106.143 23.1004 106.003 22.7159 105.723 22.4432C105.446 22.1705 105.034 22.0341 104.484 22.0341C103.912 22.0341 103.462 22.161 103.132 22.4148C102.806 22.6648 102.581 22.9432 102.456 23.25L100.859 22.8864C101.049 22.3561 101.325 21.928 101.689 21.6023C102.056 21.2727 102.479 21.0341 102.956 20.8864C103.433 20.7348 103.935 20.6591 104.462 20.6591C104.81 20.6591 105.179 20.7008 105.57 20.7841C105.964 20.8636 106.331 21.0114 106.672 21.2273C107.017 21.4432 107.299 21.7519 107.518 22.1534C107.738 22.5511 107.848 23.0682 107.848 23.7045V29.5H106.189V28.3068H106.121C106.011 28.5265 105.846 28.7424 105.626 28.9545C105.407 29.1667 105.125 29.3428 104.78 29.483C104.435 29.6231 104.022 29.6932 103.541 29.6932ZM103.911 28.3295C104.38 28.3295 104.782 28.2367 105.115 28.0511C105.452 27.8655 105.708 27.6231 105.882 27.3239C106.06 27.0208 106.149 26.697 106.149 26.3523V25.2273C106.089 25.2879 105.971 25.3447 105.797 25.3977C105.626 25.447 105.431 25.4905 105.212 25.5284C104.992 25.5625 104.778 25.5947 104.57 25.625C104.361 25.6515 104.187 25.6742 104.047 25.6932C103.717 25.7348 103.416 25.8049 103.143 25.9034C102.875 26.0019 102.659 26.1439 102.496 26.3295C102.337 26.5114 102.257 26.7538 102.257 27.0568C102.257 27.4773 102.412 27.7955 102.723 28.0114C103.034 28.2235 103.429 28.3295 103.911 28.3295ZM110.111 29.5V20.7727H111.741V22.1932H111.849C112.031 21.7121 112.329 21.3371 112.741 21.0682C113.154 20.7955 113.649 20.6591 114.224 20.6591C114.808 20.6591 115.296 20.7955 115.69 21.0682C116.088 21.3409 116.382 21.7159 116.571 22.1932H116.662C116.87 21.7273 117.202 21.3561 117.656 21.0795C118.111 20.7992 118.652 20.6591 119.281 20.6591C120.073 20.6591 120.719 20.9072 121.219 21.4034C121.723 21.8996 121.974 22.6477 121.974 23.6477V29.5H120.276V23.8068C120.276 23.2159 120.115 22.7879 119.793 22.5227C119.471 22.2576 119.086 22.125 118.639 22.125C118.086 22.125 117.656 22.2955 117.349 22.6364C117.043 22.9735 116.889 23.4072 116.889 23.9375V29.5H115.196V23.6989C115.196 23.2254 115.048 22.8447 114.753 22.5568C114.457 22.2689 114.073 22.125 113.599 22.125C113.277 22.125 112.98 22.2102 112.707 22.3807C112.438 22.5473 112.221 22.7803 112.054 23.0795C111.891 23.3788 111.81 23.7254 111.81 24.1193V29.5H110.111Z" fill="#FAFAFA"/>
<path d="M175.949 30.8011C175.08 30.8011 174.311 30.6818 173.643 30.4432C172.976 30.2074 172.415 29.8594 171.96 29.3991C171.506 28.9389 171.162 28.375 170.929 27.7074C170.696 27.0398 170.58 26.2756 170.58 25.4148C170.58 24.5824 170.697 23.8381 170.933 23.1818C171.172 22.5256 171.517 21.9688 171.969 21.5114C172.423 21.0511 172.974 20.7003 173.622 20.4588C174.273 20.2173 175.009 20.0966 175.83 20.0966C176.628 20.0966 177.327 20.2273 177.926 20.4886C178.528 20.7472 179.031 21.098 179.435 21.5412C179.841 21.9815 180.145 22.4773 180.347 23.0284C180.551 23.5795 180.653 24.1477 180.653 24.733C180.653 25.1449 180.634 25.5625 180.594 25.9858C180.554 26.4091 180.47 26.7983 180.342 27.1534C180.214 27.5057 180.017 27.7898 179.75 28.0057C179.486 28.2216 179.128 28.3295 178.676 28.3295C178.477 28.3295 178.259 28.2983 178.02 28.2358C177.781 28.1733 177.57 28.0696 177.385 27.9247C177.2 27.7798 177.091 27.5852 177.057 27.3409H177.006C176.938 27.5057 176.832 27.6619 176.69 27.8097C176.551 27.9574 176.368 28.0753 176.141 28.1634C175.916 28.2514 175.642 28.2898 175.318 28.2784C174.949 28.2642 174.624 28.1818 174.342 28.0312C174.061 27.8778 173.825 27.6705 173.635 27.4091C173.447 27.1449 173.305 26.8395 173.209 26.4929C173.115 26.1435 173.068 25.767 173.068 25.3636C173.068 24.9801 173.125 24.6293 173.239 24.3111C173.352 23.9929 173.51 23.7145 173.712 23.4759C173.916 23.2372 174.155 23.0469 174.428 22.9048C174.703 22.7599 175 22.6705 175.318 22.6364C175.602 22.608 175.861 22.6207 176.094 22.6747C176.327 22.7259 176.518 22.804 176.669 22.9091C176.82 23.0114 176.915 23.125 176.955 23.25H177.006V22.7727H177.909V26.625C177.909 26.8636 177.976 27.0739 178.109 27.2557C178.243 27.4375 178.438 27.5284 178.693 27.5284C178.983 27.5284 179.205 27.429 179.358 27.2301C179.514 27.0312 179.621 26.7244 179.678 26.3097C179.737 25.8949 179.767 25.3636 179.767 24.7159C179.767 24.3352 179.714 23.9602 179.609 23.5909C179.507 23.2187 179.351 22.8707 179.141 22.5469C178.933 22.223 178.67 21.9375 178.352 21.6903C178.034 21.4432 177.661 21.25 177.232 21.1108C176.805 20.9687 176.321 20.8977 175.778 20.8977C175.111 20.8977 174.513 21.0014 173.984 21.2088C173.459 21.4134 173.011 21.7131 172.642 22.108C172.276 22.5 171.996 22.9773 171.803 23.5398C171.612 24.0994 171.517 24.7358 171.517 25.4489C171.517 26.1733 171.612 26.8168 171.803 27.3793C171.996 27.9418 172.28 28.4162 172.655 28.8026C173.033 29.1889 173.5 29.4815 174.057 29.6804C174.614 29.8821 175.256 29.983 175.983 29.983C176.295 29.983 176.604 29.9531 176.908 29.8935C177.212 29.8338 177.48 29.7685 177.713 29.6974C177.946 29.6264 178.114 29.5739 178.216 29.5398L178.455 30.3239C178.278 30.3977 178.048 30.4716 177.764 30.5455C177.483 30.6193 177.182 30.6804 176.861 30.7287C176.543 30.777 176.239 30.8011 175.949 30.8011ZM175.455 27.4091C175.835 27.4091 176.143 27.3324 176.379 27.179C176.615 27.0256 176.787 26.794 176.895 26.4844C177.003 26.1747 177.057 25.7841 177.057 25.3125C177.057 24.8352 176.997 24.4631 176.878 24.196C176.759 23.929 176.582 23.7415 176.349 23.6335C176.116 23.5256 175.83 23.4716 175.489 23.4716C175.165 23.4716 174.888 23.5568 174.658 23.7273C174.43 23.8949 174.256 24.1193 174.134 24.4006C174.014 24.679 173.955 24.983 173.955 25.3125C173.955 25.6761 174.003 26.0185 174.099 26.3395C174.196 26.6577 174.354 26.9162 174.572 27.1151C174.791 27.3111 175.085 27.4091 175.455 27.4091ZM186.795 23.4205L185.892 23.6761C185.835 23.5256 185.751 23.3793 185.64 23.2372C185.532 23.0923 185.385 22.973 185.197 22.8793C185.01 22.7855 184.77 22.7386 184.477 22.7386C184.076 22.7386 183.743 22.831 183.475 23.0156C183.211 23.1974 183.079 23.429 183.079 23.7102C183.079 23.9602 183.17 24.1577 183.352 24.3026C183.534 24.4474 183.818 24.5682 184.204 24.6648L185.176 24.9034C185.761 25.0455 186.197 25.2628 186.484 25.5554C186.771 25.8452 186.914 26.2187 186.914 26.6761C186.914 27.0511 186.806 27.3864 186.591 27.6818C186.377 27.9773 186.079 28.2102 185.696 28.3807C185.312 28.5511 184.866 28.6364 184.358 28.6364C183.69 28.6364 183.137 28.4915 182.7 28.2017C182.262 27.9119 181.985 27.4886 181.869 26.9318L182.824 26.6932C182.914 27.0455 183.086 27.3097 183.339 27.4858C183.595 27.6619 183.929 27.75 184.341 27.75C184.809 27.75 185.181 27.6506 185.457 27.4517C185.735 27.25 185.875 27.0085 185.875 26.7273C185.875 26.5 185.795 26.3097 185.636 26.1562C185.477 26 185.233 25.8835 184.903 25.8068L183.812 25.5511C183.213 25.4091 182.772 25.1889 182.491 24.8906C182.213 24.5895 182.074 24.2131 182.074 23.7614C182.074 23.392 182.177 23.0653 182.385 22.7812C182.595 22.4972 182.88 22.2741 183.241 22.1122C183.605 21.9503 184.017 21.8693 184.477 21.8693C185.125 21.8693 185.633 22.0114 186.002 22.2955C186.375 22.5795 186.639 22.9545 186.795 23.4205ZM190.354 28.6534C189.94 28.6534 189.563 28.5753 189.225 28.419C188.887 28.2599 188.619 28.0312 188.42 27.733C188.221 27.4318 188.121 27.0682 188.121 26.642C188.121 26.267 188.195 25.9631 188.343 25.7301C188.491 25.4943 188.688 25.3097 188.935 25.1761C189.183 25.0426 189.455 24.9432 189.754 24.8778C190.055 24.8097 190.357 24.7557 190.661 24.7159C191.059 24.6648 191.381 24.6264 191.629 24.6009C191.879 24.5724 192.06 24.5256 192.174 24.4602C192.29 24.3949 192.349 24.2812 192.349 24.1193V24.0852C192.349 23.6648 192.234 23.3381 192.004 23.1051C191.776 22.8722 191.431 22.7557 190.968 22.7557C190.488 22.7557 190.112 22.8608 189.839 23.071C189.566 23.2812 189.374 23.5057 189.263 23.7443L188.309 23.4034C188.479 23.0057 188.707 22.696 188.991 22.4744C189.278 22.25 189.59 22.0937 189.928 22.0057C190.269 21.9148 190.604 21.8693 190.934 21.8693C191.144 21.8693 191.386 21.8949 191.658 21.946C191.934 21.9943 192.2 22.0952 192.455 22.2486C192.714 22.402 192.928 22.6335 193.099 22.9432C193.269 23.2528 193.354 23.6676 193.354 24.1875V28.5H192.349V27.6136H192.298C192.229 27.7557 192.116 27.9077 191.957 28.0696C191.798 28.2315 191.586 28.3693 191.322 28.483C191.058 28.5966 190.735 28.6534 190.354 28.6534ZM190.508 27.75C190.906 27.75 191.241 27.6719 191.513 27.5156C191.789 27.3594 191.996 27.1577 192.136 26.9105C192.278 26.6634 192.349 26.4034 192.349 26.1307V25.2102C192.306 25.2614 192.212 25.3082 192.067 25.3509C191.925 25.3906 191.761 25.4261 191.573 25.4574C191.388 25.4858 191.208 25.5114 191.032 25.5341C190.859 25.554 190.718 25.571 190.61 25.5852C190.349 25.6193 190.104 25.6747 189.877 25.7514C189.653 25.8253 189.471 25.9375 189.332 26.0881C189.195 26.2358 189.127 26.4375 189.127 26.6932C189.127 27.0426 189.256 27.3068 189.515 27.4858C189.776 27.6619 190.107 27.75 190.508 27.75ZM195.326 28.5V19.7727H196.332V22.9943H196.417C196.491 22.8807 196.593 22.7358 196.724 22.5597C196.858 22.3807 197.048 22.2216 197.295 22.0824C197.545 21.9403 197.883 21.8693 198.309 21.8693C198.86 21.8693 199.346 22.0071 199.767 22.2827C200.187 22.5582 200.515 22.9489 200.751 23.4545C200.987 23.9602 201.105 24.5568 201.105 25.2443C201.105 25.9375 200.987 26.5384 200.751 27.0469C200.515 27.5526 200.189 27.9446 199.771 28.223C199.353 28.4986 198.872 28.6364 198.326 28.6364C197.906 28.6364 197.569 28.5668 197.316 28.4276C197.064 28.2855 196.869 28.125 196.733 27.946C196.596 27.7642 196.491 27.6136 196.417 27.4943H196.298V28.5H195.326ZM196.315 25.2273C196.315 25.7216 196.387 26.1577 196.532 26.5355C196.677 26.9105 196.889 27.2045 197.167 27.4176C197.446 27.6278 197.787 27.733 198.19 27.733C198.61 27.733 198.961 27.6222 199.243 27.4006C199.527 27.1761 199.74 26.875 199.882 26.4972C200.027 26.1165 200.099 25.6932 200.099 25.2273C200.099 24.767 200.028 24.3523 199.886 23.983C199.747 23.6108 199.535 23.3168 199.251 23.1009C198.97 22.8821 198.616 22.7727 198.19 22.7727C197.781 22.7727 197.437 22.8764 197.159 23.0838C196.88 23.2884 196.67 23.5753 196.528 23.9446C196.386 24.3111 196.315 24.7386 196.315 25.2273ZM203.056 30.9545C202.886 30.9545 202.734 30.9403 202.6 30.9119C202.467 30.8864 202.375 30.8608 202.324 30.8352L202.579 29.9489C202.824 30.0114 203.039 30.0341 203.227 30.017C203.414 30 203.581 29.9162 203.725 29.7656C203.873 29.6179 204.008 29.3778 204.13 29.0455L204.318 28.5341L201.897 21.9545H202.988L204.795 27.1705H204.863L206.67 21.9545H207.761L204.983 29.4545C204.858 29.7926 204.703 30.0724 204.518 30.294C204.333 30.5185 204.119 30.6847 203.875 30.7926C203.633 30.9006 203.36 30.9545 203.056 30.9545ZM209.088 28.5V21.9545H210.06V22.9432H210.128C210.248 22.6193 210.463 22.3565 210.776 22.1548C211.088 21.9531 211.441 21.8523 211.833 21.8523C211.907 21.8523 211.999 21.8537 212.11 21.8565C212.221 21.8594 212.304 21.8636 212.361 21.8693V22.892C212.327 22.8835 212.249 22.8707 212.127 22.8537C212.007 22.8338 211.881 22.8239 211.748 22.8239C211.429 22.8239 211.145 22.8906 210.895 23.0241C210.648 23.1548 210.452 23.3366 210.307 23.5696C210.165 23.7997 210.094 24.0625 210.094 24.358V28.5H209.088ZM214.491 26.1136L214.474 24.8693H214.678L217.542 21.9545H218.786L215.735 25.0398H215.65L214.491 26.1136ZM213.553 28.5V19.7727H214.559V28.5H213.553ZM217.712 28.5L215.156 25.2614L215.871 24.5625L218.991 28.5H217.712ZM222.007 28.6534C221.592 28.6534 221.216 28.5753 220.877 28.419C220.539 28.2599 220.271 28.0312 220.072 27.733C219.873 27.4318 219.774 27.0682 219.774 26.642C219.774 26.267 219.848 25.9631 219.995 25.7301C220.143 25.4943 220.341 25.3097 220.588 25.1761C220.835 25.0426 221.108 24.9432 221.406 24.8778C221.707 24.8097 222.01 24.7557 222.314 24.7159C222.711 24.6648 223.034 24.6264 223.281 24.6009C223.531 24.5724 223.713 24.5256 223.826 24.4602C223.943 24.3949 224.001 24.2812 224.001 24.1193V24.0852C224.001 23.6648 223.886 23.3381 223.656 23.1051C223.429 22.8722 223.083 22.7557 222.62 22.7557C222.14 22.7557 221.764 22.8608 221.491 23.071C221.218 23.2812 221.027 23.5057 220.916 23.7443L219.961 23.4034C220.132 23.0057 220.359 22.696 220.643 22.4744C220.93 22.25 221.243 22.0937 221.581 22.0057C221.922 21.9148 222.257 21.8693 222.586 21.8693C222.797 21.8693 223.038 21.8949 223.311 21.946C223.586 21.9943 223.852 22.0952 224.108 22.2486C224.366 22.402 224.581 22.6335 224.751 22.9432C224.922 23.2528 225.007 23.6676 225.007 24.1875V28.5H224.001V27.6136H223.95C223.882 27.7557 223.768 27.9077 223.609 28.0696C223.45 28.2315 223.238 28.3693 222.974 28.483C222.71 28.5966 222.387 28.6534 222.007 28.6534ZM222.16 27.75C222.558 27.75 222.893 27.6719 223.166 27.5156C223.441 27.3594 223.649 27.1577 223.788 26.9105C223.93 26.6634 224.001 26.4034 224.001 26.1307V25.2102C223.958 25.2614 223.865 25.3082 223.72 25.3509C223.578 25.3906 223.413 25.4261 223.225 25.4574C223.041 25.4858 222.86 25.5114 222.684 25.5341C222.511 25.554 222.37 25.571 222.262 25.5852C222.001 25.6193 221.757 25.6747 221.529 25.7514C221.305 25.8253 221.123 25.9375 220.984 26.0881C220.848 26.2358 220.779 26.4375 220.779 26.6932C220.779 27.0426 220.909 27.3068 221.167 27.4858C221.429 27.6619 221.76 27.75 222.16 27.75ZM226.655 28.5V27.733L230.371 22.9602V22.892H226.774V21.9545H231.666V22.7557L228.053 27.4943V27.5625H231.786V28.5H226.655ZM235.891 28.6364C235.261 28.6364 234.717 28.4972 234.259 28.2188C233.805 27.9375 233.454 27.5455 233.207 27.0426C232.962 26.5369 232.84 25.9489 232.84 25.2784C232.84 24.608 232.962 24.017 233.207 23.5057C233.454 22.9915 233.798 22.5909 234.238 22.304C234.681 22.0142 235.198 21.8693 235.789 21.8693C236.13 21.8693 236.467 21.9261 236.799 22.0398C237.131 22.1534 237.434 22.3381 237.707 22.5938C237.979 22.8466 238.197 23.1818 238.359 23.5994C238.521 24.017 238.602 24.5312 238.602 25.142V25.5682H233.556V24.6989H237.579C237.579 24.3295 237.505 24 237.357 23.7102C237.212 23.4205 237.005 23.1918 236.735 23.0241C236.468 22.8565 236.153 22.7727 235.789 22.7727C235.388 22.7727 235.042 22.8722 234.749 23.071C234.46 23.267 234.237 23.5227 234.08 23.8381C233.924 24.1534 233.846 24.4915 233.846 24.8523V25.4318C233.846 25.9261 233.931 26.3452 234.102 26.6889C234.275 27.0298 234.515 27.2898 234.822 27.4688C235.129 27.6449 235.485 27.733 235.891 27.733C236.156 27.733 236.394 27.696 236.607 27.6222C236.823 27.5455 237.009 27.4318 237.165 27.2812C237.322 27.1278 237.442 26.9375 237.528 26.7102L238.499 26.983C238.397 27.3125 238.225 27.6023 237.984 27.8523C237.742 28.0994 237.444 28.2926 237.089 28.4318C236.734 28.5682 236.335 28.6364 235.891 28.6364ZM241.137 24.5625V28.5H240.131V21.9545H241.103V22.9773H241.188C241.342 22.6449 241.575 22.3778 241.887 22.1761C242.2 21.9716 242.603 21.8693 243.097 21.8693C243.54 21.8693 243.928 21.9602 244.261 22.142C244.593 22.321 244.852 22.5938 245.036 22.9602C245.221 23.3239 245.313 23.7841 245.313 24.3409V28.5H244.308V24.4091C244.308 23.8949 244.174 23.4943 243.907 23.2074C243.64 22.9176 243.273 22.7727 242.808 22.7727C242.487 22.7727 242.2 22.8423 241.947 22.9815C241.697 23.1207 241.499 23.3239 241.354 23.5909C241.21 23.858 241.137 24.1818 241.137 24.5625Z" fill="#888888"/>
<defs>
<linearGradient id="paint0_linear_18_1022" x1="419.714" y1="-34.2857" x2="322.941" y2="363.219" gradientUnits="userSpaceOnUse">
<stop offset="0.11827" stop-color="#333333" stop-opacity="0"/>
<stop offset="0.223096" stop-color="#666666"/>
</linearGradient>
<linearGradient id="paint1_linear_18_1022" x1="24" y1="8.25" x2="24" y2="39.75" gradientUnits="userSpaceOnUse">
<stop stop-color="#37BBFE"/>
<stop offset="1" stop-color="#007DBB"/>
</linearGradient>
</defs>
</svg>
