<svg width="400" height="355" viewBox="0 0 400 355" fill="none" xmlns="http://www.w3.org/2000/svg">
    <rect x="0.5" y="0.5" width="399" height="354" rx="19.5" fill="#313131"/>
    <rect x="0.5" y="0.5" width="399" height="354" rx="19.5" stroke="url(#paint0_linear_18_1040)"/>
    <path d="M22.5824 55V28.8182H27.3253V39.902H39.4574V28.8182H44.2131V55H39.4574V43.8778H27.3253V55H22.5824ZM49.1669 55V35.3636H53.7947V55H49.1669ZM51.4936 32.5767C50.7607 32.5767 50.13 32.3338 49.6016 31.848C49.0732 31.3537 48.8089 30.7614 48.8089 30.071C48.8089 29.3722 49.0732 28.7798 49.6016 28.294C50.13 27.7997 50.7607 27.5526 51.4936 27.5526C52.2351 27.5526 52.8658 27.7997 53.3857 28.294C53.9141 28.7798 54.1783 29.3722 54.1783 30.071C54.1783 30.7614 53.9141 31.3537 53.3857 31.848C52.8658 32.3338 52.2351 32.5767 51.4936 32.5767ZM63.9869 51.4205L63.8207 52.8267C63.7013 53.9006 63.4883 54.9915 63.1815 56.0994C62.8832 57.2159 62.5678 58.2429 62.2354 59.1804C61.9031 60.1179 61.6346 60.8551 61.43 61.392H58.3107C58.43 60.8722 58.592 60.1648 58.7965 59.2699C59.0096 58.375 59.2141 57.3693 59.4102 56.2528C59.6062 55.1364 59.7383 54.0028 59.8065 52.8523L59.896 51.4205H63.9869ZM82.2393 28.8182V55H77.4964V28.8182H82.2393ZM91.0955 28.8182V31.4261C91.0955 32.1761 90.9506 32.956 90.6609 33.7656C90.3796 34.5668 89.9918 35.3338 89.4975 36.0668C89.0032 36.7912 88.4407 37.4134 87.81 37.9332L85.6623 36.5398C86.131 35.8324 86.5401 35.0696 86.8896 34.2514C87.239 33.4247 87.4137 32.4915 87.4137 31.4517V28.8182H91.0955ZM94.0966 55V35.3636H98.5199V38.7003H98.75C99.1591 37.5753 99.8366 36.6974 100.783 36.0668C101.729 35.4276 102.858 35.108 104.17 35.108C105.5 35.108 106.621 35.4318 107.533 36.0795C108.453 36.7187 109.101 37.5923 109.476 38.7003H109.68C110.115 37.6094 110.848 36.7401 111.879 36.0923C112.919 35.4361 114.151 35.108 115.574 35.108C117.381 35.108 118.855 35.679 119.997 36.821C121.139 37.9631 121.71 39.6293 121.71 41.8196V55H117.07V42.5355C117.07 41.3168 116.746 40.4261 116.098 39.8636C115.45 39.2926 114.658 39.0071 113.72 39.0071C112.604 39.0071 111.73 39.3565 111.099 40.0554C110.477 40.7457 110.166 41.6449 110.166 42.7528V55H105.628V42.3438C105.628 41.3295 105.321 40.5199 104.707 39.9148C104.102 39.3097 103.31 39.0071 102.33 39.0071C101.665 39.0071 101.06 39.1776 100.514 39.5185C99.9688 39.8509 99.5341 40.3239 99.2102 40.9375C98.8864 41.5426 98.7244 42.25 98.7244 43.0597V55H94.0966ZM280.428 55.2812C279.652 55.2812 278.988 55.0085 278.434 54.4631C277.88 53.9176 277.607 53.2528 277.615 52.4688C277.607 51.7017 277.88 51.0455 278.434 50.5C278.988 49.9545 279.652 49.6818 280.428 49.6818C281.178 49.6818 281.83 49.9545 282.384 50.5C282.946 51.0455 283.232 51.7017 283.24 52.4688C283.232 52.9886 283.096 53.4616 282.831 53.8878C282.576 54.3139 282.235 54.6548 281.809 54.9105C281.391 55.1577 280.931 55.2812 280.428 55.2812Z" fill="#888888"/>
    <path d="M149.768 36.0156C149.649 34.8991 149.146 34.0298 148.26 33.4077C147.382 32.7855 146.24 32.4744 144.833 32.4744C143.845 32.4744 142.997 32.6236 142.289 32.9219C141.582 33.2202 141.041 33.625 140.666 34.1364C140.291 34.6477 140.099 35.2315 140.091 35.8878C140.091 36.4332 140.214 36.9062 140.461 37.3068C140.717 37.7074 141.062 38.0483 141.497 38.3295C141.931 38.6023 142.413 38.8324 142.941 39.0199C143.47 39.2074 144.002 39.3651 144.539 39.4929L146.994 40.1065C147.983 40.3366 148.933 40.6477 149.845 41.0398C150.765 41.4318 151.588 41.9261 152.312 42.5227C153.045 43.1193 153.625 43.8395 154.051 44.6832C154.477 45.527 154.69 46.5156 154.69 47.6491C154.69 49.1832 154.298 50.5341 153.514 51.7017C152.73 52.8608 151.596 53.7685 150.113 54.4247C148.639 55.0724 146.853 55.3963 144.757 55.3963C142.72 55.3963 140.951 55.081 139.451 54.4503C137.96 53.8196 136.792 52.8991 135.949 51.6889C135.113 50.4787 134.662 49.0043 134.593 47.2656H139.26C139.328 48.1776 139.609 48.9361 140.103 49.5412C140.598 50.1463 141.241 50.598 142.034 50.8963C142.835 51.1946 143.73 51.3438 144.718 51.3438C145.75 51.3438 146.653 51.1903 147.429 50.8835C148.213 50.5682 148.826 50.1335 149.27 49.5795C149.713 49.017 149.939 48.3608 149.947 47.6108C149.939 46.929 149.738 46.3665 149.346 45.9233C148.954 45.4716 148.404 45.0966 147.697 44.7983C146.998 44.4915 146.18 44.2187 145.243 43.9801L142.264 43.2131C140.108 42.6591 138.403 41.8196 137.15 40.6946C135.906 39.5611 135.284 38.0568 135.284 36.1818C135.284 34.6392 135.701 33.2884 136.537 32.1293C137.38 30.9702 138.527 30.071 139.975 29.4318C141.424 28.7841 143.065 28.4602 144.897 28.4602C146.755 28.4602 148.383 28.7841 149.781 29.4318C151.187 30.071 152.291 30.9616 153.092 32.1037C153.893 33.2372 154.306 34.5412 154.332 36.0156H149.768ZM164.364 55.3963C163.12 55.3963 161.999 55.1747 161.002 54.7315C160.013 54.2798 159.229 53.6151 158.65 52.7372C158.079 51.8594 157.793 50.777 157.793 49.4901C157.793 48.3821 157.998 47.4659 158.407 46.7415C158.816 46.017 159.374 45.4375 160.082 45.0028C160.789 44.5682 161.586 44.2401 162.472 44.0185C163.367 43.7884 164.292 43.6222 165.246 43.5199C166.397 43.4006 167.33 43.294 168.046 43.2003C168.762 43.098 169.282 42.9446 169.606 42.7401C169.938 42.527 170.104 42.1989 170.104 41.7557V41.679C170.104 40.7159 169.819 39.9702 169.248 39.4418C168.677 38.9134 167.854 38.6491 166.781 38.6491C165.647 38.6491 164.748 38.8963 164.083 39.3906C163.427 39.8849 162.984 40.4687 162.754 41.142L158.433 40.5284C158.773 39.3352 159.336 38.3381 160.12 37.5369C160.904 36.7273 161.863 36.1222 162.996 35.7216C164.13 35.3125 165.383 35.108 166.755 35.108C167.701 35.108 168.643 35.2188 169.58 35.4403C170.518 35.6619 171.374 36.0284 172.15 36.5398C172.925 37.0426 173.548 37.7287 174.016 38.598C174.494 39.4673 174.732 40.554 174.732 41.858V55H170.283V52.3026H170.13C169.849 52.848 169.452 53.3594 168.941 53.8366C168.438 54.3054 167.803 54.6847 167.036 54.9744C166.278 55.2557 165.387 55.3963 164.364 55.3963ZM165.566 51.9957C166.495 51.9957 167.3 51.8125 167.982 51.446C168.664 51.071 169.188 50.5767 169.555 49.9631C169.93 49.3494 170.117 48.6804 170.117 47.956V45.642C169.972 45.7614 169.725 45.8722 169.376 45.9744C169.035 46.0767 168.651 46.1662 168.225 46.2429C167.799 46.3196 167.377 46.3878 166.96 46.4474C166.542 46.5071 166.18 46.5582 165.873 46.6009C165.183 46.6946 164.565 46.848 164.019 47.0611C163.474 47.2741 163.043 47.5724 162.728 47.956C162.413 48.331 162.255 48.8168 162.255 49.4134C162.255 50.2656 162.566 50.9091 163.188 51.3438C163.81 51.7784 164.603 51.9957 165.566 51.9957ZM179.59 55V28.8182H184.218V38.6108H184.41C184.648 38.1335 184.985 37.6264 185.42 37.0895C185.854 36.544 186.442 36.0795 187.184 35.696C187.925 35.304 188.871 35.108 190.022 35.108C191.539 35.108 192.907 35.4957 194.126 36.2713C195.353 37.0384 196.325 38.1761 197.04 39.6847C197.765 41.1847 198.127 43.0256 198.127 45.2074C198.127 47.3636 197.773 49.196 197.066 50.7045C196.359 52.2131 195.396 53.3636 194.177 54.1562C192.958 54.9489 191.577 55.3452 190.035 55.3452C188.91 55.3452 187.977 55.1577 187.235 54.7827C186.494 54.4077 185.897 53.956 185.445 53.4276C185.002 52.8906 184.657 52.3835 184.41 51.9062H184.141V55H179.59ZM184.129 45.1818C184.129 46.4517 184.308 47.5639 184.665 48.5185C185.032 49.473 185.556 50.2187 186.238 50.7557C186.928 51.2841 187.763 51.5483 188.744 51.5483C189.766 51.5483 190.623 51.2756 191.313 50.7301C192.004 50.1761 192.523 49.4219 192.873 48.4673C193.231 47.5043 193.41 46.4091 193.41 45.1818C193.41 43.9631 193.235 42.8807 192.886 41.9347C192.536 40.9886 192.016 40.2472 191.326 39.7102C190.636 39.1733 189.775 38.9048 188.744 38.9048C187.755 38.9048 186.915 39.1648 186.225 39.6847C185.535 40.2045 185.011 40.9332 184.653 41.8707C184.303 42.8082 184.129 43.9119 184.129 45.1818ZM204.27 62.3636C203.639 62.3636 203.055 62.3125 202.518 62.2102C201.99 62.1165 201.568 62.0057 201.253 61.8778L202.327 58.2727C203 58.4688 203.601 58.5625 204.129 58.554C204.658 58.5455 205.122 58.3793 205.523 58.0554C205.932 57.7401 206.277 57.2116 206.558 56.4702L206.955 55.4091L199.834 35.3636H204.743L209.268 50.1932H209.473L214.011 35.3636H218.933L211.071 57.3778C210.705 58.4176 210.219 59.3082 209.614 60.0497C209.009 60.7997 208.267 61.3707 207.389 61.7628C206.52 62.1634 205.48 62.3636 204.27 62.3636ZM222.136 55V35.3636H226.623V38.6364H226.827C227.185 37.5028 227.799 36.6293 228.668 36.0156C229.546 35.3935 230.548 35.0824 231.673 35.0824C231.928 35.0824 232.214 35.0952 232.529 35.1207C232.853 35.1378 233.121 35.1676 233.335 35.2102V39.4673C233.138 39.3991 232.827 39.3395 232.401 39.2884C231.984 39.2287 231.579 39.1989 231.187 39.1989C230.343 39.1989 229.585 39.3821 228.911 39.7486C228.246 40.1065 227.722 40.6051 227.339 41.2443C226.955 41.8835 226.763 42.6207 226.763 43.456V55H222.136ZM240.628 48.8381L240.615 43.2514H241.357L248.413 35.3636H253.821L245.141 45.0284H244.182L240.628 48.8381ZM236.409 55V28.8182H241.037V55H236.409ZM248.733 55L242.341 46.0639L245.46 42.804L254.268 55H248.733ZM262.556 55.3963C261.311 55.3963 260.191 55.1747 259.194 54.7315C258.205 54.2798 257.421 53.6151 256.841 52.7372C256.27 51.8594 255.985 50.777 255.985 49.4901C255.985 48.3821 256.189 47.4659 256.598 46.7415C257.007 46.017 257.566 45.4375 258.273 45.0028C258.98 44.5682 259.777 44.2401 260.664 44.0185C261.559 43.7884 262.483 43.6222 263.438 43.5199C264.588 43.4006 265.522 43.294 266.238 43.2003C266.953 43.098 267.473 42.9446 267.797 42.7401C268.13 42.527 268.296 42.1989 268.296 41.7557V41.679C268.296 40.7159 268.01 39.9702 267.439 39.4418C266.868 38.9134 266.046 38.6491 264.972 38.6491C263.838 38.6491 262.939 38.8963 262.275 39.3906C261.618 39.8849 261.175 40.4687 260.945 41.142L256.624 40.5284C256.965 39.3352 257.527 38.3381 258.311 37.5369C259.096 36.7273 260.054 36.1222 261.188 35.7216C262.321 35.3125 263.574 35.108 264.946 35.108C265.892 35.108 266.834 35.2188 267.772 35.4403C268.709 35.6619 269.566 36.0284 270.341 36.5398C271.117 37.0426 271.739 37.7287 272.208 38.598C272.685 39.4673 272.924 40.554 272.924 41.858V55H268.475V52.3026H268.321C268.04 52.848 267.644 53.3594 267.132 53.8366C266.63 54.3054 265.995 54.6847 265.228 54.9744C264.469 55.2557 263.578 55.3963 262.556 55.3963ZM263.757 51.9957C264.686 51.9957 265.492 51.8125 266.174 51.446C266.855 51.071 267.38 50.5767 267.746 49.9631C268.121 49.3494 268.309 48.6804 268.309 47.956V45.642C268.164 45.7614 267.917 45.8722 267.567 45.9744C267.226 46.0767 266.843 46.1662 266.417 46.2429C265.99 46.3196 265.569 46.3878 265.151 46.4474C264.733 46.5071 264.371 46.5582 264.064 46.6009C263.374 46.6946 262.756 46.848 262.211 47.0611C261.665 47.2741 261.235 47.5724 260.919 47.956C260.604 48.331 260.446 48.8168 260.446 49.4134C260.446 50.2656 260.757 50.9091 261.38 51.3438C262.002 51.7784 262.794 51.9957 263.757 51.9957Z" fill="#FAFAFA"/>
    <path d="M23.2599 76.4545V91H21.9318V76.4545H23.2599ZM36.7507 91.2273C35.7753 91.2273 34.9254 90.9834 34.201 90.4957C33.4813 90.008 32.9226 89.3404 32.5249 88.4929C32.1271 87.6454 31.9283 86.6795 31.9283 85.5952C31.9283 84.5014 32.1295 83.5284 32.532 82.6761C32.9392 81.8239 33.5026 81.1562 34.2223 80.6733C34.942 80.1856 35.7777 79.9418 36.7294 79.9418C37.4586 79.9418 38.1191 80.0838 38.7109 80.3679C39.3028 80.6473 39.7905 81.0426 40.174 81.554C40.5623 82.0606 40.8061 82.6525 40.9055 83.3295H39.6271C39.4946 82.714 39.175 82.1884 38.6683 81.7528C38.1664 81.3125 37.5272 81.0923 36.7507 81.0923C36.0547 81.0923 35.4392 81.2817 34.9041 81.6605C34.3691 82.0346 33.95 82.5578 33.647 83.2301C33.3487 83.8977 33.1996 84.6719 33.1996 85.5526C33.1996 86.438 33.3464 87.2216 33.6399 87.9034C33.9335 88.5805 34.3454 89.1108 34.8757 89.4943C35.4107 89.8778 36.0357 90.0696 36.7507 90.0696C37.2337 90.0696 37.674 89.9796 38.0717 89.7997C38.4742 89.6151 38.8104 89.3546 39.0803 89.0185C39.3549 88.6823 39.5395 88.2822 39.6342 87.8182H40.9126C40.8179 88.4763 40.5836 89.0634 40.2095 89.5795C39.8402 90.0909 39.3596 90.4934 38.7678 90.7869C38.1806 91.0805 37.5083 91.2273 36.7507 91.2273ZM43.6222 91V80.0909H44.8509V81.767H44.9432C45.161 81.2178 45.5398 80.7751 46.0795 80.4389C46.6241 80.098 47.2396 79.9276 47.9261 79.9276C48.0303 79.9276 48.1463 79.9299 48.2741 79.9347C48.402 79.9394 48.5085 79.9441 48.5938 79.9489V81.2344C48.5369 81.2249 48.4375 81.2107 48.2955 81.1918C48.1534 81.1728 47.9995 81.1634 47.8338 81.1634C47.2656 81.1634 46.759 81.2841 46.3139 81.5256C45.8736 81.7623 45.5256 82.0914 45.2699 82.5128C45.0142 82.9342 44.8864 83.4148 44.8864 83.9545V91H43.6222ZM53.7979 91.2486C53.1398 91.2486 52.5385 91.1207 51.994 90.8651C51.4495 90.6046 51.0162 90.2306 50.6942 89.7429C50.3723 89.2505 50.2113 88.6539 50.2113 87.9531C50.2113 87.4134 50.3131 86.9588 50.5167 86.5895C50.7203 86.2202 51.0091 85.9171 51.3832 85.6804C51.7572 85.4437 52.1999 85.2566 52.7113 85.1193C53.2227 84.982 53.7861 84.8755 54.4016 84.7997C55.0124 84.724 55.5285 84.6577 55.9499 84.6009C56.3761 84.544 56.7004 84.4541 56.9229 84.331C57.1455 84.2079 57.2567 84.009 57.2567 83.7344V83.4787C57.2567 82.7353 57.0342 82.1506 56.5891 81.7244C56.1488 81.2936 55.5143 81.0781 54.6857 81.0781C53.8997 81.0781 53.2582 81.2509 52.761 81.5966C52.2686 81.9422 51.9229 82.3494 51.7241 82.8182L50.5238 82.3849C50.77 81.7884 51.1109 81.3125 51.5465 80.9574C51.9821 80.5975 52.4698 80.3395 53.0096 80.1832C53.5494 80.0223 54.0962 79.9418 54.6502 79.9418C55.0669 79.9418 55.5001 79.9962 55.9499 80.1051C56.4045 80.214 56.8259 80.4034 57.2141 80.6733C57.6024 80.9384 57.9173 81.3101 58.1587 81.7884C58.4002 82.2618 58.521 82.8632 58.521 83.5923V91H57.2567V89.2741H57.1786C57.0271 89.5961 56.8022 89.9086 56.5039 90.2116C56.2056 90.5147 55.8316 90.7633 55.3817 90.9574C54.9319 91.1515 54.404 91.2486 53.7979 91.2486ZM53.9684 90.0909C54.6407 90.0909 55.2231 89.9418 55.7156 89.6435C56.208 89.3452 56.5868 88.9498 56.8519 88.4574C57.1218 87.9602 57.2567 87.4134 57.2567 86.8168V85.2401C57.1621 85.33 57.0034 85.4105 56.7809 85.4815C56.5631 85.5526 56.3098 85.6165 56.021 85.6733C55.7369 85.7254 55.4528 85.7704 55.1687 85.8082C54.8846 85.8461 54.6289 85.8793 54.4016 85.9077C53.7861 85.9834 53.2605 86.1018 52.8249 86.2628C52.3893 86.4238 52.0555 86.6463 51.8235 86.9304C51.5915 87.2098 51.4755 87.5696 51.4755 88.0099C51.4755 88.6728 51.7122 89.1866 52.1857 89.5511C52.6592 89.911 53.2534 90.0909 53.9684 90.0909ZM66.3725 80.0909V81.1918H61.0103V80.0909H66.3725ZM62.6864 91V78.4929C62.6864 77.9058 62.8214 77.411 63.0913 77.0085C63.3659 76.6061 63.7234 76.3007 64.1637 76.0923C64.604 75.884 65.0704 75.7798 65.5629 75.7798C65.8943 75.7798 66.1689 75.8082 66.3867 75.8651C66.6093 75.9171 66.7844 75.9692 66.9123 76.0213L66.543 77.1293C66.4483 77.1009 66.3323 77.0677 66.195 77.0298C66.0576 76.992 65.8848 76.973 65.6765 76.973C65.1272 76.973 64.7035 77.1269 64.4052 77.4347C64.1069 77.7424 63.9577 78.1828 63.9577 78.7557L63.9506 91H62.6864ZM73.1925 80.0909V81.1918H67.9865V80.0909H73.1925ZM69.6129 77.4773H70.8842V88.152C70.8842 88.6065 70.9624 88.964 71.1186 89.2244C71.2749 89.4801 71.4785 89.6624 71.7294 89.7713C71.9804 89.8755 72.2479 89.9276 72.532 89.9276C72.6977 89.9276 72.8397 89.9181 72.9581 89.8991C73.0765 89.8755 73.1806 89.8518 73.2706 89.8281L73.5405 90.9716C73.4174 91.0189 73.2659 91.0616 73.0859 91.0994C72.906 91.142 72.6835 91.1634 72.4183 91.1634C71.9543 91.1634 71.5069 91.0616 71.076 90.858C70.6499 90.6544 70.2995 90.3513 70.0249 89.9489C69.7502 89.5464 69.6129 89.0469 69.6129 88.4503V77.4773ZM81.6886 91V80.0909H82.9173V81.767H83.0309C83.2487 81.2036 83.6109 80.7609 84.1175 80.4389C84.6289 80.1122 85.2421 79.9489 85.957 79.9489C86.7099 79.9489 87.3278 80.1264 87.8107 80.4815C88.2984 80.8319 88.663 81.3149 88.9045 81.9304H88.9968C89.243 81.3243 89.6431 80.8437 90.1971 80.4886C90.7558 80.1288 91.4329 79.9489 92.2283 79.9489C93.2416 79.9489 94.0418 80.2685 94.6289 80.9077C95.216 81.5421 95.5096 82.4702 95.5096 83.6918V91H94.2454V83.6918C94.2454 82.83 94.0252 82.1837 93.5849 81.7528C93.1445 81.322 92.5645 81.1065 91.8448 81.1065C91.0115 81.1065 90.3699 81.3622 89.9201 81.8736C89.4703 82.3849 89.2454 83.0336 89.2454 83.8196V91H87.9528V83.5781C87.9528 82.8395 87.7468 82.2429 87.3349 81.7884C86.9229 81.3338 86.3429 81.1065 85.5948 81.1065C85.0929 81.1065 84.6407 81.2296 84.2383 81.4759C83.8406 81.7221 83.5257 82.0653 83.2937 82.5057C83.0664 82.9413 82.9528 83.4432 82.9528 84.0114V91H81.6886ZM98.8707 91V80.0909H100.142V91H98.8707ZM99.517 78.2159C99.2566 78.2159 99.0341 78.1283 98.8494 77.9531C98.6648 77.7732 98.5724 77.5578 98.5724 77.3068C98.5724 77.0559 98.6648 76.8428 98.8494 76.6676C99.0341 76.4877 99.2566 76.3977 99.517 76.3977C99.7775 76.3977 100 76.4877 100.185 76.6676C100.369 76.8428 100.462 77.0559 100.462 77.3068C100.462 77.5578 100.369 77.7732 100.185 77.9531C100 78.1283 99.7775 78.2159 99.517 78.2159ZM104.75 84.1818V91H103.485V80.0909H104.714V81.8026H104.828C105.083 81.2438 105.481 80.7964 106.021 80.4602C106.565 80.1193 107.238 79.9489 108.038 79.9489C108.772 79.9489 109.416 80.1027 109.97 80.4105C110.529 80.7135 110.962 81.161 111.27 81.7528C111.582 82.3447 111.738 83.0715 111.738 83.9332V91H110.474V84.0114C110.474 83.1165 110.223 82.4086 109.721 81.8878C109.224 81.367 108.556 81.1065 107.718 81.1065C107.145 81.1065 106.636 81.2296 106.191 81.4759C105.746 81.7221 105.394 82.0772 105.133 82.5412C104.877 83.0005 104.75 83.5473 104.75 84.1818ZM115.082 91V80.0909H116.353V91H115.082ZM115.728 78.2159C115.468 78.2159 115.245 78.1283 115.06 77.9531C114.876 77.7732 114.783 77.5578 114.783 77.3068C114.783 77.0559 114.876 76.8428 115.06 76.6676C115.245 76.4877 115.468 76.3977 115.728 76.3977C115.988 76.3977 116.211 76.4877 116.396 76.6676C116.58 76.8428 116.673 77.0559 116.673 77.3068C116.673 77.5578 116.58 77.7732 116.396 77.9531C116.211 78.1283 115.988 78.2159 115.728 78.2159ZM119.696 91V80.0909H120.925V81.767H121.039C121.257 81.2036 121.619 80.7609 122.125 80.4389C122.637 80.1122 123.25 79.9489 123.965 79.9489C124.718 79.9489 125.336 80.1264 125.819 80.4815C126.306 80.8319 126.671 81.3149 126.912 81.9304H127.005C127.251 81.3243 127.651 80.8437 128.205 80.4886C128.764 80.1288 129.441 79.9489 130.236 79.9489C131.249 79.9489 132.05 80.2685 132.637 80.9077C133.224 81.5421 133.517 82.4702 133.517 83.6918V91H132.253V83.6918C132.253 82.83 132.033 82.1837 131.593 81.7528C131.152 81.322 130.572 81.1065 129.853 81.1065C129.019 81.1065 128.378 81.3622 127.928 81.8736C127.478 82.3849 127.253 83.0336 127.253 83.8196V91H125.961V83.5781C125.961 82.8395 125.755 82.2429 125.343 81.7884C124.931 81.3338 124.351 81.1065 123.603 81.1065C123.101 81.1065 122.649 81.2296 122.246 81.4759C121.848 81.7221 121.533 82.0653 121.301 82.5057C121.074 82.9413 120.961 83.4432 120.961 84.0114V91H119.696ZM139.911 91.2486C139.253 91.2486 138.652 91.1207 138.107 90.8651C137.563 90.6046 137.129 90.2306 136.808 89.7429C136.486 89.2505 136.325 88.6539 136.325 87.9531C136.325 87.4134 136.426 86.9588 136.63 86.5895C136.834 86.2202 137.122 85.9171 137.496 85.6804C137.871 85.4437 138.313 85.2566 138.825 85.1193C139.336 84.982 139.899 84.8755 140.515 84.7997C141.126 84.724 141.642 84.6577 142.063 84.6009C142.489 84.544 142.814 84.4541 143.036 84.331C143.259 84.2079 143.37 84.009 143.37 83.7344V83.4787C143.37 82.7353 143.147 82.1506 142.702 81.7244C142.262 81.2936 141.628 81.0781 140.799 81.0781C140.013 81.0781 139.371 81.2509 138.874 81.5966C138.382 81.9422 138.036 82.3494 137.837 82.8182L136.637 82.3849C136.883 81.7884 137.224 81.3125 137.66 80.9574C138.095 80.5975 138.583 80.3395 139.123 80.1832C139.663 80.0223 140.21 79.9418 140.763 79.9418C141.18 79.9418 141.613 79.9962 142.063 80.1051C142.518 80.214 142.939 80.4034 143.327 80.6733C143.716 80.9384 144.031 81.3101 144.272 81.7884C144.513 82.2618 144.634 82.8632 144.634 83.5923V91H143.37V89.2741H143.292C143.14 89.5961 142.915 89.9086 142.617 90.2116C142.319 90.5147 141.945 90.7633 141.495 90.9574C141.045 91.1515 140.517 91.2486 139.911 91.2486ZM140.082 90.0909C140.754 90.0909 141.336 89.9418 141.829 89.6435C142.321 89.3452 142.7 88.9498 142.965 88.4574C143.235 87.9602 143.37 87.4134 143.37 86.8168V85.2401C143.275 85.33 143.117 85.4105 142.894 85.4815C142.676 85.5526 142.423 85.6165 142.134 85.6733C141.85 85.7254 141.566 85.7704 141.282 85.8082C140.998 85.8461 140.742 85.8793 140.515 85.9077C139.899 85.9834 139.374 86.1018 138.938 86.2628C138.503 86.4238 138.169 86.6463 137.937 86.9304C137.705 87.2098 137.589 87.5696 137.589 88.0099C137.589 88.6728 137.826 89.1866 138.299 89.5511C138.772 89.911 139.367 90.0909 140.082 90.0909ZM149.261 76.4545V91H147.997V76.4545H149.261ZM152.621 91V80.0909H153.892V91H152.621ZM153.267 78.2159C153.007 78.2159 152.784 78.1283 152.599 77.9531C152.415 77.7732 152.322 77.5578 152.322 77.3068C152.322 77.0559 152.415 76.8428 152.599 76.6676C152.784 76.4877 153.007 76.3977 153.267 76.3977C153.527 76.3977 153.75 76.4877 153.935 76.6676C154.119 76.8428 154.212 77.0559 154.212 77.3068C154.212 77.5578 154.119 77.7732 153.935 77.9531C153.75 78.1283 153.527 78.2159 153.267 78.2159ZM164.565 82.4844L163.407 82.8111C163.294 82.4844 163.133 82.1884 162.924 81.9233C162.716 81.6581 162.444 81.4474 162.108 81.2912C161.776 81.1349 161.364 81.0568 160.872 81.0568C160.133 81.0568 159.527 81.232 159.054 81.5824C158.58 81.9328 158.343 82.3849 158.343 82.9389C158.343 83.4077 158.504 83.7888 158.826 84.0824C159.153 84.3712 159.655 84.6009 160.332 84.7713L161.98 85.1761C162.894 85.3987 163.578 85.7514 164.032 86.2344C164.492 86.7173 164.721 87.3234 164.721 88.0526C164.721 88.6681 164.551 89.215 164.21 89.6932C163.869 90.1714 163.393 90.5478 162.782 90.8224C162.176 91.0923 161.473 91.2273 160.673 91.2273C159.608 91.2273 158.729 90.9882 158.038 90.5099C157.347 90.027 156.904 89.331 156.71 88.4219L157.924 88.1236C158.081 88.7723 158.386 89.2623 158.841 89.5938C159.3 89.9252 159.904 90.0909 160.652 90.0909C161.49 90.0909 162.16 89.9039 162.662 89.5298C163.163 89.151 163.414 88.6776 163.414 88.1094C163.414 87.669 163.268 87.2997 162.974 87.0014C162.681 86.6984 162.235 86.4759 161.639 86.3338L159.856 85.9077C158.909 85.6804 158.208 85.3205 157.754 84.8281C157.299 84.3357 157.072 83.7249 157.072 82.9957C157.072 82.3944 157.235 81.8665 157.562 81.4119C157.889 80.9527 158.339 80.5928 158.912 80.3324C159.484 80.072 160.138 79.9418 160.872 79.9418C161.871 79.9418 162.669 80.169 163.265 80.6236C163.867 81.0734 164.3 81.6937 164.565 82.4844ZM171.786 80.0909V81.1918H166.58V80.0909H171.786ZM168.207 77.4773H169.478V88.152C169.478 88.6065 169.556 88.964 169.712 89.2244C169.869 89.4801 170.072 89.6624 170.323 89.7713C170.574 89.8755 170.842 89.9276 171.126 89.9276C171.291 89.9276 171.433 89.9181 171.552 89.8991C171.67 89.8755 171.774 89.8518 171.864 89.8281L172.134 90.9716C172.011 91.0189 171.86 91.0616 171.68 91.0994C171.5 91.142 171.277 91.1634 171.012 91.1634C170.548 91.1634 170.101 91.0616 169.67 90.858C169.244 90.6544 168.893 90.3513 168.619 89.9489C168.344 89.5464 168.207 89.0469 168.207 88.4503V77.4773ZM180.297 91V80.0909H181.568V91H180.297ZM180.943 78.2159C180.682 78.2159 180.46 78.1283 180.275 77.9531C180.091 77.7732 179.998 77.5578 179.998 77.3068C179.998 77.0559 180.091 76.8428 180.275 76.6676C180.46 76.4877 180.682 76.3977 180.943 76.3977C181.203 76.3977 181.426 76.4877 181.61 76.6676C181.795 76.8428 181.887 77.0559 181.887 77.3068C181.887 77.5578 181.795 77.7732 181.61 77.9531C181.426 78.1283 181.203 78.2159 180.943 78.2159ZM186.175 84.1818V91H184.911V80.0909H186.14V81.8026H186.254C186.509 81.2438 186.907 80.7964 187.447 80.4602C187.991 80.1193 188.664 79.9489 189.464 79.9489C190.198 79.9489 190.842 80.1027 191.396 80.4105C191.954 80.7135 192.388 81.161 192.695 81.7528C193.008 82.3447 193.164 83.0715 193.164 83.9332V91H191.9V84.0114C191.9 83.1165 191.649 82.4086 191.147 81.8878C190.65 81.367 189.982 81.1065 189.144 81.1065C188.571 81.1065 188.062 81.2296 187.617 81.4759C187.172 81.7221 186.819 82.0772 186.559 82.5412C186.303 83.0005 186.175 83.5473 186.175 84.1818ZM200.79 80.0909V81.1918H195.584V80.0909H200.79ZM197.211 77.4773H198.482V88.152C198.482 88.6065 198.56 88.964 198.716 89.2244C198.873 89.4801 199.076 89.6624 199.327 89.7713C199.578 89.8755 199.846 89.9276 200.13 89.9276C200.295 89.9276 200.437 89.9181 200.556 89.8991C200.674 89.8755 200.778 89.8518 200.868 89.8281L201.138 90.9716C201.015 91.0189 200.864 91.0616 200.684 91.0994C200.504 91.142 200.281 91.1634 200.016 91.1634C199.552 91.1634 199.105 91.0616 198.674 90.858C198.248 90.6544 197.897 90.3513 197.623 89.9489C197.348 89.5464 197.211 89.0469 197.211 88.4503V77.4773ZM207.955 91.2273C206.937 91.2273 206.056 90.9905 205.312 90.517C204.569 90.0388 203.994 89.3783 203.587 88.5355C203.184 87.688 202.983 86.7126 202.983 85.6094C202.983 84.5109 203.184 83.5355 203.587 82.6832C203.994 81.8262 204.555 81.1562 205.27 80.6733C205.99 80.1856 206.821 79.9418 207.763 79.9418C208.355 79.9418 208.925 80.0507 209.474 80.2685C210.024 80.4815 210.516 80.8106 210.952 81.2557C211.392 81.696 211.74 82.2524 211.996 82.9247C212.251 83.5923 212.379 84.383 212.379 85.2969V85.9219H203.857V84.8068H211.087C211.087 84.1061 210.945 83.4763 210.661 82.9176C210.381 82.3542 209.991 81.9091 209.489 81.5824C208.991 81.2557 208.416 81.0923 207.763 81.0923C207.071 81.0923 206.463 81.277 205.938 81.6463C205.412 82.0156 205 82.5033 204.702 83.1094C204.408 83.7154 204.259 84.3783 204.254 85.098V85.7656C204.254 86.6321 204.403 87.3897 204.702 88.0384C205.005 88.6823 205.433 89.1818 205.987 89.5369C206.541 89.892 207.197 90.0696 207.955 90.0696C208.471 90.0696 208.923 89.9891 209.311 89.8281C209.704 89.6671 210.033 89.4517 210.298 89.1818C210.568 88.9072 210.772 88.6065 210.909 88.2798L212.109 88.6705C211.944 89.1297 211.671 89.5535 211.293 89.9418C210.919 90.33 210.45 90.6425 209.886 90.8793C209.328 91.1113 208.684 91.2273 207.955 91.2273ZM215.165 91V80.0909H216.394V81.767H216.486C216.704 81.2178 217.083 80.7751 217.623 80.4389C218.167 80.098 218.783 79.9276 219.469 79.9276C219.573 79.9276 219.689 79.9299 219.817 79.9347C219.945 79.9394 220.051 79.9441 220.137 79.9489V81.2344C220.08 81.2249 219.98 81.2107 219.838 81.1918C219.696 81.1728 219.542 81.1634 219.377 81.1634C218.809 81.1634 218.302 81.2841 217.857 81.5256C217.417 81.7623 217.069 82.0914 216.813 82.5128C216.557 82.9342 216.429 83.4148 216.429 83.9545V91H215.165ZM227.466 80.0909V81.1918H222.104V80.0909H227.466ZM223.78 91V78.4929C223.78 77.9058 223.915 77.411 224.185 77.0085C224.46 76.6061 224.817 76.3007 225.257 76.0923C225.698 75.884 226.164 75.7798 226.657 75.7798C226.988 75.7798 227.263 75.8082 227.48 75.8651C227.703 75.9171 227.878 75.9692 228.006 76.0213L227.637 77.1293C227.542 77.1009 227.426 77.0677 227.289 77.0298C227.151 76.992 226.979 76.973 226.77 76.973C226.221 76.973 225.797 77.1269 225.499 77.4347C225.201 77.7424 225.051 78.1828 225.051 78.7557L225.044 91H223.78ZM232.743 91.2486C232.085 91.2486 231.484 91.1207 230.939 90.8651C230.395 90.6046 229.962 90.2306 229.64 89.7429C229.318 89.2505 229.157 88.6539 229.157 87.9531C229.157 87.4134 229.258 86.9588 229.462 86.5895C229.666 86.2202 229.954 85.9171 230.328 85.6804C230.703 85.4437 231.145 85.2566 231.657 85.1193C232.168 84.982 232.731 84.8755 233.347 84.7997C233.958 84.724 234.474 84.6577 234.895 84.6009C235.321 84.544 235.646 84.4541 235.868 84.331C236.091 84.2079 236.202 84.009 236.202 83.7344V83.4787C236.202 82.7353 235.98 82.1506 235.534 81.7244C235.094 81.2936 234.46 81.0781 233.631 81.0781C232.845 81.0781 232.203 81.2509 231.706 81.5966C231.214 81.9422 230.868 82.3494 230.669 82.8182L229.469 82.3849C229.715 81.7884 230.056 81.3125 230.492 80.9574C230.927 80.5975 231.415 80.3395 231.955 80.1832C232.495 80.0223 233.042 79.9418 233.596 79.9418C234.012 79.9418 234.445 79.9962 234.895 80.1051C235.35 80.214 235.771 80.4034 236.159 80.6733C236.548 80.9384 236.863 81.3101 237.104 81.7884C237.346 82.2618 237.466 82.8632 237.466 83.5923V91H236.202V89.2741H236.124C235.972 89.5961 235.748 89.9086 235.449 90.2116C235.151 90.5147 234.777 90.7633 234.327 90.9574C233.877 91.1515 233.349 91.2486 232.743 91.2486ZM232.914 90.0909C233.586 90.0909 234.168 89.9418 234.661 89.6435C235.153 89.3452 235.532 88.9498 235.797 88.4574C236.067 87.9602 236.202 87.4134 236.202 86.8168V85.2401C236.107 85.33 235.949 85.4105 235.726 85.4815C235.508 85.5526 235.255 85.6165 234.966 85.6733C234.682 85.7254 234.398 85.7704 234.114 85.8082C233.83 85.8461 233.574 85.8793 233.347 85.9077C232.731 85.9834 232.206 86.1018 231.77 86.2628C231.335 86.4238 231.001 86.6463 230.769 86.9304C230.537 87.2098 230.421 87.5696 230.421 88.0099C230.421 88.6728 230.658 89.1866 231.131 89.5511C231.605 89.911 232.199 90.0909 232.914 90.0909ZM245.091 91.2273C244.115 91.2273 243.265 90.9834 242.541 90.4957C241.821 90.008 241.262 89.3404 240.865 88.4929C240.467 87.6454 240.268 86.6795 240.268 85.5952C240.268 84.5014 240.469 83.5284 240.872 82.6761C241.279 81.8239 241.842 81.1562 242.562 80.6733C243.282 80.1856 244.118 79.9418 245.069 79.9418C245.798 79.9418 246.459 80.0838 247.051 80.3679C247.643 80.6473 248.13 81.0426 248.514 81.554C248.902 82.0606 249.146 82.6525 249.245 83.3295H247.967C247.834 82.714 247.515 82.1884 247.008 81.7528C246.506 81.3125 245.867 81.0923 245.091 81.0923C244.395 81.0923 243.779 81.2817 243.244 81.6605C242.709 82.0346 242.29 82.5578 241.987 83.2301C241.689 83.8977 241.539 84.6719 241.539 85.5526C241.539 86.438 241.686 87.2216 241.98 87.9034C242.273 88.5805 242.685 89.1108 243.216 89.4943C243.751 89.8778 244.376 90.0696 245.091 90.0696C245.574 90.0696 246.014 89.9796 246.412 89.7997C246.814 89.6151 247.15 89.3546 247.42 89.0185C247.695 88.6823 247.879 88.2822 247.974 87.8182H249.252C249.158 88.4763 248.923 89.0634 248.549 89.5795C248.18 90.0909 247.699 90.4934 247.108 90.7869C246.52 91.0805 245.848 91.2273 245.091 91.2273ZM256.373 91.2273C255.355 91.2273 254.474 90.9905 253.73 90.517C252.987 90.0388 252.412 89.3783 252.005 88.5355C251.602 87.688 251.401 86.7126 251.401 85.6094C251.401 84.5109 251.602 83.5355 252.005 82.6832C252.412 81.8262 252.973 81.1562 253.688 80.6733C254.408 80.1856 255.239 79.9418 256.181 79.9418C256.773 79.9418 257.343 80.0507 257.892 80.2685C258.442 80.4815 258.934 80.8106 259.37 81.2557C259.81 81.696 260.158 82.2524 260.414 82.9247C260.669 83.5923 260.797 84.383 260.797 85.2969V85.9219H252.275V84.8068H259.505C259.505 84.1061 259.363 83.4763 259.078 82.9176C258.799 82.3542 258.408 81.9091 257.907 81.5824C257.409 81.2557 256.834 81.0923 256.181 81.0923C255.489 81.0923 254.881 81.277 254.355 81.6463C253.83 82.0156 253.418 82.5033 253.12 83.1094C252.826 83.7154 252.677 84.3783 252.672 85.098V85.7656C252.672 86.6321 252.821 87.3897 253.12 88.0384C253.423 88.6823 253.851 89.1818 254.405 89.5369C254.959 89.892 255.615 90.0696 256.373 90.0696C256.889 90.0696 257.341 89.9891 257.729 89.8281C258.122 89.6671 258.451 89.4517 258.716 89.1818C258.986 88.9072 259.19 88.6065 259.327 88.2798L260.527 88.6705C260.362 89.1297 260.089 89.5535 259.711 89.9418C259.337 90.33 258.868 90.6425 258.304 90.8793C257.746 91.1113 257.102 91.2273 256.373 91.2273ZM270.913 82.4844L269.755 82.8111C269.641 82.4844 269.48 82.1884 269.272 81.9233C269.064 81.6581 268.791 81.4474 268.455 81.2912C268.124 81.1349 267.712 81.0568 267.219 81.0568C266.481 81.0568 265.875 81.232 265.401 81.5824C264.928 81.9328 264.691 82.3849 264.691 82.9389C264.691 83.4077 264.852 83.7888 265.174 84.0824C265.501 84.3712 266.003 84.6009 266.68 84.7713L268.327 85.1761C269.241 85.3987 269.925 85.7514 270.38 86.2344C270.839 86.7173 271.069 87.3234 271.069 88.0526C271.069 88.6681 270.898 89.215 270.558 89.6932C270.217 90.1714 269.741 90.5478 269.13 90.8224C268.524 91.0923 267.821 91.2273 267.021 91.2273C265.955 91.2273 265.077 90.9882 264.386 90.5099C263.694 90.027 263.252 89.331 263.058 88.4219L264.272 88.1236C264.428 88.7723 264.734 89.2623 265.188 89.5938C265.647 89.9252 266.251 90.0909 266.999 90.0909C267.837 90.0909 268.507 89.9039 269.009 89.5298C269.511 89.151 269.762 88.6776 269.762 88.1094C269.762 87.669 269.615 87.2997 269.322 87.0014C269.028 86.6984 268.583 86.4759 267.987 86.3338L266.204 85.9077C265.257 85.6804 264.556 85.3205 264.102 84.8281C263.647 84.3357 263.42 83.7249 263.42 82.9957C263.42 82.3944 263.583 81.8665 263.91 81.4119C264.237 80.9527 264.686 80.5928 265.259 80.3324C265.832 80.072 266.486 79.9418 267.219 79.9418C268.219 79.9418 269.016 80.169 269.613 80.6236C270.214 81.0734 270.647 81.6937 270.913 82.4844ZM283.759 80.0909V81.1918H278.553V80.0909H283.759ZM280.179 77.4773H281.451V88.152C281.451 88.6065 281.529 88.964 281.685 89.2244C281.841 89.4801 282.045 89.6624 282.296 89.7713C282.547 89.8755 282.814 89.9276 283.098 89.9276C283.264 89.9276 283.406 89.9181 283.525 89.8991C283.643 89.8755 283.747 89.8518 283.837 89.8281L284.107 90.9716C283.984 91.0189 283.832 91.0616 283.652 91.0994C283.472 91.142 283.25 91.1634 282.985 91.1634C282.521 91.1634 282.073 91.0616 281.642 90.858C281.216 90.6544 280.866 90.3513 280.591 89.9489C280.317 89.5464 280.179 89.0469 280.179 88.4503V77.4773ZM288.129 84.1818V91H286.864V76.4545H288.129V81.8026H288.242C288.498 81.2391 288.893 80.7893 289.428 80.4531C289.968 80.117 290.65 79.9489 291.474 79.9489C292.212 79.9489 292.861 80.1004 293.42 80.4034C293.978 80.7064 294.414 81.1539 294.727 81.7457C295.039 82.3376 295.195 83.0668 295.195 83.9332V91H293.924V84.0114C293.924 83.1117 293.673 82.4039 293.171 81.8878C292.674 81.367 292.002 81.1065 291.154 81.1065C290.572 81.1065 290.053 81.2296 289.599 81.4759C289.144 81.7221 288.784 82.0772 288.519 82.5412C288.259 83.0005 288.129 83.5473 288.129 84.1818ZM301.571 91.2486C300.913 91.2486 300.312 91.1207 299.767 90.8651C299.223 90.6046 298.79 90.2306 298.468 89.7429C298.146 89.2505 297.985 88.6539 297.985 87.9531C297.985 87.4134 298.087 86.9588 298.29 86.5895C298.494 86.2202 298.783 85.9171 299.157 85.6804C299.531 85.4437 299.973 85.2566 300.485 85.1193C300.996 84.982 301.56 84.8755 302.175 84.7997C302.786 84.724 303.302 84.6577 303.723 84.6009C304.15 84.544 304.474 84.4541 304.696 84.331C304.919 84.2079 305.03 84.009 305.03 83.7344V83.4787C305.03 82.7353 304.808 82.1506 304.363 81.7244C303.922 81.2936 303.288 81.0781 302.459 81.0781C301.673 81.0781 301.032 81.2509 300.534 81.5966C300.042 81.9422 299.696 82.3494 299.498 82.8182L298.297 82.3849C298.543 81.7884 298.884 81.3125 299.32 80.9574C299.756 80.5975 300.243 80.3395 300.783 80.1832C301.323 80.0223 301.87 79.9418 302.424 79.9418C302.84 79.9418 303.274 79.9962 303.723 80.1051C304.178 80.214 304.599 80.4034 304.988 80.6733C305.376 80.9384 305.691 81.3101 305.932 81.7884C306.174 82.2618 306.294 82.8632 306.294 83.5923V91H305.03V89.2741H304.952C304.801 89.5961 304.576 89.9086 304.277 90.2116C303.979 90.5147 303.605 90.7633 303.155 90.9574C302.705 91.1515 302.177 91.2486 301.571 91.2486ZM301.742 90.0909C302.414 90.0909 302.997 89.9418 303.489 89.6435C303.981 89.3452 304.36 88.9498 304.625 88.4574C304.895 87.9602 305.03 87.4134 305.03 86.8168V85.2401C304.935 85.33 304.777 85.4105 304.554 85.4815C304.337 85.5526 304.083 85.6165 303.794 85.6733C303.51 85.7254 303.226 85.7704 302.942 85.8082C302.658 85.8461 302.402 85.8793 302.175 85.9077C301.56 85.9834 301.034 86.1018 300.598 86.2628C300.163 86.4238 299.829 86.6463 299.597 86.9304C299.365 87.2098 299.249 87.5696 299.249 88.0099C299.249 88.6728 299.486 89.1866 299.959 89.5511C300.433 89.911 301.027 90.0909 301.742 90.0909ZM313.954 80.0909V81.1918H308.748V80.0909H313.954ZM310.375 77.4773H311.646V88.152C311.646 88.6065 311.724 88.964 311.88 89.2244C312.037 89.4801 312.24 89.6624 312.491 89.7713C312.742 89.8755 313.01 89.9276 313.294 89.9276C313.459 89.9276 313.601 89.9181 313.72 89.8991C313.838 89.8755 313.942 89.8518 314.032 89.8281L314.302 90.9716C314.179 91.0189 314.028 91.0616 313.848 91.0994C313.668 91.142 313.445 91.1634 313.18 91.1634C312.716 91.1634 312.269 91.0616 311.838 90.858C311.412 90.6544 311.061 90.3513 310.787 89.9489C310.512 89.5464 310.375 89.0469 310.375 88.4503V77.4773ZM21.9318 115V100.455H23.2031V106.172H23.3168C23.4588 105.845 23.6624 105.509 23.9276 105.163C24.1974 104.818 24.5502 104.529 24.9858 104.297C25.4261 104.06 25.9801 103.942 26.6477 103.942C27.5426 103.942 28.3286 104.179 29.0057 104.652C29.6828 105.121 30.2107 105.779 30.5895 106.626C30.9683 107.469 31.1577 108.452 31.1577 109.574C31.1577 110.701 30.9683 111.688 30.5895 112.536C30.2154 113.383 29.6899 114.044 29.0128 114.517C28.3404 114.991 27.5592 115.227 26.669 115.227C26.0062 115.227 25.4522 115.109 25.0071 114.872C24.5668 114.635 24.2116 114.344 23.9418 113.999C23.6719 113.648 23.4635 113.307 23.3168 112.976H23.1605V115H21.9318ZM23.1818 109.553C23.1818 110.433 23.312 111.214 23.5724 111.896C23.8376 112.573 24.2164 113.106 24.7088 113.494C25.206 113.878 25.8073 114.07 26.5128 114.07C27.2372 114.07 27.8504 113.871 28.3523 113.473C28.8542 113.071 29.2353 112.528 29.4957 111.847C29.7562 111.165 29.8864 110.4 29.8864 109.553C29.8864 108.714 29.7562 107.959 29.4957 107.287C29.2401 106.615 28.8613 106.082 28.3594 105.689C27.8575 105.291 27.242 105.092 26.5128 105.092C25.8026 105.092 25.1989 105.284 24.7017 105.668C24.2093 106.046 23.8329 106.572 23.5724 107.244C23.312 107.912 23.1818 108.681 23.1818 109.553ZM35.1989 100.455V115H33.9347V100.455H35.1989ZM42.9545 115.227C41.9366 115.227 41.0559 114.991 40.3125 114.517C39.5691 114.039 38.9938 113.378 38.5866 112.536C38.1842 111.688 37.983 110.713 37.983 109.609C37.983 108.511 38.1842 107.536 38.5866 106.683C38.9938 105.826 39.5549 105.156 40.2699 104.673C40.9896 104.186 41.8205 103.942 42.7628 103.942C43.3546 103.942 43.9252 104.051 44.4744 104.268C45.0237 104.482 45.5161 104.811 45.9517 105.256C46.392 105.696 46.7401 106.252 46.9957 106.925C47.2514 107.592 47.3793 108.383 47.3793 109.297V109.922H38.8565V108.807H46.0866C46.0866 108.106 45.9446 107.476 45.6605 106.918C45.3812 106.354 44.9905 105.909 44.4886 105.582C43.9915 105.256 43.4162 105.092 42.7628 105.092C42.0715 105.092 41.4631 105.277 40.9375 105.646C40.4119 106.016 40 106.503 39.7017 107.109C39.4081 107.715 39.259 108.378 39.2543 109.098V109.766C39.2543 110.632 39.4034 111.39 39.7017 112.038C40.0047 112.682 40.4332 113.182 40.9872 113.537C41.5412 113.892 42.197 114.07 42.9545 114.07C43.4706 114.07 43.9228 113.989 44.3111 113.828C44.7041 113.667 45.0331 113.452 45.2983 113.182C45.5682 112.907 45.7718 112.607 45.9091 112.28L47.1094 112.67C46.9437 113.13 46.6714 113.554 46.2926 113.942C45.9186 114.33 45.4498 114.643 44.8864 114.879C44.3277 115.111 43.6837 115.227 42.9545 115.227ZM51.4293 108.182V115H50.1651V104.091H51.3938V105.803H51.5075C51.7631 105.244 52.1609 104.796 52.7006 104.46C53.2451 104.119 53.9175 103.949 54.7177 103.949C55.4516 103.949 56.0955 104.103 56.6495 104.411C57.2082 104.714 57.6415 105.161 57.9492 105.753C58.2617 106.345 58.418 107.071 58.418 107.933V115H57.1538V108.011C57.1538 107.116 56.9028 106.409 56.4009 105.888C55.9038 105.367 55.2362 105.107 54.3981 105.107C53.8252 105.107 53.3162 105.23 52.8711 105.476C52.426 105.722 52.0733 106.077 51.8129 106.541C51.5572 107 51.4293 107.547 51.4293 108.182ZM65.6747 115.227C64.7798 115.227 63.9962 114.991 63.3239 114.517C62.6515 114.044 62.1259 113.383 61.7472 112.536C61.3731 111.688 61.1861 110.701 61.1861 109.574C61.1861 108.452 61.3731 107.469 61.7472 106.626C62.1259 105.779 62.6539 105.121 63.331 104.652C64.008 104.179 64.7964 103.942 65.696 103.942C66.3589 103.942 66.9105 104.06 67.3509 104.297C67.7912 104.529 68.1439 104.818 68.4091 105.163C68.6742 105.509 68.8802 105.845 69.027 106.172H69.1406V100.455H70.4119V115H69.1761V112.976H69.027C68.8802 113.307 68.6719 113.648 68.402 113.999C68.1321 114.344 67.7746 114.635 67.3295 114.872C66.8892 115.109 66.3376 115.227 65.6747 115.227ZM65.8239 114.07C66.5294 114.07 67.1307 113.878 67.6278 113.494C68.125 113.106 68.5038 112.573 68.7642 111.896C69.0294 111.214 69.1619 110.433 69.1619 109.553C69.1619 108.681 69.0317 107.912 68.7713 107.244C68.5109 106.572 68.1321 106.046 67.6349 105.668C67.1378 105.284 66.5341 105.092 65.8239 105.092C65.0947 105.092 64.4792 105.291 63.9773 105.689C63.4801 106.082 63.1013 106.615 62.8409 107.287C62.5852 107.959 62.4574 108.714 62.4574 109.553C62.4574 110.4 62.5876 111.165 62.848 111.847C63.1084 112.528 63.4872 113.071 63.9844 113.473C64.4863 113.871 65.0994 114.07 65.8239 114.07ZM166.825 115L163.53 104.091H164.865L167.45 113.089H167.543L170.121 104.091H171.463L174.02 113.068H174.119L176.705 104.091H178.04L174.744 115H173.438L170.852 106.058H170.717L168.132 115H166.825ZM180.511 115V104.091H181.783V115H180.511ZM181.158 102.216C180.897 102.216 180.675 102.128 180.49 101.953C180.305 101.773 180.213 101.558 180.213 101.307C180.213 101.056 180.305 100.843 180.49 100.668C180.675 100.488 180.897 100.398 181.158 100.398C181.418 100.398 181.641 100.488 181.825 100.668C182.01 100.843 182.102 101.056 182.102 101.307C182.102 101.558 182.01 101.773 181.825 101.953C181.641 102.128 181.418 102.216 181.158 102.216ZM189.423 104.091V105.192H184.217V104.091H189.423ZM185.843 101.477H187.115V112.152C187.115 112.607 187.193 112.964 187.349 113.224C187.505 113.48 187.709 113.662 187.96 113.771C188.211 113.875 188.478 113.928 188.762 113.928C188.928 113.928 189.07 113.918 189.189 113.899C189.307 113.875 189.411 113.852 189.501 113.828L189.771 114.972C189.648 115.019 189.496 115.062 189.316 115.099C189.136 115.142 188.914 115.163 188.649 115.163C188.185 115.163 187.737 115.062 187.306 114.858C186.88 114.654 186.53 114.351 186.255 113.949C185.981 113.546 185.843 113.047 185.843 112.45V101.477ZM193.793 108.182V115H192.528V100.455H193.793V105.803H193.906C194.162 105.239 194.557 104.789 195.092 104.453C195.632 104.117 196.314 103.949 197.138 103.949C197.876 103.949 198.525 104.1 199.084 104.403C199.643 104.706 200.078 105.154 200.391 105.746C200.703 106.338 200.859 107.067 200.859 107.933V115H199.588V108.011C199.588 107.112 199.337 106.404 198.835 105.888C198.338 105.367 197.666 105.107 196.818 105.107C196.236 105.107 195.717 105.23 195.263 105.476C194.808 105.722 194.448 106.077 194.183 106.541C193.923 107 193.793 107.547 193.793 108.182ZM257.541 115.114C257.19 115.114 256.89 114.988 256.639 114.737C256.388 114.486 256.262 114.186 256.262 113.835C256.262 113.485 256.388 113.184 256.639 112.933C256.89 112.682 257.19 112.557 257.541 112.557C257.891 112.557 258.192 112.682 258.443 112.933C258.694 113.184 258.819 113.485 258.819 113.835C258.819 114.067 258.76 114.28 258.642 114.474C258.528 114.669 258.374 114.825 258.18 114.943C257.991 115.057 257.778 115.114 257.541 115.114Z" fill="#888888"/>
    <path d="M84.1193 115.213C83.0256 115.213 82.081 114.986 81.2855 114.531C80.4948 114.072 79.8864 113.423 79.4602 112.585C79.0341 111.742 78.821 110.75 78.821 109.609C78.821 108.487 79.0341 107.502 79.4602 106.655C79.8911 105.803 80.4924 105.14 81.2642 104.666C82.036 104.188 82.9427 103.949 83.9844 103.949C84.6567 103.949 85.2912 104.058 85.8878 104.276C86.4891 104.489 87.0194 104.82 87.4787 105.27C87.9427 105.72 88.3073 106.293 88.5724 106.989C88.8376 107.68 88.9702 108.504 88.9702 109.46V110.249H80.0284V108.516H86.5057C86.5009 108.023 86.3944 107.585 86.1861 107.202C85.9777 106.813 85.6866 106.508 85.3125 106.286C84.9432 106.063 84.5123 105.952 84.0199 105.952C83.4943 105.952 83.0327 106.08 82.6349 106.335C82.2372 106.586 81.9271 106.918 81.7045 107.33C81.4867 107.737 81.3755 108.184 81.3707 108.672V110.185C81.3707 110.819 81.4867 111.364 81.7188 111.818C81.9508 112.268 82.2751 112.614 82.6918 112.855C83.1084 113.092 83.5961 113.21 84.1548 113.21C84.5289 113.21 84.8674 113.158 85.1705 113.054C85.4735 112.945 85.7363 112.786 85.9588 112.578C86.1813 112.37 86.3494 112.112 86.4631 111.804L88.8636 112.074C88.7121 112.708 88.4233 113.262 87.9972 113.736C87.5758 114.205 87.036 114.569 86.3778 114.83C85.7197 115.085 84.9669 115.213 84.1193 115.213ZM91.1452 115V104.091H93.6026V105.945H93.7305C93.9577 105.32 94.3342 104.832 94.8597 104.482C95.3853 104.126 96.0127 103.949 96.7418 103.949C97.4805 103.949 98.1031 104.129 98.6097 104.489C99.1211 104.844 99.4809 105.329 99.6893 105.945H99.8029C100.044 105.339 100.452 104.856 101.025 104.496C101.602 104.131 102.286 103.949 103.077 103.949C104.081 103.949 104.9 104.266 105.534 104.901C106.169 105.535 106.486 106.461 106.486 107.678V115H103.908V108.075C103.908 107.398 103.728 106.903 103.368 106.591C103.008 106.274 102.568 106.115 102.047 106.115C101.427 106.115 100.942 106.309 100.591 106.697C100.246 107.081 100.073 107.58 100.073 108.196V115H97.5515V107.969C97.5515 107.405 97.381 106.955 97.0401 106.619C96.704 106.283 96.2636 106.115 95.7191 106.115C95.3498 106.115 95.0136 106.21 94.7106 106.399C94.4076 106.584 94.1661 106.847 93.9862 107.188C93.8062 107.524 93.7163 107.917 93.7163 108.366V115H91.1452ZM113.853 115.213C112.788 115.213 111.864 114.979 111.083 114.51C110.302 114.041 109.696 113.385 109.265 112.543C108.839 111.7 108.626 110.715 108.626 109.588C108.626 108.461 108.839 107.474 109.265 106.626C109.696 105.779 110.302 105.121 111.083 104.652C111.864 104.183 112.788 103.949 113.853 103.949C114.918 103.949 115.842 104.183 116.623 104.652C117.404 105.121 118.008 105.779 118.434 106.626C118.865 107.474 119.08 108.461 119.08 109.588C119.08 110.715 118.865 111.7 118.434 112.543C118.008 113.385 117.404 114.041 116.623 114.51C115.842 114.979 114.918 115.213 113.853 115.213ZM113.867 113.153C114.445 113.153 114.928 112.995 115.316 112.678C115.704 112.356 115.993 111.925 116.183 111.385C116.377 110.845 116.474 110.244 116.474 109.581C116.474 108.913 116.377 108.31 116.183 107.77C115.993 107.225 115.704 106.792 115.316 106.47C114.928 106.148 114.445 105.987 113.867 105.987C113.275 105.987 112.783 106.148 112.39 106.47C112.002 106.792 111.71 107.225 111.516 107.77C111.327 108.31 111.232 108.913 111.232 109.581C111.232 110.244 111.327 110.845 111.516 111.385C111.71 111.925 112.002 112.356 112.39 112.678C112.783 112.995 113.275 113.153 113.867 113.153ZM126.71 104.091V106.08H120.439V104.091H126.71ZM121.987 101.477H124.558V111.719C124.558 112.064 124.61 112.33 124.714 112.514C124.823 112.694 124.965 112.817 125.14 112.884C125.315 112.95 125.51 112.983 125.723 112.983C125.884 112.983 126.03 112.971 126.163 112.947C126.3 112.924 126.404 112.902 126.475 112.884L126.909 114.893C126.771 114.941 126.575 114.993 126.319 115.05C126.068 115.107 125.761 115.14 125.396 115.149C124.752 115.168 124.172 115.071 123.656 114.858C123.14 114.64 122.73 114.304 122.427 113.849C122.129 113.395 121.982 112.827 121.987 112.145V101.477ZM128.86 115V104.091H131.431V115H128.86ZM130.153 102.543C129.746 102.543 129.395 102.408 129.102 102.138C128.808 101.863 128.661 101.534 128.661 101.151C128.661 100.762 128.808 100.433 129.102 100.163C129.395 99.8887 129.746 99.7514 130.153 99.7514C130.565 99.7514 130.915 99.8887 131.204 100.163C131.497 100.433 131.644 100.762 131.644 101.151C131.644 101.534 131.497 101.863 131.204 102.138C130.915 102.408 130.565 102.543 130.153 102.543ZM138.833 115.213C137.768 115.213 136.845 114.979 136.064 114.51C135.282 114.041 134.676 113.385 134.245 112.543C133.819 111.7 133.606 110.715 133.606 109.588C133.606 108.461 133.819 107.474 134.245 106.626C134.676 105.779 135.282 105.121 136.064 104.652C136.845 104.183 137.768 103.949 138.833 103.949C139.899 103.949 140.822 104.183 141.603 104.652C142.385 105.121 142.988 105.779 143.414 106.626C143.845 107.474 144.061 108.461 144.061 109.588C144.061 110.715 143.845 111.7 143.414 112.543C142.988 113.385 142.385 114.041 141.603 114.51C140.822 114.979 139.899 115.213 138.833 115.213ZM138.848 113.153C139.425 113.153 139.908 112.995 140.297 112.678C140.685 112.356 140.974 111.925 141.163 111.385C141.357 110.845 141.454 110.244 141.454 109.581C141.454 108.913 141.357 108.31 141.163 107.77C140.974 107.225 140.685 106.792 140.297 106.47C139.908 106.148 139.425 105.987 138.848 105.987C138.256 105.987 137.763 106.148 137.37 106.47C136.982 106.792 136.691 107.225 136.497 107.77C136.307 108.31 136.213 108.913 136.213 109.581C136.213 110.244 136.307 110.845 136.497 111.385C136.691 111.925 136.982 112.356 137.37 112.678C137.763 112.995 138.256 113.153 138.848 113.153ZM148.814 108.608V115H146.243V104.091H148.7V105.945H148.828C149.079 105.334 149.479 104.848 150.028 104.489C150.582 104.129 151.267 103.949 152.081 103.949C152.834 103.949 153.49 104.11 154.048 104.432C154.612 104.754 155.047 105.22 155.355 105.831C155.668 106.442 155.821 107.183 155.817 108.054V115H153.246V108.452C153.246 107.723 153.056 107.152 152.678 106.74C152.304 106.328 151.785 106.122 151.122 106.122C150.672 106.122 150.272 106.222 149.922 106.42C149.576 106.615 149.304 106.896 149.105 107.266C148.911 107.635 148.814 108.082 148.814 108.608ZM212.037 100.455V115H209.466V100.455H212.037ZM219.439 115.213C218.374 115.213 217.45 114.979 216.669 114.51C215.888 114.041 215.282 113.385 214.851 112.543C214.425 111.7 214.212 110.715 214.212 109.588C214.212 108.461 214.425 107.474 214.851 106.626C215.282 105.779 215.888 105.121 216.669 104.652C217.45 104.183 218.374 103.949 219.439 103.949C220.504 103.949 221.428 104.183 222.209 104.652C222.99 105.121 223.594 105.779 224.02 106.626C224.451 107.474 224.666 108.461 224.666 109.588C224.666 110.715 224.451 111.7 224.02 112.543C223.594 113.385 222.99 114.041 222.209 114.51C221.428 114.979 220.504 115.213 219.439 115.213ZM219.453 113.153C220.031 113.153 220.514 112.995 220.902 112.678C221.29 112.356 221.579 111.925 221.768 111.385C221.963 110.845 222.06 110.244 222.06 109.581C222.06 108.913 221.963 108.31 221.768 107.77C221.579 107.225 221.29 106.792 220.902 106.47C220.514 106.148 220.031 105.987 219.453 105.987C218.861 105.987 218.369 106.148 217.976 106.47C217.588 106.792 217.296 107.225 217.102 107.77C216.913 108.31 216.818 108.913 216.818 109.581C216.818 110.244 216.913 110.845 217.102 111.385C217.296 111.925 217.588 112.356 217.976 112.678C218.369 112.995 218.861 113.153 219.453 113.153ZM231.593 119.318C230.669 119.318 229.876 119.193 229.213 118.942C228.551 118.696 228.018 118.364 227.615 117.947C227.213 117.531 226.934 117.069 226.777 116.562L229.093 116.001C229.197 116.214 229.348 116.425 229.547 116.634C229.746 116.847 230.014 117.022 230.35 117.159C230.691 117.301 231.119 117.372 231.635 117.372C232.364 117.372 232.968 117.195 233.446 116.839C233.925 116.489 234.164 115.911 234.164 115.107V113.04H234.036C233.903 113.305 233.709 113.577 233.453 113.857C233.203 114.136 232.869 114.37 232.452 114.56C232.04 114.749 231.522 114.844 230.897 114.844C230.059 114.844 229.299 114.647 228.617 114.254C227.94 113.857 227.4 113.265 226.998 112.479C226.6 111.688 226.401 110.698 226.401 109.51C226.401 108.312 226.6 107.301 226.998 106.477C227.4 105.649 227.942 105.021 228.624 104.595C229.306 104.164 230.066 103.949 230.904 103.949C231.543 103.949 232.069 104.058 232.48 104.276C232.897 104.489 233.229 104.747 233.475 105.05C233.721 105.348 233.908 105.63 234.036 105.895H234.178V104.091H236.713V115.178C236.713 116.11 236.491 116.882 236.046 117.493C235.601 118.104 234.992 118.561 234.221 118.864C233.449 119.167 232.573 119.318 231.593 119.318ZM231.614 112.827C232.158 112.827 232.623 112.694 233.006 112.429C233.39 112.164 233.681 111.783 233.88 111.286C234.078 110.788 234.178 110.192 234.178 109.496C234.178 108.809 234.078 108.208 233.88 107.692C233.685 107.176 233.397 106.776 233.013 106.491C232.634 106.203 232.168 106.058 231.614 106.058C231.041 106.058 230.563 106.207 230.179 106.506C229.796 106.804 229.507 107.214 229.313 107.734C229.119 108.25 229.022 108.838 229.022 109.496C229.022 110.163 229.119 110.748 229.313 111.25C229.512 111.747 229.803 112.135 230.186 112.415C230.575 112.689 231.051 112.827 231.614 112.827ZM239.348 115V104.091H241.919V115H239.348ZM240.641 102.543C240.234 102.543 239.883 102.408 239.59 102.138C239.296 101.863 239.15 101.534 239.15 101.151C239.15 100.762 239.296 100.433 239.59 100.163C239.883 99.8887 240.234 99.7514 240.641 99.7514C241.053 99.7514 241.403 99.8887 241.692 100.163C241.986 100.433 242.132 100.762 242.132 101.151C242.132 101.534 241.986 101.863 241.692 102.138C241.403 102.408 241.053 102.543 240.641 102.543ZM249.322 115.213C248.233 115.213 247.298 114.974 246.516 114.496C245.74 114.018 245.141 113.357 244.719 112.514C244.303 111.667 244.094 110.691 244.094 109.588C244.094 108.48 244.308 107.502 244.734 106.655C245.16 105.803 245.761 105.14 246.538 104.666C247.319 104.188 248.242 103.949 249.308 103.949C250.193 103.949 250.977 104.112 251.658 104.439C252.345 104.761 252.892 105.218 253.299 105.81C253.706 106.397 253.938 107.083 253.995 107.869H251.538C251.438 107.344 251.201 106.906 250.827 106.555C250.458 106.2 249.963 106.023 249.343 106.023C248.817 106.023 248.356 106.165 247.958 106.449C247.56 106.728 247.25 107.131 247.028 107.656C246.81 108.182 246.701 108.812 246.701 109.545C246.701 110.289 246.81 110.928 247.028 111.463C247.246 111.993 247.551 112.403 247.944 112.692C248.342 112.976 248.808 113.118 249.343 113.118C249.722 113.118 250.06 113.047 250.359 112.905C250.662 112.758 250.915 112.547 251.119 112.273C251.322 111.998 251.462 111.664 251.538 111.271H253.995C253.933 112.043 253.706 112.727 253.313 113.324C252.92 113.916 252.385 114.38 251.708 114.716C251.031 115.047 250.236 115.213 249.322 115.213Z" fill="#FAFAFA"/>
    <defs>
        <linearGradient id="paint0_linear_18_1040" x1="567.528" y1="-73.6515" x2="-88.7726" y2="60.1283" gradientUnits="userSpaceOnUse">
            <stop stop-color="#333333" stop-opacity="0"/>
            <stop offset="0.648819" stop-color="#666666"/>
        </linearGradient>
    </defs>
</svg>
