<svg width="472" height="48" viewBox="0 0 472 48" fill="none" xmlns="http://www.w3.org/2000/svg">
<rect x="0.5" y="0.5" width="471" height="47" rx="23.5" stroke="url(#paint0_linear_18_1016)"/>
<g clip-path="url(#clip0_18_1016)">
<path d="M23.7133 6.72007H23.8473C27.0757 6.72007 30.0969 7.60279 32.6845 9.13927L32.6053 9.09463C35.2996 10.67 37.4812 12.8516 39.0119 15.4623L39.0565 15.5458C40.5541 18.0932 41.4383 21.1561 41.4383 24.4249C41.4383 32.2095 36.4228 38.8249 29.4474 41.2124L29.3221 41.2498C29.2314 41.2786 29.1277 41.2945 29.0212 41.2945C28.7879 41.2945 28.5719 41.2167 28.3977 41.0871L28.4005 41.0885C28.2162 40.9229 28.101 40.6839 28.101 40.4175C28.101 40.4103 28.101 40.4031 28.101 40.3973V40.3988C28.101 40.3527 28.1049 39.7642 28.1125 38.6333C28.1202 37.5025 28.1241 36.4685 28.1241 35.5316C28.1341 35.4236 28.1399 35.2997 28.1399 35.173C28.1399 34.0325 27.6748 33.0015 26.9245 32.257C27.8145 32.1692 28.618 32.0223 29.3985 31.8178L29.289 31.8423C30.1141 31.6119 30.8341 31.3052 31.5023 30.9178L31.4577 30.9423C32.1892 30.5391 32.8084 30.0265 33.3181 29.4188L33.3268 29.4087C33.8625 28.7233 34.2815 27.9169 34.5364 27.0399L34.5493 26.9895C34.8503 26.006 35.0231 24.8756 35.0231 23.7049C35.0231 23.6401 35.0231 23.5738 35.0217 23.509V23.5191C35.0217 23.4874 35.0231 23.4514 35.0231 23.4154C35.0231 21.6183 34.329 19.9839 33.1957 18.7642L33.2001 18.7685C33.442 18.1349 33.5817 17.4034 33.5817 16.6388C33.5817 15.7042 33.3729 14.8201 32.9999 14.0266L33.0157 14.0641C32.8501 14.0324 32.6615 14.0137 32.4671 14.0137C31.9861 14.0137 31.5325 14.126 31.1293 14.3247L31.1466 14.3175C30.3287 14.6199 29.6289 14.9626 28.9693 15.3629L29.0241 15.3313L28.1471 15.8842C26.8194 15.5041 25.2945 15.2852 23.7191 15.2852C22.1437 15.2852 20.6188 15.5041 19.173 15.913L19.2897 15.8842C19.0439 15.7153 18.717 15.5074 18.309 15.2607C17.7719 14.9525 17.1369 14.6545 16.4773 14.4039L16.3823 14.3722C15.9604 14.1505 15.4607 14.0209 14.9293 14.0209C14.7508 14.0209 14.5751 14.0353 14.4052 14.0641L14.4239 14.0612C14.0668 14.8157 13.858 15.7013 13.858 16.6359C13.858 17.4005 13.9977 18.1335 14.254 18.8089L14.2396 18.7671C13.1092 19.9825 12.4165 21.6169 12.4165 23.414C12.4165 23.45 12.4165 23.4874 12.418 23.5234V23.5177C12.4165 23.5738 12.4165 23.6386 12.4165 23.7049C12.4165 24.8698 12.5893 25.9959 12.9119 27.0557L12.8903 26.9737C13.1625 27.8996 13.5757 28.7045 14.1143 29.4116L14.1013 29.3929C14.6111 30.0193 15.2274 30.5348 15.9258 30.9221L15.9575 30.938C16.5796 31.3009 17.301 31.6076 18.0599 31.8221L18.1261 31.838C18.7972 32.018 19.6007 32.1649 20.4229 32.2469L20.4892 32.2527C19.8685 32.869 19.4553 33.6927 19.3602 34.6114L19.3588 34.6287C19.0607 34.7741 18.7137 34.8922 18.3522 34.9685L18.322 34.9743C17.9533 35.0477 17.5314 35.0895 17.098 35.0895C17.0663 35.0895 17.0346 35.0895 17.0029 35.0895H17.0073C16.4399 35.078 15.9186 34.8937 15.4881 34.5884L15.4967 34.5941C14.9625 34.2212 14.5305 33.7373 14.2281 33.1743L14.218 33.1527C13.9329 32.6689 13.557 32.2685 13.1121 31.9618L13.0991 31.9532C12.7751 31.7098 12.3935 31.5197 11.9817 31.406L11.9586 31.4002L11.4978 31.3311C11.4647 31.3282 11.4258 31.3268 11.3869 31.3268C11.1853 31.3268 10.9938 31.3671 10.8196 31.4377L10.8297 31.4333C10.7068 31.5025 10.6684 31.5908 10.7145 31.6983C10.7706 31.8221 10.8397 31.9287 10.9233 32.0223L10.9218 32.0209C11.0097 32.1245 11.109 32.2153 11.217 32.2945L11.2213 32.2973L11.3826 32.4125C11.7901 32.6257 12.1257 32.9223 12.3805 33.2809L12.3863 33.2895C12.6613 33.6308 12.9033 34.0167 13.0977 34.43L13.1121 34.4645L13.3425 34.9945C13.5369 35.5733 13.8897 36.0572 14.3505 36.4071L14.3577 36.4129C14.7897 36.7498 15.3109 36.9917 15.8797 37.1012L15.9028 37.1041C16.378 37.1962 16.9309 37.2538 17.4954 37.2653H17.5055C17.5703 37.2682 17.6452 37.2682 17.7215 37.2682C18.0973 37.2682 18.466 37.238 18.826 37.1789L18.7871 37.1847L19.317 37.0925C19.317 37.6772 19.3209 38.3578 19.3285 39.1345C19.3362 39.9111 19.3401 40.3301 19.3401 40.3916V40.4117C19.3401 40.6781 19.2249 40.9172 19.0405 41.0828C18.8692 41.2109 18.6532 41.2887 18.4185 41.2887C18.3105 41.2887 18.2068 41.2729 18.1103 41.2426L18.1175 41.2441C11.0197 38.8119 6.00854 32.1965 6.00854 24.4105C6.00854 21.1445 6.88982 18.0845 8.42918 15.4551L8.3831 15.5386C9.95846 12.8444 12.1401 10.6628 14.7508 9.13207L14.8343 9.08743C17.3385 7.59847 20.3567 6.71863 23.5794 6.71863H23.7205H23.7133V6.72007ZM12.7117 32.1591C12.7578 32.0516 12.7041 31.9594 12.5505 31.8826C12.3969 31.8365 12.297 31.8519 12.2509 31.9287C12.2049 32.0362 12.2586 32.1284 12.4122 32.2052C12.5505 32.2973 12.6503 32.282 12.7117 32.1591ZM13.4274 32.9439C13.5349 32.8671 13.5196 32.7442 13.3813 32.5753C13.2277 32.437 13.1049 32.414 13.0127 32.5061C12.9052 32.5829 12.9205 32.7058 13.0588 32.8748C13.2114 33.0255 13.3343 33.0481 13.4274 32.9425V32.9439ZM14.1186 33.9807C14.2569 33.8732 14.2569 33.7273 14.1186 33.5429C13.9957 33.3433 13.8652 33.2972 13.7269 33.4047C13.5887 33.4815 13.5887 33.6197 13.7269 33.8194C13.8652 34.0191 13.9957 34.0729 14.1186 33.9807ZM15.0863 34.9498C15.2092 34.8269 15.1785 34.681 14.9941 34.5121C14.8098 34.3277 14.6562 34.3047 14.5333 34.4429C14.3951 34.5658 14.4258 34.7117 14.6255 34.8807C14.8098 35.065 14.9634 35.0861 15.0863 34.9441V34.9498ZM16.401 35.5258C16.4471 35.3569 16.3473 35.234 16.1015 35.1572C15.8711 35.0957 15.7252 35.1495 15.6637 35.3185C15.6023 35.4874 15.7021 35.6026 15.9633 35.6641C16.1937 35.7572 16.3396 35.7111 16.401 35.5258ZM17.854 35.641C17.854 35.4413 17.7234 35.3569 17.4623 35.3876C17.2165 35.3876 17.0937 35.4721 17.0937 35.641C17.0937 35.8407 17.2242 35.9252 17.4853 35.8945C17.7311 35.8954 17.854 35.81 17.854 35.641ZM19.1917 35.4106C19.161 35.2417 19.0228 35.1725 18.777 35.2033C18.5313 35.2493 18.4237 35.3645 18.4545 35.5489C18.4852 35.7332 18.6234 35.7946 18.8692 35.7332C19.1149 35.6717 19.2215 35.5642 19.1917 35.4106Z" fill="white"/>
</g>
<path d="M61.1534 21.5398C61.0436 21.1951 60.8958 20.8864 60.7102 20.6136C60.5284 20.3371 60.3106 20.1023 60.0568 19.9091C59.803 19.7121 59.5133 19.5625 59.1875 19.4602C58.8655 19.358 58.5114 19.3068 58.125 19.3068C57.4697 19.3068 56.8788 19.4754 56.3523 19.8125C55.8258 20.1496 55.4091 20.6439 55.1023 21.2955C54.7992 21.9432 54.6477 22.7367 54.6477 23.6761C54.6477 24.6193 54.8011 25.4167 55.108 26.0682C55.4148 26.7197 55.8352 27.214 56.3693 27.5511C56.9034 27.8883 57.5114 28.0568 58.1932 28.0568C58.8258 28.0568 59.3769 27.928 59.8466 27.6705C60.3201 27.4129 60.6856 27.0492 60.9432 26.5795C61.2045 26.1061 61.3352 25.5492 61.3352 24.9091L61.7898 24.9943H58.4602V23.5455H63.0341V24.8693C63.0341 25.8466 62.8258 26.6951 62.4091 27.4148C61.9962 28.1307 61.4242 28.6837 60.6932 29.0739C59.9659 29.464 59.1326 29.6591 58.1932 29.6591C57.1402 29.6591 56.2159 29.4167 55.4205 28.9318C54.6288 28.447 54.0114 27.7595 53.5682 26.8693C53.125 25.9754 52.9034 24.9148 52.9034 23.6875C52.9034 22.7595 53.0322 21.9261 53.2898 21.1875C53.5473 20.4489 53.9091 19.822 54.375 19.3068C54.8447 18.7879 55.3958 18.392 56.0284 18.1193C56.6648 17.8428 57.3598 17.7045 58.1136 17.7045C58.7424 17.7045 59.3277 17.7973 59.8693 17.983C60.4148 18.1686 60.8996 18.4318 61.3239 18.7727C61.7519 19.1136 62.1061 19.5189 62.3864 19.9886C62.6667 20.4545 62.8561 20.9716 62.9545 21.5398H61.1534ZM65.6733 29.5V20.7727H67.3722V29.5H65.6733ZM66.5312 19.4261C66.2358 19.4261 65.982 19.3277 65.7699 19.1307C65.5616 18.9299 65.4574 18.6913 65.4574 18.4148C65.4574 18.1345 65.5616 17.8958 65.7699 17.6989C65.982 17.4981 66.2358 17.3977 66.5312 17.3977C66.8267 17.3977 67.0786 17.4981 67.2869 17.6989C67.4991 17.8958 67.6051 18.1345 67.6051 18.4148C67.6051 18.6913 67.4991 18.9299 67.2869 19.1307C67.0786 19.3277 66.8267 19.4261 66.5312 19.4261ZM73.7315 20.7727V22.1364H68.9645V20.7727H73.7315ZM70.2429 18.6818H71.9418V26.9375C71.9418 27.267 71.991 27.5152 72.0895 27.6818C72.188 27.8447 72.3149 27.9564 72.4702 28.017C72.6293 28.0739 72.8016 28.1023 72.9872 28.1023C73.1236 28.1023 73.2429 28.0928 73.3452 28.0739C73.4474 28.0549 73.527 28.0398 73.5838 28.0284L73.8906 29.4318C73.7921 29.4697 73.652 29.5076 73.4702 29.5455C73.2884 29.5871 73.0611 29.6098 72.7884 29.6136C72.3414 29.6212 71.9247 29.5417 71.5384 29.375C71.152 29.2083 70.8395 28.9508 70.6009 28.6023C70.3622 28.2538 70.2429 27.8163 70.2429 27.2898V18.6818ZM75.9347 29.5V17.8636H77.6903V22.9205H83.4915V17.8636H85.2528V29.5H83.4915V24.4261H77.6903V29.5H75.9347ZM93.2017 25.8807V20.7727H94.9062V29.5H93.2358V27.9886H93.1449C92.9441 28.4545 92.6222 28.8428 92.179 29.1534C91.7396 29.4602 91.1922 29.6136 90.5369 29.6136C89.9763 29.6136 89.4801 29.4905 89.0483 29.2443C88.6203 28.9943 88.2831 28.625 88.0369 28.1364C87.7945 27.6477 87.6733 27.0436 87.6733 26.3239V20.7727H89.3722V26.1193C89.3722 26.714 89.5369 27.1875 89.8665 27.5398C90.196 27.892 90.6241 28.0682 91.1506 28.0682C91.4688 28.0682 91.785 27.9886 92.0994 27.8295C92.4176 27.6705 92.6809 27.4299 92.8892 27.108C93.1013 26.786 93.2055 26.3769 93.2017 25.8807ZM97.3253 29.5V17.8636H99.0241V22.1875H99.1264C99.2249 22.0057 99.367 21.7955 99.5526 21.5568C99.7382 21.3182 99.9957 21.1098 100.325 20.9318C100.655 20.75 101.09 20.6591 101.632 20.6591C102.337 20.6591 102.965 20.8371 103.518 21.1932C104.071 21.5492 104.505 22.0625 104.82 22.733C105.138 23.4034 105.297 24.2102 105.297 25.1534C105.297 26.0966 105.14 26.9053 104.825 27.5795C104.511 28.25 104.079 28.767 103.53 29.1307C102.981 29.4905 102.354 29.6705 101.649 29.6705C101.119 29.6705 100.685 29.5814 100.348 29.4034C100.015 29.2254 99.7533 29.017 99.5639 28.7784C99.3745 28.5398 99.2287 28.3277 99.1264 28.142H98.9844V29.5H97.3253ZM98.9901 25.1364C98.9901 25.75 99.0791 26.2879 99.2571 26.75C99.4351 27.2121 99.6927 27.5739 100.03 27.8352C100.367 28.0928 100.78 28.2216 101.268 28.2216C101.776 28.2216 102.2 28.0871 102.541 27.8182C102.882 27.5455 103.14 27.1761 103.314 26.7102C103.492 26.2443 103.581 25.7197 103.581 25.1364C103.581 24.5606 103.494 24.0436 103.32 23.5852C103.149 23.1269 102.892 22.7652 102.547 22.5C102.206 22.2348 101.78 22.1023 101.268 22.1023C100.776 22.1023 100.359 22.2292 100.018 22.483C99.6813 22.7367 99.4257 23.0909 99.2514 23.5455C99.0772 24 98.9901 24.5303 98.9901 25.1364Z" fill="#FAFAFA"/>
<path d="M393.006 19.3636L390.193 29.8125H389.273L392.085 19.3636H393.006ZM398.834 23.4205L397.931 23.6761C397.874 23.5256 397.79 23.3793 397.679 23.2372C397.571 23.0923 397.424 22.973 397.236 22.8793C397.049 22.7855 396.809 22.7386 396.516 22.7386C396.115 22.7386 395.782 22.831 395.515 23.0156C395.25 23.1974 395.118 23.429 395.118 23.7102C395.118 23.9602 395.209 24.1577 395.391 24.3026C395.573 24.4474 395.857 24.5682 396.243 24.6648L397.215 24.9034C397.8 25.0455 398.236 25.2628 398.523 25.5554C398.81 25.8452 398.953 26.2187 398.953 26.6761C398.953 27.0511 398.846 27.3864 398.63 27.6818C398.417 27.9773 398.118 28.2102 397.735 28.3807C397.351 28.5511 396.905 28.6364 396.397 28.6364C395.729 28.6364 395.176 28.4915 394.739 28.2017C394.301 27.9119 394.025 27.4886 393.908 26.9318L394.863 26.6932C394.953 27.0455 395.125 27.3097 395.378 27.4858C395.634 27.6619 395.968 27.75 396.38 27.75C396.848 27.75 397.221 27.6506 397.496 27.4517C397.775 27.25 397.914 27.0085 397.914 26.7273C397.914 26.5 397.834 26.3097 397.675 26.1562C397.516 26 397.272 25.8835 396.942 25.8068L395.851 25.5511C395.252 25.4091 394.811 25.1889 394.53 24.8906C394.252 24.5895 394.113 24.2131 394.113 23.7614C394.113 23.392 394.216 23.0653 394.424 22.7812C394.634 22.4972 394.919 22.2741 395.28 22.1122C395.644 21.9503 396.056 21.8693 396.516 21.8693C397.164 21.8693 397.672 22.0114 398.042 22.2955C398.414 22.5795 398.678 22.9545 398.834 23.4205ZM402.393 28.6534C401.979 28.6534 401.602 28.5753 401.264 28.419C400.926 28.2599 400.658 28.0312 400.459 27.733C400.26 27.4318 400.161 27.0682 400.161 26.642C400.161 26.267 400.234 25.9631 400.382 25.7301C400.53 25.4943 400.727 25.3097 400.974 25.1761C401.222 25.0426 401.494 24.9432 401.793 24.8778C402.094 24.8097 402.396 24.7557 402.7 24.7159C403.098 24.6648 403.42 24.6264 403.668 24.6009C403.918 24.5724 404.099 24.5256 404.213 24.4602C404.33 24.3949 404.388 24.2812 404.388 24.1193V24.0852C404.388 23.6648 404.273 23.3381 404.043 23.1051C403.815 22.8722 403.47 22.7557 403.007 22.7557C402.527 22.7557 402.151 22.8608 401.878 23.071C401.605 23.2812 401.413 23.5057 401.303 23.7443L400.348 23.4034C400.518 23.0057 400.746 22.696 401.03 22.4744C401.317 22.25 401.629 22.0937 401.967 22.0057C402.308 21.9148 402.643 21.8693 402.973 21.8693C403.183 21.8693 403.425 21.8949 403.697 21.946C403.973 21.9943 404.239 22.0952 404.494 22.2486C404.753 22.402 404.967 22.6335 405.138 22.9432C405.308 23.2528 405.393 23.6676 405.393 24.1875V28.5H404.388V27.6136H404.337C404.268 27.7557 404.155 27.9077 403.996 28.0696C403.837 28.2315 403.625 28.3693 403.361 28.483C403.097 28.5966 402.774 28.6534 402.393 28.6534ZM402.547 27.75C402.945 27.75 403.28 27.6719 403.553 27.5156C403.828 27.3594 404.036 27.1577 404.175 26.9105C404.317 26.6634 404.388 26.4034 404.388 26.1307V25.2102C404.345 25.2614 404.251 25.3082 404.107 25.3509C403.964 25.3906 403.8 25.4261 403.612 25.4574C403.428 25.4858 403.247 25.5114 403.071 25.5341C402.898 25.554 402.757 25.571 402.649 25.5852C402.388 25.6193 402.143 25.6747 401.916 25.7514C401.692 25.8253 401.51 25.9375 401.371 26.0881C401.234 26.2358 401.166 26.4375 401.166 26.6932C401.166 27.0426 401.295 27.3068 401.554 27.4858C401.815 27.6619 402.146 27.75 402.547 27.75ZM407.365 28.5V19.7727H408.371V22.9943H408.456C408.53 22.8807 408.632 22.7358 408.763 22.5597C408.897 22.3807 409.087 22.2216 409.334 22.0824C409.584 21.9403 409.922 21.8693 410.348 21.8693C410.9 21.8693 411.385 22.0071 411.806 22.2827C412.226 22.5582 412.554 22.9489 412.79 23.4545C413.026 23.9602 413.144 24.5568 413.144 25.2443C413.144 25.9375 413.026 26.5384 412.79 27.0469C412.554 27.5526 412.228 27.9446 411.81 28.223C411.392 28.4986 410.911 28.6364 410.365 28.6364C409.945 28.6364 409.608 28.5668 409.355 28.4276C409.103 28.2855 408.908 28.125 408.772 27.946C408.635 27.7642 408.53 27.6136 408.456 27.4943H408.337V28.5H407.365ZM408.354 25.2273C408.354 25.7216 408.426 26.1577 408.571 26.5355C408.716 26.9105 408.928 27.2045 409.206 27.4176C409.485 27.6278 409.826 27.733 410.229 27.733C410.65 27.733 411 27.6222 411.282 27.4006C411.566 27.1761 411.779 26.875 411.921 26.4972C412.066 26.1165 412.138 25.6932 412.138 25.2273C412.138 24.767 412.067 24.3523 411.925 23.983C411.786 23.6108 411.574 23.3168 411.29 23.1009C411.009 22.8821 410.655 22.7727 410.229 22.7727C409.82 22.7727 409.476 22.8764 409.198 23.0838C408.919 23.2884 408.709 23.5753 408.567 23.9446C408.425 24.3111 408.354 24.7386 408.354 25.2273ZM415.096 30.9545C414.925 30.9545 414.773 30.9403 414.64 30.9119C414.506 30.8864 414.414 30.8608 414.363 30.8352L414.618 29.9489C414.863 30.0114 415.078 30.0341 415.266 30.017C415.453 30 415.62 29.9162 415.765 29.7656C415.912 29.6179 416.047 29.3778 416.169 29.0455L416.357 28.5341L413.936 21.9545H415.027L416.834 27.1705H416.902L418.709 21.9545H419.8L417.022 29.4545C416.897 29.7926 416.742 30.0724 416.557 30.294C416.373 30.5185 416.158 30.6847 415.914 30.7926C415.672 30.9006 415.4 30.9545 415.096 30.9545ZM421.127 28.5V21.9545H422.099V22.9432H422.167C422.287 22.6193 422.502 22.3565 422.815 22.1548C423.127 21.9531 423.48 21.8523 423.872 21.8523C423.946 21.8523 424.038 21.8537 424.149 21.8565C424.26 21.8594 424.343 21.8636 424.4 21.8693V22.892C424.366 22.8835 424.288 22.8707 424.166 22.8537C424.047 22.8338 423.92 22.8239 423.787 22.8239C423.468 22.8239 423.184 22.8906 422.934 23.0241C422.687 23.1548 422.491 23.3366 422.346 23.5696C422.204 23.7997 422.133 24.0625 422.133 24.358V28.5H421.127ZM426.53 26.1136L426.513 24.8693H426.717L429.581 21.9545H430.825L427.774 25.0398H427.689L426.53 26.1136ZM425.592 28.5V19.7727H426.598V28.5H425.592ZM429.751 28.5L427.195 25.2614L427.911 24.5625L431.03 28.5H429.751ZM434.046 28.6534C433.631 28.6534 433.255 28.5753 432.917 28.419C432.578 28.2599 432.31 28.0312 432.111 27.733C431.912 27.4318 431.813 27.0682 431.813 26.642C431.813 26.267 431.887 25.9631 432.034 25.7301C432.182 25.4943 432.38 25.3097 432.627 25.1761C432.874 25.0426 433.147 24.9432 433.445 24.8778C433.746 24.8097 434.049 24.7557 434.353 24.7159C434.75 24.6648 435.073 24.6264 435.32 24.6009C435.57 24.5724 435.752 24.5256 435.865 24.4602C435.982 24.3949 436.04 24.2812 436.04 24.1193V24.0852C436.04 23.6648 435.925 23.3381 435.695 23.1051C435.468 22.8722 435.123 22.7557 434.659 22.7557C434.179 22.7557 433.803 22.8608 433.53 23.071C433.257 23.2812 433.066 23.5057 432.955 23.7443L432 23.4034C432.171 23.0057 432.398 22.696 432.682 22.4744C432.969 22.25 433.282 22.0937 433.62 22.0057C433.961 21.9148 434.296 21.8693 434.625 21.8693C434.836 21.8693 435.077 21.8949 435.35 21.946C435.625 21.9943 435.891 22.0952 436.147 22.2486C436.405 22.402 436.62 22.6335 436.79 22.9432C436.961 23.2528 437.046 23.6676 437.046 24.1875V28.5H436.04V27.6136H435.989C435.921 27.7557 435.807 27.9077 435.648 28.0696C435.489 28.2315 435.277 28.3693 435.013 28.483C434.749 28.5966 434.426 28.6534 434.046 28.6534ZM434.199 27.75C434.597 27.75 434.932 27.6719 435.205 27.5156C435.48 27.3594 435.688 27.1577 435.827 26.9105C435.969 26.6634 436.04 26.4034 436.04 26.1307V25.2102C435.998 25.2614 435.904 25.3082 435.759 25.3509C435.617 25.3906 435.452 25.4261 435.265 25.4574C435.08 25.4858 434.9 25.5114 434.723 25.5341C434.55 25.554 434.409 25.571 434.301 25.5852C434.04 25.6193 433.796 25.6747 433.569 25.7514C433.344 25.8253 433.162 25.9375 433.023 26.0881C432.887 26.2358 432.819 26.4375 432.819 26.6932C432.819 27.0426 432.948 27.3068 433.206 27.4858C433.468 27.6619 433.799 27.75 434.199 27.75ZM438.694 28.5V27.733L442.41 22.9602V22.892H438.813V21.9545H443.705V22.7557L440.092 27.4943V27.5625H443.825V28.5H438.694ZM447.93 28.6364C447.3 28.6364 446.756 28.4972 446.298 28.2188C445.844 27.9375 445.493 27.5455 445.246 27.0426C445.001 26.5369 444.879 25.9489 444.879 25.2784C444.879 24.608 445.001 24.017 445.246 23.5057C445.493 22.9915 445.837 22.5909 446.277 22.304C446.72 22.0142 447.237 21.8693 447.828 21.8693C448.169 21.8693 448.506 21.9261 448.838 22.0398C449.17 22.1534 449.473 22.3381 449.746 22.5938C450.018 22.8466 450.236 23.1818 450.398 23.5994C450.56 24.017 450.641 24.5312 450.641 25.142V25.5682H445.595V24.6989H449.618C449.618 24.3295 449.544 24 449.396 23.7102C449.251 23.4205 449.044 23.1918 448.774 23.0241C448.507 22.8565 448.192 22.7727 447.828 22.7727C447.428 22.7727 447.081 22.8722 446.788 23.071C446.499 23.267 446.276 23.5227 446.119 23.8381C445.963 24.1534 445.885 24.4915 445.885 24.8523V25.4318C445.885 25.9261 445.97 26.3452 446.141 26.6889C446.314 27.0298 446.554 27.2898 446.861 27.4688C447.168 27.6449 447.524 27.733 447.93 27.733C448.195 27.733 448.433 27.696 448.646 27.6222C448.862 27.5455 449.048 27.4318 449.205 27.2812C449.361 27.1278 449.482 26.9375 449.567 26.7102L450.538 26.983C450.436 27.3125 450.264 27.6023 450.023 27.8523C449.781 28.0994 449.483 28.2926 449.128 28.4318C448.773 28.5682 448.374 28.6364 447.93 28.6364ZM453.176 24.5625V28.5H452.17V21.9545H453.142V22.9773H453.227C453.381 22.6449 453.614 22.3778 453.926 22.1761C454.239 21.9716 454.642 21.8693 455.136 21.8693C455.58 21.8693 455.967 21.9602 456.3 22.142C456.632 22.321 456.891 22.5938 457.075 22.9602C457.26 23.3239 457.352 23.7841 457.352 24.3409V28.5H456.347V24.4091C456.347 23.8949 456.213 23.4943 455.946 23.2074C455.679 22.9176 455.313 22.7727 454.847 22.7727C454.526 22.7727 454.239 22.8423 453.986 22.9815C453.736 23.1207 453.538 23.3239 453.393 23.5909C453.249 23.858 453.176 24.1818 453.176 24.5625Z" fill="#888888"/>
<defs>
<linearGradient id="paint0_linear_18_1016" x1="761.943" y1="-34.2857" x2="706.474" y2="379.34" gradientUnits="userSpaceOnUse">
<stop offset="0.11827" stop-color="#333333" stop-opacity="0"/>
<stop offset="0.223096" stop-color="#666666"/>
</linearGradient>
<clipPath id="clip0_18_1016">
<rect width="36" height="36" fill="white" transform="translate(6 6)"/>
</clipPath>
</defs>
</svg>
