<svg width="515" height="48" viewBox="0 0 515 48" fill="none" xmlns="http://www.w3.org/2000/svg">
<rect x="0.5" y="0.5" width="514" height="47" rx="23.5" stroke="url(#paint0_linear_10_876)"/>
<g clip-path="url(#clip0_10_876)">
<path d="M23.7134 6.72007H23.8474C27.0758 6.72007 30.097 7.60279 32.6846 9.13927L32.6054 9.09463C35.2997 10.67 37.4813 12.8516 39.012 15.4623L39.0566 15.5458C40.5542 18.0932 41.4384 21.1561 41.4384 24.4249C41.4384 32.2095 36.4229 38.8249 29.4475 41.2124L29.3222 41.2498C29.2315 41.2786 29.1278 41.2945 29.0213 41.2945C28.788 41.2945 28.572 41.2167 28.3978 41.0871L28.4006 41.0886C28.2163 40.923 28.1011 40.6839 28.1011 40.4175C28.1011 40.4103 28.1011 40.4031 28.1011 40.3973V40.3988C28.1011 40.3527 28.105 39.7642 28.1126 38.6333C28.1203 37.5025 28.1242 36.4685 28.1242 35.5316C28.1342 35.4236 28.14 35.2997 28.14 35.173C28.14 34.0325 27.6749 33.0015 26.9246 32.257C27.8146 32.1692 28.6181 32.0223 29.3986 31.8178L29.2891 31.8423C30.1142 31.6119 30.8342 31.3052 31.5024 30.9178L31.4578 30.9423C32.1893 30.5391 32.8085 30.0265 33.3182 29.4188L33.3269 29.4087C33.8626 28.7233 34.2816 27.9169 34.5365 27.0399L34.5494 26.9895C34.8504 26.006 35.0232 24.8756 35.0232 23.7049C35.0232 23.6401 35.0232 23.5738 35.0218 23.509V23.5191C35.0218 23.4874 35.0232 23.4514 35.0232 23.4154C35.0232 21.6183 34.3291 19.9839 33.1958 18.7642L33.2002 18.7685C33.4421 18.1349 33.5818 17.4034 33.5818 16.6388C33.5818 15.7042 33.373 14.8201 33 14.0266L33.0158 14.0641C32.8502 14.0324 32.6616 14.0137 32.4672 14.0137C31.9862 14.0137 31.5326 14.126 31.1294 14.3247L31.1467 14.3175C30.3288 14.6199 29.629 14.9626 28.9694 15.3629L29.0242 15.3313L28.1472 15.8842C26.8195 15.5041 25.2946 15.2852 23.7192 15.2852C22.1438 15.2852 20.6189 15.5041 19.1731 15.913L19.2898 15.8842C19.044 15.7153 18.7171 15.5074 18.3091 15.2607C17.772 14.9525 17.137 14.6545 16.4774 14.4039L16.3824 14.3722C15.9605 14.1505 15.4608 14.0209 14.9294 14.0209C14.7509 14.0209 14.5752 14.0353 14.4053 14.0641L14.424 14.0612C14.0669 14.8157 13.8581 15.7013 13.8581 16.6359C13.8581 17.4005 13.9978 18.1335 14.2541 18.8089L14.2397 18.7671C13.1093 19.9825 12.4166 21.6169 12.4166 23.414C12.4166 23.45 12.4166 23.4874 12.4181 23.5234V23.5177C12.4166 23.5738 12.4166 23.6386 12.4166 23.7049C12.4166 24.8698 12.5894 25.9959 12.912 27.0557L12.8904 26.9737C13.1626 27.8996 13.5758 28.7045 14.1144 29.4116L14.1014 29.3929C14.6112 30.0193 15.2275 30.5348 15.9259 30.9221L15.9576 30.938C16.5797 31.3009 17.3011 31.6076 18.06 31.8221L18.1262 31.838C18.7973 32.018 19.6008 32.1649 20.423 32.2469L20.4893 32.2527C19.8686 32.869 19.4554 33.6927 19.3603 34.6114L19.3589 34.6287C19.0608 34.7741 18.7138 34.8922 18.3523 34.9685L18.3221 34.9743C17.9534 35.0477 17.5315 35.0895 17.0981 35.0895C17.0664 35.0895 17.0347 35.0895 17.003 35.0895H17.0074C16.44 35.078 15.9187 34.8937 15.4882 34.5884L15.4968 34.5941C14.9626 34.2212 14.5306 33.7373 14.2282 33.1743L14.2181 33.1527C13.933 32.6689 13.5571 32.2685 13.1122 31.9618L13.0992 31.9532C12.7752 31.7098 12.3936 31.5197 11.9818 31.406L11.9587 31.4002L11.4979 31.3311C11.4648 31.3282 11.4259 31.3268 11.387 31.3268C11.1854 31.3268 10.9939 31.3671 10.8197 31.4377L10.8298 31.4333C10.7069 31.5025 10.6685 31.5908 10.7146 31.6983C10.7707 31.8221 10.8398 31.9287 10.9234 32.0223L10.9219 32.0209C11.0098 32.1245 11.1091 32.2153 11.2171 32.2945L11.2214 32.2973L11.3827 32.4125C11.7902 32.6257 12.1258 32.9223 12.3806 33.2809L12.3864 33.2895C12.6614 33.6308 12.9034 34.0167 13.0978 34.43L13.1122 34.4645L13.3426 34.9945C13.537 35.5733 13.8898 36.0572 14.3506 36.4071L14.3578 36.4129C14.7898 36.7498 15.311 36.9917 15.8798 37.1012L15.9029 37.1041C16.3781 37.1962 16.931 37.2538 17.4955 37.2653H17.5056C17.5704 37.2682 17.6453 37.2682 17.7216 37.2682C18.0974 37.2682 18.4661 37.238 18.8261 37.1789L18.7872 37.1847L19.3171 37.0925C19.3171 37.6772 19.321 38.3578 19.3286 39.1345C19.3363 39.9111 19.3402 40.3301 19.3402 40.3916V40.4117C19.3402 40.6781 19.225 40.9172 19.0406 41.0828C18.8693 41.2109 18.6533 41.2887 18.4186 41.2887C18.3106 41.2887 18.2069 41.2729 18.1104 41.2426L18.1176 41.2441C11.0198 38.8119 6.00864 32.1965 6.00864 24.4105C6.00864 21.1445 6.88992 18.0845 8.42928 15.4551L8.3832 15.5386C9.95856 12.8444 12.1402 10.6628 14.7509 9.13207L14.8344 9.08743C17.3386 7.59847 20.3568 6.71863 23.5795 6.71863H23.7206H23.7134V6.72007ZM12.7118 32.1591C12.7579 32.0516 12.7042 31.9594 12.5506 31.8826C12.397 31.8365 12.2971 31.8519 12.251 31.9287C12.205 32.0362 12.2587 32.1284 12.4123 32.2052C12.5506 32.2973 12.6504 32.282 12.7118 32.1591ZM13.4275 32.9439C13.535 32.8671 13.5197 32.7442 13.3814 32.5753C13.2278 32.437 13.105 32.414 13.0128 32.5061C12.9053 32.5829 12.9206 32.7058 13.0589 32.8748C13.2115 33.0255 13.3344 33.0481 13.4275 32.9425V32.9439ZM14.1187 33.9807C14.257 33.8732 14.257 33.7273 14.1187 33.5429C13.9958 33.3433 13.8653 33.2972 13.727 33.4047C13.5888 33.4815 13.5888 33.6197 13.727 33.8194C13.8653 34.0191 13.9958 34.0729 14.1187 33.9807ZM15.0864 34.9498C15.2093 34.8269 15.1786 34.681 14.9942 34.5121C14.8099 34.3277 14.6563 34.3047 14.5334 34.4429C14.3952 34.5658 14.4259 34.7117 14.6256 34.8807C14.8099 35.065 14.9635 35.0861 15.0864 34.9441V34.9498ZM16.4011 35.5258C16.4472 35.3569 16.3474 35.234 16.1016 35.1572C15.8712 35.0957 15.7253 35.1495 15.6638 35.3185C15.6024 35.4874 15.7022 35.6026 15.9634 35.6641C16.1938 35.7572 16.3397 35.7111 16.4011 35.5258ZM17.8541 35.641C17.8541 35.4413 17.7235 35.3569 17.4624 35.3876C17.2166 35.3876 17.0938 35.4721 17.0938 35.641C17.0938 35.8407 17.2243 35.9252 17.4854 35.8945C17.7312 35.8954 17.8541 35.81 17.8541 35.641ZM19.1918 35.4106C19.1611 35.2417 19.0229 35.1726 18.7771 35.2033C18.5314 35.2493 18.4238 35.3645 18.4546 35.5489C18.4853 35.7332 18.6235 35.7946 18.8693 35.7332C19.115 35.6717 19.2216 35.5642 19.1918 35.4106Z" fill="black"/>
</g>
<path d="M61.1534 21.5398C61.0436 21.1951 60.8958 20.8864 60.7102 20.6136C60.5284 20.3371 60.3106 20.1023 60.0568 19.9091C59.803 19.7121 59.5133 19.5625 59.1875 19.4602C58.8655 19.358 58.5114 19.3068 58.125 19.3068C57.4697 19.3068 56.8788 19.4754 56.3523 19.8125C55.8258 20.1496 55.4091 20.6439 55.1023 21.2955C54.7992 21.9432 54.6477 22.7367 54.6477 23.6761C54.6477 24.6193 54.8011 25.4167 55.108 26.0682C55.4148 26.7197 55.8352 27.214 56.3693 27.5511C56.9034 27.8883 57.5114 28.0568 58.1932 28.0568C58.8258 28.0568 59.3769 27.928 59.8466 27.6705C60.3201 27.4129 60.6856 27.0492 60.9432 26.5795C61.2045 26.1061 61.3352 25.5492 61.3352 24.9091L61.7898 24.9943H58.4602V23.5455H63.0341V24.8693C63.0341 25.8466 62.8258 26.6951 62.4091 27.4148C61.9962 28.1307 61.4242 28.6837 60.6932 29.0739C59.9659 29.464 59.1326 29.6591 58.1932 29.6591C57.1402 29.6591 56.2159 29.4167 55.4205 28.9318C54.6288 28.447 54.0114 27.7595 53.5682 26.8693C53.125 25.9754 52.9034 24.9148 52.9034 23.6875C52.9034 22.7595 53.0322 21.9261 53.2898 21.1875C53.5473 20.4489 53.9091 19.822 54.375 19.3068C54.8447 18.7879 55.3958 18.392 56.0284 18.1193C56.6648 17.8428 57.3598 17.7045 58.1136 17.7045C58.7424 17.7045 59.3277 17.7973 59.8693 17.983C60.4148 18.1686 60.8996 18.4318 61.3239 18.7727C61.7519 19.1136 62.1061 19.5189 62.3864 19.9886C62.6667 20.4545 62.8561 20.9716 62.9545 21.5398H61.1534ZM65.6733 29.5V20.7727H67.3722V29.5H65.6733ZM66.5312 19.4261C66.2358 19.4261 65.982 19.3277 65.7699 19.1307C65.5616 18.9299 65.4574 18.6913 65.4574 18.4148C65.4574 18.1345 65.5616 17.8958 65.7699 17.6989C65.982 17.4981 66.2358 17.3977 66.5312 17.3977C66.8267 17.3977 67.0786 17.4981 67.2869 17.6989C67.4991 17.8958 67.6051 18.1345 67.6051 18.4148C67.6051 18.6913 67.4991 18.9299 67.2869 19.1307C67.0786 19.3277 66.8267 19.4261 66.5312 19.4261ZM73.7315 20.7727V22.1364H68.9645V20.7727H73.7315ZM70.2429 18.6818H71.9418V26.9375C71.9418 27.267 71.991 27.5152 72.0895 27.6818C72.188 27.8447 72.3149 27.9564 72.4702 28.017C72.6293 28.0739 72.8016 28.1023 72.9872 28.1023C73.1236 28.1023 73.2429 28.0928 73.3452 28.0739C73.4474 28.0549 73.527 28.0398 73.5838 28.0284L73.8906 29.4318C73.7921 29.4697 73.652 29.5076 73.4702 29.5455C73.2884 29.5871 73.0611 29.6098 72.7884 29.6136C72.3414 29.6212 71.9247 29.5417 71.5384 29.375C71.152 29.2083 70.8395 28.9508 70.6009 28.6023C70.3622 28.2538 70.2429 27.8163 70.2429 27.2898V18.6818ZM75.9347 29.5V17.8636H77.6903V22.9205H83.4915V17.8636H85.2528V29.5H83.4915V24.4261H77.6903V29.5H75.9347ZM93.2017 25.8807V20.7727H94.9062V29.5H93.2358V27.9886H93.1449C92.9441 28.4545 92.6222 28.8428 92.179 29.1534C91.7396 29.4602 91.1922 29.6136 90.5369 29.6136C89.9763 29.6136 89.4801 29.4905 89.0483 29.2443C88.6203 28.9943 88.2831 28.625 88.0369 28.1364C87.7945 27.6477 87.6733 27.0436 87.6733 26.3239V20.7727H89.3722V26.1193C89.3722 26.714 89.5369 27.1875 89.8665 27.5398C90.196 27.892 90.6241 28.0682 91.1506 28.0682C91.4688 28.0682 91.785 27.9886 92.0994 27.8295C92.4176 27.6705 92.6809 27.4299 92.8892 27.108C93.1013 26.786 93.2055 26.3769 93.2017 25.8807ZM97.3253 29.5V17.8636H99.0241V22.1875H99.1264C99.2249 22.0057 99.367 21.7955 99.5526 21.5568C99.7382 21.3182 99.9957 21.1098 100.325 20.9318C100.655 20.75 101.09 20.6591 101.632 20.6591C102.337 20.6591 102.965 20.8371 103.518 21.1932C104.071 21.5492 104.505 22.0625 104.82 22.733C105.138 23.4034 105.297 24.2102 105.297 25.1534C105.297 26.0966 105.14 26.9053 104.825 27.5795C104.511 28.25 104.079 28.767 103.53 29.1307C102.981 29.4905 102.354 29.6705 101.649 29.6705C101.119 29.6705 100.685 29.5814 100.348 29.4034C100.015 29.2254 99.7533 29.017 99.5639 28.7784C99.3745 28.5398 99.2287 28.3277 99.1264 28.142H98.9844V29.5H97.3253ZM98.9901 25.1364C98.9901 25.75 99.0791 26.2879 99.2571 26.75C99.4351 27.2121 99.6927 27.5739 100.03 27.8352C100.367 28.0928 100.78 28.2216 101.268 28.2216C101.776 28.2216 102.2 28.0871 102.541 27.8182C102.882 27.5455 103.14 27.1761 103.314 26.7102C103.492 26.2443 103.581 25.7197 103.581 25.1364C103.581 24.5606 103.494 24.0436 103.32 23.5852C103.149 23.1269 102.892 22.7652 102.547 22.5C102.206 22.2348 101.78 22.1023 101.268 22.1023C100.776 22.1023 100.359 22.2292 100.018 22.483C99.6813 22.7367 99.4257 23.0909 99.2514 23.5455C99.0772 24 98.9901 24.5303 98.9901 25.1364Z" fill="#313131"/>
<path d="M436.006 19.3636L433.193 29.8125H432.273L435.085 19.3636H436.006ZM441.834 23.4205L440.931 23.6761C440.874 23.5256 440.79 23.3793 440.679 23.2372C440.571 23.0923 440.424 22.973 440.236 22.8793C440.049 22.7855 439.809 22.7386 439.516 22.7386C439.115 22.7386 438.782 22.831 438.515 23.0156C438.25 23.1974 438.118 23.429 438.118 23.7102C438.118 23.9602 438.209 24.1577 438.391 24.3026C438.573 24.4474 438.857 24.5682 439.243 24.6648L440.215 24.9034C440.8 25.0455 441.236 25.2628 441.523 25.5554C441.81 25.8452 441.953 26.2187 441.953 26.6761C441.953 27.0511 441.846 27.3864 441.63 27.6818C441.417 27.9773 441.118 28.2102 440.735 28.3807C440.351 28.5511 439.905 28.6364 439.397 28.6364C438.729 28.6364 438.176 28.4915 437.739 28.2017C437.301 27.9119 437.025 27.4886 436.908 26.9318L437.863 26.6932C437.953 27.0455 438.125 27.3097 438.378 27.4858C438.634 27.6619 438.968 27.75 439.38 27.75C439.848 27.75 440.221 27.6506 440.496 27.4517C440.775 27.25 440.914 27.0085 440.914 26.7273C440.914 26.5 440.834 26.3097 440.675 26.1562C440.516 26 440.272 25.8835 439.942 25.8068L438.851 25.5511C438.252 25.4091 437.811 25.1889 437.53 24.8906C437.252 24.5895 437.113 24.2131 437.113 23.7614C437.113 23.392 437.216 23.0653 437.424 22.7812C437.634 22.4972 437.919 22.2741 438.28 22.1122C438.644 21.9503 439.056 21.8693 439.516 21.8693C440.164 21.8693 440.672 22.0114 441.042 22.2955C441.414 22.5795 441.678 22.9545 441.834 23.4205ZM445.393 28.6534C444.979 28.6534 444.602 28.5753 444.264 28.419C443.926 28.2599 443.658 28.0312 443.459 27.733C443.26 27.4318 443.161 27.0682 443.161 26.642C443.161 26.267 443.234 25.9631 443.382 25.7301C443.53 25.4943 443.727 25.3097 443.974 25.1761C444.222 25.0426 444.494 24.9432 444.793 24.8778C445.094 24.8097 445.396 24.7557 445.7 24.7159C446.098 24.6648 446.42 24.6264 446.668 24.6009C446.918 24.5724 447.099 24.5256 447.213 24.4602C447.33 24.3949 447.388 24.2812 447.388 24.1193V24.0852C447.388 23.6648 447.273 23.3381 447.043 23.1051C446.815 22.8722 446.47 22.7557 446.007 22.7557C445.527 22.7557 445.151 22.8608 444.878 23.071C444.605 23.2812 444.413 23.5057 444.303 23.7443L443.348 23.4034C443.518 23.0057 443.746 22.696 444.03 22.4744C444.317 22.25 444.629 22.0937 444.967 22.0057C445.308 21.9148 445.643 21.8693 445.973 21.8693C446.183 21.8693 446.425 21.8949 446.697 21.946C446.973 21.9943 447.239 22.0952 447.494 22.2486C447.753 22.402 447.967 22.6335 448.138 22.9432C448.308 23.2528 448.393 23.6676 448.393 24.1875V28.5H447.388V27.6136H447.337C447.268 27.7557 447.155 27.9077 446.996 28.0696C446.837 28.2315 446.625 28.3693 446.361 28.483C446.097 28.5966 445.774 28.6534 445.393 28.6534ZM445.547 27.75C445.945 27.75 446.28 27.6719 446.553 27.5156C446.828 27.3594 447.036 27.1577 447.175 26.9105C447.317 26.6634 447.388 26.4034 447.388 26.1307V25.2102C447.345 25.2614 447.251 25.3082 447.107 25.3509C446.964 25.3906 446.8 25.4261 446.612 25.4574C446.428 25.4858 446.247 25.5114 446.071 25.5341C445.898 25.554 445.757 25.571 445.649 25.5852C445.388 25.6193 445.143 25.6747 444.916 25.7514C444.692 25.8253 444.51 25.9375 444.371 26.0881C444.234 26.2358 444.166 26.4375 444.166 26.6932C444.166 27.0426 444.295 27.3068 444.554 27.4858C444.815 27.6619 445.146 27.75 445.547 27.75ZM450.365 28.5V19.7727H451.371V22.9943H451.456C451.53 22.8807 451.632 22.7358 451.763 22.5597C451.897 22.3807 452.087 22.2216 452.334 22.0824C452.584 21.9403 452.922 21.8693 453.348 21.8693C453.9 21.8693 454.385 22.0071 454.806 22.2827C455.226 22.5582 455.554 22.9489 455.79 23.4545C456.026 23.9602 456.144 24.5568 456.144 25.2443C456.144 25.9375 456.026 26.5384 455.79 27.0469C455.554 27.5526 455.228 27.9446 454.81 28.223C454.392 28.4986 453.911 28.6364 453.365 28.6364C452.945 28.6364 452.608 28.5668 452.355 28.4276C452.103 28.2855 451.908 28.125 451.772 27.946C451.635 27.7642 451.53 27.6136 451.456 27.4943H451.337V28.5H450.365ZM451.354 25.2273C451.354 25.7216 451.426 26.1577 451.571 26.5355C451.716 26.9105 451.928 27.2045 452.206 27.4176C452.485 27.6278 452.826 27.733 453.229 27.733C453.65 27.733 454 27.6222 454.282 27.4006C454.566 27.1761 454.779 26.875 454.921 26.4972C455.066 26.1165 455.138 25.6932 455.138 25.2273C455.138 24.767 455.067 24.3523 454.925 23.983C454.786 23.6108 454.574 23.3168 454.29 23.1009C454.009 22.8821 453.655 22.7727 453.229 22.7727C452.82 22.7727 452.476 22.8764 452.198 23.0838C451.919 23.2884 451.709 23.5753 451.567 23.9446C451.425 24.3111 451.354 24.7386 451.354 25.2273ZM458.096 30.9545C457.925 30.9545 457.773 30.9403 457.64 30.9119C457.506 30.8864 457.414 30.8608 457.363 30.8352L457.618 29.9489C457.863 30.0114 458.078 30.0341 458.266 30.017C458.453 30 458.62 29.9162 458.765 29.7656C458.912 29.6179 459.047 29.3778 459.169 29.0455L459.357 28.5341L456.936 21.9545H458.027L459.834 27.1705H459.902L461.709 21.9545H462.8L460.022 29.4545C459.897 29.7926 459.742 30.0724 459.557 30.294C459.373 30.5185 459.158 30.6847 458.914 30.7926C458.672 30.9006 458.4 30.9545 458.096 30.9545ZM464.127 28.5V21.9545H465.099V22.9432H465.167C465.287 22.6193 465.502 22.3565 465.815 22.1548C466.127 21.9531 466.48 21.8523 466.872 21.8523C466.946 21.8523 467.038 21.8537 467.149 21.8565C467.26 21.8594 467.343 21.8636 467.4 21.8693V22.892C467.366 22.8835 467.288 22.8707 467.166 22.8537C467.047 22.8338 466.92 22.8239 466.787 22.8239C466.468 22.8239 466.184 22.8906 465.934 23.0241C465.687 23.1548 465.491 23.3366 465.346 23.5696C465.204 23.7997 465.133 24.0625 465.133 24.358V28.5H464.127ZM469.53 26.1136L469.513 24.8693H469.717L472.581 21.9545H473.825L470.774 25.0398H470.689L469.53 26.1136ZM468.592 28.5V19.7727H469.598V28.5H468.592ZM472.751 28.5L470.195 25.2614L470.911 24.5625L474.03 28.5H472.751ZM477.046 28.6534C476.631 28.6534 476.255 28.5753 475.917 28.419C475.578 28.2599 475.31 28.0312 475.111 27.733C474.912 27.4318 474.813 27.0682 474.813 26.642C474.813 26.267 474.887 25.9631 475.034 25.7301C475.182 25.4943 475.38 25.3097 475.627 25.1761C475.874 25.0426 476.147 24.9432 476.445 24.8778C476.746 24.8097 477.049 24.7557 477.353 24.7159C477.75 24.6648 478.073 24.6264 478.32 24.6009C478.57 24.5724 478.752 24.5256 478.865 24.4602C478.982 24.3949 479.04 24.2812 479.04 24.1193V24.0852C479.04 23.6648 478.925 23.3381 478.695 23.1051C478.468 22.8722 478.123 22.7557 477.659 22.7557C477.179 22.7557 476.803 22.8608 476.53 23.071C476.257 23.2812 476.066 23.5057 475.955 23.7443L475 23.4034C475.171 23.0057 475.398 22.696 475.682 22.4744C475.969 22.25 476.282 22.0937 476.62 22.0057C476.961 21.9148 477.296 21.8693 477.625 21.8693C477.836 21.8693 478.077 21.8949 478.35 21.946C478.625 21.9943 478.891 22.0952 479.147 22.2486C479.405 22.402 479.62 22.6335 479.79 22.9432C479.961 23.2528 480.046 23.6676 480.046 24.1875V28.5H479.04V27.6136H478.989C478.921 27.7557 478.807 27.9077 478.648 28.0696C478.489 28.2315 478.277 28.3693 478.013 28.483C477.749 28.5966 477.426 28.6534 477.046 28.6534ZM477.199 27.75C477.597 27.75 477.932 27.6719 478.205 27.5156C478.48 27.3594 478.688 27.1577 478.827 26.9105C478.969 26.6634 479.04 26.4034 479.04 26.1307V25.2102C478.998 25.2614 478.904 25.3082 478.759 25.3509C478.617 25.3906 478.452 25.4261 478.265 25.4574C478.08 25.4858 477.9 25.5114 477.723 25.5341C477.55 25.554 477.409 25.571 477.301 25.5852C477.04 25.6193 476.796 25.6747 476.569 25.7514C476.344 25.8253 476.162 25.9375 476.023 26.0881C475.887 26.2358 475.819 26.4375 475.819 26.6932C475.819 27.0426 475.948 27.3068 476.206 27.4858C476.468 27.6619 476.799 27.75 477.199 27.75ZM481.694 28.5V27.733L485.41 22.9602V22.892H481.813V21.9545H486.705V22.7557L483.092 27.4943V27.5625H486.825V28.5H481.694ZM490.93 28.6364C490.3 28.6364 489.756 28.4972 489.298 28.2188C488.844 27.9375 488.493 27.5455 488.246 27.0426C488.001 26.5369 487.879 25.9489 487.879 25.2784C487.879 24.608 488.001 24.017 488.246 23.5057C488.493 22.9915 488.837 22.5909 489.277 22.304C489.72 22.0142 490.237 21.8693 490.828 21.8693C491.169 21.8693 491.506 21.9261 491.838 22.0398C492.17 22.1534 492.473 22.3381 492.746 22.5938C493.018 22.8466 493.236 23.1818 493.398 23.5994C493.56 24.017 493.641 24.5312 493.641 25.142V25.5682H488.595V24.6989H492.618C492.618 24.3295 492.544 24 492.396 23.7102C492.251 23.4205 492.044 23.1918 491.774 23.0241C491.507 22.8565 491.192 22.7727 490.828 22.7727C490.428 22.7727 490.081 22.8722 489.788 23.071C489.499 23.267 489.276 23.5227 489.119 23.8381C488.963 24.1534 488.885 24.4915 488.885 24.8523V25.4318C488.885 25.9261 488.97 26.3452 489.141 26.6889C489.314 27.0298 489.554 27.2898 489.861 27.4688C490.168 27.6449 490.524 27.733 490.93 27.733C491.195 27.733 491.433 27.696 491.646 27.6222C491.862 27.5455 492.048 27.4318 492.205 27.2812C492.361 27.1278 492.482 26.9375 492.567 26.7102L493.538 26.983C493.436 27.3125 493.264 27.6023 493.023 27.8523C492.781 28.0994 492.483 28.2926 492.128 28.4318C491.773 28.5682 491.374 28.6364 490.93 28.6364ZM496.176 24.5625V28.5H495.17V21.9545H496.142V22.9773H496.227C496.381 22.6449 496.614 22.3778 496.926 22.1761C497.239 21.9716 497.642 21.8693 498.136 21.8693C498.58 21.8693 498.967 21.9602 499.3 22.142C499.632 22.321 499.891 22.5938 500.075 22.9602C500.26 23.3239 500.352 23.7841 500.352 24.3409V28.5H499.347V24.4091C499.347 23.8949 499.213 23.4943 498.946 23.2074C498.679 22.9176 498.313 22.7727 497.847 22.7727C497.526 22.7727 497.239 22.8423 496.986 22.9815C496.736 23.1207 496.538 23.3239 496.393 23.5909C496.249 23.858 496.176 24.1818 496.176 24.5625Z" fill="#888888"/>
<defs>
<linearGradient id="paint0_linear_10_876" x1="831.357" y1="-34.2857" x2="780.375" y2="380.512" gradientUnits="userSpaceOnUse">
<stop offset="0.11827" stop-color="#333333" stop-opacity="0"/>
<stop offset="0.767584" stop-color="#666666" stop-opacity="0.76"/>
</linearGradient>
<clipPath id="clip0_10_876">
<rect width="36" height="36" fill="white" transform="translate(6 6)"/>
</clipPath>
</defs>
</svg>
