<svg width="260" height="48" viewBox="0 0 260 48" fill="none" xmlns="http://www.w3.org/2000/svg">
<rect x="0.5" y="0.5" width="259" height="47" rx="23.5" stroke="url(#paint0_linear_18_987)"/>
<g clip-path="url(#clip0_18_987)">
<path d="M23.7133 6.72007H23.8473C27.0757 6.72007 30.0969 7.60279 32.6845 9.13927L32.6053 9.09463C35.2996 10.67 37.4812 12.8516 39.0119 15.4623L39.0565 15.5458C40.5541 18.0932 41.4383 21.1561 41.4383 24.4249C41.4383 32.2095 36.4228 38.8249 29.4474 41.2124L29.3221 41.2498C29.2314 41.2786 29.1277 41.2945 29.0212 41.2945C28.7879 41.2945 28.5719 41.2167 28.3977 41.0871L28.4005 41.0885C28.2162 40.9229 28.101 40.6839 28.101 40.4175C28.101 40.4103 28.101 40.4031 28.101 40.3973V40.3988C28.101 40.3527 28.1049 39.7642 28.1125 38.6333C28.1202 37.5025 28.1241 36.4685 28.1241 35.5316C28.1341 35.4236 28.1399 35.2997 28.1399 35.173C28.1399 34.0325 27.6748 33.0015 26.9245 32.257C27.8145 32.1692 28.618 32.0223 29.3985 31.8178L29.289 31.8423C30.1141 31.6119 30.8341 31.3052 31.5023 30.9178L31.4577 30.9423C32.1892 30.5391 32.8084 30.0265 33.3181 29.4188L33.3268 29.4087C33.8625 28.7233 34.2815 27.9169 34.5364 27.0399L34.5493 26.9895C34.8503 26.006 35.0231 24.8756 35.0231 23.7049C35.0231 23.6401 35.0231 23.5738 35.0217 23.509V23.5191C35.0217 23.4874 35.0231 23.4514 35.0231 23.4154C35.0231 21.6183 34.329 19.9839 33.1957 18.7642L33.2001 18.7685C33.442 18.1349 33.5817 17.4034 33.5817 16.6388C33.5817 15.7042 33.3729 14.8201 32.9999 14.0266L33.0157 14.0641C32.8501 14.0324 32.6615 14.0137 32.4671 14.0137C31.9861 14.0137 31.5325 14.126 31.1293 14.3247L31.1466 14.3175C30.3287 14.6199 29.6289 14.9626 28.9693 15.3629L29.0241 15.3313L28.1471 15.8842C26.8194 15.5041 25.2945 15.2852 23.7191 15.2852C22.1437 15.2852 20.6188 15.5041 19.173 15.913L19.2897 15.8842C19.0439 15.7153 18.717 15.5074 18.309 15.2607C17.7719 14.9525 17.1369 14.6545 16.4773 14.4039L16.3823 14.3722C15.9604 14.1505 15.4607 14.0209 14.9293 14.0209C14.7508 14.0209 14.5751 14.0353 14.4052 14.0641L14.4239 14.0612C14.0668 14.8157 13.858 15.7013 13.858 16.6359C13.858 17.4005 13.9977 18.1335 14.254 18.8089L14.2396 18.7671C13.1092 19.9825 12.4165 21.6169 12.4165 23.414C12.4165 23.45 12.4165 23.4874 12.418 23.5234V23.5177C12.4165 23.5738 12.4165 23.6386 12.4165 23.7049C12.4165 24.8698 12.5893 25.9959 12.9119 27.0557L12.8903 26.9737C13.1625 27.8996 13.5757 28.7045 14.1143 29.4116L14.1013 29.3929C14.6111 30.0193 15.2274 30.5348 15.9258 30.9221L15.9575 30.938C16.5796 31.3009 17.301 31.6076 18.0599 31.8221L18.1261 31.838C18.7972 32.018 19.6007 32.1649 20.4229 32.2469L20.4892 32.2527C19.8685 32.869 19.4553 33.6927 19.3602 34.6114L19.3588 34.6287C19.0607 34.7741 18.7137 34.8922 18.3522 34.9685L18.322 34.9743C17.9533 35.0477 17.5314 35.0895 17.098 35.0895C17.0663 35.0895 17.0346 35.0895 17.0029 35.0895H17.0073C16.4399 35.078 15.9186 34.8937 15.4881 34.5884L15.4967 34.5941C14.9625 34.2212 14.5305 33.7373 14.2281 33.1743L14.218 33.1527C13.9329 32.6689 13.557 32.2685 13.1121 31.9618L13.0991 31.9532C12.7751 31.7098 12.3935 31.5197 11.9817 31.406L11.9586 31.4002L11.4978 31.3311C11.4647 31.3282 11.4258 31.3268 11.3869 31.3268C11.1853 31.3268 10.9938 31.3671 10.8196 31.4377L10.8297 31.4333C10.7068 31.5025 10.6684 31.5908 10.7145 31.6983C10.7706 31.8221 10.8397 31.9287 10.9233 32.0223L10.9218 32.0209C11.0097 32.1245 11.109 32.2153 11.217 32.2945L11.2213 32.2973L11.3826 32.4125C11.7901 32.6257 12.1257 32.9223 12.3805 33.2809L12.3863 33.2895C12.6613 33.6308 12.9033 34.0167 13.0977 34.43L13.1121 34.4645L13.3425 34.9945C13.5369 35.5733 13.8897 36.0572 14.3505 36.4071L14.3577 36.4129C14.7897 36.7498 15.3109 36.9917 15.8797 37.1012L15.9028 37.1041C16.378 37.1962 16.9309 37.2538 17.4954 37.2653H17.5055C17.5703 37.2682 17.6452 37.2682 17.7215 37.2682C18.0973 37.2682 18.466 37.238 18.826 37.1789L18.7871 37.1847L19.317 37.0925C19.317 37.6772 19.3209 38.3578 19.3285 39.1345C19.3362 39.9111 19.3401 40.3301 19.3401 40.3916V40.4117C19.3401 40.6781 19.2249 40.9172 19.0405 41.0828C18.8692 41.2109 18.6532 41.2887 18.4185 41.2887C18.3105 41.2887 18.2068 41.2729 18.1103 41.2426L18.1175 41.2441C11.0197 38.8119 6.00854 32.1965 6.00854 24.4105C6.00854 21.1445 6.88982 18.0845 8.42918 15.4551L8.3831 15.5386C9.95846 12.8444 12.1401 10.6628 14.7508 9.13207L14.8343 9.08743C17.3385 7.59847 20.3567 6.71863 23.5794 6.71863H23.7205H23.7133V6.72007ZM12.7117 32.1591C12.7578 32.0516 12.7041 31.9594 12.5505 31.8826C12.3969 31.8365 12.297 31.8519 12.2509 31.9287C12.2049 32.0362 12.2586 32.1284 12.4122 32.2052C12.5505 32.2973 12.6503 32.282 12.7117 32.1591ZM13.4274 32.9439C13.5349 32.8671 13.5196 32.7442 13.3813 32.5753C13.2277 32.437 13.1049 32.414 13.0127 32.5061C12.9052 32.5829 12.9205 32.7058 13.0588 32.8748C13.2114 33.0255 13.3343 33.0481 13.4274 32.9425V32.9439ZM14.1186 33.9807C14.2569 33.8732 14.2569 33.7273 14.1186 33.5429C13.9957 33.3433 13.8652 33.2972 13.7269 33.4047C13.5887 33.4815 13.5887 33.6197 13.7269 33.8194C13.8652 34.0191 13.9957 34.0729 14.1186 33.9807ZM15.0863 34.9498C15.2092 34.8269 15.1785 34.681 14.9941 34.5121C14.8098 34.3277 14.6562 34.3047 14.5333 34.4429C14.3951 34.5658 14.4258 34.7117 14.6255 34.8807C14.8098 35.065 14.9634 35.0861 15.0863 34.9441V34.9498ZM16.401 35.5258C16.4471 35.3569 16.3473 35.234 16.1015 35.1572C15.8711 35.0957 15.7252 35.1495 15.6637 35.3185C15.6023 35.4874 15.7021 35.6026 15.9633 35.6641C16.1937 35.7572 16.3396 35.7111 16.401 35.5258ZM17.854 35.641C17.854 35.4413 17.7234 35.3569 17.4623 35.3876C17.2165 35.3876 17.0937 35.4721 17.0937 35.641C17.0937 35.8407 17.2242 35.9252 17.4853 35.8945C17.7311 35.8954 17.854 35.81 17.854 35.641ZM19.1917 35.4106C19.161 35.2417 19.0228 35.1725 18.777 35.2033C18.5313 35.2493 18.4237 35.3645 18.4545 35.5489C18.4852 35.7332 18.6234 35.7946 18.8692 35.7332C19.1149 35.6717 19.2215 35.5642 19.1917 35.4106Z" fill="black"/>
</g>
<path d="M61.1534 21.5398C61.0436 21.1951 60.8958 20.8864 60.7102 20.6136C60.5284 20.3371 60.3106 20.1023 60.0568 19.9091C59.803 19.7121 59.5133 19.5625 59.1875 19.4602C58.8655 19.358 58.5114 19.3068 58.125 19.3068C57.4697 19.3068 56.8788 19.4754 56.3523 19.8125C55.8258 20.1496 55.4091 20.6439 55.1023 21.2955C54.7992 21.9432 54.6477 22.7367 54.6477 23.6761C54.6477 24.6193 54.8011 25.4167 55.108 26.0682C55.4148 26.7197 55.8352 27.214 56.3693 27.5511C56.9034 27.8883 57.5114 28.0568 58.1932 28.0568C58.8258 28.0568 59.3769 27.928 59.8466 27.6705C60.3201 27.4129 60.6856 27.0492 60.9432 26.5795C61.2045 26.1061 61.3352 25.5492 61.3352 24.9091L61.7898 24.9943H58.4602V23.5455H63.0341V24.8693C63.0341 25.8466 62.8258 26.6951 62.4091 27.4148C61.9962 28.1307 61.4242 28.6837 60.6932 29.0739C59.9659 29.464 59.1326 29.6591 58.1932 29.6591C57.1402 29.6591 56.2159 29.4167 55.4205 28.9318C54.6288 28.447 54.0114 27.7595 53.5682 26.8693C53.125 25.9754 52.9034 24.9148 52.9034 23.6875C52.9034 22.7595 53.0322 21.9261 53.2898 21.1875C53.5473 20.4489 53.9091 19.822 54.375 19.3068C54.8447 18.7879 55.3958 18.392 56.0284 18.1193C56.6648 17.8428 57.3598 17.7045 58.1136 17.7045C58.7424 17.7045 59.3277 17.7973 59.8693 17.983C60.4148 18.1686 60.8996 18.4318 61.3239 18.7727C61.7519 19.1136 62.1061 19.5189 62.3864 19.9886C62.6667 20.4545 62.8561 20.9716 62.9545 21.5398H61.1534ZM65.6733 29.5V20.7727H67.3722V29.5H65.6733ZM66.5312 19.4261C66.2358 19.4261 65.982 19.3277 65.7699 19.1307C65.5616 18.9299 65.4574 18.6913 65.4574 18.4148C65.4574 18.1345 65.5616 17.8958 65.7699 17.6989C65.982 17.4981 66.2358 17.3977 66.5312 17.3977C66.8267 17.3977 67.0786 17.4981 67.2869 17.6989C67.4991 17.8958 67.6051 18.1345 67.6051 18.4148C67.6051 18.6913 67.4991 18.9299 67.2869 19.1307C67.0786 19.3277 66.8267 19.4261 66.5312 19.4261ZM73.7315 20.7727V22.1364H68.9645V20.7727H73.7315ZM70.2429 18.6818H71.9418V26.9375C71.9418 27.267 71.991 27.5152 72.0895 27.6818C72.188 27.8447 72.3149 27.9564 72.4702 28.017C72.6293 28.0739 72.8016 28.1023 72.9872 28.1023C73.1236 28.1023 73.2429 28.0928 73.3452 28.0739C73.4474 28.0549 73.527 28.0398 73.5838 28.0284L73.8906 29.4318C73.7921 29.4697 73.652 29.5076 73.4702 29.5455C73.2884 29.5871 73.0611 29.6098 72.7884 29.6136C72.3414 29.6212 71.9247 29.5417 71.5384 29.375C71.152 29.2083 70.8395 28.9508 70.6009 28.6023C70.3622 28.2538 70.2429 27.8163 70.2429 27.2898V18.6818ZM75.9347 29.5V17.8636H77.6903V22.9205H83.4915V17.8636H85.2528V29.5H83.4915V24.4261H77.6903V29.5H75.9347ZM93.2017 25.8807V20.7727H94.9062V29.5H93.2358V27.9886H93.1449C92.9441 28.4545 92.6222 28.8428 92.179 29.1534C91.7396 29.4602 91.1922 29.6136 90.5369 29.6136C89.9763 29.6136 89.4801 29.4905 89.0483 29.2443C88.6203 28.9943 88.2831 28.625 88.0369 28.1364C87.7945 27.6477 87.6733 27.0436 87.6733 26.3239V20.7727H89.3722V26.1193C89.3722 26.714 89.5369 27.1875 89.8665 27.5398C90.196 27.892 90.6241 28.0682 91.1506 28.0682C91.4688 28.0682 91.785 27.9886 92.0994 27.8295C92.4176 27.6705 92.6809 27.4299 92.8892 27.108C93.1013 26.786 93.2055 26.3769 93.2017 25.8807ZM97.3253 29.5V17.8636H99.0241V22.1875H99.1264C99.2249 22.0057 99.367 21.7955 99.5526 21.5568C99.7382 21.3182 99.9957 21.1098 100.325 20.9318C100.655 20.75 101.09 20.6591 101.632 20.6591C102.337 20.6591 102.965 20.8371 103.518 21.1932C104.071 21.5492 104.505 22.0625 104.82 22.733C105.138 23.4034 105.297 24.2102 105.297 25.1534C105.297 26.0966 105.14 26.9053 104.825 27.5795C104.511 28.25 104.079 28.767 103.53 29.1307C102.981 29.4905 102.354 29.6705 101.649 29.6705C101.119 29.6705 100.685 29.5814 100.348 29.4034C100.015 29.2254 99.7533 29.017 99.5639 28.7784C99.3745 28.5398 99.2287 28.3277 99.1264 28.142H98.9844V29.5H97.3253ZM98.9901 25.1364C98.9901 25.75 99.0791 26.2879 99.2571 26.75C99.4351 27.2121 99.6927 27.5739 100.03 27.8352C100.367 28.0928 100.78 28.2216 101.268 28.2216C101.776 28.2216 102.2 28.0871 102.541 27.8182C102.882 27.5455 103.14 27.1761 103.314 26.7102C103.492 26.2443 103.581 25.7197 103.581 25.1364C103.581 24.5606 103.494 24.0436 103.32 23.5852C103.149 23.1269 102.892 22.7652 102.547 22.5C102.206 22.2348 101.78 22.1023 101.268 22.1023C100.776 22.1023 100.359 22.2292 100.018 22.483C99.6813 22.7367 99.4257 23.0909 99.2514 23.5455C99.0772 24 98.9901 24.5303 98.9901 25.1364Z" fill="#313131"/>
<path d="M181.006 19.3636L178.193 29.8125H177.273L180.085 19.3636H181.006ZM186.834 23.4205L185.931 23.6761C185.874 23.5256 185.79 23.3793 185.679 23.2372C185.571 23.0923 185.424 22.973 185.236 22.8793C185.049 22.7855 184.809 22.7386 184.516 22.7386C184.115 22.7386 183.782 22.831 183.515 23.0156C183.25 23.1974 183.118 23.429 183.118 23.7102C183.118 23.9602 183.209 24.1577 183.391 24.3026C183.573 24.4474 183.857 24.5682 184.243 24.6648L185.215 24.9034C185.8 25.0455 186.236 25.2628 186.523 25.5554C186.81 25.8452 186.953 26.2187 186.953 26.6761C186.953 27.0511 186.846 27.3864 186.63 27.6818C186.417 27.9773 186.118 28.2102 185.735 28.3807C185.351 28.5511 184.905 28.6364 184.397 28.6364C183.729 28.6364 183.176 28.4915 182.739 28.2017C182.301 27.9119 182.025 27.4886 181.908 26.9318L182.863 26.6932C182.953 27.0455 183.125 27.3097 183.378 27.4858C183.634 27.6619 183.968 27.75 184.38 27.75C184.848 27.75 185.221 27.6506 185.496 27.4517C185.775 27.25 185.914 27.0085 185.914 26.7273C185.914 26.5 185.834 26.3097 185.675 26.1562C185.516 26 185.272 25.8835 184.942 25.8068L183.851 25.5511C183.252 25.4091 182.811 25.1889 182.53 24.8906C182.252 24.5895 182.113 24.2131 182.113 23.7614C182.113 23.392 182.216 23.0653 182.424 22.7812C182.634 22.4972 182.919 22.2741 183.28 22.1122C183.644 21.9503 184.056 21.8693 184.516 21.8693C185.164 21.8693 185.672 22.0114 186.042 22.2955C186.414 22.5795 186.678 22.9545 186.834 23.4205ZM190.393 28.6534C189.979 28.6534 189.602 28.5753 189.264 28.419C188.926 28.2599 188.658 28.0312 188.459 27.733C188.26 27.4318 188.161 27.0682 188.161 26.642C188.161 26.267 188.234 25.9631 188.382 25.7301C188.53 25.4943 188.727 25.3097 188.974 25.1761C189.222 25.0426 189.494 24.9432 189.793 24.8778C190.094 24.8097 190.396 24.7557 190.7 24.7159C191.098 24.6648 191.42 24.6264 191.668 24.6009C191.918 24.5724 192.099 24.5256 192.213 24.4602C192.33 24.3949 192.388 24.2812 192.388 24.1193V24.0852C192.388 23.6648 192.273 23.3381 192.043 23.1051C191.815 22.8722 191.47 22.7557 191.007 22.7557C190.527 22.7557 190.151 22.8608 189.878 23.071C189.605 23.2812 189.413 23.5057 189.303 23.7443L188.348 23.4034C188.518 23.0057 188.746 22.696 189.03 22.4744C189.317 22.25 189.629 22.0937 189.967 22.0057C190.308 21.9148 190.643 21.8693 190.973 21.8693C191.183 21.8693 191.425 21.8949 191.697 21.946C191.973 21.9943 192.239 22.0952 192.494 22.2486C192.753 22.402 192.967 22.6335 193.138 22.9432C193.308 23.2528 193.393 23.6676 193.393 24.1875V28.5H192.388V27.6136H192.337C192.268 27.7557 192.155 27.9077 191.996 28.0696C191.837 28.2315 191.625 28.3693 191.361 28.483C191.097 28.5966 190.774 28.6534 190.393 28.6534ZM190.547 27.75C190.945 27.75 191.28 27.6719 191.553 27.5156C191.828 27.3594 192.036 27.1577 192.175 26.9105C192.317 26.6634 192.388 26.4034 192.388 26.1307V25.2102C192.345 25.2614 192.251 25.3082 192.107 25.3509C191.964 25.3906 191.8 25.4261 191.612 25.4574C191.428 25.4858 191.247 25.5114 191.071 25.5341C190.898 25.554 190.757 25.571 190.649 25.5852C190.388 25.6193 190.143 25.6747 189.916 25.7514C189.692 25.8253 189.51 25.9375 189.371 26.0881C189.234 26.2358 189.166 26.4375 189.166 26.6932C189.166 27.0426 189.295 27.3068 189.554 27.4858C189.815 27.6619 190.146 27.75 190.547 27.75ZM195.365 28.5V19.7727H196.371V22.9943H196.456C196.53 22.8807 196.632 22.7358 196.763 22.5597C196.897 22.3807 197.087 22.2216 197.334 22.0824C197.584 21.9403 197.922 21.8693 198.348 21.8693C198.9 21.8693 199.385 22.0071 199.806 22.2827C200.226 22.5582 200.554 22.9489 200.79 23.4545C201.026 23.9602 201.144 24.5568 201.144 25.2443C201.144 25.9375 201.026 26.5384 200.79 27.0469C200.554 27.5526 200.228 27.9446 199.81 28.223C199.392 28.4986 198.911 28.6364 198.365 28.6364C197.945 28.6364 197.608 28.5668 197.355 28.4276C197.103 28.2855 196.908 28.125 196.772 27.946C196.635 27.7642 196.53 27.6136 196.456 27.4943H196.337V28.5H195.365ZM196.354 25.2273C196.354 25.7216 196.426 26.1577 196.571 26.5355C196.716 26.9105 196.928 27.2045 197.206 27.4176C197.485 27.6278 197.826 27.733 198.229 27.733C198.65 27.733 199 27.6222 199.282 27.4006C199.566 27.1761 199.779 26.875 199.921 26.4972C200.066 26.1165 200.138 25.6932 200.138 25.2273C200.138 24.767 200.067 24.3523 199.925 23.983C199.786 23.6108 199.574 23.3168 199.29 23.1009C199.009 22.8821 198.655 22.7727 198.229 22.7727C197.82 22.7727 197.476 22.8764 197.198 23.0838C196.919 23.2884 196.709 23.5753 196.567 23.9446C196.425 24.3111 196.354 24.7386 196.354 25.2273ZM203.096 30.9545C202.925 30.9545 202.773 30.9403 202.64 30.9119C202.506 30.8864 202.414 30.8608 202.363 30.8352L202.618 29.9489C202.863 30.0114 203.078 30.0341 203.266 30.017C203.453 30 203.62 29.9162 203.765 29.7656C203.912 29.6179 204.047 29.3778 204.169 29.0455L204.357 28.5341L201.936 21.9545H203.027L204.834 27.1705H204.902L206.709 21.9545H207.8L205.022 29.4545C204.897 29.7926 204.742 30.0724 204.557 30.294C204.373 30.5185 204.158 30.6847 203.914 30.7926C203.672 30.9006 203.4 30.9545 203.096 30.9545ZM209.127 28.5V21.9545H210.099V22.9432H210.167C210.287 22.6193 210.502 22.3565 210.815 22.1548C211.127 21.9531 211.48 21.8523 211.872 21.8523C211.946 21.8523 212.038 21.8537 212.149 21.8565C212.26 21.8594 212.343 21.8636 212.4 21.8693V22.892C212.366 22.8835 212.288 22.8707 212.166 22.8537C212.047 22.8338 211.92 22.8239 211.787 22.8239C211.468 22.8239 211.184 22.8906 210.934 23.0241C210.687 23.1548 210.491 23.3366 210.346 23.5696C210.204 23.7997 210.133 24.0625 210.133 24.358V28.5H209.127ZM214.53 26.1136L214.513 24.8693H214.717L217.581 21.9545H218.825L215.774 25.0398H215.689L214.53 26.1136ZM213.592 28.5V19.7727H214.598V28.5H213.592ZM217.751 28.5L215.195 25.2614L215.911 24.5625L219.03 28.5H217.751ZM222.046 28.6534C221.631 28.6534 221.255 28.5753 220.917 28.419C220.578 28.2599 220.31 28.0312 220.111 27.733C219.912 27.4318 219.813 27.0682 219.813 26.642C219.813 26.267 219.887 25.9631 220.034 25.7301C220.182 25.4943 220.38 25.3097 220.627 25.1761C220.874 25.0426 221.147 24.9432 221.445 24.8778C221.746 24.8097 222.049 24.7557 222.353 24.7159C222.75 24.6648 223.073 24.6264 223.32 24.6009C223.57 24.5724 223.752 24.5256 223.865 24.4602C223.982 24.3949 224.04 24.2812 224.04 24.1193V24.0852C224.04 23.6648 223.925 23.3381 223.695 23.1051C223.468 22.8722 223.123 22.7557 222.659 22.7557C222.179 22.7557 221.803 22.8608 221.53 23.071C221.257 23.2812 221.066 23.5057 220.955 23.7443L220 23.4034C220.171 23.0057 220.398 22.696 220.682 22.4744C220.969 22.25 221.282 22.0937 221.62 22.0057C221.961 21.9148 222.296 21.8693 222.625 21.8693C222.836 21.8693 223.077 21.8949 223.35 21.946C223.625 21.9943 223.891 22.0952 224.147 22.2486C224.405 22.402 224.62 22.6335 224.79 22.9432C224.961 23.2528 225.046 23.6676 225.046 24.1875V28.5H224.04V27.6136H223.989C223.921 27.7557 223.807 27.9077 223.648 28.0696C223.489 28.2315 223.277 28.3693 223.013 28.483C222.749 28.5966 222.426 28.6534 222.046 28.6534ZM222.199 27.75C222.597 27.75 222.932 27.6719 223.205 27.5156C223.48 27.3594 223.688 27.1577 223.827 26.9105C223.969 26.6634 224.04 26.4034 224.04 26.1307V25.2102C223.998 25.2614 223.904 25.3082 223.759 25.3509C223.617 25.3906 223.452 25.4261 223.265 25.4574C223.08 25.4858 222.9 25.5114 222.723 25.5341C222.55 25.554 222.409 25.571 222.301 25.5852C222.04 25.6193 221.796 25.6747 221.569 25.7514C221.344 25.8253 221.162 25.9375 221.023 26.0881C220.887 26.2358 220.819 26.4375 220.819 26.6932C220.819 27.0426 220.948 27.3068 221.206 27.4858C221.468 27.6619 221.799 27.75 222.199 27.75ZM226.694 28.5V27.733L230.41 22.9602V22.892H226.813V21.9545H231.705V22.7557L228.092 27.4943V27.5625H231.825V28.5H226.694ZM235.93 28.6364C235.3 28.6364 234.756 28.4972 234.298 28.2188C233.844 27.9375 233.493 27.5455 233.246 27.0426C233.001 26.5369 232.879 25.9489 232.879 25.2784C232.879 24.608 233.001 24.017 233.246 23.5057C233.493 22.9915 233.837 22.5909 234.277 22.304C234.72 22.0142 235.237 21.8693 235.828 21.8693C236.169 21.8693 236.506 21.9261 236.838 22.0398C237.17 22.1534 237.473 22.3381 237.746 22.5938C238.018 22.8466 238.236 23.1818 238.398 23.5994C238.56 24.017 238.641 24.5312 238.641 25.142V25.5682H233.595V24.6989H237.618C237.618 24.3295 237.544 24 237.396 23.7102C237.251 23.4205 237.044 23.1918 236.774 23.0241C236.507 22.8565 236.192 22.7727 235.828 22.7727C235.428 22.7727 235.081 22.8722 234.788 23.071C234.499 23.267 234.276 23.5227 234.119 23.8381C233.963 24.1534 233.885 24.4915 233.885 24.8523V25.4318C233.885 25.9261 233.97 26.3452 234.141 26.6889C234.314 27.0298 234.554 27.2898 234.861 27.4688C235.168 27.6449 235.524 27.733 235.93 27.733C236.195 27.733 236.433 27.696 236.646 27.6222C236.862 27.5455 237.048 27.4318 237.205 27.2812C237.361 27.1278 237.482 26.9375 237.567 26.7102L238.538 26.983C238.436 27.3125 238.264 27.6023 238.023 27.8523C237.781 28.0994 237.483 28.2926 237.128 28.4318C236.773 28.5682 236.374 28.6364 235.93 28.6364ZM241.176 24.5625V28.5H240.17V21.9545H241.142V22.9773H241.227C241.381 22.6449 241.614 22.3778 241.926 22.1761C242.239 21.9716 242.642 21.8693 243.136 21.8693C243.58 21.8693 243.967 21.9602 244.3 22.142C244.632 22.321 244.891 22.5938 245.075 22.9602C245.26 23.3239 245.352 23.7841 245.352 24.3409V28.5H244.347V24.4091C244.347 23.8949 244.213 23.4943 243.946 23.2074C243.679 22.9176 243.313 22.7727 242.847 22.7727C242.526 22.7727 242.239 22.8423 241.986 22.9815C241.736 23.1207 241.538 23.3239 241.393 23.5909C241.249 23.858 241.176 24.1818 241.176 24.5625Z" fill="#888888"/>
<defs>
<linearGradient id="paint0_linear_18_987" x1="419.714" y1="-34.2857" x2="322.941" y2="363.219" gradientUnits="userSpaceOnUse">
<stop offset="0.11827" stop-color="#333333" stop-opacity="0"/>
<stop offset="0.767584" stop-color="#666666" stop-opacity="0.76"/>
</linearGradient>
<clipPath id="clip0_18_987">
<rect width="36" height="36" fill="white" transform="translate(6 6)"/>
</clipPath>
</defs>
</svg>
